G04 #@! TF.GenerationSoftware,KiCad,Pcbnew,(5.1.10)-1*
G04 #@! TF.CreationDate,2021-10-04T11:48:13+02:00*
G04 #@! TF.ProjectId,esp32-imu,65737033-322d-4696-9d75-2e6b69636164,v0.1.0*
G04 #@! TF.SameCoordinates,Original*
G04 #@! TF.FileFunction,Copper,L1,Top*
G04 #@! TF.FilePolarity,Positive*
%FSLAX46Y46*%
G04 Gerber Fmt 4.6, Leading zero omitted, Abs format (unit mm)*
G04 Created by KiCad (PCBNEW (5.1.10)-1) date 2021-10-04 11:48:13*
%MOMM*%
%LPD*%
G01*
G04 APERTURE LIST*
G04 #@! TA.AperFunction,NonConductor*
%ADD10C,0.300000*%
G04 #@! TD*
G04 #@! TA.AperFunction,Profile*
%ADD11C,0.050000*%
G04 #@! TD*
G04 #@! TA.AperFunction,ComponentPad*
%ADD12C,1.700000*%
G04 #@! TD*
G04 #@! TA.AperFunction,ComponentPad*
%ADD13O,1.600000X1.600000*%
G04 #@! TD*
G04 #@! TA.AperFunction,ComponentPad*
%ADD14C,1.600000*%
G04 #@! TD*
G04 #@! TA.AperFunction,ComponentPad*
%ADD15O,1.700000X1.700000*%
G04 #@! TD*
G04 #@! TA.AperFunction,ComponentPad*
%ADD16R,1.700000X1.700000*%
G04 #@! TD*
G04 #@! TA.AperFunction,ViaPad*
%ADD17C,0.800000*%
G04 #@! TD*
G04 #@! TA.AperFunction,Conductor*
%ADD18C,0.250000*%
G04 #@! TD*
G04 #@! TA.AperFunction,Conductor*
%ADD19C,0.254000*%
G04 #@! TD*
G04 #@! TA.AperFunction,Conductor*
%ADD20C,0.100000*%
G04 #@! TD*
G04 APERTURE END LIST*
D10*
X173306411Y-109265257D02*
X173806411Y-109265257D01*
X174020697Y-110050971D02*
X173306411Y-110050971D01*
X173306411Y-108550971D01*
X174020697Y-108550971D01*
X174592126Y-109979542D02*
X174806411Y-110050971D01*
X175163554Y-110050971D01*
X175306411Y-109979542D01*
X175377840Y-109908114D01*
X175449269Y-109765257D01*
X175449269Y-109622400D01*
X175377840Y-109479542D01*
X175306411Y-109408114D01*
X175163554Y-109336685D01*
X174877840Y-109265257D01*
X174734983Y-109193828D01*
X174663554Y-109122400D01*
X174592126Y-108979542D01*
X174592126Y-108836685D01*
X174663554Y-108693828D01*
X174734983Y-108622400D01*
X174877840Y-108550971D01*
X175234983Y-108550971D01*
X175449269Y-108622400D01*
X176092126Y-110050971D02*
X176092126Y-108550971D01*
X176663554Y-108550971D01*
X176806411Y-108622400D01*
X176877840Y-108693828D01*
X176949269Y-108836685D01*
X176949269Y-109050971D01*
X176877840Y-109193828D01*
X176806411Y-109265257D01*
X176663554Y-109336685D01*
X176092126Y-109336685D01*
X177449269Y-108550971D02*
X178377840Y-108550971D01*
X177877840Y-109122400D01*
X178092126Y-109122400D01*
X178234983Y-109193828D01*
X178306411Y-109265257D01*
X178377840Y-109408114D01*
X178377840Y-109765257D01*
X178306411Y-109908114D01*
X178234983Y-109979542D01*
X178092126Y-110050971D01*
X177663554Y-110050971D01*
X177520697Y-109979542D01*
X177449269Y-109908114D01*
X178949269Y-108693828D02*
X179020697Y-108622400D01*
X179163554Y-108550971D01*
X179520697Y-108550971D01*
X179663554Y-108622400D01*
X179734983Y-108693828D01*
X179806411Y-108836685D01*
X179806411Y-108979542D01*
X179734983Y-109193828D01*
X178877840Y-110050971D01*
X179806411Y-110050971D01*
X180449269Y-109479542D02*
X181592126Y-109479542D01*
X182306411Y-110050971D02*
X182306411Y-108550971D01*
X183020697Y-110050971D02*
X183020697Y-108550971D01*
X183520697Y-109622400D01*
X184020697Y-108550971D01*
X184020697Y-110050971D01*
X184734983Y-108550971D02*
X184734983Y-109765257D01*
X184806411Y-109908114D01*
X184877840Y-109979542D01*
X185020697Y-110050971D01*
X185306411Y-110050971D01*
X185449269Y-109979542D01*
X185520697Y-109908114D01*
X185592126Y-109765257D01*
X185592126Y-108550971D01*
X187306411Y-109050971D02*
X187663554Y-110050971D01*
X188020697Y-109050971D01*
X188877840Y-108550971D02*
X189020697Y-108550971D01*
X189163554Y-108622400D01*
X189234983Y-108693828D01*
X189306411Y-108836685D01*
X189377840Y-109122400D01*
X189377840Y-109479542D01*
X189306411Y-109765257D01*
X189234983Y-109908114D01*
X189163554Y-109979542D01*
X189020697Y-110050971D01*
X188877840Y-110050971D01*
X188734983Y-109979542D01*
X188663554Y-109908114D01*
X188592126Y-109765257D01*
X188520697Y-109479542D01*
X188520697Y-109122400D01*
X188592126Y-108836685D01*
X188663554Y-108693828D01*
X188734983Y-108622400D01*
X188877840Y-108550971D01*
X190020697Y-109908114D02*
X190092126Y-109979542D01*
X190020697Y-110050971D01*
X189949269Y-109979542D01*
X190020697Y-109908114D01*
X190020697Y-110050971D01*
X191520697Y-110050971D02*
X190663554Y-110050971D01*
X191092126Y-110050971D02*
X191092126Y-108550971D01*
X190949269Y-108765257D01*
X190806411Y-108908114D01*
X190663554Y-108979542D01*
X192163554Y-109908114D02*
X192234983Y-109979542D01*
X192163554Y-110050971D01*
X192092126Y-109979542D01*
X192163554Y-109908114D01*
X192163554Y-110050971D01*
X193163554Y-108550971D02*
X193306411Y-108550971D01*
X193449269Y-108622400D01*
X193520697Y-108693828D01*
X193592126Y-108836685D01*
X193663554Y-109122400D01*
X193663554Y-109479542D01*
X193592126Y-109765257D01*
X193520697Y-109908114D01*
X193449269Y-109979542D01*
X193306411Y-110050971D01*
X193163554Y-110050971D01*
X193020697Y-109979542D01*
X192949269Y-109908114D01*
X192877840Y-109765257D01*
X192806411Y-109479542D01*
X192806411Y-109122400D01*
X192877840Y-108836685D01*
X192949269Y-108693828D01*
X193020697Y-108622400D01*
X193163554Y-108550971D01*
X179449269Y-112933325D02*
X179377840Y-112861897D01*
X179234983Y-112790468D01*
X179092126Y-112790468D01*
X178949269Y-112861897D01*
X178877840Y-112933325D01*
X178806412Y-113076182D01*
X178806412Y-113219040D01*
X178877840Y-113361897D01*
X178949269Y-113433325D01*
X179092126Y-113504754D01*
X179234983Y-113504754D01*
X179377840Y-113433325D01*
X179449269Y-113361897D01*
X179449269Y-112790468D02*
X179449269Y-113361897D01*
X179520697Y-113433325D01*
X179592126Y-113433325D01*
X179734983Y-113361897D01*
X179806412Y-113219040D01*
X179806412Y-112861897D01*
X179663554Y-112647611D01*
X179449269Y-112504754D01*
X179163554Y-112433325D01*
X178877840Y-112504754D01*
X178663554Y-112647611D01*
X178520697Y-112861897D01*
X178449269Y-113147611D01*
X178520697Y-113433325D01*
X178663554Y-113647611D01*
X178877840Y-113790468D01*
X179163554Y-113861897D01*
X179449269Y-113790468D01*
X179663554Y-113647611D01*
X180234983Y-112647611D02*
X180806412Y-112647611D01*
X180449269Y-112147611D02*
X180449269Y-113433325D01*
X180520697Y-113576182D01*
X180663554Y-113647611D01*
X180806412Y-113647611D01*
X181306412Y-113647611D02*
X181306412Y-112147611D01*
X181949269Y-113647611D02*
X181949269Y-112861897D01*
X181877840Y-112719040D01*
X181734983Y-112647611D01*
X181520697Y-112647611D01*
X181377840Y-112719040D01*
X181306412Y-112790468D01*
X183234983Y-113576182D02*
X183092126Y-113647611D01*
X182806412Y-113647611D01*
X182663554Y-113576182D01*
X182592126Y-113433325D01*
X182592126Y-112861897D01*
X182663554Y-112719040D01*
X182806412Y-112647611D01*
X183092126Y-112647611D01*
X183234983Y-112719040D01*
X183306412Y-112861897D01*
X183306412Y-113004754D01*
X182592126Y-113147611D01*
X184592126Y-113647611D02*
X184592126Y-112861897D01*
X184520697Y-112719040D01*
X184377840Y-112647611D01*
X184092126Y-112647611D01*
X183949269Y-112719040D01*
X184592126Y-113576182D02*
X184449269Y-113647611D01*
X184092126Y-113647611D01*
X183949269Y-113576182D01*
X183877840Y-113433325D01*
X183877840Y-113290468D01*
X183949269Y-113147611D01*
X184092126Y-113076182D01*
X184449269Y-113076182D01*
X184592126Y-113004754D01*
X185520697Y-113647611D02*
X185377840Y-113576182D01*
X185306412Y-113433325D01*
X185306412Y-112147611D01*
X186092126Y-113647611D02*
X186092126Y-112147611D01*
X186092126Y-112719040D02*
X186234983Y-112647611D01*
X186520697Y-112647611D01*
X186663554Y-112719040D01*
X186734983Y-112790468D01*
X186806412Y-112933325D01*
X186806412Y-113361897D01*
X186734983Y-113504754D01*
X186663554Y-113576182D01*
X186520697Y-113647611D01*
X186234983Y-113647611D01*
X186092126Y-113576182D01*
X188020697Y-113576182D02*
X187877840Y-113647611D01*
X187592126Y-113647611D01*
X187449269Y-113576182D01*
X187377840Y-113433325D01*
X187377840Y-112861897D01*
X187449269Y-112719040D01*
X187592126Y-112647611D01*
X187877840Y-112647611D01*
X188020697Y-112719040D01*
X188092126Y-112861897D01*
X188092126Y-113004754D01*
X187377840Y-113147611D01*
X188734983Y-113647611D02*
X188734983Y-112647611D01*
X188734983Y-112933325D02*
X188806412Y-112790468D01*
X188877840Y-112719040D01*
X189020697Y-112647611D01*
X189163554Y-112647611D01*
X189449269Y-112647611D02*
X190020697Y-112647611D01*
X189663554Y-112147611D02*
X189663554Y-113433325D01*
X189734983Y-113576182D01*
X189877840Y-113647611D01*
X190020697Y-113647611D01*
X191163554Y-113647611D02*
X191163554Y-112147611D01*
X191163554Y-113576182D02*
X191020697Y-113647611D01*
X190734983Y-113647611D01*
X190592126Y-113576182D01*
X190520697Y-113504754D01*
X190449269Y-113361897D01*
X190449269Y-112933325D01*
X190520697Y-112790468D01*
X190592126Y-112719040D01*
X190734983Y-112647611D01*
X191020697Y-112647611D01*
X191163554Y-112719040D01*
X192449269Y-113576182D02*
X192306412Y-113647611D01*
X192020697Y-113647611D01*
X191877840Y-113576182D01*
X191806412Y-113433325D01*
X191806412Y-112861897D01*
X191877840Y-112719040D01*
X192020697Y-112647611D01*
X192306412Y-112647611D01*
X192449269Y-112719040D01*
X192520697Y-112861897D01*
X192520697Y-113004754D01*
X191806412Y-113147611D01*
X193020697Y-112647611D02*
X193377840Y-113647611D01*
X193734983Y-112647611D01*
D11*
X198212400Y-82289960D02*
X103212400Y-82289960D01*
X198212400Y-117289960D02*
X198212400Y-82289960D01*
X103212400Y-117289960D02*
X198212400Y-117289960D01*
X103212400Y-82289960D02*
X103212400Y-117289960D01*
D10*
X146241508Y-111671480D02*
X145170080Y-111671480D01*
X144955794Y-111600051D01*
X144812937Y-111457194D01*
X144741508Y-111242908D01*
X144741508Y-111100051D01*
X146098651Y-112314337D02*
X146170080Y-112385765D01*
X146241508Y-112528622D01*
X146241508Y-112885765D01*
X146170080Y-113028622D01*
X146098651Y-113100051D01*
X145955794Y-113171480D01*
X145812937Y-113171480D01*
X145598651Y-113100051D01*
X144741508Y-112242908D01*
X144741508Y-113171480D01*
X146470108Y-86413720D02*
X145398680Y-86413720D01*
X145184394Y-86342291D01*
X145041537Y-86199434D01*
X144970108Y-85985148D01*
X144970108Y-85842291D01*
X144970108Y-87913720D02*
X144970108Y-87056577D01*
X144970108Y-87485148D02*
X146470108Y-87485148D01*
X146255822Y-87342291D01*
X146112965Y-87199434D01*
X146041537Y-87056577D01*
X195624188Y-91140422D02*
X194409902Y-91140422D01*
X194267045Y-91211851D01*
X194195617Y-91283280D01*
X194124188Y-91426137D01*
X194124188Y-91711851D01*
X194195617Y-91854708D01*
X194267045Y-91926137D01*
X194409902Y-91997565D01*
X195624188Y-91997565D01*
X194124188Y-93497565D02*
X194124188Y-92640422D01*
X194124188Y-93068994D02*
X195624188Y-93068994D01*
X195409902Y-92926137D01*
X195267045Y-92783280D01*
X195195617Y-92640422D01*
X161190857Y-110551102D02*
X161119428Y-110765388D01*
X161119428Y-111122531D01*
X161190857Y-111265388D01*
X161262285Y-111336817D01*
X161405142Y-111408245D01*
X161548000Y-111408245D01*
X161690857Y-111336817D01*
X161762285Y-111265388D01*
X161833714Y-111122531D01*
X161905142Y-110836817D01*
X161976571Y-110693960D01*
X162048000Y-110622531D01*
X162190857Y-110551102D01*
X162333714Y-110551102D01*
X162476571Y-110622531D01*
X162548000Y-110693960D01*
X162619428Y-110836817D01*
X162619428Y-111193960D01*
X162548000Y-111408245D01*
X162476571Y-111979674D02*
X162548000Y-112051102D01*
X162619428Y-112193960D01*
X162619428Y-112551102D01*
X162548000Y-112693960D01*
X162476571Y-112765388D01*
X162333714Y-112836817D01*
X162190857Y-112836817D01*
X161976571Y-112765388D01*
X161119428Y-111908245D01*
X161119428Y-112836817D01*
X161282297Y-86863062D02*
X161210868Y-87077348D01*
X161210868Y-87434491D01*
X161282297Y-87577348D01*
X161353725Y-87648777D01*
X161496582Y-87720205D01*
X161639440Y-87720205D01*
X161782297Y-87648777D01*
X161853725Y-87577348D01*
X161925154Y-87434491D01*
X161996582Y-87148777D01*
X162068011Y-87005920D01*
X162139440Y-86934491D01*
X162282297Y-86863062D01*
X162425154Y-86863062D01*
X162568011Y-86934491D01*
X162639440Y-87005920D01*
X162710868Y-87148777D01*
X162710868Y-87505920D01*
X162639440Y-87720205D01*
X161210868Y-89148777D02*
X161210868Y-88291634D01*
X161210868Y-88720205D02*
X162710868Y-88720205D01*
X162496582Y-88577348D01*
X162353725Y-88434491D01*
X162282297Y-88291634D01*
D12*
X155077160Y-114797840D03*
X155077160Y-108297840D03*
X159577160Y-114797840D03*
X159577160Y-108297840D03*
X155077160Y-91201240D03*
X155077160Y-84701240D03*
X159577160Y-91201240D03*
X159577160Y-84701240D03*
D13*
X119156480Y-98633280D03*
D14*
X129316480Y-98633280D03*
D13*
X181076600Y-96890840D03*
D14*
X191236600Y-96890840D03*
D13*
X116784120Y-98618040D03*
D14*
X106624120Y-98618040D03*
D13*
X181096920Y-101229160D03*
D14*
X191256920Y-101229160D03*
D13*
X119217440Y-91165680D03*
D14*
X129377440Y-91165680D03*
D13*
X116773960Y-91191080D03*
D14*
X106613960Y-91191080D03*
D15*
X168396920Y-92124400D03*
X170936920Y-92124400D03*
X173476920Y-92124400D03*
X176016920Y-92124400D03*
X178556920Y-92124400D03*
X181096920Y-92124400D03*
X183636920Y-92124400D03*
X186176920Y-92124400D03*
X188716920Y-92124400D03*
D16*
X191256920Y-92124400D03*
D15*
X106640720Y-112324400D03*
X109180720Y-112324400D03*
X111720720Y-112324400D03*
X114260720Y-112324400D03*
X116800720Y-112324400D03*
X119340720Y-112324400D03*
X121880720Y-112324400D03*
X124420720Y-112324400D03*
X126960720Y-112324400D03*
X129500720Y-112324400D03*
X132040720Y-112324400D03*
X134580720Y-112324400D03*
X137120720Y-112324400D03*
X139660720Y-112324400D03*
D16*
X142200720Y-112324400D03*
D15*
X106640720Y-86924400D03*
X109180720Y-86924400D03*
X111720720Y-86924400D03*
X114260720Y-86924400D03*
X116800720Y-86924400D03*
X119340720Y-86924400D03*
X121880720Y-86924400D03*
X124420720Y-86924400D03*
X126960720Y-86924400D03*
X129500720Y-86924400D03*
X132040720Y-86924400D03*
X134580720Y-86924400D03*
X137120720Y-86924400D03*
X139660720Y-86924400D03*
D16*
X142200720Y-86924400D03*
D14*
X187511680Y-87792560D03*
X192511680Y-87792560D03*
X111794280Y-102255320D03*
X116794280Y-102255320D03*
X111794280Y-94945200D03*
X116794280Y-94945200D03*
D17*
X159740600Y-100086160D03*
X136748520Y-103911400D03*
X140741400Y-106588560D03*
X159679640Y-103337360D03*
X176276000Y-103169720D03*
X174401480Y-99004120D03*
X107579160Y-108905040D03*
D18*
X107579160Y-99573080D02*
X106624120Y-98618040D01*
X107579160Y-108905040D02*
X107579160Y-99573080D01*
X106613960Y-98607880D02*
X106624120Y-98618040D01*
X106613960Y-91191080D02*
X106613960Y-98607880D01*
D19*
X197552400Y-116629960D02*
X103872400Y-116629960D01*
X103872400Y-114651580D01*
X153592160Y-114651580D01*
X153592160Y-114944100D01*
X153649228Y-115230998D01*
X153761170Y-115501251D01*
X153923685Y-115744472D01*
X154130528Y-115951315D01*
X154373749Y-116113830D01*
X154644002Y-116225772D01*
X154930900Y-116282840D01*
X155223420Y-116282840D01*
X155510318Y-116225772D01*
X155780571Y-116113830D01*
X156023792Y-115951315D01*
X156148870Y-115826237D01*
X158728368Y-115826237D01*
X158806003Y-116075312D01*
X159070043Y-116201211D01*
X159353571Y-116273179D01*
X159645691Y-116288451D01*
X159935179Y-116246439D01*
X160210907Y-116148759D01*
X160348317Y-116075312D01*
X160425952Y-115826237D01*
X159577160Y-114977445D01*
X158728368Y-115826237D01*
X156148870Y-115826237D01*
X156230635Y-115744472D01*
X156393150Y-115501251D01*
X156505092Y-115230998D01*
X156562160Y-114944100D01*
X156562160Y-114866371D01*
X158086549Y-114866371D01*
X158128561Y-115155859D01*
X158226241Y-115431587D01*
X158299688Y-115568997D01*
X158548763Y-115646632D01*
X159397555Y-114797840D01*
X158548763Y-113949048D01*
X158299688Y-114026683D01*
X158173789Y-114290723D01*
X158101821Y-114574251D01*
X158086549Y-114866371D01*
X156562160Y-114866371D01*
X156562160Y-114651580D01*
X156505092Y-114364682D01*
X156393150Y-114094429D01*
X156230635Y-113851208D01*
X156023792Y-113644365D01*
X155780571Y-113481850D01*
X155510318Y-113369908D01*
X155223420Y-113312840D01*
X154930900Y-113312840D01*
X154644002Y-113369908D01*
X154373749Y-113481850D01*
X154130528Y-113644365D01*
X153923685Y-113851208D01*
X153761170Y-114094429D01*
X153649228Y-114364682D01*
X153592160Y-114651580D01*
X103872400Y-114651580D01*
X103872400Y-112178140D01*
X105155720Y-112178140D01*
X105155720Y-112470660D01*
X105212788Y-112757558D01*
X105324730Y-113027811D01*
X105487245Y-113271032D01*
X105694088Y-113477875D01*
X105937309Y-113640390D01*
X106207562Y-113752332D01*
X106494460Y-113809400D01*
X106786980Y-113809400D01*
X107073878Y-113752332D01*
X107344131Y-113640390D01*
X107587352Y-113477875D01*
X107794195Y-113271032D01*
X107915915Y-113088866D01*
X107985542Y-113205755D01*
X108180451Y-113421988D01*
X108413800Y-113596041D01*
X108676621Y-113721225D01*
X108823830Y-113765876D01*
X109053720Y-113644555D01*
X109053720Y-112451400D01*
X109033720Y-112451400D01*
X109033720Y-112197400D01*
X109053720Y-112197400D01*
X109053720Y-111004245D01*
X109307720Y-111004245D01*
X109307720Y-112197400D01*
X109327720Y-112197400D01*
X109327720Y-112451400D01*
X109307720Y-112451400D01*
X109307720Y-113644555D01*
X109537610Y-113765876D01*
X109684819Y-113721225D01*
X109947640Y-113596041D01*
X110180989Y-113421988D01*
X110375898Y-113205755D01*
X110445525Y-113088866D01*
X110567245Y-113271032D01*
X110774088Y-113477875D01*
X111017309Y-113640390D01*
X111287562Y-113752332D01*
X111574460Y-113809400D01*
X111866980Y-113809400D01*
X112153878Y-113752332D01*
X112424131Y-113640390D01*
X112667352Y-113477875D01*
X112874195Y-113271032D01*
X112990720Y-113096640D01*
X113107245Y-113271032D01*
X113314088Y-113477875D01*
X113557309Y-113640390D01*
X113827562Y-113752332D01*
X114114460Y-113809400D01*
X114406980Y-113809400D01*
X114693878Y-113752332D01*
X114964131Y-113640390D01*
X115207352Y-113477875D01*
X115414195Y-113271032D01*
X115530720Y-113096640D01*
X115647245Y-113271032D01*
X115854088Y-113477875D01*
X116097309Y-113640390D01*
X116367562Y-113752332D01*
X116654460Y-113809400D01*
X116946980Y-113809400D01*
X117233878Y-113752332D01*
X117504131Y-113640390D01*
X117747352Y-113477875D01*
X117954195Y-113271032D01*
X118070720Y-113096640D01*
X118187245Y-113271032D01*
X118394088Y-113477875D01*
X118637309Y-113640390D01*
X118907562Y-113752332D01*
X119194460Y-113809400D01*
X119486980Y-113809400D01*
X119773878Y-113752332D01*
X120044131Y-113640390D01*
X120287352Y-113477875D01*
X120494195Y-113271032D01*
X120610720Y-113096640D01*
X120727245Y-113271032D01*
X120934088Y-113477875D01*
X121177309Y-113640390D01*
X121447562Y-113752332D01*
X121734460Y-113809400D01*
X122026980Y-113809400D01*
X122313878Y-113752332D01*
X122584131Y-113640390D01*
X122827352Y-113477875D01*
X123034195Y-113271032D01*
X123150720Y-113096640D01*
X123267245Y-113271032D01*
X123474088Y-113477875D01*
X123717309Y-113640390D01*
X123987562Y-113752332D01*
X124274460Y-113809400D01*
X124566980Y-113809400D01*
X124853878Y-113752332D01*
X125124131Y-113640390D01*
X125367352Y-113477875D01*
X125574195Y-113271032D01*
X125690720Y-113096640D01*
X125807245Y-113271032D01*
X126014088Y-113477875D01*
X126257309Y-113640390D01*
X126527562Y-113752332D01*
X126814460Y-113809400D01*
X127106980Y-113809400D01*
X127393878Y-113752332D01*
X127664131Y-113640390D01*
X127907352Y-113477875D01*
X128114195Y-113271032D01*
X128230720Y-113096640D01*
X128347245Y-113271032D01*
X128554088Y-113477875D01*
X128797309Y-113640390D01*
X129067562Y-113752332D01*
X129354460Y-113809400D01*
X129646980Y-113809400D01*
X129933878Y-113752332D01*
X130204131Y-113640390D01*
X130447352Y-113477875D01*
X130654195Y-113271032D01*
X130770720Y-113096640D01*
X130887245Y-113271032D01*
X131094088Y-113477875D01*
X131337309Y-113640390D01*
X131607562Y-113752332D01*
X131894460Y-113809400D01*
X132186980Y-113809400D01*
X132473878Y-113752332D01*
X132744131Y-113640390D01*
X132987352Y-113477875D01*
X133194195Y-113271032D01*
X133310720Y-113096640D01*
X133427245Y-113271032D01*
X133634088Y-113477875D01*
X133877309Y-113640390D01*
X134147562Y-113752332D01*
X134434460Y-113809400D01*
X134726980Y-113809400D01*
X135013878Y-113752332D01*
X135284131Y-113640390D01*
X135527352Y-113477875D01*
X135734195Y-113271032D01*
X135850720Y-113096640D01*
X135967245Y-113271032D01*
X136174088Y-113477875D01*
X136417309Y-113640390D01*
X136687562Y-113752332D01*
X136974460Y-113809400D01*
X137266980Y-113809400D01*
X137553878Y-113752332D01*
X137824131Y-113640390D01*
X138067352Y-113477875D01*
X138274195Y-113271032D01*
X138390720Y-113096640D01*
X138507245Y-113271032D01*
X138714088Y-113477875D01*
X138957309Y-113640390D01*
X139227562Y-113752332D01*
X139514460Y-113809400D01*
X139806980Y-113809400D01*
X140093878Y-113752332D01*
X140364131Y-113640390D01*
X140607352Y-113477875D01*
X140739207Y-113346020D01*
X140761218Y-113418580D01*
X140820183Y-113528894D01*
X140899535Y-113625585D01*
X140996226Y-113704937D01*
X141106540Y-113763902D01*
X141226238Y-113800212D01*
X141350720Y-113812472D01*
X143050720Y-113812472D01*
X143175202Y-113800212D01*
X143294900Y-113763902D01*
X143390080Y-113713026D01*
X143390080Y-114242195D01*
X147210080Y-114242195D01*
X147210080Y-110100766D01*
X143390080Y-110100766D01*
X143390080Y-110935774D01*
X143294900Y-110884898D01*
X143175202Y-110848588D01*
X143050720Y-110836328D01*
X141350720Y-110836328D01*
X141226238Y-110848588D01*
X141106540Y-110884898D01*
X140996226Y-110943863D01*
X140899535Y-111023215D01*
X140820183Y-111119906D01*
X140761218Y-111230220D01*
X140739207Y-111302780D01*
X140607352Y-111170925D01*
X140364131Y-111008410D01*
X140093878Y-110896468D01*
X139806980Y-110839400D01*
X139514460Y-110839400D01*
X139227562Y-110896468D01*
X138957309Y-111008410D01*
X138714088Y-111170925D01*
X138507245Y-111377768D01*
X138390720Y-111552160D01*
X138274195Y-111377768D01*
X138067352Y-111170925D01*
X137824131Y-111008410D01*
X137553878Y-110896468D01*
X137266980Y-110839400D01*
X136974460Y-110839400D01*
X136687562Y-110896468D01*
X136417309Y-111008410D01*
X136174088Y-111170925D01*
X135967245Y-111377768D01*
X135850720Y-111552160D01*
X135734195Y-111377768D01*
X135527352Y-111170925D01*
X135284131Y-111008410D01*
X135013878Y-110896468D01*
X134726980Y-110839400D01*
X134434460Y-110839400D01*
X134147562Y-110896468D01*
X133877309Y-111008410D01*
X133634088Y-111170925D01*
X133427245Y-111377768D01*
X133310720Y-111552160D01*
X133194195Y-111377768D01*
X132987352Y-111170925D01*
X132744131Y-111008410D01*
X132473878Y-110896468D01*
X132186980Y-110839400D01*
X131894460Y-110839400D01*
X131607562Y-110896468D01*
X131337309Y-111008410D01*
X131094088Y-111170925D01*
X130887245Y-111377768D01*
X130770720Y-111552160D01*
X130654195Y-111377768D01*
X130447352Y-111170925D01*
X130204131Y-111008410D01*
X129933878Y-110896468D01*
X129646980Y-110839400D01*
X129354460Y-110839400D01*
X129067562Y-110896468D01*
X128797309Y-111008410D01*
X128554088Y-111170925D01*
X128347245Y-111377768D01*
X128230720Y-111552160D01*
X128114195Y-111377768D01*
X127907352Y-111170925D01*
X127664131Y-111008410D01*
X127393878Y-110896468D01*
X127106980Y-110839400D01*
X126814460Y-110839400D01*
X126527562Y-110896468D01*
X126257309Y-111008410D01*
X126014088Y-111170925D01*
X125807245Y-111377768D01*
X125690720Y-111552160D01*
X125574195Y-111377768D01*
X125367352Y-111170925D01*
X125124131Y-111008410D01*
X124853878Y-110896468D01*
X124566980Y-110839400D01*
X124274460Y-110839400D01*
X123987562Y-110896468D01*
X123717309Y-111008410D01*
X123474088Y-111170925D01*
X123267245Y-111377768D01*
X123150720Y-111552160D01*
X123034195Y-111377768D01*
X122827352Y-111170925D01*
X122584131Y-111008410D01*
X122313878Y-110896468D01*
X122026980Y-110839400D01*
X121734460Y-110839400D01*
X121447562Y-110896468D01*
X121177309Y-111008410D01*
X120934088Y-111170925D01*
X120727245Y-111377768D01*
X120610720Y-111552160D01*
X120494195Y-111377768D01*
X120287352Y-111170925D01*
X120044131Y-111008410D01*
X119773878Y-110896468D01*
X119486980Y-110839400D01*
X119194460Y-110839400D01*
X118907562Y-110896468D01*
X118637309Y-111008410D01*
X118394088Y-111170925D01*
X118187245Y-111377768D01*
X118070720Y-111552160D01*
X117954195Y-111377768D01*
X117747352Y-111170925D01*
X117504131Y-111008410D01*
X117233878Y-110896468D01*
X116946980Y-110839400D01*
X116654460Y-110839400D01*
X116367562Y-110896468D01*
X116097309Y-111008410D01*
X115854088Y-111170925D01*
X115647245Y-111377768D01*
X115530720Y-111552160D01*
X115414195Y-111377768D01*
X115207352Y-111170925D01*
X114964131Y-111008410D01*
X114693878Y-110896468D01*
X114406980Y-110839400D01*
X114114460Y-110839400D01*
X113827562Y-110896468D01*
X113557309Y-111008410D01*
X113314088Y-111170925D01*
X113107245Y-111377768D01*
X112990720Y-111552160D01*
X112874195Y-111377768D01*
X112667352Y-111170925D01*
X112424131Y-111008410D01*
X112153878Y-110896468D01*
X111866980Y-110839400D01*
X111574460Y-110839400D01*
X111287562Y-110896468D01*
X111017309Y-111008410D01*
X110774088Y-111170925D01*
X110567245Y-111377768D01*
X110445525Y-111559934D01*
X110375898Y-111443045D01*
X110180989Y-111226812D01*
X109947640Y-111052759D01*
X109684819Y-110927575D01*
X109537610Y-110882924D01*
X109307720Y-111004245D01*
X109053720Y-111004245D01*
X108823830Y-110882924D01*
X108676621Y-110927575D01*
X108413800Y-111052759D01*
X108180451Y-111226812D01*
X107985542Y-111443045D01*
X107915915Y-111559934D01*
X107794195Y-111377768D01*
X107587352Y-111170925D01*
X107344131Y-111008410D01*
X107073878Y-110896468D01*
X106786980Y-110839400D01*
X106494460Y-110839400D01*
X106207562Y-110896468D01*
X105937309Y-111008410D01*
X105694088Y-111170925D01*
X105487245Y-111377768D01*
X105324730Y-111620989D01*
X105212788Y-111891242D01*
X105155720Y-112178140D01*
X103872400Y-112178140D01*
X103872400Y-91049745D01*
X105178960Y-91049745D01*
X105178960Y-91332415D01*
X105234107Y-91609654D01*
X105342280Y-91870807D01*
X105499323Y-92105839D01*
X105699201Y-92305717D01*
X105853960Y-92409124D01*
X105853961Y-97406785D01*
X105709361Y-97503403D01*
X105509483Y-97703281D01*
X105352440Y-97938313D01*
X105244267Y-98199466D01*
X105189120Y-98476705D01*
X105189120Y-98759375D01*
X105244267Y-99036614D01*
X105352440Y-99297767D01*
X105509483Y-99532799D01*
X105709361Y-99732677D01*
X105944393Y-99889720D01*
X106205546Y-99997893D01*
X106482785Y-100053040D01*
X106765455Y-100053040D01*
X106819161Y-100042357D01*
X106819160Y-108201329D01*
X106775223Y-108245266D01*
X106661955Y-108414784D01*
X106583934Y-108603142D01*
X106544160Y-108803101D01*
X106544160Y-109006979D01*
X106583934Y-109206938D01*
X106661955Y-109395296D01*
X106775223Y-109564814D01*
X106919386Y-109708977D01*
X107088904Y-109822245D01*
X107277262Y-109900266D01*
X107477221Y-109940040D01*
X107681099Y-109940040D01*
X107881058Y-109900266D01*
X108069416Y-109822245D01*
X108238934Y-109708977D01*
X108383097Y-109564814D01*
X108496365Y-109395296D01*
X108574386Y-109206938D01*
X108614160Y-109006979D01*
X108614160Y-108803101D01*
X108574386Y-108603142D01*
X108496365Y-108414784D01*
X108383097Y-108245266D01*
X108339160Y-108201329D01*
X108339160Y-108151580D01*
X153592160Y-108151580D01*
X153592160Y-108444100D01*
X153649228Y-108730998D01*
X153761170Y-109001251D01*
X153923685Y-109244472D01*
X154130528Y-109451315D01*
X154373749Y-109613830D01*
X154644002Y-109725772D01*
X154930900Y-109782840D01*
X155223420Y-109782840D01*
X155510318Y-109725772D01*
X155780571Y-109613830D01*
X156023792Y-109451315D01*
X156148870Y-109326237D01*
X158728368Y-109326237D01*
X158806003Y-109575312D01*
X159070043Y-109701211D01*
X159353571Y-109773179D01*
X159645691Y-109788451D01*
X159768000Y-109770701D01*
X159768000Y-113320789D01*
X159508629Y-113307229D01*
X159219141Y-113349241D01*
X158943413Y-113446921D01*
X158806003Y-113520368D01*
X158728368Y-113769443D01*
X159577160Y-114618235D01*
X159591303Y-114604093D01*
X159770908Y-114783698D01*
X159756765Y-114797840D01*
X160605557Y-115646632D01*
X160854632Y-115568997D01*
X160980531Y-115304957D01*
X161052499Y-115021429D01*
X161067771Y-114729309D01*
X161025759Y-114439821D01*
X160928079Y-114164093D01*
X160854632Y-114026683D01*
X160605559Y-113949049D01*
X160647076Y-113907532D01*
X163588000Y-113907532D01*
X163588000Y-109480389D01*
X160377904Y-109480389D01*
X160425952Y-109326237D01*
X159577160Y-108477445D01*
X158728368Y-109326237D01*
X156148870Y-109326237D01*
X156230635Y-109244472D01*
X156393150Y-109001251D01*
X156505092Y-108730998D01*
X156562160Y-108444100D01*
X156562160Y-108366371D01*
X158086549Y-108366371D01*
X158128561Y-108655859D01*
X158226241Y-108931587D01*
X158299688Y-109068997D01*
X158548763Y-109146632D01*
X159397555Y-108297840D01*
X159756765Y-108297840D01*
X160605557Y-109146632D01*
X160854632Y-109068997D01*
X160980531Y-108804957D01*
X161052499Y-108521429D01*
X161067771Y-108229309D01*
X161025759Y-107939821D01*
X160928079Y-107664093D01*
X160884414Y-107582400D01*
X172164269Y-107582400D01*
X172164269Y-111402400D01*
X177378555Y-111402400D01*
X177378555Y-114999040D01*
X194734269Y-114999040D01*
X194734269Y-107582400D01*
X172164269Y-107582400D01*
X160884414Y-107582400D01*
X160854632Y-107526683D01*
X160605557Y-107449048D01*
X159756765Y-108297840D01*
X159397555Y-108297840D01*
X158548763Y-107449048D01*
X158299688Y-107526683D01*
X158173789Y-107790723D01*
X158101821Y-108074251D01*
X158086549Y-108366371D01*
X156562160Y-108366371D01*
X156562160Y-108151580D01*
X156505092Y-107864682D01*
X156393150Y-107594429D01*
X156230635Y-107351208D01*
X156148870Y-107269443D01*
X158728368Y-107269443D01*
X159577160Y-108118235D01*
X160425952Y-107269443D01*
X160348317Y-107020368D01*
X160084277Y-106894469D01*
X159800749Y-106822501D01*
X159508629Y-106807229D01*
X159219141Y-106849241D01*
X158943413Y-106946921D01*
X158806003Y-107020368D01*
X158728368Y-107269443D01*
X156148870Y-107269443D01*
X156023792Y-107144365D01*
X155780571Y-106981850D01*
X155510318Y-106869908D01*
X155223420Y-106812840D01*
X154930900Y-106812840D01*
X154644002Y-106869908D01*
X154373749Y-106981850D01*
X154130528Y-107144365D01*
X153923685Y-107351208D01*
X153761170Y-107594429D01*
X153649228Y-107864682D01*
X153592160Y-108151580D01*
X108339160Y-108151580D01*
X108339160Y-103248022D01*
X110981183Y-103248022D01*
X111052766Y-103491991D01*
X111308276Y-103612891D01*
X111582464Y-103681620D01*
X111864792Y-103695537D01*
X112144410Y-103654107D01*
X112410572Y-103558923D01*
X112535794Y-103491991D01*
X112607377Y-103248022D01*
X111794280Y-102434925D01*
X110981183Y-103248022D01*
X108339160Y-103248022D01*
X108339160Y-102325832D01*
X110354063Y-102325832D01*
X110395493Y-102605450D01*
X110490677Y-102871612D01*
X110557609Y-102996834D01*
X110801578Y-103068417D01*
X111614675Y-102255320D01*
X111973885Y-102255320D01*
X112786982Y-103068417D01*
X113030951Y-102996834D01*
X113151851Y-102741324D01*
X113220580Y-102467136D01*
X113234497Y-102184808D01*
X113224004Y-102113985D01*
X115359280Y-102113985D01*
X115359280Y-102396655D01*
X115414427Y-102673894D01*
X115522600Y-102935047D01*
X115679643Y-103170079D01*
X115879521Y-103369957D01*
X116114553Y-103527000D01*
X116375706Y-103635173D01*
X116652945Y-103690320D01*
X116935615Y-103690320D01*
X117212854Y-103635173D01*
X117474007Y-103527000D01*
X117709039Y-103369957D01*
X117908917Y-103170079D01*
X118065960Y-102935047D01*
X118174133Y-102673894D01*
X118229280Y-102396655D01*
X118229280Y-102113985D01*
X118174133Y-101836746D01*
X118065960Y-101575593D01*
X117908917Y-101340561D01*
X117709039Y-101140683D01*
X117629932Y-101087825D01*
X179661920Y-101087825D01*
X179661920Y-101370495D01*
X179717067Y-101647734D01*
X179825240Y-101908887D01*
X179982283Y-102143919D01*
X180182161Y-102343797D01*
X180417193Y-102500840D01*
X180678346Y-102609013D01*
X180955585Y-102664160D01*
X181238255Y-102664160D01*
X181515494Y-102609013D01*
X181776647Y-102500840D01*
X182011679Y-102343797D01*
X182211557Y-102143919D01*
X182368600Y-101908887D01*
X182476773Y-101647734D01*
X182531920Y-101370495D01*
X182531920Y-101087825D01*
X189821920Y-101087825D01*
X189821920Y-101370495D01*
X189877067Y-101647734D01*
X189985240Y-101908887D01*
X190142283Y-102143919D01*
X190342161Y-102343797D01*
X190577193Y-102500840D01*
X190838346Y-102609013D01*
X191115585Y-102664160D01*
X191398255Y-102664160D01*
X191675494Y-102609013D01*
X191936647Y-102500840D01*
X192171679Y-102343797D01*
X192371557Y-102143919D01*
X192528600Y-101908887D01*
X192636773Y-101647734D01*
X192691920Y-101370495D01*
X192691920Y-101087825D01*
X192636773Y-100810586D01*
X192528600Y-100549433D01*
X192371557Y-100314401D01*
X192171679Y-100114523D01*
X191936647Y-99957480D01*
X191675494Y-99849307D01*
X191398255Y-99794160D01*
X191115585Y-99794160D01*
X190838346Y-99849307D01*
X190577193Y-99957480D01*
X190342161Y-100114523D01*
X190142283Y-100314401D01*
X189985240Y-100549433D01*
X189877067Y-100810586D01*
X189821920Y-101087825D01*
X182531920Y-101087825D01*
X182476773Y-100810586D01*
X182368600Y-100549433D01*
X182211557Y-100314401D01*
X182011679Y-100114523D01*
X181776647Y-99957480D01*
X181515494Y-99849307D01*
X181238255Y-99794160D01*
X180955585Y-99794160D01*
X180678346Y-99849307D01*
X180417193Y-99957480D01*
X180182161Y-100114523D01*
X179982283Y-100314401D01*
X179825240Y-100549433D01*
X179717067Y-100810586D01*
X179661920Y-101087825D01*
X117629932Y-101087825D01*
X117474007Y-100983640D01*
X117212854Y-100875467D01*
X116935615Y-100820320D01*
X116652945Y-100820320D01*
X116375706Y-100875467D01*
X116114553Y-100983640D01*
X115879521Y-101140683D01*
X115679643Y-101340561D01*
X115522600Y-101575593D01*
X115414427Y-101836746D01*
X115359280Y-102113985D01*
X113224004Y-102113985D01*
X113193067Y-101905190D01*
X113097883Y-101639028D01*
X113030951Y-101513806D01*
X112786982Y-101442223D01*
X111973885Y-102255320D01*
X111614675Y-102255320D01*
X110801578Y-101442223D01*
X110557609Y-101513806D01*
X110436709Y-101769316D01*
X110367980Y-102043504D01*
X110354063Y-102325832D01*
X108339160Y-102325832D01*
X108339160Y-101262618D01*
X110981183Y-101262618D01*
X111794280Y-102075715D01*
X112607377Y-101262618D01*
X112535794Y-101018649D01*
X112280284Y-100897749D01*
X112006096Y-100829020D01*
X111723768Y-100815103D01*
X111444150Y-100856533D01*
X111177988Y-100951717D01*
X111052766Y-101018649D01*
X110981183Y-101262618D01*
X108339160Y-101262618D01*
X108339160Y-99610413D01*
X108342837Y-99573080D01*
X108328163Y-99424094D01*
X108284706Y-99280833D01*
X108214134Y-99148804D01*
X108142959Y-99062077D01*
X108119161Y-99033079D01*
X108090163Y-99009281D01*
X108022808Y-98941926D01*
X108059120Y-98759375D01*
X108059120Y-98476705D01*
X115349120Y-98476705D01*
X115349120Y-98759375D01*
X115404267Y-99036614D01*
X115512440Y-99297767D01*
X115669483Y-99532799D01*
X115869361Y-99732677D01*
X116104393Y-99889720D01*
X116365546Y-99997893D01*
X116642785Y-100053040D01*
X116925455Y-100053040D01*
X117202694Y-99997893D01*
X117463847Y-99889720D01*
X117698879Y-99732677D01*
X117898757Y-99532799D01*
X117965208Y-99433347D01*
X118041843Y-99548039D01*
X118241721Y-99747917D01*
X118476753Y-99904960D01*
X118737906Y-100013133D01*
X119015145Y-100068280D01*
X119297815Y-100068280D01*
X119575054Y-100013133D01*
X119836207Y-99904960D01*
X120071239Y-99747917D01*
X120271117Y-99548039D01*
X120428160Y-99313007D01*
X120536333Y-99051854D01*
X120591480Y-98774615D01*
X120591480Y-98491945D01*
X127881480Y-98491945D01*
X127881480Y-98774615D01*
X127936627Y-99051854D01*
X128044800Y-99313007D01*
X128201843Y-99548039D01*
X128401721Y-99747917D01*
X128636753Y-99904960D01*
X128897906Y-100013133D01*
X129175145Y-100068280D01*
X129457815Y-100068280D01*
X129735054Y-100013133D01*
X129996207Y-99904960D01*
X130231239Y-99747917D01*
X130431117Y-99548039D01*
X130588160Y-99313007D01*
X130696333Y-99051854D01*
X130751480Y-98774615D01*
X130751480Y-98491945D01*
X130696333Y-98214706D01*
X130588160Y-97953553D01*
X130431117Y-97718521D01*
X130231239Y-97518643D01*
X129996207Y-97361600D01*
X129735054Y-97253427D01*
X129457815Y-97198280D01*
X129175145Y-97198280D01*
X128897906Y-97253427D01*
X128636753Y-97361600D01*
X128401721Y-97518643D01*
X128201843Y-97718521D01*
X128044800Y-97953553D01*
X127936627Y-98214706D01*
X127881480Y-98491945D01*
X120591480Y-98491945D01*
X120536333Y-98214706D01*
X120428160Y-97953553D01*
X120271117Y-97718521D01*
X120071239Y-97518643D01*
X119836207Y-97361600D01*
X119575054Y-97253427D01*
X119297815Y-97198280D01*
X119015145Y-97198280D01*
X118737906Y-97253427D01*
X118476753Y-97361600D01*
X118241721Y-97518643D01*
X118041843Y-97718521D01*
X117975392Y-97817973D01*
X117898757Y-97703281D01*
X117698879Y-97503403D01*
X117463847Y-97346360D01*
X117202694Y-97238187D01*
X116925455Y-97183040D01*
X116642785Y-97183040D01*
X116365546Y-97238187D01*
X116104393Y-97346360D01*
X115869361Y-97503403D01*
X115669483Y-97703281D01*
X115512440Y-97938313D01*
X115404267Y-98199466D01*
X115349120Y-98476705D01*
X108059120Y-98476705D01*
X108003973Y-98199466D01*
X107895800Y-97938313D01*
X107738757Y-97703281D01*
X107538879Y-97503403D01*
X107373960Y-97393208D01*
X107373960Y-96749505D01*
X179641600Y-96749505D01*
X179641600Y-97032175D01*
X179696747Y-97309414D01*
X179804920Y-97570567D01*
X179961963Y-97805599D01*
X180161841Y-98005477D01*
X180396873Y-98162520D01*
X180658026Y-98270693D01*
X180935265Y-98325840D01*
X181217935Y-98325840D01*
X181495174Y-98270693D01*
X181756327Y-98162520D01*
X181991359Y-98005477D01*
X182191237Y-97805599D01*
X182348280Y-97570567D01*
X182456453Y-97309414D01*
X182511600Y-97032175D01*
X182511600Y-96749505D01*
X189801600Y-96749505D01*
X189801600Y-97032175D01*
X189856747Y-97309414D01*
X189964920Y-97570567D01*
X190121963Y-97805599D01*
X190321841Y-98005477D01*
X190556873Y-98162520D01*
X190818026Y-98270693D01*
X191095265Y-98325840D01*
X191377935Y-98325840D01*
X191655174Y-98270693D01*
X191916327Y-98162520D01*
X192151359Y-98005477D01*
X192351237Y-97805599D01*
X192508280Y-97570567D01*
X192616453Y-97309414D01*
X192671600Y-97032175D01*
X192671600Y-96749505D01*
X192616453Y-96472266D01*
X192508280Y-96211113D01*
X192351237Y-95976081D01*
X192151359Y-95776203D01*
X191916327Y-95619160D01*
X191655174Y-95510987D01*
X191377935Y-95455840D01*
X191095265Y-95455840D01*
X190818026Y-95510987D01*
X190556873Y-95619160D01*
X190321841Y-95776203D01*
X190121963Y-95976081D01*
X189964920Y-96211113D01*
X189856747Y-96472266D01*
X189801600Y-96749505D01*
X182511600Y-96749505D01*
X182456453Y-96472266D01*
X182348280Y-96211113D01*
X182191237Y-95976081D01*
X181991359Y-95776203D01*
X181756327Y-95619160D01*
X181495174Y-95510987D01*
X181217935Y-95455840D01*
X180935265Y-95455840D01*
X180658026Y-95510987D01*
X180396873Y-95619160D01*
X180161841Y-95776203D01*
X179961963Y-95976081D01*
X179804920Y-96211113D01*
X179696747Y-96472266D01*
X179641600Y-96749505D01*
X107373960Y-96749505D01*
X107373960Y-95937902D01*
X110981183Y-95937902D01*
X111052766Y-96181871D01*
X111308276Y-96302771D01*
X111582464Y-96371500D01*
X111864792Y-96385417D01*
X112144410Y-96343987D01*
X112410572Y-96248803D01*
X112535794Y-96181871D01*
X112607377Y-95937902D01*
X111794280Y-95124805D01*
X110981183Y-95937902D01*
X107373960Y-95937902D01*
X107373960Y-95015712D01*
X110354063Y-95015712D01*
X110395493Y-95295330D01*
X110490677Y-95561492D01*
X110557609Y-95686714D01*
X110801578Y-95758297D01*
X111614675Y-94945200D01*
X111973885Y-94945200D01*
X112786982Y-95758297D01*
X113030951Y-95686714D01*
X113151851Y-95431204D01*
X113220580Y-95157016D01*
X113234497Y-94874688D01*
X113224004Y-94803865D01*
X115359280Y-94803865D01*
X115359280Y-95086535D01*
X115414427Y-95363774D01*
X115522600Y-95624927D01*
X115679643Y-95859959D01*
X115879521Y-96059837D01*
X116114553Y-96216880D01*
X116375706Y-96325053D01*
X116652945Y-96380200D01*
X116935615Y-96380200D01*
X117212854Y-96325053D01*
X117474007Y-96216880D01*
X117709039Y-96059837D01*
X117908917Y-95859959D01*
X118065960Y-95624927D01*
X118174133Y-95363774D01*
X118229280Y-95086535D01*
X118229280Y-94803865D01*
X118174133Y-94526626D01*
X118065960Y-94265473D01*
X117908917Y-94030441D01*
X117709039Y-93830563D01*
X117474007Y-93673520D01*
X117212854Y-93565347D01*
X116935615Y-93510200D01*
X116652945Y-93510200D01*
X116375706Y-93565347D01*
X116114553Y-93673520D01*
X115879521Y-93830563D01*
X115679643Y-94030441D01*
X115522600Y-94265473D01*
X115414427Y-94526626D01*
X115359280Y-94803865D01*
X113224004Y-94803865D01*
X113193067Y-94595070D01*
X113097883Y-94328908D01*
X113030951Y-94203686D01*
X112786982Y-94132103D01*
X111973885Y-94945200D01*
X111614675Y-94945200D01*
X110801578Y-94132103D01*
X110557609Y-94203686D01*
X110436709Y-94459196D01*
X110367980Y-94733384D01*
X110354063Y-95015712D01*
X107373960Y-95015712D01*
X107373960Y-93952498D01*
X110981183Y-93952498D01*
X111794280Y-94765595D01*
X112607377Y-93952498D01*
X112535794Y-93708529D01*
X112280284Y-93587629D01*
X112006096Y-93518900D01*
X111723768Y-93504983D01*
X111444150Y-93546413D01*
X111177988Y-93641597D01*
X111052766Y-93708529D01*
X110981183Y-93952498D01*
X107373960Y-93952498D01*
X107373960Y-92409123D01*
X107528719Y-92305717D01*
X107728597Y-92105839D01*
X107885640Y-91870807D01*
X107993813Y-91609654D01*
X108048960Y-91332415D01*
X108048960Y-91049745D01*
X115338960Y-91049745D01*
X115338960Y-91332415D01*
X115394107Y-91609654D01*
X115502280Y-91870807D01*
X115659323Y-92105839D01*
X115859201Y-92305717D01*
X116094233Y-92462760D01*
X116355386Y-92570933D01*
X116632625Y-92626080D01*
X116915295Y-92626080D01*
X117192534Y-92570933D01*
X117453687Y-92462760D01*
X117688719Y-92305717D01*
X117888597Y-92105839D01*
X118004186Y-91932848D01*
X118102803Y-92080439D01*
X118302681Y-92280317D01*
X118537713Y-92437360D01*
X118798866Y-92545533D01*
X119076105Y-92600680D01*
X119358775Y-92600680D01*
X119636014Y-92545533D01*
X119897167Y-92437360D01*
X120132199Y-92280317D01*
X120332077Y-92080439D01*
X120489120Y-91845407D01*
X120597293Y-91584254D01*
X120652440Y-91307015D01*
X120652440Y-91024345D01*
X127942440Y-91024345D01*
X127942440Y-91307015D01*
X127997587Y-91584254D01*
X128105760Y-91845407D01*
X128262803Y-92080439D01*
X128462681Y-92280317D01*
X128697713Y-92437360D01*
X128958866Y-92545533D01*
X129236105Y-92600680D01*
X129518775Y-92600680D01*
X129796014Y-92545533D01*
X130057167Y-92437360D01*
X130292199Y-92280317D01*
X130492077Y-92080439D01*
X130649120Y-91845407D01*
X130757293Y-91584254D01*
X130812440Y-91307015D01*
X130812440Y-91054980D01*
X153592160Y-91054980D01*
X153592160Y-91347500D01*
X153649228Y-91634398D01*
X153761170Y-91904651D01*
X153923685Y-92147872D01*
X154130528Y-92354715D01*
X154373749Y-92517230D01*
X154644002Y-92629172D01*
X154930900Y-92686240D01*
X155223420Y-92686240D01*
X155510318Y-92629172D01*
X155780571Y-92517230D01*
X156023792Y-92354715D01*
X156148870Y-92229637D01*
X158728368Y-92229637D01*
X158806003Y-92478712D01*
X159070043Y-92604611D01*
X159353571Y-92676579D01*
X159645691Y-92691851D01*
X159935179Y-92649839D01*
X160210907Y-92552159D01*
X160348317Y-92478712D01*
X160425952Y-92229637D01*
X159577160Y-91380845D01*
X158728368Y-92229637D01*
X156148870Y-92229637D01*
X156230635Y-92147872D01*
X156393150Y-91904651D01*
X156505092Y-91634398D01*
X156562160Y-91347500D01*
X156562160Y-91269771D01*
X158086549Y-91269771D01*
X158128561Y-91559259D01*
X158226241Y-91834987D01*
X158299688Y-91972397D01*
X158548763Y-92050032D01*
X159397555Y-91201240D01*
X158548763Y-90352448D01*
X158299688Y-90430083D01*
X158173789Y-90694123D01*
X158101821Y-90977651D01*
X158086549Y-91269771D01*
X156562160Y-91269771D01*
X156562160Y-91054980D01*
X156505092Y-90768082D01*
X156393150Y-90497829D01*
X156230635Y-90254608D01*
X156023792Y-90047765D01*
X155780571Y-89885250D01*
X155510318Y-89773308D01*
X155223420Y-89716240D01*
X154930900Y-89716240D01*
X154644002Y-89773308D01*
X154373749Y-89885250D01*
X154130528Y-90047765D01*
X153923685Y-90254608D01*
X153761170Y-90497829D01*
X153649228Y-90768082D01*
X153592160Y-91054980D01*
X130812440Y-91054980D01*
X130812440Y-91024345D01*
X130757293Y-90747106D01*
X130649120Y-90485953D01*
X130492077Y-90250921D01*
X130292199Y-90051043D01*
X130057167Y-89894000D01*
X129796014Y-89785827D01*
X129518775Y-89730680D01*
X129236105Y-89730680D01*
X128958866Y-89785827D01*
X128697713Y-89894000D01*
X128462681Y-90051043D01*
X128262803Y-90250921D01*
X128105760Y-90485953D01*
X127997587Y-90747106D01*
X127942440Y-91024345D01*
X120652440Y-91024345D01*
X120597293Y-90747106D01*
X120489120Y-90485953D01*
X120332077Y-90250921D01*
X120132199Y-90051043D01*
X119897167Y-89894000D01*
X119636014Y-89785827D01*
X119358775Y-89730680D01*
X119076105Y-89730680D01*
X118798866Y-89785827D01*
X118537713Y-89894000D01*
X118302681Y-90051043D01*
X118102803Y-90250921D01*
X117987214Y-90423912D01*
X117888597Y-90276321D01*
X117688719Y-90076443D01*
X117453687Y-89919400D01*
X117192534Y-89811227D01*
X116915295Y-89756080D01*
X116632625Y-89756080D01*
X116355386Y-89811227D01*
X116094233Y-89919400D01*
X115859201Y-90076443D01*
X115659323Y-90276321D01*
X115502280Y-90511353D01*
X115394107Y-90772506D01*
X115338960Y-91049745D01*
X108048960Y-91049745D01*
X107993813Y-90772506D01*
X107885640Y-90511353D01*
X107728597Y-90276321D01*
X107528719Y-90076443D01*
X107293687Y-89919400D01*
X107032534Y-89811227D01*
X106755295Y-89756080D01*
X106472625Y-89756080D01*
X106195386Y-89811227D01*
X105934233Y-89919400D01*
X105699201Y-90076443D01*
X105499323Y-90276321D01*
X105342280Y-90511353D01*
X105234107Y-90772506D01*
X105178960Y-91049745D01*
X103872400Y-91049745D01*
X103872400Y-86778140D01*
X105155720Y-86778140D01*
X105155720Y-87070660D01*
X105212788Y-87357558D01*
X105324730Y-87627811D01*
X105487245Y-87871032D01*
X105694088Y-88077875D01*
X105937309Y-88240390D01*
X106207562Y-88352332D01*
X106494460Y-88409400D01*
X106786980Y-88409400D01*
X107073878Y-88352332D01*
X107344131Y-88240390D01*
X107587352Y-88077875D01*
X107794195Y-87871032D01*
X107915915Y-87688866D01*
X107985542Y-87805755D01*
X108180451Y-88021988D01*
X108413800Y-88196041D01*
X108676621Y-88321225D01*
X108823830Y-88365876D01*
X109053720Y-88244555D01*
X109053720Y-87051400D01*
X109033720Y-87051400D01*
X109033720Y-86797400D01*
X109053720Y-86797400D01*
X109053720Y-85604245D01*
X109307720Y-85604245D01*
X109307720Y-86797400D01*
X109327720Y-86797400D01*
X109327720Y-87051400D01*
X109307720Y-87051400D01*
X109307720Y-88244555D01*
X109537610Y-88365876D01*
X109684819Y-88321225D01*
X109947640Y-88196041D01*
X110180989Y-88021988D01*
X110375898Y-87805755D01*
X110445525Y-87688866D01*
X110567245Y-87871032D01*
X110774088Y-88077875D01*
X111017309Y-88240390D01*
X111287562Y-88352332D01*
X111574460Y-88409400D01*
X111866980Y-88409400D01*
X112153878Y-88352332D01*
X112424131Y-88240390D01*
X112667352Y-88077875D01*
X112874195Y-87871032D01*
X112990720Y-87696640D01*
X113107245Y-87871032D01*
X113314088Y-88077875D01*
X113557309Y-88240390D01*
X113827562Y-88352332D01*
X114114460Y-88409400D01*
X114406980Y-88409400D01*
X114693878Y-88352332D01*
X114964131Y-88240390D01*
X115207352Y-88077875D01*
X115414195Y-87871032D01*
X115530720Y-87696640D01*
X115647245Y-87871032D01*
X115854088Y-88077875D01*
X116097309Y-88240390D01*
X116367562Y-88352332D01*
X116654460Y-88409400D01*
X116946980Y-88409400D01*
X117233878Y-88352332D01*
X117504131Y-88240390D01*
X117747352Y-88077875D01*
X117954195Y-87871032D01*
X118070720Y-87696640D01*
X118187245Y-87871032D01*
X118394088Y-88077875D01*
X118637309Y-88240390D01*
X118907562Y-88352332D01*
X119194460Y-88409400D01*
X119486980Y-88409400D01*
X119773878Y-88352332D01*
X120044131Y-88240390D01*
X120287352Y-88077875D01*
X120494195Y-87871032D01*
X120610720Y-87696640D01*
X120727245Y-87871032D01*
X120934088Y-88077875D01*
X121177309Y-88240390D01*
X121447562Y-88352332D01*
X121734460Y-88409400D01*
X122026980Y-88409400D01*
X122313878Y-88352332D01*
X122584131Y-88240390D01*
X122827352Y-88077875D01*
X123034195Y-87871032D01*
X123150720Y-87696640D01*
X123267245Y-87871032D01*
X123474088Y-88077875D01*
X123717309Y-88240390D01*
X123987562Y-88352332D01*
X124274460Y-88409400D01*
X124566980Y-88409400D01*
X124853878Y-88352332D01*
X125124131Y-88240390D01*
X125367352Y-88077875D01*
X125574195Y-87871032D01*
X125690720Y-87696640D01*
X125807245Y-87871032D01*
X126014088Y-88077875D01*
X126257309Y-88240390D01*
X126527562Y-88352332D01*
X126814460Y-88409400D01*
X127106980Y-88409400D01*
X127393878Y-88352332D01*
X127664131Y-88240390D01*
X127907352Y-88077875D01*
X128114195Y-87871032D01*
X128230720Y-87696640D01*
X128347245Y-87871032D01*
X128554088Y-88077875D01*
X128797309Y-88240390D01*
X129067562Y-88352332D01*
X129354460Y-88409400D01*
X129646980Y-88409400D01*
X129933878Y-88352332D01*
X130204131Y-88240390D01*
X130447352Y-88077875D01*
X130654195Y-87871032D01*
X130770720Y-87696640D01*
X130887245Y-87871032D01*
X131094088Y-88077875D01*
X131337309Y-88240390D01*
X131607562Y-88352332D01*
X131894460Y-88409400D01*
X132186980Y-88409400D01*
X132473878Y-88352332D01*
X132744131Y-88240390D01*
X132987352Y-88077875D01*
X133194195Y-87871032D01*
X133310720Y-87696640D01*
X133427245Y-87871032D01*
X133634088Y-88077875D01*
X133877309Y-88240390D01*
X134147562Y-88352332D01*
X134434460Y-88409400D01*
X134726980Y-88409400D01*
X135013878Y-88352332D01*
X135284131Y-88240390D01*
X135527352Y-88077875D01*
X135734195Y-87871032D01*
X135850720Y-87696640D01*
X135967245Y-87871032D01*
X136174088Y-88077875D01*
X136417309Y-88240390D01*
X136687562Y-88352332D01*
X136974460Y-88409400D01*
X137266980Y-88409400D01*
X137553878Y-88352332D01*
X137824131Y-88240390D01*
X138067352Y-88077875D01*
X138274195Y-87871032D01*
X138390720Y-87696640D01*
X138507245Y-87871032D01*
X138714088Y-88077875D01*
X138957309Y-88240390D01*
X139227562Y-88352332D01*
X139514460Y-88409400D01*
X139806980Y-88409400D01*
X140093878Y-88352332D01*
X140364131Y-88240390D01*
X140607352Y-88077875D01*
X140739207Y-87946020D01*
X140761218Y-88018580D01*
X140820183Y-88128894D01*
X140899535Y-88225585D01*
X140996226Y-88304937D01*
X141106540Y-88363902D01*
X141226238Y-88400212D01*
X141350720Y-88412472D01*
X143050720Y-88412472D01*
X143175202Y-88400212D01*
X143294900Y-88363902D01*
X143405214Y-88304937D01*
X143501905Y-88225585D01*
X143581257Y-88128894D01*
X143618680Y-88058882D01*
X143618680Y-88984435D01*
X147438680Y-88984435D01*
X147438680Y-84843006D01*
X143618680Y-84843006D01*
X143618680Y-85789918D01*
X143581257Y-85719906D01*
X143501905Y-85623215D01*
X143405214Y-85543863D01*
X143294900Y-85484898D01*
X143175202Y-85448588D01*
X143050720Y-85436328D01*
X141350720Y-85436328D01*
X141226238Y-85448588D01*
X141106540Y-85484898D01*
X140996226Y-85543863D01*
X140899535Y-85623215D01*
X140820183Y-85719906D01*
X140761218Y-85830220D01*
X140739207Y-85902780D01*
X140607352Y-85770925D01*
X140364131Y-85608410D01*
X140093878Y-85496468D01*
X139806980Y-85439400D01*
X139514460Y-85439400D01*
X139227562Y-85496468D01*
X138957309Y-85608410D01*
X138714088Y-85770925D01*
X138507245Y-85977768D01*
X138390720Y-86152160D01*
X138274195Y-85977768D01*
X138067352Y-85770925D01*
X137824131Y-85608410D01*
X137553878Y-85496468D01*
X137266980Y-85439400D01*
X136974460Y-85439400D01*
X136687562Y-85496468D01*
X136417309Y-85608410D01*
X136174088Y-85770925D01*
X135967245Y-85977768D01*
X135850720Y-86152160D01*
X135734195Y-85977768D01*
X135527352Y-85770925D01*
X135284131Y-85608410D01*
X135013878Y-85496468D01*
X134726980Y-85439400D01*
X134434460Y-85439400D01*
X134147562Y-85496468D01*
X133877309Y-85608410D01*
X133634088Y-85770925D01*
X133427245Y-85977768D01*
X133310720Y-86152160D01*
X133194195Y-85977768D01*
X132987352Y-85770925D01*
X132744131Y-85608410D01*
X132473878Y-85496468D01*
X132186980Y-85439400D01*
X131894460Y-85439400D01*
X131607562Y-85496468D01*
X131337309Y-85608410D01*
X131094088Y-85770925D01*
X130887245Y-85977768D01*
X130770720Y-86152160D01*
X130654195Y-85977768D01*
X130447352Y-85770925D01*
X130204131Y-85608410D01*
X129933878Y-85496468D01*
X129646980Y-85439400D01*
X129354460Y-85439400D01*
X129067562Y-85496468D01*
X128797309Y-85608410D01*
X128554088Y-85770925D01*
X128347245Y-85977768D01*
X128230720Y-86152160D01*
X128114195Y-85977768D01*
X127907352Y-85770925D01*
X127664131Y-85608410D01*
X127393878Y-85496468D01*
X127106980Y-85439400D01*
X126814460Y-85439400D01*
X126527562Y-85496468D01*
X126257309Y-85608410D01*
X126014088Y-85770925D01*
X125807245Y-85977768D01*
X125690720Y-86152160D01*
X125574195Y-85977768D01*
X125367352Y-85770925D01*
X125124131Y-85608410D01*
X124853878Y-85496468D01*
X124566980Y-85439400D01*
X124274460Y-85439400D01*
X123987562Y-85496468D01*
X123717309Y-85608410D01*
X123474088Y-85770925D01*
X123267245Y-85977768D01*
X123150720Y-86152160D01*
X123034195Y-85977768D01*
X122827352Y-85770925D01*
X122584131Y-85608410D01*
X122313878Y-85496468D01*
X122026980Y-85439400D01*
X121734460Y-85439400D01*
X121447562Y-85496468D01*
X121177309Y-85608410D01*
X120934088Y-85770925D01*
X120727245Y-85977768D01*
X120610720Y-86152160D01*
X120494195Y-85977768D01*
X120287352Y-85770925D01*
X120044131Y-85608410D01*
X119773878Y-85496468D01*
X119486980Y-85439400D01*
X119194460Y-85439400D01*
X118907562Y-85496468D01*
X118637309Y-85608410D01*
X118394088Y-85770925D01*
X118187245Y-85977768D01*
X118070720Y-86152160D01*
X117954195Y-85977768D01*
X117747352Y-85770925D01*
X117504131Y-85608410D01*
X117233878Y-85496468D01*
X116946980Y-85439400D01*
X116654460Y-85439400D01*
X116367562Y-85496468D01*
X116097309Y-85608410D01*
X115854088Y-85770925D01*
X115647245Y-85977768D01*
X115530720Y-86152160D01*
X115414195Y-85977768D01*
X115207352Y-85770925D01*
X114964131Y-85608410D01*
X114693878Y-85496468D01*
X114406980Y-85439400D01*
X114114460Y-85439400D01*
X113827562Y-85496468D01*
X113557309Y-85608410D01*
X113314088Y-85770925D01*
X113107245Y-85977768D01*
X112990720Y-86152160D01*
X112874195Y-85977768D01*
X112667352Y-85770925D01*
X112424131Y-85608410D01*
X112153878Y-85496468D01*
X111866980Y-85439400D01*
X111574460Y-85439400D01*
X111287562Y-85496468D01*
X111017309Y-85608410D01*
X110774088Y-85770925D01*
X110567245Y-85977768D01*
X110445525Y-86159934D01*
X110375898Y-86043045D01*
X110180989Y-85826812D01*
X109947640Y-85652759D01*
X109684819Y-85527575D01*
X109537610Y-85482924D01*
X109307720Y-85604245D01*
X109053720Y-85604245D01*
X108823830Y-85482924D01*
X108676621Y-85527575D01*
X108413800Y-85652759D01*
X108180451Y-85826812D01*
X107985542Y-86043045D01*
X107915915Y-86159934D01*
X107794195Y-85977768D01*
X107587352Y-85770925D01*
X107344131Y-85608410D01*
X107073878Y-85496468D01*
X106786980Y-85439400D01*
X106494460Y-85439400D01*
X106207562Y-85496468D01*
X105937309Y-85608410D01*
X105694088Y-85770925D01*
X105487245Y-85977768D01*
X105324730Y-86220989D01*
X105212788Y-86491242D01*
X105155720Y-86778140D01*
X103872400Y-86778140D01*
X103872400Y-84554980D01*
X153592160Y-84554980D01*
X153592160Y-84847500D01*
X153649228Y-85134398D01*
X153761170Y-85404651D01*
X153923685Y-85647872D01*
X154130528Y-85854715D01*
X154373749Y-86017230D01*
X154644002Y-86129172D01*
X154930900Y-86186240D01*
X155223420Y-86186240D01*
X155510318Y-86129172D01*
X155780571Y-86017230D01*
X156023792Y-85854715D01*
X156148870Y-85729637D01*
X158728368Y-85729637D01*
X158806003Y-85978712D01*
X159070043Y-86104611D01*
X159353571Y-86176579D01*
X159645691Y-86191851D01*
X159859440Y-86160831D01*
X159859440Y-89740799D01*
X159800749Y-89725901D01*
X159508629Y-89710629D01*
X159219141Y-89752641D01*
X158943413Y-89850321D01*
X158806003Y-89923768D01*
X158728368Y-90172843D01*
X159577160Y-91021635D01*
X159591303Y-91007493D01*
X159770908Y-91187098D01*
X159756765Y-91201240D01*
X160605557Y-92050032D01*
X160836206Y-91978140D01*
X166911920Y-91978140D01*
X166911920Y-92270660D01*
X166968988Y-92557558D01*
X167080930Y-92827811D01*
X167243445Y-93071032D01*
X167450288Y-93277875D01*
X167693509Y-93440390D01*
X167963762Y-93552332D01*
X168250660Y-93609400D01*
X168543180Y-93609400D01*
X168830078Y-93552332D01*
X169100331Y-93440390D01*
X169343552Y-93277875D01*
X169550395Y-93071032D01*
X169666920Y-92896640D01*
X169783445Y-93071032D01*
X169990288Y-93277875D01*
X170233509Y-93440390D01*
X170503762Y-93552332D01*
X170790660Y-93609400D01*
X171083180Y-93609400D01*
X171370078Y-93552332D01*
X171640331Y-93440390D01*
X171883552Y-93277875D01*
X172090395Y-93071032D01*
X172206920Y-92896640D01*
X172323445Y-93071032D01*
X172530288Y-93277875D01*
X172773509Y-93440390D01*
X173043762Y-93552332D01*
X173330660Y-93609400D01*
X173623180Y-93609400D01*
X173910078Y-93552332D01*
X174180331Y-93440390D01*
X174423552Y-93277875D01*
X174630395Y-93071032D01*
X174746920Y-92896640D01*
X174863445Y-93071032D01*
X175070288Y-93277875D01*
X175313509Y-93440390D01*
X175583762Y-93552332D01*
X175870660Y-93609400D01*
X176163180Y-93609400D01*
X176450078Y-93552332D01*
X176720331Y-93440390D01*
X176963552Y-93277875D01*
X177170395Y-93071032D01*
X177286920Y-92896640D01*
X177403445Y-93071032D01*
X177610288Y-93277875D01*
X177853509Y-93440390D01*
X178123762Y-93552332D01*
X178410660Y-93609400D01*
X178703180Y-93609400D01*
X178990078Y-93552332D01*
X179260331Y-93440390D01*
X179503552Y-93277875D01*
X179710395Y-93071032D01*
X179826920Y-92896640D01*
X179943445Y-93071032D01*
X180150288Y-93277875D01*
X180393509Y-93440390D01*
X180663762Y-93552332D01*
X180950660Y-93609400D01*
X181243180Y-93609400D01*
X181530078Y-93552332D01*
X181800331Y-93440390D01*
X182043552Y-93277875D01*
X182250395Y-93071032D01*
X182366920Y-92896640D01*
X182483445Y-93071032D01*
X182690288Y-93277875D01*
X182933509Y-93440390D01*
X183203762Y-93552332D01*
X183490660Y-93609400D01*
X183783180Y-93609400D01*
X184070078Y-93552332D01*
X184340331Y-93440390D01*
X184583552Y-93277875D01*
X184790395Y-93071032D01*
X184906920Y-92896640D01*
X185023445Y-93071032D01*
X185230288Y-93277875D01*
X185473509Y-93440390D01*
X185743762Y-93552332D01*
X186030660Y-93609400D01*
X186323180Y-93609400D01*
X186610078Y-93552332D01*
X186880331Y-93440390D01*
X187123552Y-93277875D01*
X187330395Y-93071032D01*
X187452115Y-92888866D01*
X187521742Y-93005755D01*
X187716651Y-93221988D01*
X187950000Y-93396041D01*
X188212821Y-93521225D01*
X188360030Y-93565876D01*
X188589920Y-93444555D01*
X188589920Y-92251400D01*
X188569920Y-92251400D01*
X188569920Y-91997400D01*
X188589920Y-91997400D01*
X188589920Y-90804245D01*
X188843920Y-90804245D01*
X188843920Y-91997400D01*
X188863920Y-91997400D01*
X188863920Y-92251400D01*
X188843920Y-92251400D01*
X188843920Y-93444555D01*
X189073810Y-93565876D01*
X189221019Y-93521225D01*
X189483840Y-93396041D01*
X189717189Y-93221988D01*
X189792954Y-93137934D01*
X189817418Y-93218580D01*
X189876383Y-93328894D01*
X189955735Y-93425585D01*
X190052426Y-93504937D01*
X190162740Y-93563902D01*
X190282438Y-93600212D01*
X190406920Y-93612472D01*
X192106920Y-93612472D01*
X192231402Y-93600212D01*
X192351100Y-93563902D01*
X192461414Y-93504937D01*
X192558105Y-93425585D01*
X192637457Y-93328894D01*
X192696422Y-93218580D01*
X192732732Y-93098882D01*
X192744992Y-92974400D01*
X192744992Y-91274400D01*
X192732732Y-91149918D01*
X192696422Y-91030220D01*
X192637457Y-90919906D01*
X192558105Y-90823215D01*
X192461414Y-90743863D01*
X192351100Y-90684898D01*
X192231402Y-90648588D01*
X192106920Y-90636328D01*
X190406920Y-90636328D01*
X190282438Y-90648588D01*
X190162740Y-90684898D01*
X190052426Y-90743863D01*
X189955735Y-90823215D01*
X189876383Y-90919906D01*
X189817418Y-91030220D01*
X189792954Y-91110866D01*
X189717189Y-91026812D01*
X189483840Y-90852759D01*
X189221019Y-90727575D01*
X189073810Y-90682924D01*
X188843920Y-90804245D01*
X188589920Y-90804245D01*
X188360030Y-90682924D01*
X188212821Y-90727575D01*
X187950000Y-90852759D01*
X187716651Y-91026812D01*
X187521742Y-91243045D01*
X187452115Y-91359934D01*
X187330395Y-91177768D01*
X187123552Y-90970925D01*
X186880331Y-90808410D01*
X186610078Y-90696468D01*
X186323180Y-90639400D01*
X186030660Y-90639400D01*
X185743762Y-90696468D01*
X185473509Y-90808410D01*
X185230288Y-90970925D01*
X185023445Y-91177768D01*
X184906920Y-91352160D01*
X184790395Y-91177768D01*
X184583552Y-90970925D01*
X184340331Y-90808410D01*
X184070078Y-90696468D01*
X183783180Y-90639400D01*
X183490660Y-90639400D01*
X183203762Y-90696468D01*
X182933509Y-90808410D01*
X182690288Y-90970925D01*
X182483445Y-91177768D01*
X182366920Y-91352160D01*
X182250395Y-91177768D01*
X182043552Y-90970925D01*
X181800331Y-90808410D01*
X181530078Y-90696468D01*
X181243180Y-90639400D01*
X180950660Y-90639400D01*
X180663762Y-90696468D01*
X180393509Y-90808410D01*
X180150288Y-90970925D01*
X179943445Y-91177768D01*
X179826920Y-91352160D01*
X179710395Y-91177768D01*
X179503552Y-90970925D01*
X179260331Y-90808410D01*
X178990078Y-90696468D01*
X178703180Y-90639400D01*
X178410660Y-90639400D01*
X178123762Y-90696468D01*
X177853509Y-90808410D01*
X177610288Y-90970925D01*
X177403445Y-91177768D01*
X177286920Y-91352160D01*
X177170395Y-91177768D01*
X176963552Y-90970925D01*
X176720331Y-90808410D01*
X176450078Y-90696468D01*
X176163180Y-90639400D01*
X175870660Y-90639400D01*
X175583762Y-90696468D01*
X175313509Y-90808410D01*
X175070288Y-90970925D01*
X174863445Y-91177768D01*
X174746920Y-91352160D01*
X174630395Y-91177768D01*
X174423552Y-90970925D01*
X174180331Y-90808410D01*
X173910078Y-90696468D01*
X173623180Y-90639400D01*
X173330660Y-90639400D01*
X173043762Y-90696468D01*
X172773509Y-90808410D01*
X172530288Y-90970925D01*
X172323445Y-91177768D01*
X172206920Y-91352160D01*
X172090395Y-91177768D01*
X171883552Y-90970925D01*
X171640331Y-90808410D01*
X171370078Y-90696468D01*
X171083180Y-90639400D01*
X170790660Y-90639400D01*
X170503762Y-90696468D01*
X170233509Y-90808410D01*
X169990288Y-90970925D01*
X169783445Y-91177768D01*
X169666920Y-91352160D01*
X169550395Y-91177768D01*
X169343552Y-90970925D01*
X169100331Y-90808410D01*
X168830078Y-90696468D01*
X168543180Y-90639400D01*
X168250660Y-90639400D01*
X167963762Y-90696468D01*
X167693509Y-90808410D01*
X167450288Y-90970925D01*
X167243445Y-91177768D01*
X167080930Y-91420989D01*
X166968988Y-91691242D01*
X166911920Y-91978140D01*
X160836206Y-91978140D01*
X160854632Y-91972397D01*
X160980531Y-91708357D01*
X161052499Y-91424829D01*
X161067771Y-91132709D01*
X161025759Y-90843221D01*
X160928079Y-90567493D01*
X160854632Y-90430083D01*
X160605559Y-90352449D01*
X160721664Y-90236344D01*
X160704812Y-90219492D01*
X163679440Y-90219492D01*
X163679440Y-89998280D01*
X192772760Y-89998280D01*
X192772760Y-94568280D01*
X196592760Y-94568280D01*
X196592760Y-89998280D01*
X192772760Y-89998280D01*
X163679440Y-89998280D01*
X163679440Y-88785262D01*
X186698583Y-88785262D01*
X186770166Y-89029231D01*
X187025676Y-89150131D01*
X187299864Y-89218860D01*
X187582192Y-89232777D01*
X187861810Y-89191347D01*
X188127972Y-89096163D01*
X188253194Y-89029231D01*
X188324777Y-88785262D01*
X187511680Y-87972165D01*
X186698583Y-88785262D01*
X163679440Y-88785262D01*
X163679440Y-87863072D01*
X186071463Y-87863072D01*
X186112893Y-88142690D01*
X186208077Y-88408852D01*
X186275009Y-88534074D01*
X186518978Y-88605657D01*
X187332075Y-87792560D01*
X187691285Y-87792560D01*
X188504382Y-88605657D01*
X188748351Y-88534074D01*
X188869251Y-88278564D01*
X188937980Y-88004376D01*
X188951897Y-87722048D01*
X188941404Y-87651225D01*
X191076680Y-87651225D01*
X191076680Y-87933895D01*
X191131827Y-88211134D01*
X191240000Y-88472287D01*
X191397043Y-88707319D01*
X191596921Y-88907197D01*
X191831953Y-89064240D01*
X192093106Y-89172413D01*
X192370345Y-89227560D01*
X192653015Y-89227560D01*
X192930254Y-89172413D01*
X193191407Y-89064240D01*
X193426439Y-88907197D01*
X193626317Y-88707319D01*
X193783360Y-88472287D01*
X193891533Y-88211134D01*
X193946680Y-87933895D01*
X193946680Y-87651225D01*
X193891533Y-87373986D01*
X193783360Y-87112833D01*
X193626317Y-86877801D01*
X193426439Y-86677923D01*
X193191407Y-86520880D01*
X192930254Y-86412707D01*
X192653015Y-86357560D01*
X192370345Y-86357560D01*
X192093106Y-86412707D01*
X191831953Y-86520880D01*
X191596921Y-86677923D01*
X191397043Y-86877801D01*
X191240000Y-87112833D01*
X191131827Y-87373986D01*
X191076680Y-87651225D01*
X188941404Y-87651225D01*
X188910467Y-87442430D01*
X188815283Y-87176268D01*
X188748351Y-87051046D01*
X188504382Y-86979463D01*
X187691285Y-87792560D01*
X187332075Y-87792560D01*
X186518978Y-86979463D01*
X186275009Y-87051046D01*
X186154109Y-87306556D01*
X186085380Y-87580744D01*
X186071463Y-87863072D01*
X163679440Y-87863072D01*
X163679440Y-86799858D01*
X186698583Y-86799858D01*
X187511680Y-87612955D01*
X188324777Y-86799858D01*
X188253194Y-86555889D01*
X187997684Y-86434989D01*
X187723496Y-86366260D01*
X187441168Y-86352343D01*
X187161550Y-86393773D01*
X186895388Y-86488957D01*
X186770166Y-86555889D01*
X186698583Y-86799858D01*
X163679440Y-86799858D01*
X163679440Y-85792349D01*
X160406405Y-85792349D01*
X160425952Y-85729637D01*
X159577160Y-84880845D01*
X158728368Y-85729637D01*
X156148870Y-85729637D01*
X156230635Y-85647872D01*
X156393150Y-85404651D01*
X156505092Y-85134398D01*
X156562160Y-84847500D01*
X156562160Y-84769771D01*
X158086549Y-84769771D01*
X158128561Y-85059259D01*
X158226241Y-85334987D01*
X158299688Y-85472397D01*
X158548763Y-85550032D01*
X159397555Y-84701240D01*
X159756765Y-84701240D01*
X160605557Y-85550032D01*
X160854632Y-85472397D01*
X160980531Y-85208357D01*
X161052499Y-84924829D01*
X161067771Y-84632709D01*
X161025759Y-84343221D01*
X160928079Y-84067493D01*
X160854632Y-83930083D01*
X160605557Y-83852448D01*
X159756765Y-84701240D01*
X159397555Y-84701240D01*
X158548763Y-83852448D01*
X158299688Y-83930083D01*
X158173789Y-84194123D01*
X158101821Y-84477651D01*
X158086549Y-84769771D01*
X156562160Y-84769771D01*
X156562160Y-84554980D01*
X156505092Y-84268082D01*
X156393150Y-83997829D01*
X156230635Y-83754608D01*
X156148870Y-83672843D01*
X158728368Y-83672843D01*
X159577160Y-84521635D01*
X160425952Y-83672843D01*
X160348317Y-83423768D01*
X160084277Y-83297869D01*
X159800749Y-83225901D01*
X159508629Y-83210629D01*
X159219141Y-83252641D01*
X158943413Y-83350321D01*
X158806003Y-83423768D01*
X158728368Y-83672843D01*
X156148870Y-83672843D01*
X156023792Y-83547765D01*
X155780571Y-83385250D01*
X155510318Y-83273308D01*
X155223420Y-83216240D01*
X154930900Y-83216240D01*
X154644002Y-83273308D01*
X154373749Y-83385250D01*
X154130528Y-83547765D01*
X153923685Y-83754608D01*
X153761170Y-83997829D01*
X153649228Y-84268082D01*
X153592160Y-84554980D01*
X103872400Y-84554980D01*
X103872400Y-82949960D01*
X197552401Y-82949960D01*
X197552400Y-116629960D01*
G04 #@! TA.AperFunction,Conductor*
D20*
G36*
X197552400Y-116629960D02*
G01*
X103872400Y-116629960D01*
X103872400Y-114651580D01*
X153592160Y-114651580D01*
X153592160Y-114944100D01*
X153649228Y-115230998D01*
X153761170Y-115501251D01*
X153923685Y-115744472D01*
X154130528Y-115951315D01*
X154373749Y-116113830D01*
X154644002Y-116225772D01*
X154930900Y-116282840D01*
X155223420Y-116282840D01*
X155510318Y-116225772D01*
X155780571Y-116113830D01*
X156023792Y-115951315D01*
X156148870Y-115826237D01*
X158728368Y-115826237D01*
X158806003Y-116075312D01*
X159070043Y-116201211D01*
X159353571Y-116273179D01*
X159645691Y-116288451D01*
X159935179Y-116246439D01*
X160210907Y-116148759D01*
X160348317Y-116075312D01*
X160425952Y-115826237D01*
X159577160Y-114977445D01*
X158728368Y-115826237D01*
X156148870Y-115826237D01*
X156230635Y-115744472D01*
X156393150Y-115501251D01*
X156505092Y-115230998D01*
X156562160Y-114944100D01*
X156562160Y-114866371D01*
X158086549Y-114866371D01*
X158128561Y-115155859D01*
X158226241Y-115431587D01*
X158299688Y-115568997D01*
X158548763Y-115646632D01*
X159397555Y-114797840D01*
X158548763Y-113949048D01*
X158299688Y-114026683D01*
X158173789Y-114290723D01*
X158101821Y-114574251D01*
X158086549Y-114866371D01*
X156562160Y-114866371D01*
X156562160Y-114651580D01*
X156505092Y-114364682D01*
X156393150Y-114094429D01*
X156230635Y-113851208D01*
X156023792Y-113644365D01*
X155780571Y-113481850D01*
X155510318Y-113369908D01*
X155223420Y-113312840D01*
X154930900Y-113312840D01*
X154644002Y-113369908D01*
X154373749Y-113481850D01*
X154130528Y-113644365D01*
X153923685Y-113851208D01*
X153761170Y-114094429D01*
X153649228Y-114364682D01*
X153592160Y-114651580D01*
X103872400Y-114651580D01*
X103872400Y-112178140D01*
X105155720Y-112178140D01*
X105155720Y-112470660D01*
X105212788Y-112757558D01*
X105324730Y-113027811D01*
X105487245Y-113271032D01*
X105694088Y-113477875D01*
X105937309Y-113640390D01*
X106207562Y-113752332D01*
X106494460Y-113809400D01*
X106786980Y-113809400D01*
X107073878Y-113752332D01*
X107344131Y-113640390D01*
X107587352Y-113477875D01*
X107794195Y-113271032D01*
X107915915Y-113088866D01*
X107985542Y-113205755D01*
X108180451Y-113421988D01*
X108413800Y-113596041D01*
X108676621Y-113721225D01*
X108823830Y-113765876D01*
X109053720Y-113644555D01*
X109053720Y-112451400D01*
X109033720Y-112451400D01*
X109033720Y-112197400D01*
X109053720Y-112197400D01*
X109053720Y-111004245D01*
X109307720Y-111004245D01*
X109307720Y-112197400D01*
X109327720Y-112197400D01*
X109327720Y-112451400D01*
X109307720Y-112451400D01*
X109307720Y-113644555D01*
X109537610Y-113765876D01*
X109684819Y-113721225D01*
X109947640Y-113596041D01*
X110180989Y-113421988D01*
X110375898Y-113205755D01*
X110445525Y-113088866D01*
X110567245Y-113271032D01*
X110774088Y-113477875D01*
X111017309Y-113640390D01*
X111287562Y-113752332D01*
X111574460Y-113809400D01*
X111866980Y-113809400D01*
X112153878Y-113752332D01*
X112424131Y-113640390D01*
X112667352Y-113477875D01*
X112874195Y-113271032D01*
X112990720Y-113096640D01*
X113107245Y-113271032D01*
X113314088Y-113477875D01*
X113557309Y-113640390D01*
X113827562Y-113752332D01*
X114114460Y-113809400D01*
X114406980Y-113809400D01*
X114693878Y-113752332D01*
X114964131Y-113640390D01*
X115207352Y-113477875D01*
X115414195Y-113271032D01*
X115530720Y-113096640D01*
X115647245Y-113271032D01*
X115854088Y-113477875D01*
X116097309Y-113640390D01*
X116367562Y-113752332D01*
X116654460Y-113809400D01*
X116946980Y-113809400D01*
X117233878Y-113752332D01*
X117504131Y-113640390D01*
X117747352Y-113477875D01*
X117954195Y-113271032D01*
X118070720Y-113096640D01*
X118187245Y-113271032D01*
X118394088Y-113477875D01*
X118637309Y-113640390D01*
X118907562Y-113752332D01*
X119194460Y-113809400D01*
X119486980Y-113809400D01*
X119773878Y-113752332D01*
X120044131Y-113640390D01*
X120287352Y-113477875D01*
X120494195Y-113271032D01*
X120610720Y-113096640D01*
X120727245Y-113271032D01*
X120934088Y-113477875D01*
X121177309Y-113640390D01*
X121447562Y-113752332D01*
X121734460Y-113809400D01*
X122026980Y-113809400D01*
X122313878Y-113752332D01*
X122584131Y-113640390D01*
X122827352Y-113477875D01*
X123034195Y-113271032D01*
X123150720Y-113096640D01*
X123267245Y-113271032D01*
X123474088Y-113477875D01*
X123717309Y-113640390D01*
X123987562Y-113752332D01*
X124274460Y-113809400D01*
X124566980Y-113809400D01*
X124853878Y-113752332D01*
X125124131Y-113640390D01*
X125367352Y-113477875D01*
X125574195Y-113271032D01*
X125690720Y-113096640D01*
X125807245Y-113271032D01*
X126014088Y-113477875D01*
X126257309Y-113640390D01*
X126527562Y-113752332D01*
X126814460Y-113809400D01*
X127106980Y-113809400D01*
X127393878Y-113752332D01*
X127664131Y-113640390D01*
X127907352Y-113477875D01*
X128114195Y-113271032D01*
X128230720Y-113096640D01*
X128347245Y-113271032D01*
X128554088Y-113477875D01*
X128797309Y-113640390D01*
X129067562Y-113752332D01*
X129354460Y-113809400D01*
X129646980Y-113809400D01*
X129933878Y-113752332D01*
X130204131Y-113640390D01*
X130447352Y-113477875D01*
X130654195Y-113271032D01*
X130770720Y-113096640D01*
X130887245Y-113271032D01*
X131094088Y-113477875D01*
X131337309Y-113640390D01*
X131607562Y-113752332D01*
X131894460Y-113809400D01*
X132186980Y-113809400D01*
X132473878Y-113752332D01*
X132744131Y-113640390D01*
X132987352Y-113477875D01*
X133194195Y-113271032D01*
X133310720Y-113096640D01*
X133427245Y-113271032D01*
X133634088Y-113477875D01*
X133877309Y-113640390D01*
X134147562Y-113752332D01*
X134434460Y-113809400D01*
X134726980Y-113809400D01*
X135013878Y-113752332D01*
X135284131Y-113640390D01*
X135527352Y-113477875D01*
X135734195Y-113271032D01*
X135850720Y-113096640D01*
X135967245Y-113271032D01*
X136174088Y-113477875D01*
X136417309Y-113640390D01*
X136687562Y-113752332D01*
X136974460Y-113809400D01*
X137266980Y-113809400D01*
X137553878Y-113752332D01*
X137824131Y-113640390D01*
X138067352Y-113477875D01*
X138274195Y-113271032D01*
X138390720Y-113096640D01*
X138507245Y-113271032D01*
X138714088Y-113477875D01*
X138957309Y-113640390D01*
X139227562Y-113752332D01*
X139514460Y-113809400D01*
X139806980Y-113809400D01*
X140093878Y-113752332D01*
X140364131Y-113640390D01*
X140607352Y-113477875D01*
X140739207Y-113346020D01*
X140761218Y-113418580D01*
X140820183Y-113528894D01*
X140899535Y-113625585D01*
X140996226Y-113704937D01*
X141106540Y-113763902D01*
X141226238Y-113800212D01*
X141350720Y-113812472D01*
X143050720Y-113812472D01*
X143175202Y-113800212D01*
X143294900Y-113763902D01*
X143390080Y-113713026D01*
X143390080Y-114242195D01*
X147210080Y-114242195D01*
X147210080Y-110100766D01*
X143390080Y-110100766D01*
X143390080Y-110935774D01*
X143294900Y-110884898D01*
X143175202Y-110848588D01*
X143050720Y-110836328D01*
X141350720Y-110836328D01*
X141226238Y-110848588D01*
X141106540Y-110884898D01*
X140996226Y-110943863D01*
X140899535Y-111023215D01*
X140820183Y-111119906D01*
X140761218Y-111230220D01*
X140739207Y-111302780D01*
X140607352Y-111170925D01*
X140364131Y-111008410D01*
X140093878Y-110896468D01*
X139806980Y-110839400D01*
X139514460Y-110839400D01*
X139227562Y-110896468D01*
X138957309Y-111008410D01*
X138714088Y-111170925D01*
X138507245Y-111377768D01*
X138390720Y-111552160D01*
X138274195Y-111377768D01*
X138067352Y-111170925D01*
X137824131Y-111008410D01*
X137553878Y-110896468D01*
X137266980Y-110839400D01*
X136974460Y-110839400D01*
X136687562Y-110896468D01*
X136417309Y-111008410D01*
X136174088Y-111170925D01*
X135967245Y-111377768D01*
X135850720Y-111552160D01*
X135734195Y-111377768D01*
X135527352Y-111170925D01*
X135284131Y-111008410D01*
X135013878Y-110896468D01*
X134726980Y-110839400D01*
X134434460Y-110839400D01*
X134147562Y-110896468D01*
X133877309Y-111008410D01*
X133634088Y-111170925D01*
X133427245Y-111377768D01*
X133310720Y-111552160D01*
X133194195Y-111377768D01*
X132987352Y-111170925D01*
X132744131Y-111008410D01*
X132473878Y-110896468D01*
X132186980Y-110839400D01*
X131894460Y-110839400D01*
X131607562Y-110896468D01*
X131337309Y-111008410D01*
X131094088Y-111170925D01*
X130887245Y-111377768D01*
X130770720Y-111552160D01*
X130654195Y-111377768D01*
X130447352Y-111170925D01*
X130204131Y-111008410D01*
X129933878Y-110896468D01*
X129646980Y-110839400D01*
X129354460Y-110839400D01*
X129067562Y-110896468D01*
X128797309Y-111008410D01*
X128554088Y-111170925D01*
X128347245Y-111377768D01*
X128230720Y-111552160D01*
X128114195Y-111377768D01*
X127907352Y-111170925D01*
X127664131Y-111008410D01*
X127393878Y-110896468D01*
X127106980Y-110839400D01*
X126814460Y-110839400D01*
X126527562Y-110896468D01*
X126257309Y-111008410D01*
X126014088Y-111170925D01*
X125807245Y-111377768D01*
X125690720Y-111552160D01*
X125574195Y-111377768D01*
X125367352Y-111170925D01*
X125124131Y-111008410D01*
X124853878Y-110896468D01*
X124566980Y-110839400D01*
X124274460Y-110839400D01*
X123987562Y-110896468D01*
X123717309Y-111008410D01*
X123474088Y-111170925D01*
X123267245Y-111377768D01*
X123150720Y-111552160D01*
X123034195Y-111377768D01*
X122827352Y-111170925D01*
X122584131Y-111008410D01*
X122313878Y-110896468D01*
X122026980Y-110839400D01*
X121734460Y-110839400D01*
X121447562Y-110896468D01*
X121177309Y-111008410D01*
X120934088Y-111170925D01*
X120727245Y-111377768D01*
X120610720Y-111552160D01*
X120494195Y-111377768D01*
X120287352Y-111170925D01*
X120044131Y-111008410D01*
X119773878Y-110896468D01*
X119486980Y-110839400D01*
X119194460Y-110839400D01*
X118907562Y-110896468D01*
X118637309Y-111008410D01*
X118394088Y-111170925D01*
X118187245Y-111377768D01*
X118070720Y-111552160D01*
X117954195Y-111377768D01*
X117747352Y-111170925D01*
X117504131Y-111008410D01*
X117233878Y-110896468D01*
X116946980Y-110839400D01*
X116654460Y-110839400D01*
X116367562Y-110896468D01*
X116097309Y-111008410D01*
X115854088Y-111170925D01*
X115647245Y-111377768D01*
X115530720Y-111552160D01*
X115414195Y-111377768D01*
X115207352Y-111170925D01*
X114964131Y-111008410D01*
X114693878Y-110896468D01*
X114406980Y-110839400D01*
X114114460Y-110839400D01*
X113827562Y-110896468D01*
X113557309Y-111008410D01*
X113314088Y-111170925D01*
X113107245Y-111377768D01*
X112990720Y-111552160D01*
X112874195Y-111377768D01*
X112667352Y-111170925D01*
X112424131Y-111008410D01*
X112153878Y-110896468D01*
X111866980Y-110839400D01*
X111574460Y-110839400D01*
X111287562Y-110896468D01*
X111017309Y-111008410D01*
X110774088Y-111170925D01*
X110567245Y-111377768D01*
X110445525Y-111559934D01*
X110375898Y-111443045D01*
X110180989Y-111226812D01*
X109947640Y-111052759D01*
X109684819Y-110927575D01*
X109537610Y-110882924D01*
X109307720Y-111004245D01*
X109053720Y-111004245D01*
X108823830Y-110882924D01*
X108676621Y-110927575D01*
X108413800Y-111052759D01*
X108180451Y-111226812D01*
X107985542Y-111443045D01*
X107915915Y-111559934D01*
X107794195Y-111377768D01*
X107587352Y-111170925D01*
X107344131Y-111008410D01*
X107073878Y-110896468D01*
X106786980Y-110839400D01*
X106494460Y-110839400D01*
X106207562Y-110896468D01*
X105937309Y-111008410D01*
X105694088Y-111170925D01*
X105487245Y-111377768D01*
X105324730Y-111620989D01*
X105212788Y-111891242D01*
X105155720Y-112178140D01*
X103872400Y-112178140D01*
X103872400Y-91049745D01*
X105178960Y-91049745D01*
X105178960Y-91332415D01*
X105234107Y-91609654D01*
X105342280Y-91870807D01*
X105499323Y-92105839D01*
X105699201Y-92305717D01*
X105853960Y-92409124D01*
X105853961Y-97406785D01*
X105709361Y-97503403D01*
X105509483Y-97703281D01*
X105352440Y-97938313D01*
X105244267Y-98199466D01*
X105189120Y-98476705D01*
X105189120Y-98759375D01*
X105244267Y-99036614D01*
X105352440Y-99297767D01*
X105509483Y-99532799D01*
X105709361Y-99732677D01*
X105944393Y-99889720D01*
X106205546Y-99997893D01*
X106482785Y-100053040D01*
X106765455Y-100053040D01*
X106819161Y-100042357D01*
X106819160Y-108201329D01*
X106775223Y-108245266D01*
X106661955Y-108414784D01*
X106583934Y-108603142D01*
X106544160Y-108803101D01*
X106544160Y-109006979D01*
X106583934Y-109206938D01*
X106661955Y-109395296D01*
X106775223Y-109564814D01*
X106919386Y-109708977D01*
X107088904Y-109822245D01*
X107277262Y-109900266D01*
X107477221Y-109940040D01*
X107681099Y-109940040D01*
X107881058Y-109900266D01*
X108069416Y-109822245D01*
X108238934Y-109708977D01*
X108383097Y-109564814D01*
X108496365Y-109395296D01*
X108574386Y-109206938D01*
X108614160Y-109006979D01*
X108614160Y-108803101D01*
X108574386Y-108603142D01*
X108496365Y-108414784D01*
X108383097Y-108245266D01*
X108339160Y-108201329D01*
X108339160Y-108151580D01*
X153592160Y-108151580D01*
X153592160Y-108444100D01*
X153649228Y-108730998D01*
X153761170Y-109001251D01*
X153923685Y-109244472D01*
X154130528Y-109451315D01*
X154373749Y-109613830D01*
X154644002Y-109725772D01*
X154930900Y-109782840D01*
X155223420Y-109782840D01*
X155510318Y-109725772D01*
X155780571Y-109613830D01*
X156023792Y-109451315D01*
X156148870Y-109326237D01*
X158728368Y-109326237D01*
X158806003Y-109575312D01*
X159070043Y-109701211D01*
X159353571Y-109773179D01*
X159645691Y-109788451D01*
X159768000Y-109770701D01*
X159768000Y-113320789D01*
X159508629Y-113307229D01*
X159219141Y-113349241D01*
X158943413Y-113446921D01*
X158806003Y-113520368D01*
X158728368Y-113769443D01*
X159577160Y-114618235D01*
X159591303Y-114604093D01*
X159770908Y-114783698D01*
X159756765Y-114797840D01*
X160605557Y-115646632D01*
X160854632Y-115568997D01*
X160980531Y-115304957D01*
X161052499Y-115021429D01*
X161067771Y-114729309D01*
X161025759Y-114439821D01*
X160928079Y-114164093D01*
X160854632Y-114026683D01*
X160605559Y-113949049D01*
X160647076Y-113907532D01*
X163588000Y-113907532D01*
X163588000Y-109480389D01*
X160377904Y-109480389D01*
X160425952Y-109326237D01*
X159577160Y-108477445D01*
X158728368Y-109326237D01*
X156148870Y-109326237D01*
X156230635Y-109244472D01*
X156393150Y-109001251D01*
X156505092Y-108730998D01*
X156562160Y-108444100D01*
X156562160Y-108366371D01*
X158086549Y-108366371D01*
X158128561Y-108655859D01*
X158226241Y-108931587D01*
X158299688Y-109068997D01*
X158548763Y-109146632D01*
X159397555Y-108297840D01*
X159756765Y-108297840D01*
X160605557Y-109146632D01*
X160854632Y-109068997D01*
X160980531Y-108804957D01*
X161052499Y-108521429D01*
X161067771Y-108229309D01*
X161025759Y-107939821D01*
X160928079Y-107664093D01*
X160884414Y-107582400D01*
X172164269Y-107582400D01*
X172164269Y-111402400D01*
X177378555Y-111402400D01*
X177378555Y-114999040D01*
X194734269Y-114999040D01*
X194734269Y-107582400D01*
X172164269Y-107582400D01*
X160884414Y-107582400D01*
X160854632Y-107526683D01*
X160605557Y-107449048D01*
X159756765Y-108297840D01*
X159397555Y-108297840D01*
X158548763Y-107449048D01*
X158299688Y-107526683D01*
X158173789Y-107790723D01*
X158101821Y-108074251D01*
X158086549Y-108366371D01*
X156562160Y-108366371D01*
X156562160Y-108151580D01*
X156505092Y-107864682D01*
X156393150Y-107594429D01*
X156230635Y-107351208D01*
X156148870Y-107269443D01*
X158728368Y-107269443D01*
X159577160Y-108118235D01*
X160425952Y-107269443D01*
X160348317Y-107020368D01*
X160084277Y-106894469D01*
X159800749Y-106822501D01*
X159508629Y-106807229D01*
X159219141Y-106849241D01*
X158943413Y-106946921D01*
X158806003Y-107020368D01*
X158728368Y-107269443D01*
X156148870Y-107269443D01*
X156023792Y-107144365D01*
X155780571Y-106981850D01*
X155510318Y-106869908D01*
X155223420Y-106812840D01*
X154930900Y-106812840D01*
X154644002Y-106869908D01*
X154373749Y-106981850D01*
X154130528Y-107144365D01*
X153923685Y-107351208D01*
X153761170Y-107594429D01*
X153649228Y-107864682D01*
X153592160Y-108151580D01*
X108339160Y-108151580D01*
X108339160Y-103248022D01*
X110981183Y-103248022D01*
X111052766Y-103491991D01*
X111308276Y-103612891D01*
X111582464Y-103681620D01*
X111864792Y-103695537D01*
X112144410Y-103654107D01*
X112410572Y-103558923D01*
X112535794Y-103491991D01*
X112607377Y-103248022D01*
X111794280Y-102434925D01*
X110981183Y-103248022D01*
X108339160Y-103248022D01*
X108339160Y-102325832D01*
X110354063Y-102325832D01*
X110395493Y-102605450D01*
X110490677Y-102871612D01*
X110557609Y-102996834D01*
X110801578Y-103068417D01*
X111614675Y-102255320D01*
X111973885Y-102255320D01*
X112786982Y-103068417D01*
X113030951Y-102996834D01*
X113151851Y-102741324D01*
X113220580Y-102467136D01*
X113234497Y-102184808D01*
X113224004Y-102113985D01*
X115359280Y-102113985D01*
X115359280Y-102396655D01*
X115414427Y-102673894D01*
X115522600Y-102935047D01*
X115679643Y-103170079D01*
X115879521Y-103369957D01*
X116114553Y-103527000D01*
X116375706Y-103635173D01*
X116652945Y-103690320D01*
X116935615Y-103690320D01*
X117212854Y-103635173D01*
X117474007Y-103527000D01*
X117709039Y-103369957D01*
X117908917Y-103170079D01*
X118065960Y-102935047D01*
X118174133Y-102673894D01*
X118229280Y-102396655D01*
X118229280Y-102113985D01*
X118174133Y-101836746D01*
X118065960Y-101575593D01*
X117908917Y-101340561D01*
X117709039Y-101140683D01*
X117629932Y-101087825D01*
X179661920Y-101087825D01*
X179661920Y-101370495D01*
X179717067Y-101647734D01*
X179825240Y-101908887D01*
X179982283Y-102143919D01*
X180182161Y-102343797D01*
X180417193Y-102500840D01*
X180678346Y-102609013D01*
X180955585Y-102664160D01*
X181238255Y-102664160D01*
X181515494Y-102609013D01*
X181776647Y-102500840D01*
X182011679Y-102343797D01*
X182211557Y-102143919D01*
X182368600Y-101908887D01*
X182476773Y-101647734D01*
X182531920Y-101370495D01*
X182531920Y-101087825D01*
X189821920Y-101087825D01*
X189821920Y-101370495D01*
X189877067Y-101647734D01*
X189985240Y-101908887D01*
X190142283Y-102143919D01*
X190342161Y-102343797D01*
X190577193Y-102500840D01*
X190838346Y-102609013D01*
X191115585Y-102664160D01*
X191398255Y-102664160D01*
X191675494Y-102609013D01*
X191936647Y-102500840D01*
X192171679Y-102343797D01*
X192371557Y-102143919D01*
X192528600Y-101908887D01*
X192636773Y-101647734D01*
X192691920Y-101370495D01*
X192691920Y-101087825D01*
X192636773Y-100810586D01*
X192528600Y-100549433D01*
X192371557Y-100314401D01*
X192171679Y-100114523D01*
X191936647Y-99957480D01*
X191675494Y-99849307D01*
X191398255Y-99794160D01*
X191115585Y-99794160D01*
X190838346Y-99849307D01*
X190577193Y-99957480D01*
X190342161Y-100114523D01*
X190142283Y-100314401D01*
X189985240Y-100549433D01*
X189877067Y-100810586D01*
X189821920Y-101087825D01*
X182531920Y-101087825D01*
X182476773Y-100810586D01*
X182368600Y-100549433D01*
X182211557Y-100314401D01*
X182011679Y-100114523D01*
X181776647Y-99957480D01*
X181515494Y-99849307D01*
X181238255Y-99794160D01*
X180955585Y-99794160D01*
X180678346Y-99849307D01*
X180417193Y-99957480D01*
X180182161Y-100114523D01*
X179982283Y-100314401D01*
X179825240Y-100549433D01*
X179717067Y-100810586D01*
X179661920Y-101087825D01*
X117629932Y-101087825D01*
X117474007Y-100983640D01*
X117212854Y-100875467D01*
X116935615Y-100820320D01*
X116652945Y-100820320D01*
X116375706Y-100875467D01*
X116114553Y-100983640D01*
X115879521Y-101140683D01*
X115679643Y-101340561D01*
X115522600Y-101575593D01*
X115414427Y-101836746D01*
X115359280Y-102113985D01*
X113224004Y-102113985D01*
X113193067Y-101905190D01*
X113097883Y-101639028D01*
X113030951Y-101513806D01*
X112786982Y-101442223D01*
X111973885Y-102255320D01*
X111614675Y-102255320D01*
X110801578Y-101442223D01*
X110557609Y-101513806D01*
X110436709Y-101769316D01*
X110367980Y-102043504D01*
X110354063Y-102325832D01*
X108339160Y-102325832D01*
X108339160Y-101262618D01*
X110981183Y-101262618D01*
X111794280Y-102075715D01*
X112607377Y-101262618D01*
X112535794Y-101018649D01*
X112280284Y-100897749D01*
X112006096Y-100829020D01*
X111723768Y-100815103D01*
X111444150Y-100856533D01*
X111177988Y-100951717D01*
X111052766Y-101018649D01*
X110981183Y-101262618D01*
X108339160Y-101262618D01*
X108339160Y-99610413D01*
X108342837Y-99573080D01*
X108328163Y-99424094D01*
X108284706Y-99280833D01*
X108214134Y-99148804D01*
X108142959Y-99062077D01*
X108119161Y-99033079D01*
X108090163Y-99009281D01*
X108022808Y-98941926D01*
X108059120Y-98759375D01*
X108059120Y-98476705D01*
X115349120Y-98476705D01*
X115349120Y-98759375D01*
X115404267Y-99036614D01*
X115512440Y-99297767D01*
X115669483Y-99532799D01*
X115869361Y-99732677D01*
X116104393Y-99889720D01*
X116365546Y-99997893D01*
X116642785Y-100053040D01*
X116925455Y-100053040D01*
X117202694Y-99997893D01*
X117463847Y-99889720D01*
X117698879Y-99732677D01*
X117898757Y-99532799D01*
X117965208Y-99433347D01*
X118041843Y-99548039D01*
X118241721Y-99747917D01*
X118476753Y-99904960D01*
X118737906Y-100013133D01*
X119015145Y-100068280D01*
X119297815Y-100068280D01*
X119575054Y-100013133D01*
X119836207Y-99904960D01*
X120071239Y-99747917D01*
X120271117Y-99548039D01*
X120428160Y-99313007D01*
X120536333Y-99051854D01*
X120591480Y-98774615D01*
X120591480Y-98491945D01*
X127881480Y-98491945D01*
X127881480Y-98774615D01*
X127936627Y-99051854D01*
X128044800Y-99313007D01*
X128201843Y-99548039D01*
X128401721Y-99747917D01*
X128636753Y-99904960D01*
X128897906Y-100013133D01*
X129175145Y-100068280D01*
X129457815Y-100068280D01*
X129735054Y-100013133D01*
X129996207Y-99904960D01*
X130231239Y-99747917D01*
X130431117Y-99548039D01*
X130588160Y-99313007D01*
X130696333Y-99051854D01*
X130751480Y-98774615D01*
X130751480Y-98491945D01*
X130696333Y-98214706D01*
X130588160Y-97953553D01*
X130431117Y-97718521D01*
X130231239Y-97518643D01*
X129996207Y-97361600D01*
X129735054Y-97253427D01*
X129457815Y-97198280D01*
X129175145Y-97198280D01*
X128897906Y-97253427D01*
X128636753Y-97361600D01*
X128401721Y-97518643D01*
X128201843Y-97718521D01*
X128044800Y-97953553D01*
X127936627Y-98214706D01*
X127881480Y-98491945D01*
X120591480Y-98491945D01*
X120536333Y-98214706D01*
X120428160Y-97953553D01*
X120271117Y-97718521D01*
X120071239Y-97518643D01*
X119836207Y-97361600D01*
X119575054Y-97253427D01*
X119297815Y-97198280D01*
X119015145Y-97198280D01*
X118737906Y-97253427D01*
X118476753Y-97361600D01*
X118241721Y-97518643D01*
X118041843Y-97718521D01*
X117975392Y-97817973D01*
X117898757Y-97703281D01*
X117698879Y-97503403D01*
X117463847Y-97346360D01*
X117202694Y-97238187D01*
X116925455Y-97183040D01*
X116642785Y-97183040D01*
X116365546Y-97238187D01*
X116104393Y-97346360D01*
X115869361Y-97503403D01*
X115669483Y-97703281D01*
X115512440Y-97938313D01*
X115404267Y-98199466D01*
X115349120Y-98476705D01*
X108059120Y-98476705D01*
X108003973Y-98199466D01*
X107895800Y-97938313D01*
X107738757Y-97703281D01*
X107538879Y-97503403D01*
X107373960Y-97393208D01*
X107373960Y-96749505D01*
X179641600Y-96749505D01*
X179641600Y-97032175D01*
X179696747Y-97309414D01*
X179804920Y-97570567D01*
X179961963Y-97805599D01*
X180161841Y-98005477D01*
X180396873Y-98162520D01*
X180658026Y-98270693D01*
X180935265Y-98325840D01*
X181217935Y-98325840D01*
X181495174Y-98270693D01*
X181756327Y-98162520D01*
X181991359Y-98005477D01*
X182191237Y-97805599D01*
X182348280Y-97570567D01*
X182456453Y-97309414D01*
X182511600Y-97032175D01*
X182511600Y-96749505D01*
X189801600Y-96749505D01*
X189801600Y-97032175D01*
X189856747Y-97309414D01*
X189964920Y-97570567D01*
X190121963Y-97805599D01*
X190321841Y-98005477D01*
X190556873Y-98162520D01*
X190818026Y-98270693D01*
X191095265Y-98325840D01*
X191377935Y-98325840D01*
X191655174Y-98270693D01*
X191916327Y-98162520D01*
X192151359Y-98005477D01*
X192351237Y-97805599D01*
X192508280Y-97570567D01*
X192616453Y-97309414D01*
X192671600Y-97032175D01*
X192671600Y-96749505D01*
X192616453Y-96472266D01*
X192508280Y-96211113D01*
X192351237Y-95976081D01*
X192151359Y-95776203D01*
X191916327Y-95619160D01*
X191655174Y-95510987D01*
X191377935Y-95455840D01*
X191095265Y-95455840D01*
X190818026Y-95510987D01*
X190556873Y-95619160D01*
X190321841Y-95776203D01*
X190121963Y-95976081D01*
X189964920Y-96211113D01*
X189856747Y-96472266D01*
X189801600Y-96749505D01*
X182511600Y-96749505D01*
X182456453Y-96472266D01*
X182348280Y-96211113D01*
X182191237Y-95976081D01*
X181991359Y-95776203D01*
X181756327Y-95619160D01*
X181495174Y-95510987D01*
X181217935Y-95455840D01*
X180935265Y-95455840D01*
X180658026Y-95510987D01*
X180396873Y-95619160D01*
X180161841Y-95776203D01*
X179961963Y-95976081D01*
X179804920Y-96211113D01*
X179696747Y-96472266D01*
X179641600Y-96749505D01*
X107373960Y-96749505D01*
X107373960Y-95937902D01*
X110981183Y-95937902D01*
X111052766Y-96181871D01*
X111308276Y-96302771D01*
X111582464Y-96371500D01*
X111864792Y-96385417D01*
X112144410Y-96343987D01*
X112410572Y-96248803D01*
X112535794Y-96181871D01*
X112607377Y-95937902D01*
X111794280Y-95124805D01*
X110981183Y-95937902D01*
X107373960Y-95937902D01*
X107373960Y-95015712D01*
X110354063Y-95015712D01*
X110395493Y-95295330D01*
X110490677Y-95561492D01*
X110557609Y-95686714D01*
X110801578Y-95758297D01*
X111614675Y-94945200D01*
X111973885Y-94945200D01*
X112786982Y-95758297D01*
X113030951Y-95686714D01*
X113151851Y-95431204D01*
X113220580Y-95157016D01*
X113234497Y-94874688D01*
X113224004Y-94803865D01*
X115359280Y-94803865D01*
X115359280Y-95086535D01*
X115414427Y-95363774D01*
X115522600Y-95624927D01*
X115679643Y-95859959D01*
X115879521Y-96059837D01*
X116114553Y-96216880D01*
X116375706Y-96325053D01*
X116652945Y-96380200D01*
X116935615Y-96380200D01*
X117212854Y-96325053D01*
X117474007Y-96216880D01*
X117709039Y-96059837D01*
X117908917Y-95859959D01*
X118065960Y-95624927D01*
X118174133Y-95363774D01*
X118229280Y-95086535D01*
X118229280Y-94803865D01*
X118174133Y-94526626D01*
X118065960Y-94265473D01*
X117908917Y-94030441D01*
X117709039Y-93830563D01*
X117474007Y-93673520D01*
X117212854Y-93565347D01*
X116935615Y-93510200D01*
X116652945Y-93510200D01*
X116375706Y-93565347D01*
X116114553Y-93673520D01*
X115879521Y-93830563D01*
X115679643Y-94030441D01*
X115522600Y-94265473D01*
X115414427Y-94526626D01*
X115359280Y-94803865D01*
X113224004Y-94803865D01*
X113193067Y-94595070D01*
X113097883Y-94328908D01*
X113030951Y-94203686D01*
X112786982Y-94132103D01*
X111973885Y-94945200D01*
X111614675Y-94945200D01*
X110801578Y-94132103D01*
X110557609Y-94203686D01*
X110436709Y-94459196D01*
X110367980Y-94733384D01*
X110354063Y-95015712D01*
X107373960Y-95015712D01*
X107373960Y-93952498D01*
X110981183Y-93952498D01*
X111794280Y-94765595D01*
X112607377Y-93952498D01*
X112535794Y-93708529D01*
X112280284Y-93587629D01*
X112006096Y-93518900D01*
X111723768Y-93504983D01*
X111444150Y-93546413D01*
X111177988Y-93641597D01*
X111052766Y-93708529D01*
X110981183Y-93952498D01*
X107373960Y-93952498D01*
X107373960Y-92409123D01*
X107528719Y-92305717D01*
X107728597Y-92105839D01*
X107885640Y-91870807D01*
X107993813Y-91609654D01*
X108048960Y-91332415D01*
X108048960Y-91049745D01*
X115338960Y-91049745D01*
X115338960Y-91332415D01*
X115394107Y-91609654D01*
X115502280Y-91870807D01*
X115659323Y-92105839D01*
X115859201Y-92305717D01*
X116094233Y-92462760D01*
X116355386Y-92570933D01*
X116632625Y-92626080D01*
X116915295Y-92626080D01*
X117192534Y-92570933D01*
X117453687Y-92462760D01*
X117688719Y-92305717D01*
X117888597Y-92105839D01*
X118004186Y-91932848D01*
X118102803Y-92080439D01*
X118302681Y-92280317D01*
X118537713Y-92437360D01*
X118798866Y-92545533D01*
X119076105Y-92600680D01*
X119358775Y-92600680D01*
X119636014Y-92545533D01*
X119897167Y-92437360D01*
X120132199Y-92280317D01*
X120332077Y-92080439D01*
X120489120Y-91845407D01*
X120597293Y-91584254D01*
X120652440Y-91307015D01*
X120652440Y-91024345D01*
X127942440Y-91024345D01*
X127942440Y-91307015D01*
X127997587Y-91584254D01*
X128105760Y-91845407D01*
X128262803Y-92080439D01*
X128462681Y-92280317D01*
X128697713Y-92437360D01*
X128958866Y-92545533D01*
X129236105Y-92600680D01*
X129518775Y-92600680D01*
X129796014Y-92545533D01*
X130057167Y-92437360D01*
X130292199Y-92280317D01*
X130492077Y-92080439D01*
X130649120Y-91845407D01*
X130757293Y-91584254D01*
X130812440Y-91307015D01*
X130812440Y-91054980D01*
X153592160Y-91054980D01*
X153592160Y-91347500D01*
X153649228Y-91634398D01*
X153761170Y-91904651D01*
X153923685Y-92147872D01*
X154130528Y-92354715D01*
X154373749Y-92517230D01*
X154644002Y-92629172D01*
X154930900Y-92686240D01*
X155223420Y-92686240D01*
X155510318Y-92629172D01*
X155780571Y-92517230D01*
X156023792Y-92354715D01*
X156148870Y-92229637D01*
X158728368Y-92229637D01*
X158806003Y-92478712D01*
X159070043Y-92604611D01*
X159353571Y-92676579D01*
X159645691Y-92691851D01*
X159935179Y-92649839D01*
X160210907Y-92552159D01*
X160348317Y-92478712D01*
X160425952Y-92229637D01*
X159577160Y-91380845D01*
X158728368Y-92229637D01*
X156148870Y-92229637D01*
X156230635Y-92147872D01*
X156393150Y-91904651D01*
X156505092Y-91634398D01*
X156562160Y-91347500D01*
X156562160Y-91269771D01*
X158086549Y-91269771D01*
X158128561Y-91559259D01*
X158226241Y-91834987D01*
X158299688Y-91972397D01*
X158548763Y-92050032D01*
X159397555Y-91201240D01*
X158548763Y-90352448D01*
X158299688Y-90430083D01*
X158173789Y-90694123D01*
X158101821Y-90977651D01*
X158086549Y-91269771D01*
X156562160Y-91269771D01*
X156562160Y-91054980D01*
X156505092Y-90768082D01*
X156393150Y-90497829D01*
X156230635Y-90254608D01*
X156023792Y-90047765D01*
X155780571Y-89885250D01*
X155510318Y-89773308D01*
X155223420Y-89716240D01*
X154930900Y-89716240D01*
X154644002Y-89773308D01*
X154373749Y-89885250D01*
X154130528Y-90047765D01*
X153923685Y-90254608D01*
X153761170Y-90497829D01*
X153649228Y-90768082D01*
X153592160Y-91054980D01*
X130812440Y-91054980D01*
X130812440Y-91024345D01*
X130757293Y-90747106D01*
X130649120Y-90485953D01*
X130492077Y-90250921D01*
X130292199Y-90051043D01*
X130057167Y-89894000D01*
X129796014Y-89785827D01*
X129518775Y-89730680D01*
X129236105Y-89730680D01*
X128958866Y-89785827D01*
X128697713Y-89894000D01*
X128462681Y-90051043D01*
X128262803Y-90250921D01*
X128105760Y-90485953D01*
X127997587Y-90747106D01*
X127942440Y-91024345D01*
X120652440Y-91024345D01*
X120597293Y-90747106D01*
X120489120Y-90485953D01*
X120332077Y-90250921D01*
X120132199Y-90051043D01*
X119897167Y-89894000D01*
X119636014Y-89785827D01*
X119358775Y-89730680D01*
X119076105Y-89730680D01*
X118798866Y-89785827D01*
X118537713Y-89894000D01*
X118302681Y-90051043D01*
X118102803Y-90250921D01*
X117987214Y-90423912D01*
X117888597Y-90276321D01*
X117688719Y-90076443D01*
X117453687Y-89919400D01*
X117192534Y-89811227D01*
X116915295Y-89756080D01*
X116632625Y-89756080D01*
X116355386Y-89811227D01*
X116094233Y-89919400D01*
X115859201Y-90076443D01*
X115659323Y-90276321D01*
X115502280Y-90511353D01*
X115394107Y-90772506D01*
X115338960Y-91049745D01*
X108048960Y-91049745D01*
X107993813Y-90772506D01*
X107885640Y-90511353D01*
X107728597Y-90276321D01*
X107528719Y-90076443D01*
X107293687Y-89919400D01*
X107032534Y-89811227D01*
X106755295Y-89756080D01*
X106472625Y-89756080D01*
X106195386Y-89811227D01*
X105934233Y-89919400D01*
X105699201Y-90076443D01*
X105499323Y-90276321D01*
X105342280Y-90511353D01*
X105234107Y-90772506D01*
X105178960Y-91049745D01*
X103872400Y-91049745D01*
X103872400Y-86778140D01*
X105155720Y-86778140D01*
X105155720Y-87070660D01*
X105212788Y-87357558D01*
X105324730Y-87627811D01*
X105487245Y-87871032D01*
X105694088Y-88077875D01*
X105937309Y-88240390D01*
X106207562Y-88352332D01*
X106494460Y-88409400D01*
X106786980Y-88409400D01*
X107073878Y-88352332D01*
X107344131Y-88240390D01*
X107587352Y-88077875D01*
X107794195Y-87871032D01*
X107915915Y-87688866D01*
X107985542Y-87805755D01*
X108180451Y-88021988D01*
X108413800Y-88196041D01*
X108676621Y-88321225D01*
X108823830Y-88365876D01*
X109053720Y-88244555D01*
X109053720Y-87051400D01*
X109033720Y-87051400D01*
X109033720Y-86797400D01*
X109053720Y-86797400D01*
X109053720Y-85604245D01*
X109307720Y-85604245D01*
X109307720Y-86797400D01*
X109327720Y-86797400D01*
X109327720Y-87051400D01*
X109307720Y-87051400D01*
X109307720Y-88244555D01*
X109537610Y-88365876D01*
X109684819Y-88321225D01*
X109947640Y-88196041D01*
X110180989Y-88021988D01*
X110375898Y-87805755D01*
X110445525Y-87688866D01*
X110567245Y-87871032D01*
X110774088Y-88077875D01*
X111017309Y-88240390D01*
X111287562Y-88352332D01*
X111574460Y-88409400D01*
X111866980Y-88409400D01*
X112153878Y-88352332D01*
X112424131Y-88240390D01*
X112667352Y-88077875D01*
X112874195Y-87871032D01*
X112990720Y-87696640D01*
X113107245Y-87871032D01*
X113314088Y-88077875D01*
X113557309Y-88240390D01*
X113827562Y-88352332D01*
X114114460Y-88409400D01*
X114406980Y-88409400D01*
X114693878Y-88352332D01*
X114964131Y-88240390D01*
X115207352Y-88077875D01*
X115414195Y-87871032D01*
X115530720Y-87696640D01*
X115647245Y-87871032D01*
X115854088Y-88077875D01*
X116097309Y-88240390D01*
X116367562Y-88352332D01*
X116654460Y-88409400D01*
X116946980Y-88409400D01*
X117233878Y-88352332D01*
X117504131Y-88240390D01*
X117747352Y-88077875D01*
X117954195Y-87871032D01*
X118070720Y-87696640D01*
X118187245Y-87871032D01*
X118394088Y-88077875D01*
X118637309Y-88240390D01*
X118907562Y-88352332D01*
X119194460Y-88409400D01*
X119486980Y-88409400D01*
X119773878Y-88352332D01*
X120044131Y-88240390D01*
X120287352Y-88077875D01*
X120494195Y-87871032D01*
X120610720Y-87696640D01*
X120727245Y-87871032D01*
X120934088Y-88077875D01*
X121177309Y-88240390D01*
X121447562Y-88352332D01*
X121734460Y-88409400D01*
X122026980Y-88409400D01*
X122313878Y-88352332D01*
X122584131Y-88240390D01*
X122827352Y-88077875D01*
X123034195Y-87871032D01*
X123150720Y-87696640D01*
X123267245Y-87871032D01*
X123474088Y-88077875D01*
X123717309Y-88240390D01*
X123987562Y-88352332D01*
X124274460Y-88409400D01*
X124566980Y-88409400D01*
X124853878Y-88352332D01*
X125124131Y-88240390D01*
X125367352Y-88077875D01*
X125574195Y-87871032D01*
X125690720Y-87696640D01*
X125807245Y-87871032D01*
X126014088Y-88077875D01*
X126257309Y-88240390D01*
X126527562Y-88352332D01*
X126814460Y-88409400D01*
X127106980Y-88409400D01*
X127393878Y-88352332D01*
X127664131Y-88240390D01*
X127907352Y-88077875D01*
X128114195Y-87871032D01*
X128230720Y-87696640D01*
X128347245Y-87871032D01*
X128554088Y-88077875D01*
X128797309Y-88240390D01*
X129067562Y-88352332D01*
X129354460Y-88409400D01*
X129646980Y-88409400D01*
X129933878Y-88352332D01*
X130204131Y-88240390D01*
X130447352Y-88077875D01*
X130654195Y-87871032D01*
X130770720Y-87696640D01*
X130887245Y-87871032D01*
X131094088Y-88077875D01*
X131337309Y-88240390D01*
X131607562Y-88352332D01*
X131894460Y-88409400D01*
X132186980Y-88409400D01*
X132473878Y-88352332D01*
X132744131Y-88240390D01*
X132987352Y-88077875D01*
X133194195Y-87871032D01*
X133310720Y-87696640D01*
X133427245Y-87871032D01*
X133634088Y-88077875D01*
X133877309Y-88240390D01*
X134147562Y-88352332D01*
X134434460Y-88409400D01*
X134726980Y-88409400D01*
X135013878Y-88352332D01*
X135284131Y-88240390D01*
X135527352Y-88077875D01*
X135734195Y-87871032D01*
X135850720Y-87696640D01*
X135967245Y-87871032D01*
X136174088Y-88077875D01*
X136417309Y-88240390D01*
X136687562Y-88352332D01*
X136974460Y-88409400D01*
X137266980Y-88409400D01*
X137553878Y-88352332D01*
X137824131Y-88240390D01*
X138067352Y-88077875D01*
X138274195Y-87871032D01*
X138390720Y-87696640D01*
X138507245Y-87871032D01*
X138714088Y-88077875D01*
X138957309Y-88240390D01*
X139227562Y-88352332D01*
X139514460Y-88409400D01*
X139806980Y-88409400D01*
X140093878Y-88352332D01*
X140364131Y-88240390D01*
X140607352Y-88077875D01*
X140739207Y-87946020D01*
X140761218Y-88018580D01*
X140820183Y-88128894D01*
X140899535Y-88225585D01*
X140996226Y-88304937D01*
X141106540Y-88363902D01*
X141226238Y-88400212D01*
X141350720Y-88412472D01*
X143050720Y-88412472D01*
X143175202Y-88400212D01*
X143294900Y-88363902D01*
X143405214Y-88304937D01*
X143501905Y-88225585D01*
X143581257Y-88128894D01*
X143618680Y-88058882D01*
X143618680Y-88984435D01*
X147438680Y-88984435D01*
X147438680Y-84843006D01*
X143618680Y-84843006D01*
X143618680Y-85789918D01*
X143581257Y-85719906D01*
X143501905Y-85623215D01*
X143405214Y-85543863D01*
X143294900Y-85484898D01*
X143175202Y-85448588D01*
X143050720Y-85436328D01*
X141350720Y-85436328D01*
X141226238Y-85448588D01*
X141106540Y-85484898D01*
X140996226Y-85543863D01*
X140899535Y-85623215D01*
X140820183Y-85719906D01*
X140761218Y-85830220D01*
X140739207Y-85902780D01*
X140607352Y-85770925D01*
X140364131Y-85608410D01*
X140093878Y-85496468D01*
X139806980Y-85439400D01*
X139514460Y-85439400D01*
X139227562Y-85496468D01*
X138957309Y-85608410D01*
X138714088Y-85770925D01*
X138507245Y-85977768D01*
X138390720Y-86152160D01*
X138274195Y-85977768D01*
X138067352Y-85770925D01*
X137824131Y-85608410D01*
X137553878Y-85496468D01*
X137266980Y-85439400D01*
X136974460Y-85439400D01*
X136687562Y-85496468D01*
X136417309Y-85608410D01*
X136174088Y-85770925D01*
X135967245Y-85977768D01*
X135850720Y-86152160D01*
X135734195Y-85977768D01*
X135527352Y-85770925D01*
X135284131Y-85608410D01*
X135013878Y-85496468D01*
X134726980Y-85439400D01*
X134434460Y-85439400D01*
X134147562Y-85496468D01*
X133877309Y-85608410D01*
X133634088Y-85770925D01*
X133427245Y-85977768D01*
X133310720Y-86152160D01*
X133194195Y-85977768D01*
X132987352Y-85770925D01*
X132744131Y-85608410D01*
X132473878Y-85496468D01*
X132186980Y-85439400D01*
X131894460Y-85439400D01*
X131607562Y-85496468D01*
X131337309Y-85608410D01*
X131094088Y-85770925D01*
X130887245Y-85977768D01*
X130770720Y-86152160D01*
X130654195Y-85977768D01*
X130447352Y-85770925D01*
X130204131Y-85608410D01*
X129933878Y-85496468D01*
X129646980Y-85439400D01*
X129354460Y-85439400D01*
X129067562Y-85496468D01*
X128797309Y-85608410D01*
X128554088Y-85770925D01*
X128347245Y-85977768D01*
X128230720Y-86152160D01*
X128114195Y-85977768D01*
X127907352Y-85770925D01*
X127664131Y-85608410D01*
X127393878Y-85496468D01*
X127106980Y-85439400D01*
X126814460Y-85439400D01*
X126527562Y-85496468D01*
X126257309Y-85608410D01*
X126014088Y-85770925D01*
X125807245Y-85977768D01*
X125690720Y-86152160D01*
X125574195Y-85977768D01*
X125367352Y-85770925D01*
X125124131Y-85608410D01*
X124853878Y-85496468D01*
X124566980Y-85439400D01*
X124274460Y-85439400D01*
X123987562Y-85496468D01*
X123717309Y-85608410D01*
X123474088Y-85770925D01*
X123267245Y-85977768D01*
X123150720Y-86152160D01*
X123034195Y-85977768D01*
X122827352Y-85770925D01*
X122584131Y-85608410D01*
X122313878Y-85496468D01*
X122026980Y-85439400D01*
X121734460Y-85439400D01*
X121447562Y-85496468D01*
X121177309Y-85608410D01*
X120934088Y-85770925D01*
X120727245Y-85977768D01*
X120610720Y-86152160D01*
X120494195Y-85977768D01*
X120287352Y-85770925D01*
X120044131Y-85608410D01*
X119773878Y-85496468D01*
X119486980Y-85439400D01*
X119194460Y-85439400D01*
X118907562Y-85496468D01*
X118637309Y-85608410D01*
X118394088Y-85770925D01*
X118187245Y-85977768D01*
X118070720Y-86152160D01*
X117954195Y-85977768D01*
X117747352Y-85770925D01*
X117504131Y-85608410D01*
X117233878Y-85496468D01*
X116946980Y-85439400D01*
X116654460Y-85439400D01*
X116367562Y-85496468D01*
X116097309Y-85608410D01*
X115854088Y-85770925D01*
X115647245Y-85977768D01*
X115530720Y-86152160D01*
X115414195Y-85977768D01*
X115207352Y-85770925D01*
X114964131Y-85608410D01*
X114693878Y-85496468D01*
X114406980Y-85439400D01*
X114114460Y-85439400D01*
X113827562Y-85496468D01*
X113557309Y-85608410D01*
X113314088Y-85770925D01*
X113107245Y-85977768D01*
X112990720Y-86152160D01*
X112874195Y-85977768D01*
X112667352Y-85770925D01*
X112424131Y-85608410D01*
X112153878Y-85496468D01*
X111866980Y-85439400D01*
X111574460Y-85439400D01*
X111287562Y-85496468D01*
X111017309Y-85608410D01*
X110774088Y-85770925D01*
X110567245Y-85977768D01*
X110445525Y-86159934D01*
X110375898Y-86043045D01*
X110180989Y-85826812D01*
X109947640Y-85652759D01*
X109684819Y-85527575D01*
X109537610Y-85482924D01*
X109307720Y-85604245D01*
X109053720Y-85604245D01*
X108823830Y-85482924D01*
X108676621Y-85527575D01*
X108413800Y-85652759D01*
X108180451Y-85826812D01*
X107985542Y-86043045D01*
X107915915Y-86159934D01*
X107794195Y-85977768D01*
X107587352Y-85770925D01*
X107344131Y-85608410D01*
X107073878Y-85496468D01*
X106786980Y-85439400D01*
X106494460Y-85439400D01*
X106207562Y-85496468D01*
X105937309Y-85608410D01*
X105694088Y-85770925D01*
X105487245Y-85977768D01*
X105324730Y-86220989D01*
X105212788Y-86491242D01*
X105155720Y-86778140D01*
X103872400Y-86778140D01*
X103872400Y-84554980D01*
X153592160Y-84554980D01*
X153592160Y-84847500D01*
X153649228Y-85134398D01*
X153761170Y-85404651D01*
X153923685Y-85647872D01*
X154130528Y-85854715D01*
X154373749Y-86017230D01*
X154644002Y-86129172D01*
X154930900Y-86186240D01*
X155223420Y-86186240D01*
X155510318Y-86129172D01*
X155780571Y-86017230D01*
X156023792Y-85854715D01*
X156148870Y-85729637D01*
X158728368Y-85729637D01*
X158806003Y-85978712D01*
X159070043Y-86104611D01*
X159353571Y-86176579D01*
X159645691Y-86191851D01*
X159859440Y-86160831D01*
X159859440Y-89740799D01*
X159800749Y-89725901D01*
X159508629Y-89710629D01*
X159219141Y-89752641D01*
X158943413Y-89850321D01*
X158806003Y-89923768D01*
X158728368Y-90172843D01*
X159577160Y-91021635D01*
X159591303Y-91007493D01*
X159770908Y-91187098D01*
X159756765Y-91201240D01*
X160605557Y-92050032D01*
X160836206Y-91978140D01*
X166911920Y-91978140D01*
X166911920Y-92270660D01*
X166968988Y-92557558D01*
X167080930Y-92827811D01*
X167243445Y-93071032D01*
X167450288Y-93277875D01*
X167693509Y-93440390D01*
X167963762Y-93552332D01*
X168250660Y-93609400D01*
X168543180Y-93609400D01*
X168830078Y-93552332D01*
X169100331Y-93440390D01*
X169343552Y-93277875D01*
X169550395Y-93071032D01*
X169666920Y-92896640D01*
X169783445Y-93071032D01*
X169990288Y-93277875D01*
X170233509Y-93440390D01*
X170503762Y-93552332D01*
X170790660Y-93609400D01*
X171083180Y-93609400D01*
X171370078Y-93552332D01*
X171640331Y-93440390D01*
X171883552Y-93277875D01*
X172090395Y-93071032D01*
X172206920Y-92896640D01*
X172323445Y-93071032D01*
X172530288Y-93277875D01*
X172773509Y-93440390D01*
X173043762Y-93552332D01*
X173330660Y-93609400D01*
X173623180Y-93609400D01*
X173910078Y-93552332D01*
X174180331Y-93440390D01*
X174423552Y-93277875D01*
X174630395Y-93071032D01*
X174746920Y-92896640D01*
X174863445Y-93071032D01*
X175070288Y-93277875D01*
X175313509Y-93440390D01*
X175583762Y-93552332D01*
X175870660Y-93609400D01*
X176163180Y-93609400D01*
X176450078Y-93552332D01*
X176720331Y-93440390D01*
X176963552Y-93277875D01*
X177170395Y-93071032D01*
X177286920Y-92896640D01*
X177403445Y-93071032D01*
X177610288Y-93277875D01*
X177853509Y-93440390D01*
X178123762Y-93552332D01*
X178410660Y-93609400D01*
X178703180Y-93609400D01*
X178990078Y-93552332D01*
X179260331Y-93440390D01*
X179503552Y-93277875D01*
X179710395Y-93071032D01*
X179826920Y-92896640D01*
X179943445Y-93071032D01*
X180150288Y-93277875D01*
X180393509Y-93440390D01*
X180663762Y-93552332D01*
X180950660Y-93609400D01*
X181243180Y-93609400D01*
X181530078Y-93552332D01*
X181800331Y-93440390D01*
X182043552Y-93277875D01*
X182250395Y-93071032D01*
X182366920Y-92896640D01*
X182483445Y-93071032D01*
X182690288Y-93277875D01*
X182933509Y-93440390D01*
X183203762Y-93552332D01*
X183490660Y-93609400D01*
X183783180Y-93609400D01*
X184070078Y-93552332D01*
X184340331Y-93440390D01*
X184583552Y-93277875D01*
X184790395Y-93071032D01*
X184906920Y-92896640D01*
X185023445Y-93071032D01*
X185230288Y-93277875D01*
X185473509Y-93440390D01*
X185743762Y-93552332D01*
X186030660Y-93609400D01*
X186323180Y-93609400D01*
X186610078Y-93552332D01*
X186880331Y-93440390D01*
X187123552Y-93277875D01*
X187330395Y-93071032D01*
X187452115Y-92888866D01*
X187521742Y-93005755D01*
X187716651Y-93221988D01*
X187950000Y-93396041D01*
X188212821Y-93521225D01*
X188360030Y-93565876D01*
X188589920Y-93444555D01*
X188589920Y-92251400D01*
X188569920Y-92251400D01*
X188569920Y-91997400D01*
X188589920Y-91997400D01*
X188589920Y-90804245D01*
X188843920Y-90804245D01*
X188843920Y-91997400D01*
X188863920Y-91997400D01*
X188863920Y-92251400D01*
X188843920Y-92251400D01*
X188843920Y-93444555D01*
X189073810Y-93565876D01*
X189221019Y-93521225D01*
X189483840Y-93396041D01*
X189717189Y-93221988D01*
X189792954Y-93137934D01*
X189817418Y-93218580D01*
X189876383Y-93328894D01*
X189955735Y-93425585D01*
X190052426Y-93504937D01*
X190162740Y-93563902D01*
X190282438Y-93600212D01*
X190406920Y-93612472D01*
X192106920Y-93612472D01*
X192231402Y-93600212D01*
X192351100Y-93563902D01*
X192461414Y-93504937D01*
X192558105Y-93425585D01*
X192637457Y-93328894D01*
X192696422Y-93218580D01*
X192732732Y-93098882D01*
X192744992Y-92974400D01*
X192744992Y-91274400D01*
X192732732Y-91149918D01*
X192696422Y-91030220D01*
X192637457Y-90919906D01*
X192558105Y-90823215D01*
X192461414Y-90743863D01*
X192351100Y-90684898D01*
X192231402Y-90648588D01*
X192106920Y-90636328D01*
X190406920Y-90636328D01*
X190282438Y-90648588D01*
X190162740Y-90684898D01*
X190052426Y-90743863D01*
X189955735Y-90823215D01*
X189876383Y-90919906D01*
X189817418Y-91030220D01*
X189792954Y-91110866D01*
X189717189Y-91026812D01*
X189483840Y-90852759D01*
X189221019Y-90727575D01*
X189073810Y-90682924D01*
X188843920Y-90804245D01*
X188589920Y-90804245D01*
X188360030Y-90682924D01*
X188212821Y-90727575D01*
X187950000Y-90852759D01*
X187716651Y-91026812D01*
X187521742Y-91243045D01*
X187452115Y-91359934D01*
X187330395Y-91177768D01*
X187123552Y-90970925D01*
X186880331Y-90808410D01*
X186610078Y-90696468D01*
X186323180Y-90639400D01*
X186030660Y-90639400D01*
X185743762Y-90696468D01*
X185473509Y-90808410D01*
X185230288Y-90970925D01*
X185023445Y-91177768D01*
X184906920Y-91352160D01*
X184790395Y-91177768D01*
X184583552Y-90970925D01*
X184340331Y-90808410D01*
X184070078Y-90696468D01*
X183783180Y-90639400D01*
X183490660Y-90639400D01*
X183203762Y-90696468D01*
X182933509Y-90808410D01*
X182690288Y-90970925D01*
X182483445Y-91177768D01*
X182366920Y-91352160D01*
X182250395Y-91177768D01*
X182043552Y-90970925D01*
X181800331Y-90808410D01*
X181530078Y-90696468D01*
X181243180Y-90639400D01*
X180950660Y-90639400D01*
X180663762Y-90696468D01*
X180393509Y-90808410D01*
X180150288Y-90970925D01*
X179943445Y-91177768D01*
X179826920Y-91352160D01*
X179710395Y-91177768D01*
X179503552Y-90970925D01*
X179260331Y-90808410D01*
X178990078Y-90696468D01*
X178703180Y-90639400D01*
X178410660Y-90639400D01*
X178123762Y-90696468D01*
X177853509Y-90808410D01*
X177610288Y-90970925D01*
X177403445Y-91177768D01*
X177286920Y-91352160D01*
X177170395Y-91177768D01*
X176963552Y-90970925D01*
X176720331Y-90808410D01*
X176450078Y-90696468D01*
X176163180Y-90639400D01*
X175870660Y-90639400D01*
X175583762Y-90696468D01*
X175313509Y-90808410D01*
X175070288Y-90970925D01*
X174863445Y-91177768D01*
X174746920Y-91352160D01*
X174630395Y-91177768D01*
X174423552Y-90970925D01*
X174180331Y-90808410D01*
X173910078Y-90696468D01*
X173623180Y-90639400D01*
X173330660Y-90639400D01*
X173043762Y-90696468D01*
X172773509Y-90808410D01*
X172530288Y-90970925D01*
X172323445Y-91177768D01*
X172206920Y-91352160D01*
X172090395Y-91177768D01*
X171883552Y-90970925D01*
X171640331Y-90808410D01*
X171370078Y-90696468D01*
X171083180Y-90639400D01*
X170790660Y-90639400D01*
X170503762Y-90696468D01*
X170233509Y-90808410D01*
X169990288Y-90970925D01*
X169783445Y-91177768D01*
X169666920Y-91352160D01*
X169550395Y-91177768D01*
X169343552Y-90970925D01*
X169100331Y-90808410D01*
X168830078Y-90696468D01*
X168543180Y-90639400D01*
X168250660Y-90639400D01*
X167963762Y-90696468D01*
X167693509Y-90808410D01*
X167450288Y-90970925D01*
X167243445Y-91177768D01*
X167080930Y-91420989D01*
X166968988Y-91691242D01*
X166911920Y-91978140D01*
X160836206Y-91978140D01*
X160854632Y-91972397D01*
X160980531Y-91708357D01*
X161052499Y-91424829D01*
X161067771Y-91132709D01*
X161025759Y-90843221D01*
X160928079Y-90567493D01*
X160854632Y-90430083D01*
X160605559Y-90352449D01*
X160721664Y-90236344D01*
X160704812Y-90219492D01*
X163679440Y-90219492D01*
X163679440Y-89998280D01*
X192772760Y-89998280D01*
X192772760Y-94568280D01*
X196592760Y-94568280D01*
X196592760Y-89998280D01*
X192772760Y-89998280D01*
X163679440Y-89998280D01*
X163679440Y-88785262D01*
X186698583Y-88785262D01*
X186770166Y-89029231D01*
X187025676Y-89150131D01*
X187299864Y-89218860D01*
X187582192Y-89232777D01*
X187861810Y-89191347D01*
X188127972Y-89096163D01*
X188253194Y-89029231D01*
X188324777Y-88785262D01*
X187511680Y-87972165D01*
X186698583Y-88785262D01*
X163679440Y-88785262D01*
X163679440Y-87863072D01*
X186071463Y-87863072D01*
X186112893Y-88142690D01*
X186208077Y-88408852D01*
X186275009Y-88534074D01*
X186518978Y-88605657D01*
X187332075Y-87792560D01*
X187691285Y-87792560D01*
X188504382Y-88605657D01*
X188748351Y-88534074D01*
X188869251Y-88278564D01*
X188937980Y-88004376D01*
X188951897Y-87722048D01*
X188941404Y-87651225D01*
X191076680Y-87651225D01*
X191076680Y-87933895D01*
X191131827Y-88211134D01*
X191240000Y-88472287D01*
X191397043Y-88707319D01*
X191596921Y-88907197D01*
X191831953Y-89064240D01*
X192093106Y-89172413D01*
X192370345Y-89227560D01*
X192653015Y-89227560D01*
X192930254Y-89172413D01*
X193191407Y-89064240D01*
X193426439Y-88907197D01*
X193626317Y-88707319D01*
X193783360Y-88472287D01*
X193891533Y-88211134D01*
X193946680Y-87933895D01*
X193946680Y-87651225D01*
X193891533Y-87373986D01*
X193783360Y-87112833D01*
X193626317Y-86877801D01*
X193426439Y-86677923D01*
X193191407Y-86520880D01*
X192930254Y-86412707D01*
X192653015Y-86357560D01*
X192370345Y-86357560D01*
X192093106Y-86412707D01*
X191831953Y-86520880D01*
X191596921Y-86677923D01*
X191397043Y-86877801D01*
X191240000Y-87112833D01*
X191131827Y-87373986D01*
X191076680Y-87651225D01*
X188941404Y-87651225D01*
X188910467Y-87442430D01*
X188815283Y-87176268D01*
X188748351Y-87051046D01*
X188504382Y-86979463D01*
X187691285Y-87792560D01*
X187332075Y-87792560D01*
X186518978Y-86979463D01*
X186275009Y-87051046D01*
X186154109Y-87306556D01*
X186085380Y-87580744D01*
X186071463Y-87863072D01*
X163679440Y-87863072D01*
X163679440Y-86799858D01*
X186698583Y-86799858D01*
X187511680Y-87612955D01*
X188324777Y-86799858D01*
X188253194Y-86555889D01*
X187997684Y-86434989D01*
X187723496Y-86366260D01*
X187441168Y-86352343D01*
X187161550Y-86393773D01*
X186895388Y-86488957D01*
X186770166Y-86555889D01*
X186698583Y-86799858D01*
X163679440Y-86799858D01*
X163679440Y-85792349D01*
X160406405Y-85792349D01*
X160425952Y-85729637D01*
X159577160Y-84880845D01*
X158728368Y-85729637D01*
X156148870Y-85729637D01*
X156230635Y-85647872D01*
X156393150Y-85404651D01*
X156505092Y-85134398D01*
X156562160Y-84847500D01*
X156562160Y-84769771D01*
X158086549Y-84769771D01*
X158128561Y-85059259D01*
X158226241Y-85334987D01*
X158299688Y-85472397D01*
X158548763Y-85550032D01*
X159397555Y-84701240D01*
X159756765Y-84701240D01*
X160605557Y-85550032D01*
X160854632Y-85472397D01*
X160980531Y-85208357D01*
X161052499Y-84924829D01*
X161067771Y-84632709D01*
X161025759Y-84343221D01*
X160928079Y-84067493D01*
X160854632Y-83930083D01*
X160605557Y-83852448D01*
X159756765Y-84701240D01*
X159397555Y-84701240D01*
X158548763Y-83852448D01*
X158299688Y-83930083D01*
X158173789Y-84194123D01*
X158101821Y-84477651D01*
X158086549Y-84769771D01*
X156562160Y-84769771D01*
X156562160Y-84554980D01*
X156505092Y-84268082D01*
X156393150Y-83997829D01*
X156230635Y-83754608D01*
X156148870Y-83672843D01*
X158728368Y-83672843D01*
X159577160Y-84521635D01*
X160425952Y-83672843D01*
X160348317Y-83423768D01*
X160084277Y-83297869D01*
X159800749Y-83225901D01*
X159508629Y-83210629D01*
X159219141Y-83252641D01*
X158943413Y-83350321D01*
X158806003Y-83423768D01*
X158728368Y-83672843D01*
X156148870Y-83672843D01*
X156023792Y-83547765D01*
X155780571Y-83385250D01*
X155510318Y-83273308D01*
X155223420Y-83216240D01*
X154930900Y-83216240D01*
X154644002Y-83273308D01*
X154373749Y-83385250D01*
X154130528Y-83547765D01*
X153923685Y-83754608D01*
X153761170Y-83997829D01*
X153649228Y-84268082D01*
X153592160Y-84554980D01*
X103872400Y-84554980D01*
X103872400Y-82949960D01*
X197552401Y-82949960D01*
X197552400Y-116629960D01*
G37*
G04 #@! TD.AperFunction*
M02*
