G04 #@! TF.GenerationSoftware,KiCad,Pcbnew,(5.1.10)-1*
G04 #@! TF.CreationDate,2021-10-12T16:57:56+02:00*
G04 #@! TF.ProjectId,esp32-imu,65737033-322d-4696-9d75-2e6b69636164,v0.1.0*
G04 #@! TF.SameCoordinates,Original*
G04 #@! TF.FileFunction,Copper,L1,Top*
G04 #@! TF.FilePolarity,Positive*
%FSLAX46Y46*%
G04 Gerber Fmt 4.6, Leading zero omitted, Abs format (unit mm)*
G04 Created by KiCad (PCBNEW (5.1.10)-1) date 2021-10-12 16:57:56*
%MOMM*%
%LPD*%
G01*
G04 APERTURE LIST*
G04 #@! TA.AperFunction,Profile*
%ADD10C,0.050000*%
G04 #@! TD*
G04 #@! TA.AperFunction,ComponentPad*
%ADD11C,1.700000*%
G04 #@! TD*
G04 #@! TA.AperFunction,ComponentPad*
%ADD12O,1.700000X1.700000*%
G04 #@! TD*
G04 #@! TA.AperFunction,ComponentPad*
%ADD13R,1.700000X1.700000*%
G04 #@! TD*
G04 #@! TA.AperFunction,ViaPad*
%ADD14C,0.800000*%
G04 #@! TD*
G04 #@! TA.AperFunction,Conductor*
%ADD15C,0.300000*%
G04 #@! TD*
G04 #@! TA.AperFunction,Conductor*
%ADD16C,0.254000*%
G04 #@! TD*
G04 #@! TA.AperFunction,Conductor*
%ADD17C,0.100000*%
G04 #@! TD*
G04 APERTURE END LIST*
D10*
X196212400Y-117289960D02*
G75*
G03*
X198212400Y-115289960I0J2000000D01*
G01*
X198212400Y-84289960D02*
G75*
G03*
X196212400Y-82289960I-2000000J0D01*
G01*
X105212400Y-82289960D02*
G75*
G03*
X103212400Y-84289960I0J-2000000D01*
G01*
X105212400Y-117289960D02*
G75*
G02*
X103212400Y-115289960I0J2000000D01*
G01*
X196212400Y-82289960D02*
X105212400Y-82289960D01*
X198212400Y-115289960D02*
X198212400Y-84289960D01*
X105212400Y-117289960D02*
X196212400Y-117289960D01*
X103212400Y-84289960D02*
X103212400Y-115289960D01*
G04 #@! TA.AperFunction,SMDPad,CuDef*
G36*
G01*
X121504760Y-93354739D02*
X121504760Y-94254741D01*
G75*
G02*
X121254761Y-94504740I-249999J0D01*
G01*
X120554759Y-94504740D01*
G75*
G02*
X120304760Y-94254741I0J249999D01*
G01*
X120304760Y-93354739D01*
G75*
G02*
X120554759Y-93104740I249999J0D01*
G01*
X121254761Y-93104740D01*
G75*
G02*
X121504760Y-93354739I0J-249999D01*
G01*
G37*
G04 #@! TD.AperFunction*
G04 #@! TA.AperFunction,SMDPad,CuDef*
G36*
G01*
X123504760Y-93354739D02*
X123504760Y-94254741D01*
G75*
G02*
X123254761Y-94504740I-249999J0D01*
G01*
X122554759Y-94504740D01*
G75*
G02*
X122304760Y-94254741I0J249999D01*
G01*
X122304760Y-93354739D01*
G75*
G02*
X122554759Y-93104740I249999J0D01*
G01*
X123254761Y-93104740D01*
G75*
G02*
X123504760Y-93354739I0J-249999D01*
G01*
G37*
G04 #@! TD.AperFunction*
G04 #@! TA.AperFunction,SMDPad,CuDef*
G36*
G01*
X184222440Y-88673519D02*
X184222440Y-89573521D01*
G75*
G02*
X183972441Y-89823520I-249999J0D01*
G01*
X183272439Y-89823520D01*
G75*
G02*
X183022440Y-89573521I0J249999D01*
G01*
X183022440Y-88673519D01*
G75*
G02*
X183272439Y-88423520I249999J0D01*
G01*
X183972441Y-88423520D01*
G75*
G02*
X184222440Y-88673519I0J-249999D01*
G01*
G37*
G04 #@! TD.AperFunction*
G04 #@! TA.AperFunction,SMDPad,CuDef*
G36*
G01*
X186222440Y-88673519D02*
X186222440Y-89573521D01*
G75*
G02*
X185972441Y-89823520I-249999J0D01*
G01*
X185272439Y-89823520D01*
G75*
G02*
X185022440Y-89573521I0J249999D01*
G01*
X185022440Y-88673519D01*
G75*
G02*
X185272439Y-88423520I249999J0D01*
G01*
X185972441Y-88423520D01*
G75*
G02*
X186222440Y-88673519I0J-249999D01*
G01*
G37*
G04 #@! TD.AperFunction*
G04 #@! TA.AperFunction,SMDPad,CuDef*
G36*
G01*
X116661820Y-98509241D02*
X116661820Y-97609239D01*
G75*
G02*
X116911819Y-97359240I249999J0D01*
G01*
X117611821Y-97359240D01*
G75*
G02*
X117861820Y-97609239I0J-249999D01*
G01*
X117861820Y-98509241D01*
G75*
G02*
X117611821Y-98759240I-249999J0D01*
G01*
X116911819Y-98759240D01*
G75*
G02*
X116661820Y-98509241I0J249999D01*
G01*
G37*
G04 #@! TD.AperFunction*
G04 #@! TA.AperFunction,SMDPad,CuDef*
G36*
G01*
X114661820Y-98509241D02*
X114661820Y-97609239D01*
G75*
G02*
X114911819Y-97359240I249999J0D01*
G01*
X115611821Y-97359240D01*
G75*
G02*
X115861820Y-97609239I0J-249999D01*
G01*
X115861820Y-98509241D01*
G75*
G02*
X115611821Y-98759240I-249999J0D01*
G01*
X114911819Y-98759240D01*
G75*
G02*
X114661820Y-98509241I0J249999D01*
G01*
G37*
G04 #@! TD.AperFunction*
G04 #@! TA.AperFunction,SMDPad,CuDef*
G36*
G01*
X186792920Y-94830479D02*
X186792920Y-95730481D01*
G75*
G02*
X186542921Y-95980480I-249999J0D01*
G01*
X185842919Y-95980480D01*
G75*
G02*
X185592920Y-95730481I0J249999D01*
G01*
X185592920Y-94830479D01*
G75*
G02*
X185842919Y-94580480I249999J0D01*
G01*
X186542921Y-94580480D01*
G75*
G02*
X186792920Y-94830479I0J-249999D01*
G01*
G37*
G04 #@! TD.AperFunction*
G04 #@! TA.AperFunction,SMDPad,CuDef*
G36*
G01*
X188792920Y-94830479D02*
X188792920Y-95730481D01*
G75*
G02*
X188542921Y-95980480I-249999J0D01*
G01*
X187842919Y-95980480D01*
G75*
G02*
X187592920Y-95730481I0J249999D01*
G01*
X187592920Y-94830479D01*
G75*
G02*
X187842919Y-94580480I249999J0D01*
G01*
X188542921Y-94580480D01*
G75*
G02*
X188792920Y-94830479I0J-249999D01*
G01*
G37*
G04 #@! TD.AperFunction*
G04 #@! TA.AperFunction,SMDPad,CuDef*
G36*
G01*
X118936820Y-90575979D02*
X118936820Y-91475981D01*
G75*
G02*
X118686821Y-91725980I-249999J0D01*
G01*
X117986819Y-91725980D01*
G75*
G02*
X117736820Y-91475981I0J249999D01*
G01*
X117736820Y-90575979D01*
G75*
G02*
X117986819Y-90325980I249999J0D01*
G01*
X118686821Y-90325980D01*
G75*
G02*
X118936820Y-90575979I0J-249999D01*
G01*
G37*
G04 #@! TD.AperFunction*
G04 #@! TA.AperFunction,SMDPad,CuDef*
G36*
G01*
X120936820Y-90575979D02*
X120936820Y-91475981D01*
G75*
G02*
X120686821Y-91725980I-249999J0D01*
G01*
X119986819Y-91725980D01*
G75*
G02*
X119736820Y-91475981I0J249999D01*
G01*
X119736820Y-90575979D01*
G75*
G02*
X119986819Y-90325980I249999J0D01*
G01*
X120686821Y-90325980D01*
G75*
G02*
X120936820Y-90575979I0J-249999D01*
G01*
G37*
G04 #@! TD.AperFunction*
G04 #@! TA.AperFunction,SMDPad,CuDef*
G36*
G01*
X114082360Y-91475981D02*
X114082360Y-90575979D01*
G75*
G02*
X114332359Y-90325980I249999J0D01*
G01*
X115032361Y-90325980D01*
G75*
G02*
X115282360Y-90575979I0J-249999D01*
G01*
X115282360Y-91475981D01*
G75*
G02*
X115032361Y-91725980I-249999J0D01*
G01*
X114332359Y-91725980D01*
G75*
G02*
X114082360Y-91475981I0J249999D01*
G01*
G37*
G04 #@! TD.AperFunction*
G04 #@! TA.AperFunction,SMDPad,CuDef*
G36*
G01*
X112082360Y-91475981D02*
X112082360Y-90575979D01*
G75*
G02*
X112332359Y-90325980I249999J0D01*
G01*
X113032361Y-90325980D01*
G75*
G02*
X113282360Y-90575979I0J-249999D01*
G01*
X113282360Y-91475981D01*
G75*
G02*
X113032361Y-91725980I-249999J0D01*
G01*
X112332359Y-91725980D01*
G75*
G02*
X112082360Y-91475981I0J249999D01*
G01*
G37*
G04 #@! TD.AperFunction*
G04 #@! TA.AperFunction,SMDPad,CuDef*
G36*
G01*
X189765520Y-88648520D02*
X189765520Y-89598520D01*
G75*
G02*
X189515520Y-89848520I-250000J0D01*
G01*
X188840520Y-89848520D01*
G75*
G02*
X188590520Y-89598520I0J250000D01*
G01*
X188590520Y-88648520D01*
G75*
G02*
X188840520Y-88398520I250000J0D01*
G01*
X189515520Y-88398520D01*
G75*
G02*
X189765520Y-88648520I0J-250000D01*
G01*
G37*
G04 #@! TD.AperFunction*
G04 #@! TA.AperFunction,SMDPad,CuDef*
G36*
G01*
X191840520Y-88648520D02*
X191840520Y-89598520D01*
G75*
G02*
X191590520Y-89848520I-250000J0D01*
G01*
X190915520Y-89848520D01*
G75*
G02*
X190665520Y-89598520I0J250000D01*
G01*
X190665520Y-88648520D01*
G75*
G02*
X190915520Y-88398520I250000J0D01*
G01*
X191590520Y-88398520D01*
G75*
G02*
X191840520Y-88648520I0J-250000D01*
G01*
G37*
G04 #@! TD.AperFunction*
G04 #@! TA.AperFunction,SMDPad,CuDef*
G36*
G01*
X117849320Y-95470960D02*
X117849320Y-96420960D01*
G75*
G02*
X117599320Y-96670960I-250000J0D01*
G01*
X116924320Y-96670960D01*
G75*
G02*
X116674320Y-96420960I0J250000D01*
G01*
X116674320Y-95470960D01*
G75*
G02*
X116924320Y-95220960I250000J0D01*
G01*
X117599320Y-95220960D01*
G75*
G02*
X117849320Y-95470960I0J-250000D01*
G01*
G37*
G04 #@! TD.AperFunction*
G04 #@! TA.AperFunction,SMDPad,CuDef*
G36*
G01*
X119924320Y-95470960D02*
X119924320Y-96420960D01*
G75*
G02*
X119674320Y-96670960I-250000J0D01*
G01*
X118999320Y-96670960D01*
G75*
G02*
X118749320Y-96420960I0J250000D01*
G01*
X118749320Y-95470960D01*
G75*
G02*
X118999320Y-95220960I250000J0D01*
G01*
X119674320Y-95220960D01*
G75*
G02*
X119924320Y-95470960I0J-250000D01*
G01*
G37*
G04 #@! TD.AperFunction*
G04 #@! TA.AperFunction,SMDPad,CuDef*
G36*
G01*
X115269860Y-92643940D02*
X115269860Y-93593940D01*
G75*
G02*
X115019860Y-93843940I-250000J0D01*
G01*
X114344860Y-93843940D01*
G75*
G02*
X114094860Y-93593940I0J250000D01*
G01*
X114094860Y-92643940D01*
G75*
G02*
X114344860Y-92393940I250000J0D01*
G01*
X115019860Y-92393940D01*
G75*
G02*
X115269860Y-92643940I0J-250000D01*
G01*
G37*
G04 #@! TD.AperFunction*
G04 #@! TA.AperFunction,SMDPad,CuDef*
G36*
G01*
X117344860Y-92643940D02*
X117344860Y-93593940D01*
G75*
G02*
X117094860Y-93843940I-250000J0D01*
G01*
X116419860Y-93843940D01*
G75*
G02*
X116169860Y-93593940I0J250000D01*
G01*
X116169860Y-92643940D01*
G75*
G02*
X116419860Y-92393940I250000J0D01*
G01*
X117094860Y-92393940D01*
G75*
G02*
X117344860Y-92643940I0J-250000D01*
G01*
G37*
G04 #@! TD.AperFunction*
D11*
X155077160Y-114797840D03*
X155077160Y-108297840D03*
X159577160Y-114797840D03*
X159577160Y-108297840D03*
X155077160Y-91201240D03*
X155077160Y-84701240D03*
X159577160Y-91201240D03*
X159577160Y-84701240D03*
D12*
X168396920Y-92124400D03*
X170936920Y-92124400D03*
X173476920Y-92124400D03*
X176016920Y-92124400D03*
X178556920Y-92124400D03*
X181096920Y-92124400D03*
X183636920Y-92124400D03*
X186176920Y-92124400D03*
X188716920Y-92124400D03*
D13*
X191256920Y-92124400D03*
D12*
X106640720Y-112324400D03*
X109180720Y-112324400D03*
X111720720Y-112324400D03*
X114260720Y-112324400D03*
X116800720Y-112324400D03*
X119340720Y-112324400D03*
X121880720Y-112324400D03*
X124420720Y-112324400D03*
X126960720Y-112324400D03*
X129500720Y-112324400D03*
X132040720Y-112324400D03*
X134580720Y-112324400D03*
X137120720Y-112324400D03*
X139660720Y-112324400D03*
D13*
X142200720Y-112324400D03*
D12*
X106640720Y-86924400D03*
X109180720Y-86924400D03*
X111720720Y-86924400D03*
X114260720Y-86924400D03*
X116800720Y-86924400D03*
X119340720Y-86924400D03*
X121880720Y-86924400D03*
X124420720Y-86924400D03*
X126960720Y-86924400D03*
X129500720Y-86924400D03*
X132040720Y-86924400D03*
X134580720Y-86924400D03*
X137120720Y-86924400D03*
X139660720Y-86924400D03*
D13*
X142200720Y-86924400D03*
D14*
X130599180Y-104147620D03*
X140149580Y-94648020D03*
X108805980Y-102674420D03*
X187469780Y-89034620D03*
X181551580Y-106967020D03*
X169588180Y-113469420D03*
X192938400Y-112928400D03*
X109601000Y-94381320D03*
X112364520Y-96225360D03*
X140716000Y-103352600D03*
X146227800Y-108026200D03*
X166624000Y-103352600D03*
X177190400Y-102946200D03*
X172923200Y-98221800D03*
X175732440Y-88323420D03*
X166624000Y-96215200D03*
X149199600Y-96240600D03*
X120540780Y-110345220D03*
X115077240Y-102803960D03*
X119667020Y-100101400D03*
X126657100Y-98943160D03*
X130215640Y-94183200D03*
X147048220Y-85450680D03*
X163032440Y-87025480D03*
X195026280Y-87703660D03*
X190578740Y-102712520D03*
X181457600Y-99034600D03*
X169773600Y-108153200D03*
X163403280Y-111668560D03*
X148513800Y-112699800D03*
X143510000Y-96291400D03*
X147751800Y-103378000D03*
X107579160Y-108905040D03*
X107586780Y-103959660D03*
D15*
X116800720Y-93075580D02*
X116757360Y-93118940D01*
X116800720Y-86924400D02*
X116800720Y-93075580D01*
X118351300Y-91265500D02*
X118600980Y-91015820D01*
X118351300Y-92499180D02*
X118351300Y-91265500D01*
X117731540Y-93118940D02*
X118351300Y-92499180D01*
X116757360Y-93118940D02*
X117731540Y-93118940D01*
X114682360Y-91043940D02*
X116757360Y-93118940D01*
X114682360Y-91025980D02*
X114682360Y-91043940D01*
X119336820Y-86928300D02*
X119336820Y-96065340D01*
X117261820Y-98020960D02*
X119336820Y-95945960D01*
X117261820Y-98059240D02*
X117261820Y-98020960D01*
X120175020Y-95945960D02*
X119336820Y-95945960D01*
X120904760Y-95216220D02*
X120175020Y-95945960D01*
X120904760Y-93804740D02*
X120904760Y-95216220D01*
X191256920Y-89127420D02*
X191253020Y-89123520D01*
X191256920Y-92124400D02*
X191256920Y-89127420D01*
X188192920Y-95280480D02*
X189854840Y-95280480D01*
X191256920Y-93878400D02*
X191256920Y-92124400D01*
X189854840Y-95280480D02*
X191256920Y-93878400D01*
X189653040Y-90520520D02*
X191256920Y-92124400D01*
X187019440Y-90520520D02*
X189653040Y-90520520D01*
X185622440Y-89123520D02*
X187019440Y-90520520D01*
X107586780Y-103959660D02*
X107586780Y-92875100D01*
X109435900Y-91025980D02*
X112682360Y-91025980D01*
X107586780Y-92875100D02*
X109435900Y-91025980D01*
X110119160Y-103959660D02*
X107586780Y-103959660D01*
X111076740Y-103002080D02*
X110119160Y-103959660D01*
X111076740Y-99187000D02*
X111076740Y-103002080D01*
X112204500Y-98059240D02*
X111076740Y-99187000D01*
X115261820Y-98059240D02*
X112204500Y-98059240D01*
X189473840Y-85521800D02*
X191253020Y-87300980D01*
X161549080Y-92938600D02*
X168965880Y-85521800D01*
X191253020Y-87300980D02*
X191253020Y-89123520D01*
X168965880Y-85521800D02*
X189473840Y-85521800D01*
X140075920Y-92938600D02*
X161549080Y-92938600D01*
X107589320Y-108894880D02*
X124119640Y-108894880D01*
X124119640Y-108894880D02*
X140075920Y-92938600D01*
X106640720Y-109843480D02*
X107589320Y-108894880D01*
X106640720Y-112324400D02*
X106640720Y-109843480D01*
X126960720Y-109686000D02*
X126960720Y-112324400D01*
X142831820Y-93814900D02*
X126960720Y-109686000D01*
X173476920Y-93271340D02*
X172933360Y-93814900D01*
X172933360Y-93814900D02*
X142831820Y-93814900D01*
X173476920Y-92124400D02*
X173476920Y-93271340D01*
X183622440Y-92109920D02*
X183636920Y-92124400D01*
X183622440Y-89123520D02*
X183622440Y-92109920D01*
X171617640Y-106349800D02*
X138015320Y-106349800D01*
X138015320Y-106349800D02*
X132040720Y-112324400D01*
X183636920Y-94330520D02*
X171617640Y-106349800D01*
X183636920Y-92124400D02*
X183636920Y-94330520D01*
X174396400Y-110363000D02*
X186176920Y-98582480D01*
X186176920Y-98582480D02*
X186176920Y-92124400D01*
X140766800Y-110363000D02*
X174396400Y-110363000D01*
X139660720Y-111469080D02*
X140766800Y-110363000D01*
X139660720Y-112324400D02*
X139660720Y-111469080D01*
X155077160Y-84701240D02*
X155077160Y-91201240D01*
X154901900Y-91025980D02*
X155077160Y-91201240D01*
X120336820Y-91025980D02*
X154901900Y-91025980D01*
X104084120Y-114802920D02*
X104830600Y-115549400D01*
X152395309Y-115549400D02*
X154325600Y-115549400D01*
X154325600Y-115549400D02*
X155077160Y-114797840D01*
X104830600Y-115549400D02*
X152395309Y-115549400D01*
X105420160Y-105882440D02*
X104084120Y-107218480D01*
X104084120Y-107218480D02*
X104084120Y-114802920D01*
X122904760Y-104699560D02*
X121721880Y-105882440D01*
X122904760Y-93804740D02*
X122904760Y-104699560D01*
X121721880Y-105882440D02*
X105420160Y-105882440D01*
D16*
X196472059Y-82978585D02*
X196721829Y-83053995D01*
X196952192Y-83176482D01*
X197154380Y-83341382D01*
X197320686Y-83542410D01*
X197444778Y-83771914D01*
X197521931Y-84021155D01*
X197552401Y-84311058D01*
X197552400Y-115257681D01*
X197523775Y-115549620D01*
X197448365Y-115799389D01*
X197325877Y-116029754D01*
X197160979Y-116231939D01*
X196959946Y-116398248D01*
X196730446Y-116522338D01*
X196481205Y-116599491D01*
X196191311Y-116629960D01*
X105244679Y-116629960D01*
X104952740Y-116601335D01*
X104702971Y-116525925D01*
X104472606Y-116403437D01*
X104270421Y-116238539D01*
X104104112Y-116037506D01*
X103981168Y-115810126D01*
X104248257Y-116077215D01*
X104272836Y-116107164D01*
X104302784Y-116131742D01*
X104302787Y-116131745D01*
X104323519Y-116148759D01*
X104392367Y-116205262D01*
X104500993Y-116263323D01*
X104528740Y-116278154D01*
X104676712Y-116323041D01*
X104685911Y-116323947D01*
X104792039Y-116334400D01*
X104792046Y-116334400D01*
X104830599Y-116338197D01*
X104869152Y-116334400D01*
X154287047Y-116334400D01*
X154325600Y-116338197D01*
X154364153Y-116334400D01*
X154364161Y-116334400D01*
X154479487Y-116323041D01*
X154627460Y-116278154D01*
X154703368Y-116237581D01*
X154930900Y-116282840D01*
X155223420Y-116282840D01*
X155510318Y-116225772D01*
X155780571Y-116113830D01*
X156023792Y-115951315D01*
X156148870Y-115826237D01*
X158728368Y-115826237D01*
X158806003Y-116075312D01*
X159070043Y-116201211D01*
X159353571Y-116273179D01*
X159645691Y-116288451D01*
X159935179Y-116246439D01*
X160210907Y-116148759D01*
X160348317Y-116075312D01*
X160425952Y-115826237D01*
X159577160Y-114977445D01*
X158728368Y-115826237D01*
X156148870Y-115826237D01*
X156230635Y-115744472D01*
X156393150Y-115501251D01*
X156505092Y-115230998D01*
X156562160Y-114944100D01*
X156562160Y-114866371D01*
X158086549Y-114866371D01*
X158128561Y-115155859D01*
X158226241Y-115431587D01*
X158299688Y-115568997D01*
X158548763Y-115646632D01*
X159397555Y-114797840D01*
X159756765Y-114797840D01*
X160605557Y-115646632D01*
X160854632Y-115568997D01*
X160980531Y-115304957D01*
X161052499Y-115021429D01*
X161067771Y-114729309D01*
X161025759Y-114439821D01*
X160928079Y-114164093D01*
X160854632Y-114026683D01*
X160605557Y-113949048D01*
X159756765Y-114797840D01*
X159397555Y-114797840D01*
X158548763Y-113949048D01*
X158299688Y-114026683D01*
X158173789Y-114290723D01*
X158101821Y-114574251D01*
X158086549Y-114866371D01*
X156562160Y-114866371D01*
X156562160Y-114651580D01*
X156505092Y-114364682D01*
X156393150Y-114094429D01*
X156230635Y-113851208D01*
X156148870Y-113769443D01*
X158728368Y-113769443D01*
X159577160Y-114618235D01*
X160425952Y-113769443D01*
X160348317Y-113520368D01*
X160084277Y-113394469D01*
X159800749Y-113322501D01*
X159508629Y-113307229D01*
X159219141Y-113349241D01*
X158943413Y-113446921D01*
X158806003Y-113520368D01*
X158728368Y-113769443D01*
X156148870Y-113769443D01*
X156023792Y-113644365D01*
X155780571Y-113481850D01*
X155510318Y-113369908D01*
X155223420Y-113312840D01*
X154930900Y-113312840D01*
X154644002Y-113369908D01*
X154373749Y-113481850D01*
X154130528Y-113644365D01*
X153923685Y-113851208D01*
X153761170Y-114094429D01*
X153649228Y-114364682D01*
X153592160Y-114651580D01*
X153592160Y-114764400D01*
X105155758Y-114764400D01*
X104869120Y-114477763D01*
X104869120Y-107543637D01*
X105745317Y-106667440D01*
X121683327Y-106667440D01*
X121721880Y-106671237D01*
X121760433Y-106667440D01*
X121760441Y-106667440D01*
X121875767Y-106656081D01*
X122023740Y-106611194D01*
X122160113Y-106538302D01*
X122279644Y-106440204D01*
X122304227Y-106410250D01*
X123432575Y-105281902D01*
X123462524Y-105257324D01*
X123487757Y-105226579D01*
X123511210Y-105198001D01*
X123560622Y-105137793D01*
X123633514Y-105001420D01*
X123647630Y-104954886D01*
X123678402Y-104853447D01*
X123687251Y-104763597D01*
X123689760Y-104738121D01*
X123689760Y-104738116D01*
X123693557Y-104699560D01*
X123689760Y-104661005D01*
X123689760Y-95024354D01*
X123748147Y-94993145D01*
X123882722Y-94882702D01*
X123993165Y-94748127D01*
X124075232Y-94594591D01*
X124125768Y-94427995D01*
X124142832Y-94254741D01*
X124142832Y-93354739D01*
X124125768Y-93181485D01*
X124075232Y-93014889D01*
X123993165Y-92861353D01*
X123882722Y-92726778D01*
X123748147Y-92616335D01*
X123594611Y-92534268D01*
X123428015Y-92483732D01*
X123254761Y-92466668D01*
X122554759Y-92466668D01*
X122381505Y-92483732D01*
X122214909Y-92534268D01*
X122061373Y-92616335D01*
X121926798Y-92726778D01*
X121904760Y-92753631D01*
X121882722Y-92726778D01*
X121748147Y-92616335D01*
X121594611Y-92534268D01*
X121428015Y-92483732D01*
X121254761Y-92466668D01*
X120554759Y-92466668D01*
X120381505Y-92483732D01*
X120214909Y-92534268D01*
X120121820Y-92584025D01*
X120121820Y-92364052D01*
X120686821Y-92364052D01*
X120860075Y-92346988D01*
X121026671Y-92296452D01*
X121180207Y-92214385D01*
X121314782Y-92103942D01*
X121425225Y-91969367D01*
X121507292Y-91815831D01*
X121508764Y-91810980D01*
X153722370Y-91810980D01*
X153761170Y-91904651D01*
X153923685Y-92147872D01*
X153929413Y-92153600D01*
X140114476Y-92153600D01*
X140075920Y-92149803D01*
X140037364Y-92153600D01*
X140037359Y-92153600D01*
X139996946Y-92157580D01*
X139922033Y-92164958D01*
X139774060Y-92209846D01*
X139637687Y-92282738D01*
X139518156Y-92380836D01*
X139493575Y-92410788D01*
X123794483Y-108109880D01*
X108247711Y-108109880D01*
X108238934Y-108101103D01*
X108069416Y-107987835D01*
X107881058Y-107909814D01*
X107681099Y-107870040D01*
X107477221Y-107870040D01*
X107277262Y-107909814D01*
X107088904Y-107987835D01*
X106919386Y-108101103D01*
X106775223Y-108245266D01*
X106661955Y-108414784D01*
X106583934Y-108603142D01*
X106544160Y-108803101D01*
X106544160Y-108829883D01*
X106112905Y-109261138D01*
X106082957Y-109285716D01*
X106058379Y-109315664D01*
X106058375Y-109315668D01*
X106025410Y-109355836D01*
X105984859Y-109405247D01*
X105959525Y-109452644D01*
X105911966Y-109541621D01*
X105867079Y-109689594D01*
X105851923Y-109843480D01*
X105855721Y-109882043D01*
X105855721Y-111062926D01*
X105694088Y-111170925D01*
X105487245Y-111377768D01*
X105324730Y-111620989D01*
X105212788Y-111891242D01*
X105155720Y-112178140D01*
X105155720Y-112470660D01*
X105212788Y-112757558D01*
X105324730Y-113027811D01*
X105487245Y-113271032D01*
X105694088Y-113477875D01*
X105937309Y-113640390D01*
X106207562Y-113752332D01*
X106494460Y-113809400D01*
X106786980Y-113809400D01*
X107073878Y-113752332D01*
X107344131Y-113640390D01*
X107587352Y-113477875D01*
X107794195Y-113271032D01*
X107915915Y-113088866D01*
X107985542Y-113205755D01*
X108180451Y-113421988D01*
X108413800Y-113596041D01*
X108676621Y-113721225D01*
X108823830Y-113765876D01*
X109053720Y-113644555D01*
X109053720Y-112451400D01*
X109033720Y-112451400D01*
X109033720Y-112197400D01*
X109053720Y-112197400D01*
X109053720Y-111004245D01*
X108823830Y-110882924D01*
X108676621Y-110927575D01*
X108413800Y-111052759D01*
X108180451Y-111226812D01*
X107985542Y-111443045D01*
X107915915Y-111559934D01*
X107794195Y-111377768D01*
X107587352Y-111170925D01*
X107425720Y-111062926D01*
X107425720Y-110168637D01*
X107654317Y-109940040D01*
X107681099Y-109940040D01*
X107881058Y-109900266D01*
X108069416Y-109822245D01*
X108238934Y-109708977D01*
X108268031Y-109679880D01*
X124081087Y-109679880D01*
X124119640Y-109683677D01*
X124158193Y-109679880D01*
X124158201Y-109679880D01*
X124273527Y-109668521D01*
X124421500Y-109623634D01*
X124557873Y-109550742D01*
X124677404Y-109452644D01*
X124701987Y-109422690D01*
X140401077Y-93723600D01*
X141812963Y-93723600D01*
X126432910Y-109103653D01*
X126402956Y-109128236D01*
X126304858Y-109247768D01*
X126231966Y-109384141D01*
X126187079Y-109532114D01*
X126175720Y-109647440D01*
X126175720Y-109647447D01*
X126171923Y-109686000D01*
X126175720Y-109724553D01*
X126175721Y-111062926D01*
X126014088Y-111170925D01*
X125807245Y-111377768D01*
X125690720Y-111552160D01*
X125574195Y-111377768D01*
X125367352Y-111170925D01*
X125124131Y-111008410D01*
X124853878Y-110896468D01*
X124566980Y-110839400D01*
X124274460Y-110839400D01*
X123987562Y-110896468D01*
X123717309Y-111008410D01*
X123474088Y-111170925D01*
X123267245Y-111377768D01*
X123150720Y-111552160D01*
X123034195Y-111377768D01*
X122827352Y-111170925D01*
X122584131Y-111008410D01*
X122313878Y-110896468D01*
X122026980Y-110839400D01*
X121734460Y-110839400D01*
X121447562Y-110896468D01*
X121177309Y-111008410D01*
X120934088Y-111170925D01*
X120727245Y-111377768D01*
X120610720Y-111552160D01*
X120494195Y-111377768D01*
X120287352Y-111170925D01*
X120044131Y-111008410D01*
X119773878Y-110896468D01*
X119486980Y-110839400D01*
X119194460Y-110839400D01*
X118907562Y-110896468D01*
X118637309Y-111008410D01*
X118394088Y-111170925D01*
X118187245Y-111377768D01*
X118070720Y-111552160D01*
X117954195Y-111377768D01*
X117747352Y-111170925D01*
X117504131Y-111008410D01*
X117233878Y-110896468D01*
X116946980Y-110839400D01*
X116654460Y-110839400D01*
X116367562Y-110896468D01*
X116097309Y-111008410D01*
X115854088Y-111170925D01*
X115647245Y-111377768D01*
X115530720Y-111552160D01*
X115414195Y-111377768D01*
X115207352Y-111170925D01*
X114964131Y-111008410D01*
X114693878Y-110896468D01*
X114406980Y-110839400D01*
X114114460Y-110839400D01*
X113827562Y-110896468D01*
X113557309Y-111008410D01*
X113314088Y-111170925D01*
X113107245Y-111377768D01*
X112990720Y-111552160D01*
X112874195Y-111377768D01*
X112667352Y-111170925D01*
X112424131Y-111008410D01*
X112153878Y-110896468D01*
X111866980Y-110839400D01*
X111574460Y-110839400D01*
X111287562Y-110896468D01*
X111017309Y-111008410D01*
X110774088Y-111170925D01*
X110567245Y-111377768D01*
X110445525Y-111559934D01*
X110375898Y-111443045D01*
X110180989Y-111226812D01*
X109947640Y-111052759D01*
X109684819Y-110927575D01*
X109537610Y-110882924D01*
X109307720Y-111004245D01*
X109307720Y-112197400D01*
X109327720Y-112197400D01*
X109327720Y-112451400D01*
X109307720Y-112451400D01*
X109307720Y-113644555D01*
X109537610Y-113765876D01*
X109684819Y-113721225D01*
X109947640Y-113596041D01*
X110180989Y-113421988D01*
X110375898Y-113205755D01*
X110445525Y-113088866D01*
X110567245Y-113271032D01*
X110774088Y-113477875D01*
X111017309Y-113640390D01*
X111287562Y-113752332D01*
X111574460Y-113809400D01*
X111866980Y-113809400D01*
X112153878Y-113752332D01*
X112424131Y-113640390D01*
X112667352Y-113477875D01*
X112874195Y-113271032D01*
X112990720Y-113096640D01*
X113107245Y-113271032D01*
X113314088Y-113477875D01*
X113557309Y-113640390D01*
X113827562Y-113752332D01*
X114114460Y-113809400D01*
X114406980Y-113809400D01*
X114693878Y-113752332D01*
X114964131Y-113640390D01*
X115207352Y-113477875D01*
X115414195Y-113271032D01*
X115530720Y-113096640D01*
X115647245Y-113271032D01*
X115854088Y-113477875D01*
X116097309Y-113640390D01*
X116367562Y-113752332D01*
X116654460Y-113809400D01*
X116946980Y-113809400D01*
X117233878Y-113752332D01*
X117504131Y-113640390D01*
X117747352Y-113477875D01*
X117954195Y-113271032D01*
X118070720Y-113096640D01*
X118187245Y-113271032D01*
X118394088Y-113477875D01*
X118637309Y-113640390D01*
X118907562Y-113752332D01*
X119194460Y-113809400D01*
X119486980Y-113809400D01*
X119773878Y-113752332D01*
X120044131Y-113640390D01*
X120287352Y-113477875D01*
X120494195Y-113271032D01*
X120610720Y-113096640D01*
X120727245Y-113271032D01*
X120934088Y-113477875D01*
X121177309Y-113640390D01*
X121447562Y-113752332D01*
X121734460Y-113809400D01*
X122026980Y-113809400D01*
X122313878Y-113752332D01*
X122584131Y-113640390D01*
X122827352Y-113477875D01*
X123034195Y-113271032D01*
X123150720Y-113096640D01*
X123267245Y-113271032D01*
X123474088Y-113477875D01*
X123717309Y-113640390D01*
X123987562Y-113752332D01*
X124274460Y-113809400D01*
X124566980Y-113809400D01*
X124853878Y-113752332D01*
X125124131Y-113640390D01*
X125367352Y-113477875D01*
X125574195Y-113271032D01*
X125690720Y-113096640D01*
X125807245Y-113271032D01*
X126014088Y-113477875D01*
X126257309Y-113640390D01*
X126527562Y-113752332D01*
X126814460Y-113809400D01*
X127106980Y-113809400D01*
X127393878Y-113752332D01*
X127664131Y-113640390D01*
X127907352Y-113477875D01*
X128114195Y-113271032D01*
X128230720Y-113096640D01*
X128347245Y-113271032D01*
X128554088Y-113477875D01*
X128797309Y-113640390D01*
X129067562Y-113752332D01*
X129354460Y-113809400D01*
X129646980Y-113809400D01*
X129933878Y-113752332D01*
X130204131Y-113640390D01*
X130447352Y-113477875D01*
X130654195Y-113271032D01*
X130770720Y-113096640D01*
X130887245Y-113271032D01*
X131094088Y-113477875D01*
X131337309Y-113640390D01*
X131607562Y-113752332D01*
X131894460Y-113809400D01*
X132186980Y-113809400D01*
X132473878Y-113752332D01*
X132744131Y-113640390D01*
X132987352Y-113477875D01*
X133194195Y-113271032D01*
X133310720Y-113096640D01*
X133427245Y-113271032D01*
X133634088Y-113477875D01*
X133877309Y-113640390D01*
X134147562Y-113752332D01*
X134434460Y-113809400D01*
X134726980Y-113809400D01*
X135013878Y-113752332D01*
X135284131Y-113640390D01*
X135527352Y-113477875D01*
X135734195Y-113271032D01*
X135850720Y-113096640D01*
X135967245Y-113271032D01*
X136174088Y-113477875D01*
X136417309Y-113640390D01*
X136687562Y-113752332D01*
X136974460Y-113809400D01*
X137266980Y-113809400D01*
X137553878Y-113752332D01*
X137824131Y-113640390D01*
X138067352Y-113477875D01*
X138274195Y-113271032D01*
X138390720Y-113096640D01*
X138507245Y-113271032D01*
X138714088Y-113477875D01*
X138957309Y-113640390D01*
X139227562Y-113752332D01*
X139514460Y-113809400D01*
X139806980Y-113809400D01*
X140093878Y-113752332D01*
X140364131Y-113640390D01*
X140607352Y-113477875D01*
X140739207Y-113346020D01*
X140761218Y-113418580D01*
X140820183Y-113528894D01*
X140899535Y-113625585D01*
X140996226Y-113704937D01*
X141106540Y-113763902D01*
X141226238Y-113800212D01*
X141350720Y-113812472D01*
X143050720Y-113812472D01*
X143175202Y-113800212D01*
X143294900Y-113763902D01*
X143405214Y-113704937D01*
X143501905Y-113625585D01*
X143581257Y-113528894D01*
X143640222Y-113418580D01*
X143676532Y-113298882D01*
X143688792Y-113174400D01*
X143688792Y-111474400D01*
X143676532Y-111349918D01*
X143640222Y-111230220D01*
X143596274Y-111148000D01*
X174357847Y-111148000D01*
X174396400Y-111151797D01*
X174434953Y-111148000D01*
X174434961Y-111148000D01*
X174550287Y-111136641D01*
X174698260Y-111091754D01*
X174834633Y-111018862D01*
X174954164Y-110920764D01*
X174978747Y-110890810D01*
X186704737Y-99164821D01*
X186734684Y-99140244D01*
X186832782Y-99020713D01*
X186905674Y-98884340D01*
X186921284Y-98832881D01*
X186950561Y-98736368D01*
X186956426Y-98676821D01*
X186961920Y-98621041D01*
X186961920Y-98621034D01*
X186965717Y-98582481D01*
X186961920Y-98543928D01*
X186961920Y-96508646D01*
X187036307Y-96468885D01*
X187170882Y-96358442D01*
X187192920Y-96331589D01*
X187214958Y-96358442D01*
X187349533Y-96468885D01*
X187503069Y-96550952D01*
X187669665Y-96601488D01*
X187842919Y-96618552D01*
X188542921Y-96618552D01*
X188716175Y-96601488D01*
X188882771Y-96550952D01*
X189036307Y-96468885D01*
X189170882Y-96358442D01*
X189281325Y-96223867D01*
X189363392Y-96070331D01*
X189364864Y-96065480D01*
X189816287Y-96065480D01*
X189854840Y-96069277D01*
X189893393Y-96065480D01*
X189893401Y-96065480D01*
X190008727Y-96054121D01*
X190156700Y-96009234D01*
X190293073Y-95936342D01*
X190412604Y-95838244D01*
X190437187Y-95808290D01*
X191784731Y-94460746D01*
X191814684Y-94436164D01*
X191912782Y-94316633D01*
X191985674Y-94180260D01*
X191986774Y-94176633D01*
X192030562Y-94032287D01*
X192037940Y-93957374D01*
X192041920Y-93916961D01*
X192041920Y-93916956D01*
X192045717Y-93878400D01*
X192041920Y-93839844D01*
X192041920Y-93612472D01*
X192106920Y-93612472D01*
X192231402Y-93600212D01*
X192351100Y-93563902D01*
X192461414Y-93504937D01*
X192558105Y-93425585D01*
X192637457Y-93328894D01*
X192696422Y-93218580D01*
X192732732Y-93098882D01*
X192744992Y-92974400D01*
X192744992Y-91274400D01*
X192732732Y-91149918D01*
X192696422Y-91030220D01*
X192637457Y-90919906D01*
X192558105Y-90823215D01*
X192461414Y-90743863D01*
X192351100Y-90684898D01*
X192231402Y-90648588D01*
X192106920Y-90636328D01*
X192041920Y-90636328D01*
X192041920Y-90359367D01*
X192083906Y-90336925D01*
X192218482Y-90226482D01*
X192328925Y-90091906D01*
X192410992Y-89938370D01*
X192461528Y-89771774D01*
X192478592Y-89598520D01*
X192478592Y-88648520D01*
X192461528Y-88475266D01*
X192410992Y-88308670D01*
X192328925Y-88155134D01*
X192218482Y-88020558D01*
X192083906Y-87910115D01*
X192038020Y-87885588D01*
X192038020Y-87339532D01*
X192041817Y-87300979D01*
X192038020Y-87262426D01*
X192038020Y-87262419D01*
X192026661Y-87147093D01*
X191981774Y-86999120D01*
X191908882Y-86862747D01*
X191836388Y-86774414D01*
X191835365Y-86773167D01*
X191835362Y-86773164D01*
X191810784Y-86743216D01*
X191780837Y-86718639D01*
X190056187Y-84993990D01*
X190031604Y-84964036D01*
X189912073Y-84865938D01*
X189775700Y-84793046D01*
X189627727Y-84748159D01*
X189512401Y-84736800D01*
X189512393Y-84736800D01*
X189473840Y-84733003D01*
X189435287Y-84736800D01*
X169004432Y-84736800D01*
X168965879Y-84733003D01*
X168927326Y-84736800D01*
X168927319Y-84736800D01*
X168826370Y-84746743D01*
X168811992Y-84748159D01*
X168682438Y-84787459D01*
X168664020Y-84793046D01*
X168527647Y-84865938D01*
X168484888Y-84901030D01*
X168438067Y-84939455D01*
X168438064Y-84939458D01*
X168408116Y-84964036D01*
X168383538Y-84993984D01*
X161223923Y-92153600D01*
X160709128Y-92153600D01*
X160605559Y-92050031D01*
X160854632Y-91972397D01*
X160980531Y-91708357D01*
X161052499Y-91424829D01*
X161067771Y-91132709D01*
X161025759Y-90843221D01*
X160928079Y-90567493D01*
X160854632Y-90430083D01*
X160605557Y-90352448D01*
X159756765Y-91201240D01*
X159770908Y-91215383D01*
X159591303Y-91394988D01*
X159577160Y-91380845D01*
X159563018Y-91394988D01*
X159383413Y-91215383D01*
X159397555Y-91201240D01*
X158548763Y-90352448D01*
X158299688Y-90430083D01*
X158173789Y-90694123D01*
X158101821Y-90977651D01*
X158086549Y-91269771D01*
X158128561Y-91559259D01*
X158226241Y-91834987D01*
X158299688Y-91972397D01*
X158548761Y-92050031D01*
X158445192Y-92153600D01*
X156224907Y-92153600D01*
X156230635Y-92147872D01*
X156393150Y-91904651D01*
X156505092Y-91634398D01*
X156562160Y-91347500D01*
X156562160Y-91054980D01*
X156505092Y-90768082D01*
X156393150Y-90497829D01*
X156230635Y-90254608D01*
X156148870Y-90172843D01*
X158728368Y-90172843D01*
X159577160Y-91021635D01*
X160425952Y-90172843D01*
X160348317Y-89923768D01*
X160084277Y-89797869D01*
X159800749Y-89725901D01*
X159508629Y-89710629D01*
X159219141Y-89752641D01*
X158943413Y-89850321D01*
X158806003Y-89923768D01*
X158728368Y-90172843D01*
X156148870Y-90172843D01*
X156023792Y-90047765D01*
X155862160Y-89939766D01*
X155862160Y-85962714D01*
X156023792Y-85854715D01*
X156148870Y-85729637D01*
X158728368Y-85729637D01*
X158806003Y-85978712D01*
X159070043Y-86104611D01*
X159353571Y-86176579D01*
X159645691Y-86191851D01*
X159935179Y-86149839D01*
X160210907Y-86052159D01*
X160348317Y-85978712D01*
X160425952Y-85729637D01*
X159577160Y-84880845D01*
X158728368Y-85729637D01*
X156148870Y-85729637D01*
X156230635Y-85647872D01*
X156393150Y-85404651D01*
X156505092Y-85134398D01*
X156562160Y-84847500D01*
X156562160Y-84769771D01*
X158086549Y-84769771D01*
X158128561Y-85059259D01*
X158226241Y-85334987D01*
X158299688Y-85472397D01*
X158548763Y-85550032D01*
X159397555Y-84701240D01*
X159756765Y-84701240D01*
X160605557Y-85550032D01*
X160854632Y-85472397D01*
X160980531Y-85208357D01*
X161052499Y-84924829D01*
X161067771Y-84632709D01*
X161025759Y-84343221D01*
X160928079Y-84067493D01*
X160854632Y-83930083D01*
X160605557Y-83852448D01*
X159756765Y-84701240D01*
X159397555Y-84701240D01*
X158548763Y-83852448D01*
X158299688Y-83930083D01*
X158173789Y-84194123D01*
X158101821Y-84477651D01*
X158086549Y-84769771D01*
X156562160Y-84769771D01*
X156562160Y-84554980D01*
X156505092Y-84268082D01*
X156393150Y-83997829D01*
X156230635Y-83754608D01*
X156148870Y-83672843D01*
X158728368Y-83672843D01*
X159577160Y-84521635D01*
X160425952Y-83672843D01*
X160348317Y-83423768D01*
X160084277Y-83297869D01*
X159800749Y-83225901D01*
X159508629Y-83210629D01*
X159219141Y-83252641D01*
X158943413Y-83350321D01*
X158806003Y-83423768D01*
X158728368Y-83672843D01*
X156148870Y-83672843D01*
X156023792Y-83547765D01*
X155780571Y-83385250D01*
X155510318Y-83273308D01*
X155223420Y-83216240D01*
X154930900Y-83216240D01*
X154644002Y-83273308D01*
X154373749Y-83385250D01*
X154130528Y-83547765D01*
X153923685Y-83754608D01*
X153761170Y-83997829D01*
X153649228Y-84268082D01*
X153592160Y-84554980D01*
X153592160Y-84847500D01*
X153649228Y-85134398D01*
X153761170Y-85404651D01*
X153923685Y-85647872D01*
X154130528Y-85854715D01*
X154292160Y-85962714D01*
X154292161Y-89939765D01*
X154130528Y-90047765D01*
X153937313Y-90240980D01*
X121508764Y-90240980D01*
X121507292Y-90236129D01*
X121425225Y-90082593D01*
X121314782Y-89948018D01*
X121180207Y-89837575D01*
X121026671Y-89755508D01*
X120860075Y-89704972D01*
X120686821Y-89687908D01*
X120121820Y-89687908D01*
X120121820Y-88188480D01*
X120287352Y-88077875D01*
X120494195Y-87871032D01*
X120610720Y-87696640D01*
X120727245Y-87871032D01*
X120934088Y-88077875D01*
X121177309Y-88240390D01*
X121447562Y-88352332D01*
X121734460Y-88409400D01*
X122026980Y-88409400D01*
X122313878Y-88352332D01*
X122584131Y-88240390D01*
X122827352Y-88077875D01*
X123034195Y-87871032D01*
X123150720Y-87696640D01*
X123267245Y-87871032D01*
X123474088Y-88077875D01*
X123717309Y-88240390D01*
X123987562Y-88352332D01*
X124274460Y-88409400D01*
X124566980Y-88409400D01*
X124853878Y-88352332D01*
X125124131Y-88240390D01*
X125367352Y-88077875D01*
X125574195Y-87871032D01*
X125690720Y-87696640D01*
X125807245Y-87871032D01*
X126014088Y-88077875D01*
X126257309Y-88240390D01*
X126527562Y-88352332D01*
X126814460Y-88409400D01*
X127106980Y-88409400D01*
X127393878Y-88352332D01*
X127664131Y-88240390D01*
X127907352Y-88077875D01*
X128114195Y-87871032D01*
X128230720Y-87696640D01*
X128347245Y-87871032D01*
X128554088Y-88077875D01*
X128797309Y-88240390D01*
X129067562Y-88352332D01*
X129354460Y-88409400D01*
X129646980Y-88409400D01*
X129933878Y-88352332D01*
X130204131Y-88240390D01*
X130447352Y-88077875D01*
X130654195Y-87871032D01*
X130770720Y-87696640D01*
X130887245Y-87871032D01*
X131094088Y-88077875D01*
X131337309Y-88240390D01*
X131607562Y-88352332D01*
X131894460Y-88409400D01*
X132186980Y-88409400D01*
X132473878Y-88352332D01*
X132744131Y-88240390D01*
X132987352Y-88077875D01*
X133194195Y-87871032D01*
X133310720Y-87696640D01*
X133427245Y-87871032D01*
X133634088Y-88077875D01*
X133877309Y-88240390D01*
X134147562Y-88352332D01*
X134434460Y-88409400D01*
X134726980Y-88409400D01*
X135013878Y-88352332D01*
X135284131Y-88240390D01*
X135527352Y-88077875D01*
X135734195Y-87871032D01*
X135850720Y-87696640D01*
X135967245Y-87871032D01*
X136174088Y-88077875D01*
X136417309Y-88240390D01*
X136687562Y-88352332D01*
X136974460Y-88409400D01*
X137266980Y-88409400D01*
X137553878Y-88352332D01*
X137824131Y-88240390D01*
X138067352Y-88077875D01*
X138274195Y-87871032D01*
X138390720Y-87696640D01*
X138507245Y-87871032D01*
X138714088Y-88077875D01*
X138957309Y-88240390D01*
X139227562Y-88352332D01*
X139514460Y-88409400D01*
X139806980Y-88409400D01*
X140093878Y-88352332D01*
X140364131Y-88240390D01*
X140607352Y-88077875D01*
X140739207Y-87946020D01*
X140761218Y-88018580D01*
X140820183Y-88128894D01*
X140899535Y-88225585D01*
X140996226Y-88304937D01*
X141106540Y-88363902D01*
X141226238Y-88400212D01*
X141350720Y-88412472D01*
X143050720Y-88412472D01*
X143175202Y-88400212D01*
X143294900Y-88363902D01*
X143405214Y-88304937D01*
X143501905Y-88225585D01*
X143581257Y-88128894D01*
X143640222Y-88018580D01*
X143676532Y-87898882D01*
X143688792Y-87774400D01*
X143688792Y-86074400D01*
X143676532Y-85949918D01*
X143640222Y-85830220D01*
X143581257Y-85719906D01*
X143501905Y-85623215D01*
X143405214Y-85543863D01*
X143294900Y-85484898D01*
X143175202Y-85448588D01*
X143050720Y-85436328D01*
X141350720Y-85436328D01*
X141226238Y-85448588D01*
X141106540Y-85484898D01*
X140996226Y-85543863D01*
X140899535Y-85623215D01*
X140820183Y-85719906D01*
X140761218Y-85830220D01*
X140739207Y-85902780D01*
X140607352Y-85770925D01*
X140364131Y-85608410D01*
X140093878Y-85496468D01*
X139806980Y-85439400D01*
X139514460Y-85439400D01*
X139227562Y-85496468D01*
X138957309Y-85608410D01*
X138714088Y-85770925D01*
X138507245Y-85977768D01*
X138390720Y-86152160D01*
X138274195Y-85977768D01*
X138067352Y-85770925D01*
X137824131Y-85608410D01*
X137553878Y-85496468D01*
X137266980Y-85439400D01*
X136974460Y-85439400D01*
X136687562Y-85496468D01*
X136417309Y-85608410D01*
X136174088Y-85770925D01*
X135967245Y-85977768D01*
X135850720Y-86152160D01*
X135734195Y-85977768D01*
X135527352Y-85770925D01*
X135284131Y-85608410D01*
X135013878Y-85496468D01*
X134726980Y-85439400D01*
X134434460Y-85439400D01*
X134147562Y-85496468D01*
X133877309Y-85608410D01*
X133634088Y-85770925D01*
X133427245Y-85977768D01*
X133310720Y-86152160D01*
X133194195Y-85977768D01*
X132987352Y-85770925D01*
X132744131Y-85608410D01*
X132473878Y-85496468D01*
X132186980Y-85439400D01*
X131894460Y-85439400D01*
X131607562Y-85496468D01*
X131337309Y-85608410D01*
X131094088Y-85770925D01*
X130887245Y-85977768D01*
X130770720Y-86152160D01*
X130654195Y-85977768D01*
X130447352Y-85770925D01*
X130204131Y-85608410D01*
X129933878Y-85496468D01*
X129646980Y-85439400D01*
X129354460Y-85439400D01*
X129067562Y-85496468D01*
X128797309Y-85608410D01*
X128554088Y-85770925D01*
X128347245Y-85977768D01*
X128230720Y-86152160D01*
X128114195Y-85977768D01*
X127907352Y-85770925D01*
X127664131Y-85608410D01*
X127393878Y-85496468D01*
X127106980Y-85439400D01*
X126814460Y-85439400D01*
X126527562Y-85496468D01*
X126257309Y-85608410D01*
X126014088Y-85770925D01*
X125807245Y-85977768D01*
X125690720Y-86152160D01*
X125574195Y-85977768D01*
X125367352Y-85770925D01*
X125124131Y-85608410D01*
X124853878Y-85496468D01*
X124566980Y-85439400D01*
X124274460Y-85439400D01*
X123987562Y-85496468D01*
X123717309Y-85608410D01*
X123474088Y-85770925D01*
X123267245Y-85977768D01*
X123150720Y-86152160D01*
X123034195Y-85977768D01*
X122827352Y-85770925D01*
X122584131Y-85608410D01*
X122313878Y-85496468D01*
X122026980Y-85439400D01*
X121734460Y-85439400D01*
X121447562Y-85496468D01*
X121177309Y-85608410D01*
X120934088Y-85770925D01*
X120727245Y-85977768D01*
X120610720Y-86152160D01*
X120494195Y-85977768D01*
X120287352Y-85770925D01*
X120044131Y-85608410D01*
X119773878Y-85496468D01*
X119486980Y-85439400D01*
X119194460Y-85439400D01*
X118907562Y-85496468D01*
X118637309Y-85608410D01*
X118394088Y-85770925D01*
X118187245Y-85977768D01*
X118070720Y-86152160D01*
X117954195Y-85977768D01*
X117747352Y-85770925D01*
X117504131Y-85608410D01*
X117233878Y-85496468D01*
X116946980Y-85439400D01*
X116654460Y-85439400D01*
X116367562Y-85496468D01*
X116097309Y-85608410D01*
X115854088Y-85770925D01*
X115647245Y-85977768D01*
X115530720Y-86152160D01*
X115414195Y-85977768D01*
X115207352Y-85770925D01*
X114964131Y-85608410D01*
X114693878Y-85496468D01*
X114406980Y-85439400D01*
X114114460Y-85439400D01*
X113827562Y-85496468D01*
X113557309Y-85608410D01*
X113314088Y-85770925D01*
X113107245Y-85977768D01*
X112990720Y-86152160D01*
X112874195Y-85977768D01*
X112667352Y-85770925D01*
X112424131Y-85608410D01*
X112153878Y-85496468D01*
X111866980Y-85439400D01*
X111574460Y-85439400D01*
X111287562Y-85496468D01*
X111017309Y-85608410D01*
X110774088Y-85770925D01*
X110567245Y-85977768D01*
X110445525Y-86159934D01*
X110375898Y-86043045D01*
X110180989Y-85826812D01*
X109947640Y-85652759D01*
X109684819Y-85527575D01*
X109537610Y-85482924D01*
X109307720Y-85604245D01*
X109307720Y-86797400D01*
X109327720Y-86797400D01*
X109327720Y-87051400D01*
X109307720Y-87051400D01*
X109307720Y-88244555D01*
X109537610Y-88365876D01*
X109684819Y-88321225D01*
X109947640Y-88196041D01*
X110180989Y-88021988D01*
X110375898Y-87805755D01*
X110445525Y-87688866D01*
X110567245Y-87871032D01*
X110774088Y-88077875D01*
X111017309Y-88240390D01*
X111287562Y-88352332D01*
X111574460Y-88409400D01*
X111866980Y-88409400D01*
X112153878Y-88352332D01*
X112424131Y-88240390D01*
X112667352Y-88077875D01*
X112874195Y-87871032D01*
X112990720Y-87696640D01*
X113107245Y-87871032D01*
X113314088Y-88077875D01*
X113557309Y-88240390D01*
X113827562Y-88352332D01*
X114114460Y-88409400D01*
X114406980Y-88409400D01*
X114693878Y-88352332D01*
X114964131Y-88240390D01*
X115207352Y-88077875D01*
X115414195Y-87871032D01*
X115530720Y-87696640D01*
X115647245Y-87871032D01*
X115854088Y-88077875D01*
X116015720Y-88185874D01*
X116015721Y-91267143D01*
X115920432Y-91171855D01*
X115920432Y-90575979D01*
X115903368Y-90402725D01*
X115852832Y-90236129D01*
X115770765Y-90082593D01*
X115660322Y-89948018D01*
X115525747Y-89837575D01*
X115372211Y-89755508D01*
X115205615Y-89704972D01*
X115032361Y-89687908D01*
X114332359Y-89687908D01*
X114159105Y-89704972D01*
X113992509Y-89755508D01*
X113838973Y-89837575D01*
X113704398Y-89948018D01*
X113682360Y-89974871D01*
X113660322Y-89948018D01*
X113525747Y-89837575D01*
X113372211Y-89755508D01*
X113205615Y-89704972D01*
X113032361Y-89687908D01*
X112332359Y-89687908D01*
X112159105Y-89704972D01*
X111992509Y-89755508D01*
X111838973Y-89837575D01*
X111704398Y-89948018D01*
X111593955Y-90082593D01*
X111511888Y-90236129D01*
X111510416Y-90240980D01*
X109474456Y-90240980D01*
X109435900Y-90237183D01*
X109397344Y-90240980D01*
X109397339Y-90240980D01*
X109356926Y-90244960D01*
X109282013Y-90252338D01*
X109134040Y-90297226D01*
X108997667Y-90370118D01*
X108878136Y-90468216D01*
X108853553Y-90498170D01*
X107058965Y-92292758D01*
X107029017Y-92317336D01*
X107004439Y-92347284D01*
X107004435Y-92347288D01*
X106976903Y-92380836D01*
X106930919Y-92436867D01*
X106900790Y-92493235D01*
X106858026Y-92573241D01*
X106813139Y-92721214D01*
X106797983Y-92875100D01*
X106801781Y-92913663D01*
X106801780Y-103280949D01*
X106782843Y-103299886D01*
X106669575Y-103469404D01*
X106591554Y-103657762D01*
X106551780Y-103857721D01*
X106551780Y-104061599D01*
X106591554Y-104261558D01*
X106669575Y-104449916D01*
X106782843Y-104619434D01*
X106927006Y-104763597D01*
X107096524Y-104876865D01*
X107284882Y-104954886D01*
X107484841Y-104994660D01*
X107688719Y-104994660D01*
X107888678Y-104954886D01*
X108077036Y-104876865D01*
X108246554Y-104763597D01*
X108265491Y-104744660D01*
X110080607Y-104744660D01*
X110119160Y-104748457D01*
X110157713Y-104744660D01*
X110157721Y-104744660D01*
X110273047Y-104733301D01*
X110421020Y-104688414D01*
X110557393Y-104615522D01*
X110676924Y-104517424D01*
X110701507Y-104487470D01*
X111604550Y-103584427D01*
X111634504Y-103559844D01*
X111732602Y-103440313D01*
X111805494Y-103303940D01*
X111827649Y-103230906D01*
X111850382Y-103155967D01*
X111861561Y-103042455D01*
X111861740Y-103040641D01*
X111861740Y-103040636D01*
X111865537Y-103002080D01*
X111861740Y-102963524D01*
X111861740Y-99512157D01*
X112529658Y-98844240D01*
X114089876Y-98844240D01*
X114091348Y-98849091D01*
X114173415Y-99002627D01*
X114283858Y-99137202D01*
X114418433Y-99247645D01*
X114571969Y-99329712D01*
X114738565Y-99380248D01*
X114911819Y-99397312D01*
X115611821Y-99397312D01*
X115785075Y-99380248D01*
X115951671Y-99329712D01*
X116105207Y-99247645D01*
X116239782Y-99137202D01*
X116261820Y-99110349D01*
X116283858Y-99137202D01*
X116418433Y-99247645D01*
X116571969Y-99329712D01*
X116738565Y-99380248D01*
X116911819Y-99397312D01*
X117611821Y-99397312D01*
X117785075Y-99380248D01*
X117951671Y-99329712D01*
X118105207Y-99247645D01*
X118239782Y-99137202D01*
X118350225Y-99002627D01*
X118432292Y-98849091D01*
X118482828Y-98682495D01*
X118499892Y-98509241D01*
X118499892Y-97893045D01*
X119083906Y-97309032D01*
X119674320Y-97309032D01*
X119847574Y-97291968D01*
X120014170Y-97241432D01*
X120167706Y-97159365D01*
X120302282Y-97048922D01*
X120412725Y-96914346D01*
X120494792Y-96760810D01*
X120529429Y-96646626D01*
X120613253Y-96601822D01*
X120732784Y-96503724D01*
X120757367Y-96473771D01*
X121432575Y-95798563D01*
X121462524Y-95773984D01*
X121560622Y-95654453D01*
X121633514Y-95518080D01*
X121678401Y-95370107D01*
X121689760Y-95254781D01*
X121689760Y-95254774D01*
X121693557Y-95216221D01*
X121689760Y-95177668D01*
X121689760Y-95024354D01*
X121748147Y-94993145D01*
X121882722Y-94882702D01*
X121904760Y-94855849D01*
X121926798Y-94882702D01*
X122061373Y-94993145D01*
X122119760Y-95024354D01*
X122119761Y-104374401D01*
X121396723Y-105097440D01*
X105458716Y-105097440D01*
X105420160Y-105093643D01*
X105381604Y-105097440D01*
X105381599Y-105097440D01*
X105341186Y-105101420D01*
X105266273Y-105108798D01*
X105118300Y-105153686D01*
X104981927Y-105226578D01*
X104862396Y-105324676D01*
X104837815Y-105354628D01*
X103872400Y-106320043D01*
X103872400Y-86778140D01*
X105155720Y-86778140D01*
X105155720Y-87070660D01*
X105212788Y-87357558D01*
X105324730Y-87627811D01*
X105487245Y-87871032D01*
X105694088Y-88077875D01*
X105937309Y-88240390D01*
X106207562Y-88352332D01*
X106494460Y-88409400D01*
X106786980Y-88409400D01*
X107073878Y-88352332D01*
X107344131Y-88240390D01*
X107587352Y-88077875D01*
X107794195Y-87871032D01*
X107915915Y-87688866D01*
X107985542Y-87805755D01*
X108180451Y-88021988D01*
X108413800Y-88196041D01*
X108676621Y-88321225D01*
X108823830Y-88365876D01*
X109053720Y-88244555D01*
X109053720Y-87051400D01*
X109033720Y-87051400D01*
X109033720Y-86797400D01*
X109053720Y-86797400D01*
X109053720Y-85604245D01*
X108823830Y-85482924D01*
X108676621Y-85527575D01*
X108413800Y-85652759D01*
X108180451Y-85826812D01*
X107985542Y-86043045D01*
X107915915Y-86159934D01*
X107794195Y-85977768D01*
X107587352Y-85770925D01*
X107344131Y-85608410D01*
X107073878Y-85496468D01*
X106786980Y-85439400D01*
X106494460Y-85439400D01*
X106207562Y-85496468D01*
X105937309Y-85608410D01*
X105694088Y-85770925D01*
X105487245Y-85977768D01*
X105324730Y-86220989D01*
X105212788Y-86491242D01*
X105155720Y-86778140D01*
X103872400Y-86778140D01*
X103872400Y-84322239D01*
X103901025Y-84030301D01*
X103976435Y-83780531D01*
X104098922Y-83550168D01*
X104263822Y-83347980D01*
X104464850Y-83181674D01*
X104694354Y-83057582D01*
X104943595Y-82980429D01*
X105233488Y-82949960D01*
X196180121Y-82949960D01*
X196472059Y-82978585D01*
G04 #@! TA.AperFunction,Conductor*
D17*
G36*
X196472059Y-82978585D02*
G01*
X196721829Y-83053995D01*
X196952192Y-83176482D01*
X197154380Y-83341382D01*
X197320686Y-83542410D01*
X197444778Y-83771914D01*
X197521931Y-84021155D01*
X197552401Y-84311058D01*
X197552400Y-115257681D01*
X197523775Y-115549620D01*
X197448365Y-115799389D01*
X197325877Y-116029754D01*
X197160979Y-116231939D01*
X196959946Y-116398248D01*
X196730446Y-116522338D01*
X196481205Y-116599491D01*
X196191311Y-116629960D01*
X105244679Y-116629960D01*
X104952740Y-116601335D01*
X104702971Y-116525925D01*
X104472606Y-116403437D01*
X104270421Y-116238539D01*
X104104112Y-116037506D01*
X103981168Y-115810126D01*
X104248257Y-116077215D01*
X104272836Y-116107164D01*
X104302784Y-116131742D01*
X104302787Y-116131745D01*
X104323519Y-116148759D01*
X104392367Y-116205262D01*
X104500993Y-116263323D01*
X104528740Y-116278154D01*
X104676712Y-116323041D01*
X104685911Y-116323947D01*
X104792039Y-116334400D01*
X104792046Y-116334400D01*
X104830599Y-116338197D01*
X104869152Y-116334400D01*
X154287047Y-116334400D01*
X154325600Y-116338197D01*
X154364153Y-116334400D01*
X154364161Y-116334400D01*
X154479487Y-116323041D01*
X154627460Y-116278154D01*
X154703368Y-116237581D01*
X154930900Y-116282840D01*
X155223420Y-116282840D01*
X155510318Y-116225772D01*
X155780571Y-116113830D01*
X156023792Y-115951315D01*
X156148870Y-115826237D01*
X158728368Y-115826237D01*
X158806003Y-116075312D01*
X159070043Y-116201211D01*
X159353571Y-116273179D01*
X159645691Y-116288451D01*
X159935179Y-116246439D01*
X160210907Y-116148759D01*
X160348317Y-116075312D01*
X160425952Y-115826237D01*
X159577160Y-114977445D01*
X158728368Y-115826237D01*
X156148870Y-115826237D01*
X156230635Y-115744472D01*
X156393150Y-115501251D01*
X156505092Y-115230998D01*
X156562160Y-114944100D01*
X156562160Y-114866371D01*
X158086549Y-114866371D01*
X158128561Y-115155859D01*
X158226241Y-115431587D01*
X158299688Y-115568997D01*
X158548763Y-115646632D01*
X159397555Y-114797840D01*
X159756765Y-114797840D01*
X160605557Y-115646632D01*
X160854632Y-115568997D01*
X160980531Y-115304957D01*
X161052499Y-115021429D01*
X161067771Y-114729309D01*
X161025759Y-114439821D01*
X160928079Y-114164093D01*
X160854632Y-114026683D01*
X160605557Y-113949048D01*
X159756765Y-114797840D01*
X159397555Y-114797840D01*
X158548763Y-113949048D01*
X158299688Y-114026683D01*
X158173789Y-114290723D01*
X158101821Y-114574251D01*
X158086549Y-114866371D01*
X156562160Y-114866371D01*
X156562160Y-114651580D01*
X156505092Y-114364682D01*
X156393150Y-114094429D01*
X156230635Y-113851208D01*
X156148870Y-113769443D01*
X158728368Y-113769443D01*
X159577160Y-114618235D01*
X160425952Y-113769443D01*
X160348317Y-113520368D01*
X160084277Y-113394469D01*
X159800749Y-113322501D01*
X159508629Y-113307229D01*
X159219141Y-113349241D01*
X158943413Y-113446921D01*
X158806003Y-113520368D01*
X158728368Y-113769443D01*
X156148870Y-113769443D01*
X156023792Y-113644365D01*
X155780571Y-113481850D01*
X155510318Y-113369908D01*
X155223420Y-113312840D01*
X154930900Y-113312840D01*
X154644002Y-113369908D01*
X154373749Y-113481850D01*
X154130528Y-113644365D01*
X153923685Y-113851208D01*
X153761170Y-114094429D01*
X153649228Y-114364682D01*
X153592160Y-114651580D01*
X153592160Y-114764400D01*
X105155758Y-114764400D01*
X104869120Y-114477763D01*
X104869120Y-107543637D01*
X105745317Y-106667440D01*
X121683327Y-106667440D01*
X121721880Y-106671237D01*
X121760433Y-106667440D01*
X121760441Y-106667440D01*
X121875767Y-106656081D01*
X122023740Y-106611194D01*
X122160113Y-106538302D01*
X122279644Y-106440204D01*
X122304227Y-106410250D01*
X123432575Y-105281902D01*
X123462524Y-105257324D01*
X123487757Y-105226579D01*
X123511210Y-105198001D01*
X123560622Y-105137793D01*
X123633514Y-105001420D01*
X123647630Y-104954886D01*
X123678402Y-104853447D01*
X123687251Y-104763597D01*
X123689760Y-104738121D01*
X123689760Y-104738116D01*
X123693557Y-104699560D01*
X123689760Y-104661005D01*
X123689760Y-95024354D01*
X123748147Y-94993145D01*
X123882722Y-94882702D01*
X123993165Y-94748127D01*
X124075232Y-94594591D01*
X124125768Y-94427995D01*
X124142832Y-94254741D01*
X124142832Y-93354739D01*
X124125768Y-93181485D01*
X124075232Y-93014889D01*
X123993165Y-92861353D01*
X123882722Y-92726778D01*
X123748147Y-92616335D01*
X123594611Y-92534268D01*
X123428015Y-92483732D01*
X123254761Y-92466668D01*
X122554759Y-92466668D01*
X122381505Y-92483732D01*
X122214909Y-92534268D01*
X122061373Y-92616335D01*
X121926798Y-92726778D01*
X121904760Y-92753631D01*
X121882722Y-92726778D01*
X121748147Y-92616335D01*
X121594611Y-92534268D01*
X121428015Y-92483732D01*
X121254761Y-92466668D01*
X120554759Y-92466668D01*
X120381505Y-92483732D01*
X120214909Y-92534268D01*
X120121820Y-92584025D01*
X120121820Y-92364052D01*
X120686821Y-92364052D01*
X120860075Y-92346988D01*
X121026671Y-92296452D01*
X121180207Y-92214385D01*
X121314782Y-92103942D01*
X121425225Y-91969367D01*
X121507292Y-91815831D01*
X121508764Y-91810980D01*
X153722370Y-91810980D01*
X153761170Y-91904651D01*
X153923685Y-92147872D01*
X153929413Y-92153600D01*
X140114476Y-92153600D01*
X140075920Y-92149803D01*
X140037364Y-92153600D01*
X140037359Y-92153600D01*
X139996946Y-92157580D01*
X139922033Y-92164958D01*
X139774060Y-92209846D01*
X139637687Y-92282738D01*
X139518156Y-92380836D01*
X139493575Y-92410788D01*
X123794483Y-108109880D01*
X108247711Y-108109880D01*
X108238934Y-108101103D01*
X108069416Y-107987835D01*
X107881058Y-107909814D01*
X107681099Y-107870040D01*
X107477221Y-107870040D01*
X107277262Y-107909814D01*
X107088904Y-107987835D01*
X106919386Y-108101103D01*
X106775223Y-108245266D01*
X106661955Y-108414784D01*
X106583934Y-108603142D01*
X106544160Y-108803101D01*
X106544160Y-108829883D01*
X106112905Y-109261138D01*
X106082957Y-109285716D01*
X106058379Y-109315664D01*
X106058375Y-109315668D01*
X106025410Y-109355836D01*
X105984859Y-109405247D01*
X105959525Y-109452644D01*
X105911966Y-109541621D01*
X105867079Y-109689594D01*
X105851923Y-109843480D01*
X105855721Y-109882043D01*
X105855721Y-111062926D01*
X105694088Y-111170925D01*
X105487245Y-111377768D01*
X105324730Y-111620989D01*
X105212788Y-111891242D01*
X105155720Y-112178140D01*
X105155720Y-112470660D01*
X105212788Y-112757558D01*
X105324730Y-113027811D01*
X105487245Y-113271032D01*
X105694088Y-113477875D01*
X105937309Y-113640390D01*
X106207562Y-113752332D01*
X106494460Y-113809400D01*
X106786980Y-113809400D01*
X107073878Y-113752332D01*
X107344131Y-113640390D01*
X107587352Y-113477875D01*
X107794195Y-113271032D01*
X107915915Y-113088866D01*
X107985542Y-113205755D01*
X108180451Y-113421988D01*
X108413800Y-113596041D01*
X108676621Y-113721225D01*
X108823830Y-113765876D01*
X109053720Y-113644555D01*
X109053720Y-112451400D01*
X109033720Y-112451400D01*
X109033720Y-112197400D01*
X109053720Y-112197400D01*
X109053720Y-111004245D01*
X108823830Y-110882924D01*
X108676621Y-110927575D01*
X108413800Y-111052759D01*
X108180451Y-111226812D01*
X107985542Y-111443045D01*
X107915915Y-111559934D01*
X107794195Y-111377768D01*
X107587352Y-111170925D01*
X107425720Y-111062926D01*
X107425720Y-110168637D01*
X107654317Y-109940040D01*
X107681099Y-109940040D01*
X107881058Y-109900266D01*
X108069416Y-109822245D01*
X108238934Y-109708977D01*
X108268031Y-109679880D01*
X124081087Y-109679880D01*
X124119640Y-109683677D01*
X124158193Y-109679880D01*
X124158201Y-109679880D01*
X124273527Y-109668521D01*
X124421500Y-109623634D01*
X124557873Y-109550742D01*
X124677404Y-109452644D01*
X124701987Y-109422690D01*
X140401077Y-93723600D01*
X141812963Y-93723600D01*
X126432910Y-109103653D01*
X126402956Y-109128236D01*
X126304858Y-109247768D01*
X126231966Y-109384141D01*
X126187079Y-109532114D01*
X126175720Y-109647440D01*
X126175720Y-109647447D01*
X126171923Y-109686000D01*
X126175720Y-109724553D01*
X126175721Y-111062926D01*
X126014088Y-111170925D01*
X125807245Y-111377768D01*
X125690720Y-111552160D01*
X125574195Y-111377768D01*
X125367352Y-111170925D01*
X125124131Y-111008410D01*
X124853878Y-110896468D01*
X124566980Y-110839400D01*
X124274460Y-110839400D01*
X123987562Y-110896468D01*
X123717309Y-111008410D01*
X123474088Y-111170925D01*
X123267245Y-111377768D01*
X123150720Y-111552160D01*
X123034195Y-111377768D01*
X122827352Y-111170925D01*
X122584131Y-111008410D01*
X122313878Y-110896468D01*
X122026980Y-110839400D01*
X121734460Y-110839400D01*
X121447562Y-110896468D01*
X121177309Y-111008410D01*
X120934088Y-111170925D01*
X120727245Y-111377768D01*
X120610720Y-111552160D01*
X120494195Y-111377768D01*
X120287352Y-111170925D01*
X120044131Y-111008410D01*
X119773878Y-110896468D01*
X119486980Y-110839400D01*
X119194460Y-110839400D01*
X118907562Y-110896468D01*
X118637309Y-111008410D01*
X118394088Y-111170925D01*
X118187245Y-111377768D01*
X118070720Y-111552160D01*
X117954195Y-111377768D01*
X117747352Y-111170925D01*
X117504131Y-111008410D01*
X117233878Y-110896468D01*
X116946980Y-110839400D01*
X116654460Y-110839400D01*
X116367562Y-110896468D01*
X116097309Y-111008410D01*
X115854088Y-111170925D01*
X115647245Y-111377768D01*
X115530720Y-111552160D01*
X115414195Y-111377768D01*
X115207352Y-111170925D01*
X114964131Y-111008410D01*
X114693878Y-110896468D01*
X114406980Y-110839400D01*
X114114460Y-110839400D01*
X113827562Y-110896468D01*
X113557309Y-111008410D01*
X113314088Y-111170925D01*
X113107245Y-111377768D01*
X112990720Y-111552160D01*
X112874195Y-111377768D01*
X112667352Y-111170925D01*
X112424131Y-111008410D01*
X112153878Y-110896468D01*
X111866980Y-110839400D01*
X111574460Y-110839400D01*
X111287562Y-110896468D01*
X111017309Y-111008410D01*
X110774088Y-111170925D01*
X110567245Y-111377768D01*
X110445525Y-111559934D01*
X110375898Y-111443045D01*
X110180989Y-111226812D01*
X109947640Y-111052759D01*
X109684819Y-110927575D01*
X109537610Y-110882924D01*
X109307720Y-111004245D01*
X109307720Y-112197400D01*
X109327720Y-112197400D01*
X109327720Y-112451400D01*
X109307720Y-112451400D01*
X109307720Y-113644555D01*
X109537610Y-113765876D01*
X109684819Y-113721225D01*
X109947640Y-113596041D01*
X110180989Y-113421988D01*
X110375898Y-113205755D01*
X110445525Y-113088866D01*
X110567245Y-113271032D01*
X110774088Y-113477875D01*
X111017309Y-113640390D01*
X111287562Y-113752332D01*
X111574460Y-113809400D01*
X111866980Y-113809400D01*
X112153878Y-113752332D01*
X112424131Y-113640390D01*
X112667352Y-113477875D01*
X112874195Y-113271032D01*
X112990720Y-113096640D01*
X113107245Y-113271032D01*
X113314088Y-113477875D01*
X113557309Y-113640390D01*
X113827562Y-113752332D01*
X114114460Y-113809400D01*
X114406980Y-113809400D01*
X114693878Y-113752332D01*
X114964131Y-113640390D01*
X115207352Y-113477875D01*
X115414195Y-113271032D01*
X115530720Y-113096640D01*
X115647245Y-113271032D01*
X115854088Y-113477875D01*
X116097309Y-113640390D01*
X116367562Y-113752332D01*
X116654460Y-113809400D01*
X116946980Y-113809400D01*
X117233878Y-113752332D01*
X117504131Y-113640390D01*
X117747352Y-113477875D01*
X117954195Y-113271032D01*
X118070720Y-113096640D01*
X118187245Y-113271032D01*
X118394088Y-113477875D01*
X118637309Y-113640390D01*
X118907562Y-113752332D01*
X119194460Y-113809400D01*
X119486980Y-113809400D01*
X119773878Y-113752332D01*
X120044131Y-113640390D01*
X120287352Y-113477875D01*
X120494195Y-113271032D01*
X120610720Y-113096640D01*
X120727245Y-113271032D01*
X120934088Y-113477875D01*
X121177309Y-113640390D01*
X121447562Y-113752332D01*
X121734460Y-113809400D01*
X122026980Y-113809400D01*
X122313878Y-113752332D01*
X122584131Y-113640390D01*
X122827352Y-113477875D01*
X123034195Y-113271032D01*
X123150720Y-113096640D01*
X123267245Y-113271032D01*
X123474088Y-113477875D01*
X123717309Y-113640390D01*
X123987562Y-113752332D01*
X124274460Y-113809400D01*
X124566980Y-113809400D01*
X124853878Y-113752332D01*
X125124131Y-113640390D01*
X125367352Y-113477875D01*
X125574195Y-113271032D01*
X125690720Y-113096640D01*
X125807245Y-113271032D01*
X126014088Y-113477875D01*
X126257309Y-113640390D01*
X126527562Y-113752332D01*
X126814460Y-113809400D01*
X127106980Y-113809400D01*
X127393878Y-113752332D01*
X127664131Y-113640390D01*
X127907352Y-113477875D01*
X128114195Y-113271032D01*
X128230720Y-113096640D01*
X128347245Y-113271032D01*
X128554088Y-113477875D01*
X128797309Y-113640390D01*
X129067562Y-113752332D01*
X129354460Y-113809400D01*
X129646980Y-113809400D01*
X129933878Y-113752332D01*
X130204131Y-113640390D01*
X130447352Y-113477875D01*
X130654195Y-113271032D01*
X130770720Y-113096640D01*
X130887245Y-113271032D01*
X131094088Y-113477875D01*
X131337309Y-113640390D01*
X131607562Y-113752332D01*
X131894460Y-113809400D01*
X132186980Y-113809400D01*
X132473878Y-113752332D01*
X132744131Y-113640390D01*
X132987352Y-113477875D01*
X133194195Y-113271032D01*
X133310720Y-113096640D01*
X133427245Y-113271032D01*
X133634088Y-113477875D01*
X133877309Y-113640390D01*
X134147562Y-113752332D01*
X134434460Y-113809400D01*
X134726980Y-113809400D01*
X135013878Y-113752332D01*
X135284131Y-113640390D01*
X135527352Y-113477875D01*
X135734195Y-113271032D01*
X135850720Y-113096640D01*
X135967245Y-113271032D01*
X136174088Y-113477875D01*
X136417309Y-113640390D01*
X136687562Y-113752332D01*
X136974460Y-113809400D01*
X137266980Y-113809400D01*
X137553878Y-113752332D01*
X137824131Y-113640390D01*
X138067352Y-113477875D01*
X138274195Y-113271032D01*
X138390720Y-113096640D01*
X138507245Y-113271032D01*
X138714088Y-113477875D01*
X138957309Y-113640390D01*
X139227562Y-113752332D01*
X139514460Y-113809400D01*
X139806980Y-113809400D01*
X140093878Y-113752332D01*
X140364131Y-113640390D01*
X140607352Y-113477875D01*
X140739207Y-113346020D01*
X140761218Y-113418580D01*
X140820183Y-113528894D01*
X140899535Y-113625585D01*
X140996226Y-113704937D01*
X141106540Y-113763902D01*
X141226238Y-113800212D01*
X141350720Y-113812472D01*
X143050720Y-113812472D01*
X143175202Y-113800212D01*
X143294900Y-113763902D01*
X143405214Y-113704937D01*
X143501905Y-113625585D01*
X143581257Y-113528894D01*
X143640222Y-113418580D01*
X143676532Y-113298882D01*
X143688792Y-113174400D01*
X143688792Y-111474400D01*
X143676532Y-111349918D01*
X143640222Y-111230220D01*
X143596274Y-111148000D01*
X174357847Y-111148000D01*
X174396400Y-111151797D01*
X174434953Y-111148000D01*
X174434961Y-111148000D01*
X174550287Y-111136641D01*
X174698260Y-111091754D01*
X174834633Y-111018862D01*
X174954164Y-110920764D01*
X174978747Y-110890810D01*
X186704737Y-99164821D01*
X186734684Y-99140244D01*
X186832782Y-99020713D01*
X186905674Y-98884340D01*
X186921284Y-98832881D01*
X186950561Y-98736368D01*
X186956426Y-98676821D01*
X186961920Y-98621041D01*
X186961920Y-98621034D01*
X186965717Y-98582481D01*
X186961920Y-98543928D01*
X186961920Y-96508646D01*
X187036307Y-96468885D01*
X187170882Y-96358442D01*
X187192920Y-96331589D01*
X187214958Y-96358442D01*
X187349533Y-96468885D01*
X187503069Y-96550952D01*
X187669665Y-96601488D01*
X187842919Y-96618552D01*
X188542921Y-96618552D01*
X188716175Y-96601488D01*
X188882771Y-96550952D01*
X189036307Y-96468885D01*
X189170882Y-96358442D01*
X189281325Y-96223867D01*
X189363392Y-96070331D01*
X189364864Y-96065480D01*
X189816287Y-96065480D01*
X189854840Y-96069277D01*
X189893393Y-96065480D01*
X189893401Y-96065480D01*
X190008727Y-96054121D01*
X190156700Y-96009234D01*
X190293073Y-95936342D01*
X190412604Y-95838244D01*
X190437187Y-95808290D01*
X191784731Y-94460746D01*
X191814684Y-94436164D01*
X191912782Y-94316633D01*
X191985674Y-94180260D01*
X191986774Y-94176633D01*
X192030562Y-94032287D01*
X192037940Y-93957374D01*
X192041920Y-93916961D01*
X192041920Y-93916956D01*
X192045717Y-93878400D01*
X192041920Y-93839844D01*
X192041920Y-93612472D01*
X192106920Y-93612472D01*
X192231402Y-93600212D01*
X192351100Y-93563902D01*
X192461414Y-93504937D01*
X192558105Y-93425585D01*
X192637457Y-93328894D01*
X192696422Y-93218580D01*
X192732732Y-93098882D01*
X192744992Y-92974400D01*
X192744992Y-91274400D01*
X192732732Y-91149918D01*
X192696422Y-91030220D01*
X192637457Y-90919906D01*
X192558105Y-90823215D01*
X192461414Y-90743863D01*
X192351100Y-90684898D01*
X192231402Y-90648588D01*
X192106920Y-90636328D01*
X192041920Y-90636328D01*
X192041920Y-90359367D01*
X192083906Y-90336925D01*
X192218482Y-90226482D01*
X192328925Y-90091906D01*
X192410992Y-89938370D01*
X192461528Y-89771774D01*
X192478592Y-89598520D01*
X192478592Y-88648520D01*
X192461528Y-88475266D01*
X192410992Y-88308670D01*
X192328925Y-88155134D01*
X192218482Y-88020558D01*
X192083906Y-87910115D01*
X192038020Y-87885588D01*
X192038020Y-87339532D01*
X192041817Y-87300979D01*
X192038020Y-87262426D01*
X192038020Y-87262419D01*
X192026661Y-87147093D01*
X191981774Y-86999120D01*
X191908882Y-86862747D01*
X191836388Y-86774414D01*
X191835365Y-86773167D01*
X191835362Y-86773164D01*
X191810784Y-86743216D01*
X191780837Y-86718639D01*
X190056187Y-84993990D01*
X190031604Y-84964036D01*
X189912073Y-84865938D01*
X189775700Y-84793046D01*
X189627727Y-84748159D01*
X189512401Y-84736800D01*
X189512393Y-84736800D01*
X189473840Y-84733003D01*
X189435287Y-84736800D01*
X169004432Y-84736800D01*
X168965879Y-84733003D01*
X168927326Y-84736800D01*
X168927319Y-84736800D01*
X168826370Y-84746743D01*
X168811992Y-84748159D01*
X168682438Y-84787459D01*
X168664020Y-84793046D01*
X168527647Y-84865938D01*
X168484888Y-84901030D01*
X168438067Y-84939455D01*
X168438064Y-84939458D01*
X168408116Y-84964036D01*
X168383538Y-84993984D01*
X161223923Y-92153600D01*
X160709128Y-92153600D01*
X160605559Y-92050031D01*
X160854632Y-91972397D01*
X160980531Y-91708357D01*
X161052499Y-91424829D01*
X161067771Y-91132709D01*
X161025759Y-90843221D01*
X160928079Y-90567493D01*
X160854632Y-90430083D01*
X160605557Y-90352448D01*
X159756765Y-91201240D01*
X159770908Y-91215383D01*
X159591303Y-91394988D01*
X159577160Y-91380845D01*
X159563018Y-91394988D01*
X159383413Y-91215383D01*
X159397555Y-91201240D01*
X158548763Y-90352448D01*
X158299688Y-90430083D01*
X158173789Y-90694123D01*
X158101821Y-90977651D01*
X158086549Y-91269771D01*
X158128561Y-91559259D01*
X158226241Y-91834987D01*
X158299688Y-91972397D01*
X158548761Y-92050031D01*
X158445192Y-92153600D01*
X156224907Y-92153600D01*
X156230635Y-92147872D01*
X156393150Y-91904651D01*
X156505092Y-91634398D01*
X156562160Y-91347500D01*
X156562160Y-91054980D01*
X156505092Y-90768082D01*
X156393150Y-90497829D01*
X156230635Y-90254608D01*
X156148870Y-90172843D01*
X158728368Y-90172843D01*
X159577160Y-91021635D01*
X160425952Y-90172843D01*
X160348317Y-89923768D01*
X160084277Y-89797869D01*
X159800749Y-89725901D01*
X159508629Y-89710629D01*
X159219141Y-89752641D01*
X158943413Y-89850321D01*
X158806003Y-89923768D01*
X158728368Y-90172843D01*
X156148870Y-90172843D01*
X156023792Y-90047765D01*
X155862160Y-89939766D01*
X155862160Y-85962714D01*
X156023792Y-85854715D01*
X156148870Y-85729637D01*
X158728368Y-85729637D01*
X158806003Y-85978712D01*
X159070043Y-86104611D01*
X159353571Y-86176579D01*
X159645691Y-86191851D01*
X159935179Y-86149839D01*
X160210907Y-86052159D01*
X160348317Y-85978712D01*
X160425952Y-85729637D01*
X159577160Y-84880845D01*
X158728368Y-85729637D01*
X156148870Y-85729637D01*
X156230635Y-85647872D01*
X156393150Y-85404651D01*
X156505092Y-85134398D01*
X156562160Y-84847500D01*
X156562160Y-84769771D01*
X158086549Y-84769771D01*
X158128561Y-85059259D01*
X158226241Y-85334987D01*
X158299688Y-85472397D01*
X158548763Y-85550032D01*
X159397555Y-84701240D01*
X159756765Y-84701240D01*
X160605557Y-85550032D01*
X160854632Y-85472397D01*
X160980531Y-85208357D01*
X161052499Y-84924829D01*
X161067771Y-84632709D01*
X161025759Y-84343221D01*
X160928079Y-84067493D01*
X160854632Y-83930083D01*
X160605557Y-83852448D01*
X159756765Y-84701240D01*
X159397555Y-84701240D01*
X158548763Y-83852448D01*
X158299688Y-83930083D01*
X158173789Y-84194123D01*
X158101821Y-84477651D01*
X158086549Y-84769771D01*
X156562160Y-84769771D01*
X156562160Y-84554980D01*
X156505092Y-84268082D01*
X156393150Y-83997829D01*
X156230635Y-83754608D01*
X156148870Y-83672843D01*
X158728368Y-83672843D01*
X159577160Y-84521635D01*
X160425952Y-83672843D01*
X160348317Y-83423768D01*
X160084277Y-83297869D01*
X159800749Y-83225901D01*
X159508629Y-83210629D01*
X159219141Y-83252641D01*
X158943413Y-83350321D01*
X158806003Y-83423768D01*
X158728368Y-83672843D01*
X156148870Y-83672843D01*
X156023792Y-83547765D01*
X155780571Y-83385250D01*
X155510318Y-83273308D01*
X155223420Y-83216240D01*
X154930900Y-83216240D01*
X154644002Y-83273308D01*
X154373749Y-83385250D01*
X154130528Y-83547765D01*
X153923685Y-83754608D01*
X153761170Y-83997829D01*
X153649228Y-84268082D01*
X153592160Y-84554980D01*
X153592160Y-84847500D01*
X153649228Y-85134398D01*
X153761170Y-85404651D01*
X153923685Y-85647872D01*
X154130528Y-85854715D01*
X154292160Y-85962714D01*
X154292161Y-89939765D01*
X154130528Y-90047765D01*
X153937313Y-90240980D01*
X121508764Y-90240980D01*
X121507292Y-90236129D01*
X121425225Y-90082593D01*
X121314782Y-89948018D01*
X121180207Y-89837575D01*
X121026671Y-89755508D01*
X120860075Y-89704972D01*
X120686821Y-89687908D01*
X120121820Y-89687908D01*
X120121820Y-88188480D01*
X120287352Y-88077875D01*
X120494195Y-87871032D01*
X120610720Y-87696640D01*
X120727245Y-87871032D01*
X120934088Y-88077875D01*
X121177309Y-88240390D01*
X121447562Y-88352332D01*
X121734460Y-88409400D01*
X122026980Y-88409400D01*
X122313878Y-88352332D01*
X122584131Y-88240390D01*
X122827352Y-88077875D01*
X123034195Y-87871032D01*
X123150720Y-87696640D01*
X123267245Y-87871032D01*
X123474088Y-88077875D01*
X123717309Y-88240390D01*
X123987562Y-88352332D01*
X124274460Y-88409400D01*
X124566980Y-88409400D01*
X124853878Y-88352332D01*
X125124131Y-88240390D01*
X125367352Y-88077875D01*
X125574195Y-87871032D01*
X125690720Y-87696640D01*
X125807245Y-87871032D01*
X126014088Y-88077875D01*
X126257309Y-88240390D01*
X126527562Y-88352332D01*
X126814460Y-88409400D01*
X127106980Y-88409400D01*
X127393878Y-88352332D01*
X127664131Y-88240390D01*
X127907352Y-88077875D01*
X128114195Y-87871032D01*
X128230720Y-87696640D01*
X128347245Y-87871032D01*
X128554088Y-88077875D01*
X128797309Y-88240390D01*
X129067562Y-88352332D01*
X129354460Y-88409400D01*
X129646980Y-88409400D01*
X129933878Y-88352332D01*
X130204131Y-88240390D01*
X130447352Y-88077875D01*
X130654195Y-87871032D01*
X130770720Y-87696640D01*
X130887245Y-87871032D01*
X131094088Y-88077875D01*
X131337309Y-88240390D01*
X131607562Y-88352332D01*
X131894460Y-88409400D01*
X132186980Y-88409400D01*
X132473878Y-88352332D01*
X132744131Y-88240390D01*
X132987352Y-88077875D01*
X133194195Y-87871032D01*
X133310720Y-87696640D01*
X133427245Y-87871032D01*
X133634088Y-88077875D01*
X133877309Y-88240390D01*
X134147562Y-88352332D01*
X134434460Y-88409400D01*
X134726980Y-88409400D01*
X135013878Y-88352332D01*
X135284131Y-88240390D01*
X135527352Y-88077875D01*
X135734195Y-87871032D01*
X135850720Y-87696640D01*
X135967245Y-87871032D01*
X136174088Y-88077875D01*
X136417309Y-88240390D01*
X136687562Y-88352332D01*
X136974460Y-88409400D01*
X137266980Y-88409400D01*
X137553878Y-88352332D01*
X137824131Y-88240390D01*
X138067352Y-88077875D01*
X138274195Y-87871032D01*
X138390720Y-87696640D01*
X138507245Y-87871032D01*
X138714088Y-88077875D01*
X138957309Y-88240390D01*
X139227562Y-88352332D01*
X139514460Y-88409400D01*
X139806980Y-88409400D01*
X140093878Y-88352332D01*
X140364131Y-88240390D01*
X140607352Y-88077875D01*
X140739207Y-87946020D01*
X140761218Y-88018580D01*
X140820183Y-88128894D01*
X140899535Y-88225585D01*
X140996226Y-88304937D01*
X141106540Y-88363902D01*
X141226238Y-88400212D01*
X141350720Y-88412472D01*
X143050720Y-88412472D01*
X143175202Y-88400212D01*
X143294900Y-88363902D01*
X143405214Y-88304937D01*
X143501905Y-88225585D01*
X143581257Y-88128894D01*
X143640222Y-88018580D01*
X143676532Y-87898882D01*
X143688792Y-87774400D01*
X143688792Y-86074400D01*
X143676532Y-85949918D01*
X143640222Y-85830220D01*
X143581257Y-85719906D01*
X143501905Y-85623215D01*
X143405214Y-85543863D01*
X143294900Y-85484898D01*
X143175202Y-85448588D01*
X143050720Y-85436328D01*
X141350720Y-85436328D01*
X141226238Y-85448588D01*
X141106540Y-85484898D01*
X140996226Y-85543863D01*
X140899535Y-85623215D01*
X140820183Y-85719906D01*
X140761218Y-85830220D01*
X140739207Y-85902780D01*
X140607352Y-85770925D01*
X140364131Y-85608410D01*
X140093878Y-85496468D01*
X139806980Y-85439400D01*
X139514460Y-85439400D01*
X139227562Y-85496468D01*
X138957309Y-85608410D01*
X138714088Y-85770925D01*
X138507245Y-85977768D01*
X138390720Y-86152160D01*
X138274195Y-85977768D01*
X138067352Y-85770925D01*
X137824131Y-85608410D01*
X137553878Y-85496468D01*
X137266980Y-85439400D01*
X136974460Y-85439400D01*
X136687562Y-85496468D01*
X136417309Y-85608410D01*
X136174088Y-85770925D01*
X135967245Y-85977768D01*
X135850720Y-86152160D01*
X135734195Y-85977768D01*
X135527352Y-85770925D01*
X135284131Y-85608410D01*
X135013878Y-85496468D01*
X134726980Y-85439400D01*
X134434460Y-85439400D01*
X134147562Y-85496468D01*
X133877309Y-85608410D01*
X133634088Y-85770925D01*
X133427245Y-85977768D01*
X133310720Y-86152160D01*
X133194195Y-85977768D01*
X132987352Y-85770925D01*
X132744131Y-85608410D01*
X132473878Y-85496468D01*
X132186980Y-85439400D01*
X131894460Y-85439400D01*
X131607562Y-85496468D01*
X131337309Y-85608410D01*
X131094088Y-85770925D01*
X130887245Y-85977768D01*
X130770720Y-86152160D01*
X130654195Y-85977768D01*
X130447352Y-85770925D01*
X130204131Y-85608410D01*
X129933878Y-85496468D01*
X129646980Y-85439400D01*
X129354460Y-85439400D01*
X129067562Y-85496468D01*
X128797309Y-85608410D01*
X128554088Y-85770925D01*
X128347245Y-85977768D01*
X128230720Y-86152160D01*
X128114195Y-85977768D01*
X127907352Y-85770925D01*
X127664131Y-85608410D01*
X127393878Y-85496468D01*
X127106980Y-85439400D01*
X126814460Y-85439400D01*
X126527562Y-85496468D01*
X126257309Y-85608410D01*
X126014088Y-85770925D01*
X125807245Y-85977768D01*
X125690720Y-86152160D01*
X125574195Y-85977768D01*
X125367352Y-85770925D01*
X125124131Y-85608410D01*
X124853878Y-85496468D01*
X124566980Y-85439400D01*
X124274460Y-85439400D01*
X123987562Y-85496468D01*
X123717309Y-85608410D01*
X123474088Y-85770925D01*
X123267245Y-85977768D01*
X123150720Y-86152160D01*
X123034195Y-85977768D01*
X122827352Y-85770925D01*
X122584131Y-85608410D01*
X122313878Y-85496468D01*
X122026980Y-85439400D01*
X121734460Y-85439400D01*
X121447562Y-85496468D01*
X121177309Y-85608410D01*
X120934088Y-85770925D01*
X120727245Y-85977768D01*
X120610720Y-86152160D01*
X120494195Y-85977768D01*
X120287352Y-85770925D01*
X120044131Y-85608410D01*
X119773878Y-85496468D01*
X119486980Y-85439400D01*
X119194460Y-85439400D01*
X118907562Y-85496468D01*
X118637309Y-85608410D01*
X118394088Y-85770925D01*
X118187245Y-85977768D01*
X118070720Y-86152160D01*
X117954195Y-85977768D01*
X117747352Y-85770925D01*
X117504131Y-85608410D01*
X117233878Y-85496468D01*
X116946980Y-85439400D01*
X116654460Y-85439400D01*
X116367562Y-85496468D01*
X116097309Y-85608410D01*
X115854088Y-85770925D01*
X115647245Y-85977768D01*
X115530720Y-86152160D01*
X115414195Y-85977768D01*
X115207352Y-85770925D01*
X114964131Y-85608410D01*
X114693878Y-85496468D01*
X114406980Y-85439400D01*
X114114460Y-85439400D01*
X113827562Y-85496468D01*
X113557309Y-85608410D01*
X113314088Y-85770925D01*
X113107245Y-85977768D01*
X112990720Y-86152160D01*
X112874195Y-85977768D01*
X112667352Y-85770925D01*
X112424131Y-85608410D01*
X112153878Y-85496468D01*
X111866980Y-85439400D01*
X111574460Y-85439400D01*
X111287562Y-85496468D01*
X111017309Y-85608410D01*
X110774088Y-85770925D01*
X110567245Y-85977768D01*
X110445525Y-86159934D01*
X110375898Y-86043045D01*
X110180989Y-85826812D01*
X109947640Y-85652759D01*
X109684819Y-85527575D01*
X109537610Y-85482924D01*
X109307720Y-85604245D01*
X109307720Y-86797400D01*
X109327720Y-86797400D01*
X109327720Y-87051400D01*
X109307720Y-87051400D01*
X109307720Y-88244555D01*
X109537610Y-88365876D01*
X109684819Y-88321225D01*
X109947640Y-88196041D01*
X110180989Y-88021988D01*
X110375898Y-87805755D01*
X110445525Y-87688866D01*
X110567245Y-87871032D01*
X110774088Y-88077875D01*
X111017309Y-88240390D01*
X111287562Y-88352332D01*
X111574460Y-88409400D01*
X111866980Y-88409400D01*
X112153878Y-88352332D01*
X112424131Y-88240390D01*
X112667352Y-88077875D01*
X112874195Y-87871032D01*
X112990720Y-87696640D01*
X113107245Y-87871032D01*
X113314088Y-88077875D01*
X113557309Y-88240390D01*
X113827562Y-88352332D01*
X114114460Y-88409400D01*
X114406980Y-88409400D01*
X114693878Y-88352332D01*
X114964131Y-88240390D01*
X115207352Y-88077875D01*
X115414195Y-87871032D01*
X115530720Y-87696640D01*
X115647245Y-87871032D01*
X115854088Y-88077875D01*
X116015720Y-88185874D01*
X116015721Y-91267143D01*
X115920432Y-91171855D01*
X115920432Y-90575979D01*
X115903368Y-90402725D01*
X115852832Y-90236129D01*
X115770765Y-90082593D01*
X115660322Y-89948018D01*
X115525747Y-89837575D01*
X115372211Y-89755508D01*
X115205615Y-89704972D01*
X115032361Y-89687908D01*
X114332359Y-89687908D01*
X114159105Y-89704972D01*
X113992509Y-89755508D01*
X113838973Y-89837575D01*
X113704398Y-89948018D01*
X113682360Y-89974871D01*
X113660322Y-89948018D01*
X113525747Y-89837575D01*
X113372211Y-89755508D01*
X113205615Y-89704972D01*
X113032361Y-89687908D01*
X112332359Y-89687908D01*
X112159105Y-89704972D01*
X111992509Y-89755508D01*
X111838973Y-89837575D01*
X111704398Y-89948018D01*
X111593955Y-90082593D01*
X111511888Y-90236129D01*
X111510416Y-90240980D01*
X109474456Y-90240980D01*
X109435900Y-90237183D01*
X109397344Y-90240980D01*
X109397339Y-90240980D01*
X109356926Y-90244960D01*
X109282013Y-90252338D01*
X109134040Y-90297226D01*
X108997667Y-90370118D01*
X108878136Y-90468216D01*
X108853553Y-90498170D01*
X107058965Y-92292758D01*
X107029017Y-92317336D01*
X107004439Y-92347284D01*
X107004435Y-92347288D01*
X106976903Y-92380836D01*
X106930919Y-92436867D01*
X106900790Y-92493235D01*
X106858026Y-92573241D01*
X106813139Y-92721214D01*
X106797983Y-92875100D01*
X106801781Y-92913663D01*
X106801780Y-103280949D01*
X106782843Y-103299886D01*
X106669575Y-103469404D01*
X106591554Y-103657762D01*
X106551780Y-103857721D01*
X106551780Y-104061599D01*
X106591554Y-104261558D01*
X106669575Y-104449916D01*
X106782843Y-104619434D01*
X106927006Y-104763597D01*
X107096524Y-104876865D01*
X107284882Y-104954886D01*
X107484841Y-104994660D01*
X107688719Y-104994660D01*
X107888678Y-104954886D01*
X108077036Y-104876865D01*
X108246554Y-104763597D01*
X108265491Y-104744660D01*
X110080607Y-104744660D01*
X110119160Y-104748457D01*
X110157713Y-104744660D01*
X110157721Y-104744660D01*
X110273047Y-104733301D01*
X110421020Y-104688414D01*
X110557393Y-104615522D01*
X110676924Y-104517424D01*
X110701507Y-104487470D01*
X111604550Y-103584427D01*
X111634504Y-103559844D01*
X111732602Y-103440313D01*
X111805494Y-103303940D01*
X111827649Y-103230906D01*
X111850382Y-103155967D01*
X111861561Y-103042455D01*
X111861740Y-103040641D01*
X111861740Y-103040636D01*
X111865537Y-103002080D01*
X111861740Y-102963524D01*
X111861740Y-99512157D01*
X112529658Y-98844240D01*
X114089876Y-98844240D01*
X114091348Y-98849091D01*
X114173415Y-99002627D01*
X114283858Y-99137202D01*
X114418433Y-99247645D01*
X114571969Y-99329712D01*
X114738565Y-99380248D01*
X114911819Y-99397312D01*
X115611821Y-99397312D01*
X115785075Y-99380248D01*
X115951671Y-99329712D01*
X116105207Y-99247645D01*
X116239782Y-99137202D01*
X116261820Y-99110349D01*
X116283858Y-99137202D01*
X116418433Y-99247645D01*
X116571969Y-99329712D01*
X116738565Y-99380248D01*
X116911819Y-99397312D01*
X117611821Y-99397312D01*
X117785075Y-99380248D01*
X117951671Y-99329712D01*
X118105207Y-99247645D01*
X118239782Y-99137202D01*
X118350225Y-99002627D01*
X118432292Y-98849091D01*
X118482828Y-98682495D01*
X118499892Y-98509241D01*
X118499892Y-97893045D01*
X119083906Y-97309032D01*
X119674320Y-97309032D01*
X119847574Y-97291968D01*
X120014170Y-97241432D01*
X120167706Y-97159365D01*
X120302282Y-97048922D01*
X120412725Y-96914346D01*
X120494792Y-96760810D01*
X120529429Y-96646626D01*
X120613253Y-96601822D01*
X120732784Y-96503724D01*
X120757367Y-96473771D01*
X121432575Y-95798563D01*
X121462524Y-95773984D01*
X121560622Y-95654453D01*
X121633514Y-95518080D01*
X121678401Y-95370107D01*
X121689760Y-95254781D01*
X121689760Y-95254774D01*
X121693557Y-95216221D01*
X121689760Y-95177668D01*
X121689760Y-95024354D01*
X121748147Y-94993145D01*
X121882722Y-94882702D01*
X121904760Y-94855849D01*
X121926798Y-94882702D01*
X122061373Y-94993145D01*
X122119760Y-95024354D01*
X122119761Y-104374401D01*
X121396723Y-105097440D01*
X105458716Y-105097440D01*
X105420160Y-105093643D01*
X105381604Y-105097440D01*
X105381599Y-105097440D01*
X105341186Y-105101420D01*
X105266273Y-105108798D01*
X105118300Y-105153686D01*
X104981927Y-105226578D01*
X104862396Y-105324676D01*
X104837815Y-105354628D01*
X103872400Y-106320043D01*
X103872400Y-86778140D01*
X105155720Y-86778140D01*
X105155720Y-87070660D01*
X105212788Y-87357558D01*
X105324730Y-87627811D01*
X105487245Y-87871032D01*
X105694088Y-88077875D01*
X105937309Y-88240390D01*
X106207562Y-88352332D01*
X106494460Y-88409400D01*
X106786980Y-88409400D01*
X107073878Y-88352332D01*
X107344131Y-88240390D01*
X107587352Y-88077875D01*
X107794195Y-87871032D01*
X107915915Y-87688866D01*
X107985542Y-87805755D01*
X108180451Y-88021988D01*
X108413800Y-88196041D01*
X108676621Y-88321225D01*
X108823830Y-88365876D01*
X109053720Y-88244555D01*
X109053720Y-87051400D01*
X109033720Y-87051400D01*
X109033720Y-86797400D01*
X109053720Y-86797400D01*
X109053720Y-85604245D01*
X108823830Y-85482924D01*
X108676621Y-85527575D01*
X108413800Y-85652759D01*
X108180451Y-85826812D01*
X107985542Y-86043045D01*
X107915915Y-86159934D01*
X107794195Y-85977768D01*
X107587352Y-85770925D01*
X107344131Y-85608410D01*
X107073878Y-85496468D01*
X106786980Y-85439400D01*
X106494460Y-85439400D01*
X106207562Y-85496468D01*
X105937309Y-85608410D01*
X105694088Y-85770925D01*
X105487245Y-85977768D01*
X105324730Y-86220989D01*
X105212788Y-86491242D01*
X105155720Y-86778140D01*
X103872400Y-86778140D01*
X103872400Y-84322239D01*
X103901025Y-84030301D01*
X103976435Y-83780531D01*
X104098922Y-83550168D01*
X104263822Y-83347980D01*
X104464850Y-83181674D01*
X104694354Y-83057582D01*
X104943595Y-82980429D01*
X105233488Y-82949960D01*
X196180121Y-82949960D01*
X196472059Y-82978585D01*
G37*
G04 #@! TD.AperFunction*
D16*
X182483445Y-93071032D02*
X182690288Y-93277875D01*
X182851921Y-93385874D01*
X182851921Y-94005362D01*
X171292483Y-105564800D01*
X138053872Y-105564800D01*
X138015319Y-105561003D01*
X137976766Y-105564800D01*
X137976759Y-105564800D01*
X137875810Y-105574743D01*
X137861432Y-105576159D01*
X137826992Y-105586606D01*
X137713460Y-105621046D01*
X137577087Y-105693938D01*
X137534909Y-105728553D01*
X137487507Y-105767455D01*
X137487504Y-105767458D01*
X137457556Y-105792036D01*
X137432978Y-105821984D01*
X132377638Y-110877325D01*
X132186980Y-110839400D01*
X131894460Y-110839400D01*
X131607562Y-110896468D01*
X131337309Y-111008410D01*
X131094088Y-111170925D01*
X130887245Y-111377768D01*
X130770720Y-111552160D01*
X130654195Y-111377768D01*
X130447352Y-111170925D01*
X130204131Y-111008410D01*
X129933878Y-110896468D01*
X129646980Y-110839400D01*
X129354460Y-110839400D01*
X129067562Y-110896468D01*
X128797309Y-111008410D01*
X128554088Y-111170925D01*
X128347245Y-111377768D01*
X128230720Y-111552160D01*
X128114195Y-111377768D01*
X127907352Y-111170925D01*
X127745720Y-111062926D01*
X127745720Y-110011157D01*
X143156977Y-94599900D01*
X172894807Y-94599900D01*
X172933360Y-94603697D01*
X172971913Y-94599900D01*
X172971921Y-94599900D01*
X173087247Y-94588541D01*
X173235220Y-94543654D01*
X173371593Y-94470762D01*
X173491124Y-94372664D01*
X173515706Y-94342711D01*
X174004735Y-93853683D01*
X174034684Y-93829104D01*
X174132782Y-93709573D01*
X174205674Y-93573200D01*
X174212004Y-93552332D01*
X174250562Y-93425227D01*
X174253910Y-93391226D01*
X174423552Y-93277875D01*
X174630395Y-93071032D01*
X174746920Y-92896640D01*
X174863445Y-93071032D01*
X175070288Y-93277875D01*
X175313509Y-93440390D01*
X175583762Y-93552332D01*
X175870660Y-93609400D01*
X176163180Y-93609400D01*
X176450078Y-93552332D01*
X176720331Y-93440390D01*
X176963552Y-93277875D01*
X177170395Y-93071032D01*
X177286920Y-92896640D01*
X177403445Y-93071032D01*
X177610288Y-93277875D01*
X177853509Y-93440390D01*
X178123762Y-93552332D01*
X178410660Y-93609400D01*
X178703180Y-93609400D01*
X178990078Y-93552332D01*
X179260331Y-93440390D01*
X179503552Y-93277875D01*
X179710395Y-93071032D01*
X179826920Y-92896640D01*
X179943445Y-93071032D01*
X180150288Y-93277875D01*
X180393509Y-93440390D01*
X180663762Y-93552332D01*
X180950660Y-93609400D01*
X181243180Y-93609400D01*
X181530078Y-93552332D01*
X181800331Y-93440390D01*
X182043552Y-93277875D01*
X182250395Y-93071032D01*
X182366920Y-92896640D01*
X182483445Y-93071032D01*
G04 #@! TA.AperFunction,Conductor*
D17*
G36*
X182483445Y-93071032D02*
G01*
X182690288Y-93277875D01*
X182851921Y-93385874D01*
X182851921Y-94005362D01*
X171292483Y-105564800D01*
X138053872Y-105564800D01*
X138015319Y-105561003D01*
X137976766Y-105564800D01*
X137976759Y-105564800D01*
X137875810Y-105574743D01*
X137861432Y-105576159D01*
X137826992Y-105586606D01*
X137713460Y-105621046D01*
X137577087Y-105693938D01*
X137534909Y-105728553D01*
X137487507Y-105767455D01*
X137487504Y-105767458D01*
X137457556Y-105792036D01*
X137432978Y-105821984D01*
X132377638Y-110877325D01*
X132186980Y-110839400D01*
X131894460Y-110839400D01*
X131607562Y-110896468D01*
X131337309Y-111008410D01*
X131094088Y-111170925D01*
X130887245Y-111377768D01*
X130770720Y-111552160D01*
X130654195Y-111377768D01*
X130447352Y-111170925D01*
X130204131Y-111008410D01*
X129933878Y-110896468D01*
X129646980Y-110839400D01*
X129354460Y-110839400D01*
X129067562Y-110896468D01*
X128797309Y-111008410D01*
X128554088Y-111170925D01*
X128347245Y-111377768D01*
X128230720Y-111552160D01*
X128114195Y-111377768D01*
X127907352Y-111170925D01*
X127745720Y-111062926D01*
X127745720Y-110011157D01*
X143156977Y-94599900D01*
X172894807Y-94599900D01*
X172933360Y-94603697D01*
X172971913Y-94599900D01*
X172971921Y-94599900D01*
X173087247Y-94588541D01*
X173235220Y-94543654D01*
X173371593Y-94470762D01*
X173491124Y-94372664D01*
X173515706Y-94342711D01*
X174004735Y-93853683D01*
X174034684Y-93829104D01*
X174132782Y-93709573D01*
X174205674Y-93573200D01*
X174212004Y-93552332D01*
X174250562Y-93425227D01*
X174253910Y-93391226D01*
X174423552Y-93277875D01*
X174630395Y-93071032D01*
X174746920Y-92896640D01*
X174863445Y-93071032D01*
X175070288Y-93277875D01*
X175313509Y-93440390D01*
X175583762Y-93552332D01*
X175870660Y-93609400D01*
X176163180Y-93609400D01*
X176450078Y-93552332D01*
X176720331Y-93440390D01*
X176963552Y-93277875D01*
X177170395Y-93071032D01*
X177286920Y-92896640D01*
X177403445Y-93071032D01*
X177610288Y-93277875D01*
X177853509Y-93440390D01*
X178123762Y-93552332D01*
X178410660Y-93609400D01*
X178703180Y-93609400D01*
X178990078Y-93552332D01*
X179260331Y-93440390D01*
X179503552Y-93277875D01*
X179710395Y-93071032D01*
X179826920Y-92896640D01*
X179943445Y-93071032D01*
X180150288Y-93277875D01*
X180393509Y-93440390D01*
X180663762Y-93552332D01*
X180950660Y-93609400D01*
X181243180Y-93609400D01*
X181530078Y-93552332D01*
X181800331Y-93440390D01*
X182043552Y-93277875D01*
X182250395Y-93071032D01*
X182366920Y-92896640D01*
X182483445Y-93071032D01*
G37*
G04 #@! TD.AperFunction*
D16*
X154130528Y-107144365D02*
X153923685Y-107351208D01*
X153761170Y-107594429D01*
X153649228Y-107864682D01*
X153592160Y-108151580D01*
X153592160Y-108444100D01*
X153649228Y-108730998D01*
X153761170Y-109001251D01*
X153923685Y-109244472D01*
X154130528Y-109451315D01*
X154320126Y-109578000D01*
X140805352Y-109578000D01*
X140766799Y-109574203D01*
X140728246Y-109578000D01*
X140728239Y-109578000D01*
X140627290Y-109587943D01*
X140612912Y-109589359D01*
X140578472Y-109599806D01*
X140464940Y-109634246D01*
X140328567Y-109707138D01*
X140268359Y-109756550D01*
X140238987Y-109780655D01*
X140238984Y-109780658D01*
X140209036Y-109805236D01*
X140184458Y-109835185D01*
X139132905Y-110886738D01*
X139102957Y-110911316D01*
X139078379Y-110941264D01*
X139078375Y-110941268D01*
X139057245Y-110967015D01*
X138957309Y-111008410D01*
X138714088Y-111170925D01*
X138507245Y-111377768D01*
X138390720Y-111552160D01*
X138274195Y-111377768D01*
X138067352Y-111170925D01*
X137824131Y-111008410D01*
X137553878Y-110896468D01*
X137266980Y-110839400D01*
X136974460Y-110839400D01*
X136687562Y-110896468D01*
X136417309Y-111008410D01*
X136174088Y-111170925D01*
X135967245Y-111377768D01*
X135850720Y-111552160D01*
X135734195Y-111377768D01*
X135527352Y-111170925D01*
X135284131Y-111008410D01*
X135013878Y-110896468D01*
X134726980Y-110839400D01*
X134635877Y-110839400D01*
X138340478Y-107134800D01*
X154144843Y-107134800D01*
X154130528Y-107144365D01*
G04 #@! TA.AperFunction,Conductor*
D17*
G36*
X154130528Y-107144365D02*
G01*
X153923685Y-107351208D01*
X153761170Y-107594429D01*
X153649228Y-107864682D01*
X153592160Y-108151580D01*
X153592160Y-108444100D01*
X153649228Y-108730998D01*
X153761170Y-109001251D01*
X153923685Y-109244472D01*
X154130528Y-109451315D01*
X154320126Y-109578000D01*
X140805352Y-109578000D01*
X140766799Y-109574203D01*
X140728246Y-109578000D01*
X140728239Y-109578000D01*
X140627290Y-109587943D01*
X140612912Y-109589359D01*
X140578472Y-109599806D01*
X140464940Y-109634246D01*
X140328567Y-109707138D01*
X140268359Y-109756550D01*
X140238987Y-109780655D01*
X140238984Y-109780658D01*
X140209036Y-109805236D01*
X140184458Y-109835185D01*
X139132905Y-110886738D01*
X139102957Y-110911316D01*
X139078379Y-110941264D01*
X139078375Y-110941268D01*
X139057245Y-110967015D01*
X138957309Y-111008410D01*
X138714088Y-111170925D01*
X138507245Y-111377768D01*
X138390720Y-111552160D01*
X138274195Y-111377768D01*
X138067352Y-111170925D01*
X137824131Y-111008410D01*
X137553878Y-110896468D01*
X137266980Y-110839400D01*
X136974460Y-110839400D01*
X136687562Y-110896468D01*
X136417309Y-111008410D01*
X136174088Y-111170925D01*
X135967245Y-111377768D01*
X135850720Y-111552160D01*
X135734195Y-111377768D01*
X135527352Y-111170925D01*
X135284131Y-111008410D01*
X135013878Y-110896468D01*
X134726980Y-110839400D01*
X134635877Y-110839400D01*
X138340478Y-107134800D01*
X154144843Y-107134800D01*
X154130528Y-107144365D01*
G37*
G04 #@! TD.AperFunction*
D16*
X185023445Y-93071032D02*
X185230288Y-93277875D01*
X185391921Y-93385875D01*
X185391921Y-94069418D01*
X185349533Y-94092075D01*
X185214958Y-94202518D01*
X185104515Y-94337093D01*
X185022448Y-94490629D01*
X184971912Y-94657225D01*
X184954848Y-94830479D01*
X184954848Y-95730481D01*
X184971912Y-95903735D01*
X185022448Y-96070331D01*
X185104515Y-96223867D01*
X185214958Y-96358442D01*
X185349533Y-96468885D01*
X185391920Y-96491542D01*
X185391920Y-98257322D01*
X174071243Y-109578000D01*
X160343288Y-109578000D01*
X160348317Y-109575312D01*
X160425952Y-109326237D01*
X159577160Y-108477445D01*
X158728368Y-109326237D01*
X158806003Y-109575312D01*
X158811640Y-109578000D01*
X155834194Y-109578000D01*
X156023792Y-109451315D01*
X156230635Y-109244472D01*
X156393150Y-109001251D01*
X156505092Y-108730998D01*
X156562160Y-108444100D01*
X156562160Y-108366371D01*
X158086549Y-108366371D01*
X158128561Y-108655859D01*
X158226241Y-108931587D01*
X158299688Y-109068997D01*
X158548763Y-109146632D01*
X159397555Y-108297840D01*
X159756765Y-108297840D01*
X160605557Y-109146632D01*
X160854632Y-109068997D01*
X160980531Y-108804957D01*
X161052499Y-108521429D01*
X161067771Y-108229309D01*
X161025759Y-107939821D01*
X160928079Y-107664093D01*
X160854632Y-107526683D01*
X160605557Y-107449048D01*
X159756765Y-108297840D01*
X159397555Y-108297840D01*
X158548763Y-107449048D01*
X158299688Y-107526683D01*
X158173789Y-107790723D01*
X158101821Y-108074251D01*
X158086549Y-108366371D01*
X156562160Y-108366371D01*
X156562160Y-108151580D01*
X156505092Y-107864682D01*
X156393150Y-107594429D01*
X156230635Y-107351208D01*
X156023792Y-107144365D01*
X156009477Y-107134800D01*
X158770335Y-107134800D01*
X158728368Y-107269443D01*
X159577160Y-108118235D01*
X160425952Y-107269443D01*
X160383985Y-107134800D01*
X171579087Y-107134800D01*
X171617640Y-107138597D01*
X171656193Y-107134800D01*
X171656201Y-107134800D01*
X171771527Y-107123441D01*
X171919500Y-107078554D01*
X172055873Y-107005662D01*
X172175404Y-106907564D01*
X172199987Y-106877610D01*
X184164730Y-94912867D01*
X184194684Y-94888284D01*
X184292782Y-94768753D01*
X184365674Y-94632380D01*
X184377137Y-94594591D01*
X184410562Y-94484407D01*
X184419146Y-94397245D01*
X184421920Y-94369081D01*
X184421920Y-94369076D01*
X184425717Y-94330520D01*
X184421920Y-94291964D01*
X184421920Y-93385874D01*
X184583552Y-93277875D01*
X184790395Y-93071032D01*
X184906920Y-92896640D01*
X185023445Y-93071032D01*
G04 #@! TA.AperFunction,Conductor*
D17*
G36*
X185023445Y-93071032D02*
G01*
X185230288Y-93277875D01*
X185391921Y-93385875D01*
X185391921Y-94069418D01*
X185349533Y-94092075D01*
X185214958Y-94202518D01*
X185104515Y-94337093D01*
X185022448Y-94490629D01*
X184971912Y-94657225D01*
X184954848Y-94830479D01*
X184954848Y-95730481D01*
X184971912Y-95903735D01*
X185022448Y-96070331D01*
X185104515Y-96223867D01*
X185214958Y-96358442D01*
X185349533Y-96468885D01*
X185391920Y-96491542D01*
X185391920Y-98257322D01*
X174071243Y-109578000D01*
X160343288Y-109578000D01*
X160348317Y-109575312D01*
X160425952Y-109326237D01*
X159577160Y-108477445D01*
X158728368Y-109326237D01*
X158806003Y-109575312D01*
X158811640Y-109578000D01*
X155834194Y-109578000D01*
X156023792Y-109451315D01*
X156230635Y-109244472D01*
X156393150Y-109001251D01*
X156505092Y-108730998D01*
X156562160Y-108444100D01*
X156562160Y-108366371D01*
X158086549Y-108366371D01*
X158128561Y-108655859D01*
X158226241Y-108931587D01*
X158299688Y-109068997D01*
X158548763Y-109146632D01*
X159397555Y-108297840D01*
X159756765Y-108297840D01*
X160605557Y-109146632D01*
X160854632Y-109068997D01*
X160980531Y-108804957D01*
X161052499Y-108521429D01*
X161067771Y-108229309D01*
X161025759Y-107939821D01*
X160928079Y-107664093D01*
X160854632Y-107526683D01*
X160605557Y-107449048D01*
X159756765Y-108297840D01*
X159397555Y-108297840D01*
X158548763Y-107449048D01*
X158299688Y-107526683D01*
X158173789Y-107790723D01*
X158101821Y-108074251D01*
X158086549Y-108366371D01*
X156562160Y-108366371D01*
X156562160Y-108151580D01*
X156505092Y-107864682D01*
X156393150Y-107594429D01*
X156230635Y-107351208D01*
X156023792Y-107144365D01*
X156009477Y-107134800D01*
X158770335Y-107134800D01*
X158728368Y-107269443D01*
X159577160Y-108118235D01*
X160425952Y-107269443D01*
X160383985Y-107134800D01*
X171579087Y-107134800D01*
X171617640Y-107138597D01*
X171656193Y-107134800D01*
X171656201Y-107134800D01*
X171771527Y-107123441D01*
X171919500Y-107078554D01*
X172055873Y-107005662D01*
X172175404Y-106907564D01*
X172199987Y-106877610D01*
X184164730Y-94912867D01*
X184194684Y-94888284D01*
X184292782Y-94768753D01*
X184365674Y-94632380D01*
X184377137Y-94594591D01*
X184410562Y-94484407D01*
X184419146Y-94397245D01*
X184421920Y-94369081D01*
X184421920Y-94369076D01*
X184425717Y-94330520D01*
X184421920Y-94291964D01*
X184421920Y-93385874D01*
X184583552Y-93277875D01*
X184790395Y-93071032D01*
X184906920Y-92896640D01*
X185023445Y-93071032D01*
G37*
G04 #@! TD.AperFunction*
D16*
X111511888Y-91815831D02*
X111593955Y-91969367D01*
X111704398Y-92103942D01*
X111838973Y-92214385D01*
X111992509Y-92296452D01*
X112159105Y-92346988D01*
X112332359Y-92364052D01*
X113032361Y-92364052D01*
X113205615Y-92346988D01*
X113372211Y-92296452D01*
X113478015Y-92239898D01*
X113469048Y-92269458D01*
X113456788Y-92393940D01*
X113459860Y-92833190D01*
X113618610Y-92991940D01*
X114555360Y-92991940D01*
X114555360Y-92971940D01*
X114809360Y-92971940D01*
X114809360Y-92991940D01*
X114829360Y-92991940D01*
X114829360Y-93245940D01*
X114809360Y-93245940D01*
X114809360Y-94320190D01*
X114968110Y-94478940D01*
X115269860Y-94482012D01*
X115394342Y-94469752D01*
X115514040Y-94433442D01*
X115624354Y-94374477D01*
X115721045Y-94295125D01*
X115786518Y-94215346D01*
X115791898Y-94221902D01*
X115926474Y-94332345D01*
X116080010Y-94414412D01*
X116246606Y-94464948D01*
X116419860Y-94482012D01*
X117094860Y-94482012D01*
X117268114Y-94464948D01*
X117434710Y-94414412D01*
X117588246Y-94332345D01*
X117722822Y-94221902D01*
X117833265Y-94087326D01*
X117915332Y-93933790D01*
X117932130Y-93878414D01*
X118033400Y-93847694D01*
X118169773Y-93774802D01*
X118289304Y-93676704D01*
X118313886Y-93646751D01*
X118551821Y-93408817D01*
X118551821Y-94708028D01*
X118505934Y-94732555D01*
X118371358Y-94842998D01*
X118365978Y-94849554D01*
X118300505Y-94769775D01*
X118203814Y-94690423D01*
X118093500Y-94631458D01*
X117973802Y-94595148D01*
X117849320Y-94582888D01*
X117547570Y-94585960D01*
X117388820Y-94744710D01*
X117388820Y-95818960D01*
X117408820Y-95818960D01*
X117408820Y-96072960D01*
X117388820Y-96072960D01*
X117388820Y-96092960D01*
X117134820Y-96092960D01*
X117134820Y-96072960D01*
X116198070Y-96072960D01*
X116039320Y-96231710D01*
X116036248Y-96670960D01*
X116048508Y-96795442D01*
X116064832Y-96849254D01*
X115951671Y-96788768D01*
X115785075Y-96738232D01*
X115611821Y-96721168D01*
X114911819Y-96721168D01*
X114738565Y-96738232D01*
X114571969Y-96788768D01*
X114418433Y-96870835D01*
X114283858Y-96981278D01*
X114173415Y-97115853D01*
X114091348Y-97269389D01*
X114089876Y-97274240D01*
X112243052Y-97274240D01*
X112204499Y-97270443D01*
X112165946Y-97274240D01*
X112165939Y-97274240D01*
X112064990Y-97284183D01*
X112050612Y-97285599D01*
X112016172Y-97296046D01*
X111902640Y-97330486D01*
X111766267Y-97403378D01*
X111694253Y-97462479D01*
X111676687Y-97476895D01*
X111676684Y-97476898D01*
X111646736Y-97501476D01*
X111622158Y-97531425D01*
X110548930Y-98604653D01*
X110518976Y-98629236D01*
X110420878Y-98748768D01*
X110347986Y-98885141D01*
X110303099Y-99033114D01*
X110291740Y-99148440D01*
X110291740Y-99148447D01*
X110287943Y-99187000D01*
X110291740Y-99225553D01*
X110291741Y-102676922D01*
X109794003Y-103174660D01*
X108371780Y-103174660D01*
X108371780Y-95220960D01*
X116036248Y-95220960D01*
X116039320Y-95660210D01*
X116198070Y-95818960D01*
X117134820Y-95818960D01*
X117134820Y-94744710D01*
X116976070Y-94585960D01*
X116674320Y-94582888D01*
X116549838Y-94595148D01*
X116430140Y-94631458D01*
X116319826Y-94690423D01*
X116223135Y-94769775D01*
X116143783Y-94866466D01*
X116084818Y-94976780D01*
X116048508Y-95096478D01*
X116036248Y-95220960D01*
X108371780Y-95220960D01*
X108371780Y-93843940D01*
X113456788Y-93843940D01*
X113469048Y-93968422D01*
X113505358Y-94088120D01*
X113564323Y-94198434D01*
X113643675Y-94295125D01*
X113740366Y-94374477D01*
X113850680Y-94433442D01*
X113970378Y-94469752D01*
X114094860Y-94482012D01*
X114396610Y-94478940D01*
X114555360Y-94320190D01*
X114555360Y-93245940D01*
X113618610Y-93245940D01*
X113459860Y-93404690D01*
X113456788Y-93843940D01*
X108371780Y-93843940D01*
X108371780Y-93200257D01*
X109761057Y-91810980D01*
X111510416Y-91810980D01*
X111511888Y-91815831D01*
G04 #@! TA.AperFunction,Conductor*
D17*
G36*
X111511888Y-91815831D02*
G01*
X111593955Y-91969367D01*
X111704398Y-92103942D01*
X111838973Y-92214385D01*
X111992509Y-92296452D01*
X112159105Y-92346988D01*
X112332359Y-92364052D01*
X113032361Y-92364052D01*
X113205615Y-92346988D01*
X113372211Y-92296452D01*
X113478015Y-92239898D01*
X113469048Y-92269458D01*
X113456788Y-92393940D01*
X113459860Y-92833190D01*
X113618610Y-92991940D01*
X114555360Y-92991940D01*
X114555360Y-92971940D01*
X114809360Y-92971940D01*
X114809360Y-92991940D01*
X114829360Y-92991940D01*
X114829360Y-93245940D01*
X114809360Y-93245940D01*
X114809360Y-94320190D01*
X114968110Y-94478940D01*
X115269860Y-94482012D01*
X115394342Y-94469752D01*
X115514040Y-94433442D01*
X115624354Y-94374477D01*
X115721045Y-94295125D01*
X115786518Y-94215346D01*
X115791898Y-94221902D01*
X115926474Y-94332345D01*
X116080010Y-94414412D01*
X116246606Y-94464948D01*
X116419860Y-94482012D01*
X117094860Y-94482012D01*
X117268114Y-94464948D01*
X117434710Y-94414412D01*
X117588246Y-94332345D01*
X117722822Y-94221902D01*
X117833265Y-94087326D01*
X117915332Y-93933790D01*
X117932130Y-93878414D01*
X118033400Y-93847694D01*
X118169773Y-93774802D01*
X118289304Y-93676704D01*
X118313886Y-93646751D01*
X118551821Y-93408817D01*
X118551821Y-94708028D01*
X118505934Y-94732555D01*
X118371358Y-94842998D01*
X118365978Y-94849554D01*
X118300505Y-94769775D01*
X118203814Y-94690423D01*
X118093500Y-94631458D01*
X117973802Y-94595148D01*
X117849320Y-94582888D01*
X117547570Y-94585960D01*
X117388820Y-94744710D01*
X117388820Y-95818960D01*
X117408820Y-95818960D01*
X117408820Y-96072960D01*
X117388820Y-96072960D01*
X117388820Y-96092960D01*
X117134820Y-96092960D01*
X117134820Y-96072960D01*
X116198070Y-96072960D01*
X116039320Y-96231710D01*
X116036248Y-96670960D01*
X116048508Y-96795442D01*
X116064832Y-96849254D01*
X115951671Y-96788768D01*
X115785075Y-96738232D01*
X115611821Y-96721168D01*
X114911819Y-96721168D01*
X114738565Y-96738232D01*
X114571969Y-96788768D01*
X114418433Y-96870835D01*
X114283858Y-96981278D01*
X114173415Y-97115853D01*
X114091348Y-97269389D01*
X114089876Y-97274240D01*
X112243052Y-97274240D01*
X112204499Y-97270443D01*
X112165946Y-97274240D01*
X112165939Y-97274240D01*
X112064990Y-97284183D01*
X112050612Y-97285599D01*
X112016172Y-97296046D01*
X111902640Y-97330486D01*
X111766267Y-97403378D01*
X111694253Y-97462479D01*
X111676687Y-97476895D01*
X111676684Y-97476898D01*
X111646736Y-97501476D01*
X111622158Y-97531425D01*
X110548930Y-98604653D01*
X110518976Y-98629236D01*
X110420878Y-98748768D01*
X110347986Y-98885141D01*
X110303099Y-99033114D01*
X110291740Y-99148440D01*
X110291740Y-99148447D01*
X110287943Y-99187000D01*
X110291740Y-99225553D01*
X110291741Y-102676922D01*
X109794003Y-103174660D01*
X108371780Y-103174660D01*
X108371780Y-95220960D01*
X116036248Y-95220960D01*
X116039320Y-95660210D01*
X116198070Y-95818960D01*
X117134820Y-95818960D01*
X117134820Y-94744710D01*
X116976070Y-94585960D01*
X116674320Y-94582888D01*
X116549838Y-94595148D01*
X116430140Y-94631458D01*
X116319826Y-94690423D01*
X116223135Y-94769775D01*
X116143783Y-94866466D01*
X116084818Y-94976780D01*
X116048508Y-95096478D01*
X116036248Y-95220960D01*
X108371780Y-95220960D01*
X108371780Y-93843940D01*
X113456788Y-93843940D01*
X113469048Y-93968422D01*
X113505358Y-94088120D01*
X113564323Y-94198434D01*
X113643675Y-94295125D01*
X113740366Y-94374477D01*
X113850680Y-94433442D01*
X113970378Y-94469752D01*
X114094860Y-94482012D01*
X114396610Y-94478940D01*
X114555360Y-94320190D01*
X114555360Y-93245940D01*
X113618610Y-93245940D01*
X113459860Y-93404690D01*
X113456788Y-93843940D01*
X108371780Y-93843940D01*
X108371780Y-93200257D01*
X109761057Y-91810980D01*
X111510416Y-91810980D01*
X111511888Y-91815831D01*
G37*
G04 #@! TD.AperFunction*
D16*
X188843920Y-91997400D02*
X188863920Y-91997400D01*
X188863920Y-92251400D01*
X188843920Y-92251400D01*
X188843920Y-93444555D01*
X189073810Y-93565876D01*
X189221019Y-93521225D01*
X189483840Y-93396041D01*
X189717189Y-93221988D01*
X189792954Y-93137934D01*
X189817418Y-93218580D01*
X189876383Y-93328894D01*
X189955735Y-93425585D01*
X190052426Y-93504937D01*
X190162740Y-93563902D01*
X190282438Y-93600212D01*
X190406920Y-93612472D01*
X190412691Y-93612472D01*
X189529683Y-94495480D01*
X189364864Y-94495480D01*
X189363392Y-94490629D01*
X189281325Y-94337093D01*
X189170882Y-94202518D01*
X189036307Y-94092075D01*
X188882771Y-94010008D01*
X188716175Y-93959472D01*
X188542921Y-93942408D01*
X187842919Y-93942408D01*
X187669665Y-93959472D01*
X187503069Y-94010008D01*
X187349533Y-94092075D01*
X187214958Y-94202518D01*
X187192920Y-94229371D01*
X187170882Y-94202518D01*
X187036307Y-94092075D01*
X186961920Y-94052314D01*
X186961920Y-93385874D01*
X187123552Y-93277875D01*
X187330395Y-93071032D01*
X187452115Y-92888866D01*
X187521742Y-93005755D01*
X187716651Y-93221988D01*
X187950000Y-93396041D01*
X188212821Y-93521225D01*
X188360030Y-93565876D01*
X188589920Y-93444555D01*
X188589920Y-92251400D01*
X188569920Y-92251400D01*
X188569920Y-91997400D01*
X188589920Y-91997400D01*
X188589920Y-91977400D01*
X188843920Y-91977400D01*
X188843920Y-91997400D01*
G04 #@! TA.AperFunction,Conductor*
D17*
G36*
X188843920Y-91997400D02*
G01*
X188863920Y-91997400D01*
X188863920Y-92251400D01*
X188843920Y-92251400D01*
X188843920Y-93444555D01*
X189073810Y-93565876D01*
X189221019Y-93521225D01*
X189483840Y-93396041D01*
X189717189Y-93221988D01*
X189792954Y-93137934D01*
X189817418Y-93218580D01*
X189876383Y-93328894D01*
X189955735Y-93425585D01*
X190052426Y-93504937D01*
X190162740Y-93563902D01*
X190282438Y-93600212D01*
X190406920Y-93612472D01*
X190412691Y-93612472D01*
X189529683Y-94495480D01*
X189364864Y-94495480D01*
X189363392Y-94490629D01*
X189281325Y-94337093D01*
X189170882Y-94202518D01*
X189036307Y-94092075D01*
X188882771Y-94010008D01*
X188716175Y-93959472D01*
X188542921Y-93942408D01*
X187842919Y-93942408D01*
X187669665Y-93959472D01*
X187503069Y-94010008D01*
X187349533Y-94092075D01*
X187214958Y-94202518D01*
X187192920Y-94229371D01*
X187170882Y-94202518D01*
X187036307Y-94092075D01*
X186961920Y-94052314D01*
X186961920Y-93385874D01*
X187123552Y-93277875D01*
X187330395Y-93071032D01*
X187452115Y-92888866D01*
X187521742Y-93005755D01*
X187716651Y-93221988D01*
X187950000Y-93396041D01*
X188212821Y-93521225D01*
X188360030Y-93565876D01*
X188589920Y-93444555D01*
X188589920Y-92251400D01*
X188569920Y-92251400D01*
X188569920Y-91997400D01*
X188589920Y-91997400D01*
X188589920Y-91977400D01*
X188843920Y-91977400D01*
X188843920Y-91997400D01*
G37*
G04 #@! TD.AperFunction*
D16*
X190468020Y-87626138D02*
X190468020Y-87885588D01*
X190422134Y-87910115D01*
X190287558Y-88020558D01*
X190282178Y-88027114D01*
X190216705Y-87947335D01*
X190120014Y-87867983D01*
X190009700Y-87809018D01*
X189890002Y-87772708D01*
X189765520Y-87760448D01*
X189463770Y-87763520D01*
X189305020Y-87922270D01*
X189305020Y-88996520D01*
X189325020Y-88996520D01*
X189325020Y-89250520D01*
X189305020Y-89250520D01*
X189305020Y-89270520D01*
X189051020Y-89270520D01*
X189051020Y-89250520D01*
X188114270Y-89250520D01*
X187955520Y-89409270D01*
X187953238Y-89735520D01*
X187344598Y-89735520D01*
X186860512Y-89251435D01*
X186860512Y-88673519D01*
X186843448Y-88500265D01*
X186812585Y-88398520D01*
X187952448Y-88398520D01*
X187955520Y-88837770D01*
X188114270Y-88996520D01*
X189051020Y-88996520D01*
X189051020Y-87922270D01*
X188892270Y-87763520D01*
X188590520Y-87760448D01*
X188466038Y-87772708D01*
X188346340Y-87809018D01*
X188236026Y-87867983D01*
X188139335Y-87947335D01*
X188059983Y-88044026D01*
X188001018Y-88154340D01*
X187964708Y-88274038D01*
X187952448Y-88398520D01*
X186812585Y-88398520D01*
X186792912Y-88333669D01*
X186710845Y-88180133D01*
X186600402Y-88045558D01*
X186465827Y-87935115D01*
X186312291Y-87853048D01*
X186145695Y-87802512D01*
X185972441Y-87785448D01*
X185272439Y-87785448D01*
X185099185Y-87802512D01*
X184932589Y-87853048D01*
X184779053Y-87935115D01*
X184644478Y-88045558D01*
X184622440Y-88072411D01*
X184600402Y-88045558D01*
X184465827Y-87935115D01*
X184312291Y-87853048D01*
X184145695Y-87802512D01*
X183972441Y-87785448D01*
X183272439Y-87785448D01*
X183099185Y-87802512D01*
X182932589Y-87853048D01*
X182779053Y-87935115D01*
X182644478Y-88045558D01*
X182534035Y-88180133D01*
X182451968Y-88333669D01*
X182401432Y-88500265D01*
X182384368Y-88673519D01*
X182384368Y-89573521D01*
X182401432Y-89746775D01*
X182451968Y-89913371D01*
X182534035Y-90066907D01*
X182644478Y-90201482D01*
X182779053Y-90311925D01*
X182837440Y-90343134D01*
X182837441Y-90872601D01*
X182690288Y-90970925D01*
X182483445Y-91177768D01*
X182366920Y-91352160D01*
X182250395Y-91177768D01*
X182043552Y-90970925D01*
X181800331Y-90808410D01*
X181530078Y-90696468D01*
X181243180Y-90639400D01*
X180950660Y-90639400D01*
X180663762Y-90696468D01*
X180393509Y-90808410D01*
X180150288Y-90970925D01*
X179943445Y-91177768D01*
X179826920Y-91352160D01*
X179710395Y-91177768D01*
X179503552Y-90970925D01*
X179260331Y-90808410D01*
X178990078Y-90696468D01*
X178703180Y-90639400D01*
X178410660Y-90639400D01*
X178123762Y-90696468D01*
X177853509Y-90808410D01*
X177610288Y-90970925D01*
X177403445Y-91177768D01*
X177286920Y-91352160D01*
X177170395Y-91177768D01*
X176963552Y-90970925D01*
X176720331Y-90808410D01*
X176450078Y-90696468D01*
X176163180Y-90639400D01*
X175870660Y-90639400D01*
X175583762Y-90696468D01*
X175313509Y-90808410D01*
X175070288Y-90970925D01*
X174863445Y-91177768D01*
X174746920Y-91352160D01*
X174630395Y-91177768D01*
X174423552Y-90970925D01*
X174180331Y-90808410D01*
X173910078Y-90696468D01*
X173623180Y-90639400D01*
X173330660Y-90639400D01*
X173043762Y-90696468D01*
X172773509Y-90808410D01*
X172530288Y-90970925D01*
X172323445Y-91177768D01*
X172206920Y-91352160D01*
X172090395Y-91177768D01*
X171883552Y-90970925D01*
X171640331Y-90808410D01*
X171370078Y-90696468D01*
X171083180Y-90639400D01*
X170790660Y-90639400D01*
X170503762Y-90696468D01*
X170233509Y-90808410D01*
X169990288Y-90970925D01*
X169783445Y-91177768D01*
X169666920Y-91352160D01*
X169550395Y-91177768D01*
X169343552Y-90970925D01*
X169100331Y-90808410D01*
X168830078Y-90696468D01*
X168543180Y-90639400D01*
X168250660Y-90639400D01*
X167963762Y-90696468D01*
X167693509Y-90808410D01*
X167450288Y-90970925D01*
X167243445Y-91177768D01*
X167080930Y-91420989D01*
X166968988Y-91691242D01*
X166911920Y-91978140D01*
X166911920Y-92270660D01*
X166968988Y-92557558D01*
X167080930Y-92827811D01*
X167215961Y-93029900D01*
X162567937Y-93029900D01*
X169291038Y-86306800D01*
X189148683Y-86306800D01*
X190468020Y-87626138D01*
G04 #@! TA.AperFunction,Conductor*
D17*
G36*
X190468020Y-87626138D02*
G01*
X190468020Y-87885588D01*
X190422134Y-87910115D01*
X190287558Y-88020558D01*
X190282178Y-88027114D01*
X190216705Y-87947335D01*
X190120014Y-87867983D01*
X190009700Y-87809018D01*
X189890002Y-87772708D01*
X189765520Y-87760448D01*
X189463770Y-87763520D01*
X189305020Y-87922270D01*
X189305020Y-88996520D01*
X189325020Y-88996520D01*
X189325020Y-89250520D01*
X189305020Y-89250520D01*
X189305020Y-89270520D01*
X189051020Y-89270520D01*
X189051020Y-89250520D01*
X188114270Y-89250520D01*
X187955520Y-89409270D01*
X187953238Y-89735520D01*
X187344598Y-89735520D01*
X186860512Y-89251435D01*
X186860512Y-88673519D01*
X186843448Y-88500265D01*
X186812585Y-88398520D01*
X187952448Y-88398520D01*
X187955520Y-88837770D01*
X188114270Y-88996520D01*
X189051020Y-88996520D01*
X189051020Y-87922270D01*
X188892270Y-87763520D01*
X188590520Y-87760448D01*
X188466038Y-87772708D01*
X188346340Y-87809018D01*
X188236026Y-87867983D01*
X188139335Y-87947335D01*
X188059983Y-88044026D01*
X188001018Y-88154340D01*
X187964708Y-88274038D01*
X187952448Y-88398520D01*
X186812585Y-88398520D01*
X186792912Y-88333669D01*
X186710845Y-88180133D01*
X186600402Y-88045558D01*
X186465827Y-87935115D01*
X186312291Y-87853048D01*
X186145695Y-87802512D01*
X185972441Y-87785448D01*
X185272439Y-87785448D01*
X185099185Y-87802512D01*
X184932589Y-87853048D01*
X184779053Y-87935115D01*
X184644478Y-88045558D01*
X184622440Y-88072411D01*
X184600402Y-88045558D01*
X184465827Y-87935115D01*
X184312291Y-87853048D01*
X184145695Y-87802512D01*
X183972441Y-87785448D01*
X183272439Y-87785448D01*
X183099185Y-87802512D01*
X182932589Y-87853048D01*
X182779053Y-87935115D01*
X182644478Y-88045558D01*
X182534035Y-88180133D01*
X182451968Y-88333669D01*
X182401432Y-88500265D01*
X182384368Y-88673519D01*
X182384368Y-89573521D01*
X182401432Y-89746775D01*
X182451968Y-89913371D01*
X182534035Y-90066907D01*
X182644478Y-90201482D01*
X182779053Y-90311925D01*
X182837440Y-90343134D01*
X182837441Y-90872601D01*
X182690288Y-90970925D01*
X182483445Y-91177768D01*
X182366920Y-91352160D01*
X182250395Y-91177768D01*
X182043552Y-90970925D01*
X181800331Y-90808410D01*
X181530078Y-90696468D01*
X181243180Y-90639400D01*
X180950660Y-90639400D01*
X180663762Y-90696468D01*
X180393509Y-90808410D01*
X180150288Y-90970925D01*
X179943445Y-91177768D01*
X179826920Y-91352160D01*
X179710395Y-91177768D01*
X179503552Y-90970925D01*
X179260331Y-90808410D01*
X178990078Y-90696468D01*
X178703180Y-90639400D01*
X178410660Y-90639400D01*
X178123762Y-90696468D01*
X177853509Y-90808410D01*
X177610288Y-90970925D01*
X177403445Y-91177768D01*
X177286920Y-91352160D01*
X177170395Y-91177768D01*
X176963552Y-90970925D01*
X176720331Y-90808410D01*
X176450078Y-90696468D01*
X176163180Y-90639400D01*
X175870660Y-90639400D01*
X175583762Y-90696468D01*
X175313509Y-90808410D01*
X175070288Y-90970925D01*
X174863445Y-91177768D01*
X174746920Y-91352160D01*
X174630395Y-91177768D01*
X174423552Y-90970925D01*
X174180331Y-90808410D01*
X173910078Y-90696468D01*
X173623180Y-90639400D01*
X173330660Y-90639400D01*
X173043762Y-90696468D01*
X172773509Y-90808410D01*
X172530288Y-90970925D01*
X172323445Y-91177768D01*
X172206920Y-91352160D01*
X172090395Y-91177768D01*
X171883552Y-90970925D01*
X171640331Y-90808410D01*
X171370078Y-90696468D01*
X171083180Y-90639400D01*
X170790660Y-90639400D01*
X170503762Y-90696468D01*
X170233509Y-90808410D01*
X169990288Y-90970925D01*
X169783445Y-91177768D01*
X169666920Y-91352160D01*
X169550395Y-91177768D01*
X169343552Y-90970925D01*
X169100331Y-90808410D01*
X168830078Y-90696468D01*
X168543180Y-90639400D01*
X168250660Y-90639400D01*
X167963762Y-90696468D01*
X167693509Y-90808410D01*
X167450288Y-90970925D01*
X167243445Y-91177768D01*
X167080930Y-91420989D01*
X166968988Y-91691242D01*
X166911920Y-91978140D01*
X166911920Y-92270660D01*
X166968988Y-92557558D01*
X167080930Y-92827811D01*
X167215961Y-93029900D01*
X162567937Y-93029900D01*
X169291038Y-86306800D01*
X189148683Y-86306800D01*
X190468020Y-87626138D01*
G37*
G04 #@! TD.AperFunction*
M02*
