G04 #@! TF.GenerationSoftware,KiCad,Pcbnew,(5.1.10)-1*
G04 #@! TF.CreationDate,2021-10-12T16:57:56+02:00*
G04 #@! TF.ProjectId,esp32-imu,65737033-322d-4696-9d75-2e6b69636164,v0.1.0*
G04 #@! TF.SameCoordinates,Original*
G04 #@! TF.FileFunction,Copper,L2,Bot*
G04 #@! TF.FilePolarity,Positive*
%FSLAX46Y46*%
G04 Gerber Fmt 4.6, Leading zero omitted, Abs format (unit mm)*
G04 Created by KiCad (PCBNEW (5.1.10)-1) date 2021-10-12 16:57:56*
%MOMM*%
%LPD*%
G01*
G04 APERTURE LIST*
G04 #@! TA.AperFunction,Profile*
%ADD10C,0.050000*%
G04 #@! TD*
G04 #@! TA.AperFunction,ComponentPad*
%ADD11C,1.700000*%
G04 #@! TD*
G04 #@! TA.AperFunction,ComponentPad*
%ADD12O,1.700000X1.700000*%
G04 #@! TD*
G04 #@! TA.AperFunction,ComponentPad*
%ADD13R,1.700000X1.700000*%
G04 #@! TD*
G04 #@! TA.AperFunction,ViaPad*
%ADD14C,0.800000*%
G04 #@! TD*
G04 #@! TA.AperFunction,Conductor*
%ADD15C,0.250000*%
G04 #@! TD*
G04 #@! TA.AperFunction,Conductor*
%ADD16C,0.300000*%
G04 #@! TD*
G04 #@! TA.AperFunction,Conductor*
%ADD17C,0.254000*%
G04 #@! TD*
G04 #@! TA.AperFunction,Conductor*
%ADD18C,0.100000*%
G04 #@! TD*
G04 APERTURE END LIST*
D10*
X196212400Y-117289960D02*
G75*
G03*
X198212400Y-115289960I0J2000000D01*
G01*
X198212400Y-84289960D02*
G75*
G03*
X196212400Y-82289960I-2000000J0D01*
G01*
X105212400Y-82289960D02*
G75*
G03*
X103212400Y-84289960I0J-2000000D01*
G01*
X105212400Y-117289960D02*
G75*
G02*
X103212400Y-115289960I0J2000000D01*
G01*
X196212400Y-82289960D02*
X105212400Y-82289960D01*
X198212400Y-115289960D02*
X198212400Y-84289960D01*
X105212400Y-117289960D02*
X196212400Y-117289960D01*
X103212400Y-84289960D02*
X103212400Y-115289960D01*
D11*
X155077160Y-114797840D03*
X155077160Y-108297840D03*
X159577160Y-114797840D03*
X159577160Y-108297840D03*
X155077160Y-91201240D03*
X155077160Y-84701240D03*
X159577160Y-91201240D03*
X159577160Y-84701240D03*
D12*
X168396920Y-92124400D03*
X170936920Y-92124400D03*
X173476920Y-92124400D03*
X176016920Y-92124400D03*
X178556920Y-92124400D03*
X181096920Y-92124400D03*
X183636920Y-92124400D03*
X186176920Y-92124400D03*
X188716920Y-92124400D03*
D13*
X191256920Y-92124400D03*
D12*
X106640720Y-112324400D03*
X109180720Y-112324400D03*
X111720720Y-112324400D03*
X114260720Y-112324400D03*
X116800720Y-112324400D03*
X119340720Y-112324400D03*
X121880720Y-112324400D03*
X124420720Y-112324400D03*
X126960720Y-112324400D03*
X129500720Y-112324400D03*
X132040720Y-112324400D03*
X134580720Y-112324400D03*
X137120720Y-112324400D03*
X139660720Y-112324400D03*
D13*
X142200720Y-112324400D03*
D12*
X106640720Y-86924400D03*
X109180720Y-86924400D03*
X111720720Y-86924400D03*
X114260720Y-86924400D03*
X116800720Y-86924400D03*
X119340720Y-86924400D03*
X121880720Y-86924400D03*
X124420720Y-86924400D03*
X126960720Y-86924400D03*
X129500720Y-86924400D03*
X132040720Y-86924400D03*
X134580720Y-86924400D03*
X137120720Y-86924400D03*
X139660720Y-86924400D03*
D13*
X142200720Y-86924400D03*
D14*
X130599180Y-104147620D03*
X140149580Y-94648020D03*
X108805980Y-102674420D03*
X187469780Y-89034620D03*
X181551580Y-106967020D03*
X169588180Y-113469420D03*
X192938400Y-112928400D03*
X109601000Y-94381320D03*
X112364520Y-96225360D03*
X140716000Y-103352600D03*
X146227800Y-108026200D03*
X166624000Y-103352600D03*
X177190400Y-102946200D03*
X172923200Y-98221800D03*
X175732440Y-88323420D03*
X166624000Y-96215200D03*
X149199600Y-96240600D03*
X120540780Y-110345220D03*
X115077240Y-102803960D03*
X119667020Y-100101400D03*
X126657100Y-98943160D03*
X130215640Y-94183200D03*
X147048220Y-85450680D03*
X163032440Y-87025480D03*
X195026280Y-87703660D03*
X190578740Y-102712520D03*
X181457600Y-99034600D03*
X169773600Y-108153200D03*
X163403280Y-111668560D03*
X148513800Y-112699800D03*
X143510000Y-96291400D03*
X147751800Y-103378000D03*
X107579160Y-108905040D03*
X107586780Y-103959660D03*
D15*
X116773960Y-86951160D02*
X116800720Y-86924400D01*
X119340720Y-86924400D02*
X119336820Y-86928300D01*
D16*
X107579160Y-104233980D02*
X107574080Y-104228900D01*
X107579160Y-108905040D02*
X107579160Y-104233980D01*
X107579160Y-103967280D02*
X107586780Y-103959660D01*
X107579160Y-104233980D02*
X107579160Y-103967280D01*
D15*
X155061920Y-91216480D02*
X155077160Y-91201240D01*
D17*
X196472059Y-82978585D02*
X196721829Y-83053995D01*
X196952192Y-83176482D01*
X197154380Y-83341382D01*
X197320686Y-83542410D01*
X197444778Y-83771914D01*
X197521931Y-84021155D01*
X197552401Y-84311058D01*
X197552400Y-115257681D01*
X197523775Y-115549620D01*
X197448365Y-115799389D01*
X197325877Y-116029754D01*
X197160979Y-116231939D01*
X196959946Y-116398248D01*
X196730446Y-116522338D01*
X196481205Y-116599491D01*
X196191311Y-116629960D01*
X105244679Y-116629960D01*
X104952740Y-116601335D01*
X104702971Y-116525925D01*
X104472606Y-116403437D01*
X104270421Y-116238539D01*
X104104112Y-116037506D01*
X103980022Y-115808006D01*
X103902869Y-115558765D01*
X103872400Y-115268871D01*
X103872400Y-114651580D01*
X153592160Y-114651580D01*
X153592160Y-114944100D01*
X153649228Y-115230998D01*
X153761170Y-115501251D01*
X153923685Y-115744472D01*
X154130528Y-115951315D01*
X154373749Y-116113830D01*
X154644002Y-116225772D01*
X154930900Y-116282840D01*
X155223420Y-116282840D01*
X155510318Y-116225772D01*
X155780571Y-116113830D01*
X156023792Y-115951315D01*
X156148870Y-115826237D01*
X158728368Y-115826237D01*
X158806003Y-116075312D01*
X159070043Y-116201211D01*
X159353571Y-116273179D01*
X159645691Y-116288451D01*
X159935179Y-116246439D01*
X160210907Y-116148759D01*
X160348317Y-116075312D01*
X160425952Y-115826237D01*
X159577160Y-114977445D01*
X158728368Y-115826237D01*
X156148870Y-115826237D01*
X156230635Y-115744472D01*
X156393150Y-115501251D01*
X156505092Y-115230998D01*
X156562160Y-114944100D01*
X156562160Y-114866371D01*
X158086549Y-114866371D01*
X158128561Y-115155859D01*
X158226241Y-115431587D01*
X158299688Y-115568997D01*
X158548763Y-115646632D01*
X159397555Y-114797840D01*
X159756765Y-114797840D01*
X160605557Y-115646632D01*
X160854632Y-115568997D01*
X160980531Y-115304957D01*
X161052499Y-115021429D01*
X161067771Y-114729309D01*
X161025759Y-114439821D01*
X160928079Y-114164093D01*
X160854632Y-114026683D01*
X160605557Y-113949048D01*
X159756765Y-114797840D01*
X159397555Y-114797840D01*
X158548763Y-113949048D01*
X158299688Y-114026683D01*
X158173789Y-114290723D01*
X158101821Y-114574251D01*
X158086549Y-114866371D01*
X156562160Y-114866371D01*
X156562160Y-114651580D01*
X156505092Y-114364682D01*
X156393150Y-114094429D01*
X156230635Y-113851208D01*
X156148870Y-113769443D01*
X158728368Y-113769443D01*
X159577160Y-114618235D01*
X160425952Y-113769443D01*
X160348317Y-113520368D01*
X160084277Y-113394469D01*
X159800749Y-113322501D01*
X159508629Y-113307229D01*
X159219141Y-113349241D01*
X158943413Y-113446921D01*
X158806003Y-113520368D01*
X158728368Y-113769443D01*
X156148870Y-113769443D01*
X156023792Y-113644365D01*
X155780571Y-113481850D01*
X155510318Y-113369908D01*
X155223420Y-113312840D01*
X154930900Y-113312840D01*
X154644002Y-113369908D01*
X154373749Y-113481850D01*
X154130528Y-113644365D01*
X153923685Y-113851208D01*
X153761170Y-114094429D01*
X153649228Y-114364682D01*
X153592160Y-114651580D01*
X103872400Y-114651580D01*
X103872400Y-112178140D01*
X105155720Y-112178140D01*
X105155720Y-112470660D01*
X105212788Y-112757558D01*
X105324730Y-113027811D01*
X105487245Y-113271032D01*
X105694088Y-113477875D01*
X105937309Y-113640390D01*
X106207562Y-113752332D01*
X106494460Y-113809400D01*
X106786980Y-113809400D01*
X107073878Y-113752332D01*
X107344131Y-113640390D01*
X107587352Y-113477875D01*
X107794195Y-113271032D01*
X107915915Y-113088866D01*
X107985542Y-113205755D01*
X108180451Y-113421988D01*
X108413800Y-113596041D01*
X108676621Y-113721225D01*
X108823830Y-113765876D01*
X109053720Y-113644555D01*
X109053720Y-112451400D01*
X109033720Y-112451400D01*
X109033720Y-112197400D01*
X109053720Y-112197400D01*
X109053720Y-111004245D01*
X109307720Y-111004245D01*
X109307720Y-112197400D01*
X109327720Y-112197400D01*
X109327720Y-112451400D01*
X109307720Y-112451400D01*
X109307720Y-113644555D01*
X109537610Y-113765876D01*
X109684819Y-113721225D01*
X109947640Y-113596041D01*
X110180989Y-113421988D01*
X110375898Y-113205755D01*
X110445525Y-113088866D01*
X110567245Y-113271032D01*
X110774088Y-113477875D01*
X111017309Y-113640390D01*
X111287562Y-113752332D01*
X111574460Y-113809400D01*
X111866980Y-113809400D01*
X112153878Y-113752332D01*
X112424131Y-113640390D01*
X112667352Y-113477875D01*
X112874195Y-113271032D01*
X112990720Y-113096640D01*
X113107245Y-113271032D01*
X113314088Y-113477875D01*
X113557309Y-113640390D01*
X113827562Y-113752332D01*
X114114460Y-113809400D01*
X114406980Y-113809400D01*
X114693878Y-113752332D01*
X114964131Y-113640390D01*
X115207352Y-113477875D01*
X115414195Y-113271032D01*
X115530720Y-113096640D01*
X115647245Y-113271032D01*
X115854088Y-113477875D01*
X116097309Y-113640390D01*
X116367562Y-113752332D01*
X116654460Y-113809400D01*
X116946980Y-113809400D01*
X117233878Y-113752332D01*
X117504131Y-113640390D01*
X117747352Y-113477875D01*
X117954195Y-113271032D01*
X118070720Y-113096640D01*
X118187245Y-113271032D01*
X118394088Y-113477875D01*
X118637309Y-113640390D01*
X118907562Y-113752332D01*
X119194460Y-113809400D01*
X119486980Y-113809400D01*
X119773878Y-113752332D01*
X120044131Y-113640390D01*
X120287352Y-113477875D01*
X120494195Y-113271032D01*
X120610720Y-113096640D01*
X120727245Y-113271032D01*
X120934088Y-113477875D01*
X121177309Y-113640390D01*
X121447562Y-113752332D01*
X121734460Y-113809400D01*
X122026980Y-113809400D01*
X122313878Y-113752332D01*
X122584131Y-113640390D01*
X122827352Y-113477875D01*
X123034195Y-113271032D01*
X123150720Y-113096640D01*
X123267245Y-113271032D01*
X123474088Y-113477875D01*
X123717309Y-113640390D01*
X123987562Y-113752332D01*
X124274460Y-113809400D01*
X124566980Y-113809400D01*
X124853878Y-113752332D01*
X125124131Y-113640390D01*
X125367352Y-113477875D01*
X125574195Y-113271032D01*
X125690720Y-113096640D01*
X125807245Y-113271032D01*
X126014088Y-113477875D01*
X126257309Y-113640390D01*
X126527562Y-113752332D01*
X126814460Y-113809400D01*
X127106980Y-113809400D01*
X127393878Y-113752332D01*
X127664131Y-113640390D01*
X127907352Y-113477875D01*
X128114195Y-113271032D01*
X128230720Y-113096640D01*
X128347245Y-113271032D01*
X128554088Y-113477875D01*
X128797309Y-113640390D01*
X129067562Y-113752332D01*
X129354460Y-113809400D01*
X129646980Y-113809400D01*
X129933878Y-113752332D01*
X130204131Y-113640390D01*
X130447352Y-113477875D01*
X130654195Y-113271032D01*
X130770720Y-113096640D01*
X130887245Y-113271032D01*
X131094088Y-113477875D01*
X131337309Y-113640390D01*
X131607562Y-113752332D01*
X131894460Y-113809400D01*
X132186980Y-113809400D01*
X132473878Y-113752332D01*
X132744131Y-113640390D01*
X132987352Y-113477875D01*
X133194195Y-113271032D01*
X133310720Y-113096640D01*
X133427245Y-113271032D01*
X133634088Y-113477875D01*
X133877309Y-113640390D01*
X134147562Y-113752332D01*
X134434460Y-113809400D01*
X134726980Y-113809400D01*
X135013878Y-113752332D01*
X135284131Y-113640390D01*
X135527352Y-113477875D01*
X135734195Y-113271032D01*
X135850720Y-113096640D01*
X135967245Y-113271032D01*
X136174088Y-113477875D01*
X136417309Y-113640390D01*
X136687562Y-113752332D01*
X136974460Y-113809400D01*
X137266980Y-113809400D01*
X137553878Y-113752332D01*
X137824131Y-113640390D01*
X138067352Y-113477875D01*
X138274195Y-113271032D01*
X138390720Y-113096640D01*
X138507245Y-113271032D01*
X138714088Y-113477875D01*
X138957309Y-113640390D01*
X139227562Y-113752332D01*
X139514460Y-113809400D01*
X139806980Y-113809400D01*
X140093878Y-113752332D01*
X140364131Y-113640390D01*
X140607352Y-113477875D01*
X140739207Y-113346020D01*
X140761218Y-113418580D01*
X140820183Y-113528894D01*
X140899535Y-113625585D01*
X140996226Y-113704937D01*
X141106540Y-113763902D01*
X141226238Y-113800212D01*
X141350720Y-113812472D01*
X143050720Y-113812472D01*
X143175202Y-113800212D01*
X143294900Y-113763902D01*
X143405214Y-113704937D01*
X143501905Y-113625585D01*
X143581257Y-113528894D01*
X143640222Y-113418580D01*
X143676532Y-113298882D01*
X143688792Y-113174400D01*
X143688792Y-111474400D01*
X143676532Y-111349918D01*
X143640222Y-111230220D01*
X143581257Y-111119906D01*
X143501905Y-111023215D01*
X143405214Y-110943863D01*
X143294900Y-110884898D01*
X143175202Y-110848588D01*
X143050720Y-110836328D01*
X141350720Y-110836328D01*
X141226238Y-110848588D01*
X141106540Y-110884898D01*
X140996226Y-110943863D01*
X140899535Y-111023215D01*
X140820183Y-111119906D01*
X140761218Y-111230220D01*
X140739207Y-111302780D01*
X140607352Y-111170925D01*
X140364131Y-111008410D01*
X140093878Y-110896468D01*
X139806980Y-110839400D01*
X139514460Y-110839400D01*
X139227562Y-110896468D01*
X138957309Y-111008410D01*
X138714088Y-111170925D01*
X138507245Y-111377768D01*
X138390720Y-111552160D01*
X138274195Y-111377768D01*
X138067352Y-111170925D01*
X137824131Y-111008410D01*
X137553878Y-110896468D01*
X137266980Y-110839400D01*
X136974460Y-110839400D01*
X136687562Y-110896468D01*
X136417309Y-111008410D01*
X136174088Y-111170925D01*
X135967245Y-111377768D01*
X135850720Y-111552160D01*
X135734195Y-111377768D01*
X135527352Y-111170925D01*
X135284131Y-111008410D01*
X135013878Y-110896468D01*
X134726980Y-110839400D01*
X134434460Y-110839400D01*
X134147562Y-110896468D01*
X133877309Y-111008410D01*
X133634088Y-111170925D01*
X133427245Y-111377768D01*
X133310720Y-111552160D01*
X133194195Y-111377768D01*
X132987352Y-111170925D01*
X132744131Y-111008410D01*
X132473878Y-110896468D01*
X132186980Y-110839400D01*
X131894460Y-110839400D01*
X131607562Y-110896468D01*
X131337309Y-111008410D01*
X131094088Y-111170925D01*
X130887245Y-111377768D01*
X130770720Y-111552160D01*
X130654195Y-111377768D01*
X130447352Y-111170925D01*
X130204131Y-111008410D01*
X129933878Y-110896468D01*
X129646980Y-110839400D01*
X129354460Y-110839400D01*
X129067562Y-110896468D01*
X128797309Y-111008410D01*
X128554088Y-111170925D01*
X128347245Y-111377768D01*
X128230720Y-111552160D01*
X128114195Y-111377768D01*
X127907352Y-111170925D01*
X127664131Y-111008410D01*
X127393878Y-110896468D01*
X127106980Y-110839400D01*
X126814460Y-110839400D01*
X126527562Y-110896468D01*
X126257309Y-111008410D01*
X126014088Y-111170925D01*
X125807245Y-111377768D01*
X125690720Y-111552160D01*
X125574195Y-111377768D01*
X125367352Y-111170925D01*
X125124131Y-111008410D01*
X124853878Y-110896468D01*
X124566980Y-110839400D01*
X124274460Y-110839400D01*
X123987562Y-110896468D01*
X123717309Y-111008410D01*
X123474088Y-111170925D01*
X123267245Y-111377768D01*
X123150720Y-111552160D01*
X123034195Y-111377768D01*
X122827352Y-111170925D01*
X122584131Y-111008410D01*
X122313878Y-110896468D01*
X122026980Y-110839400D01*
X121734460Y-110839400D01*
X121447562Y-110896468D01*
X121177309Y-111008410D01*
X120934088Y-111170925D01*
X120727245Y-111377768D01*
X120610720Y-111552160D01*
X120494195Y-111377768D01*
X120287352Y-111170925D01*
X120044131Y-111008410D01*
X119773878Y-110896468D01*
X119486980Y-110839400D01*
X119194460Y-110839400D01*
X118907562Y-110896468D01*
X118637309Y-111008410D01*
X118394088Y-111170925D01*
X118187245Y-111377768D01*
X118070720Y-111552160D01*
X117954195Y-111377768D01*
X117747352Y-111170925D01*
X117504131Y-111008410D01*
X117233878Y-110896468D01*
X116946980Y-110839400D01*
X116654460Y-110839400D01*
X116367562Y-110896468D01*
X116097309Y-111008410D01*
X115854088Y-111170925D01*
X115647245Y-111377768D01*
X115530720Y-111552160D01*
X115414195Y-111377768D01*
X115207352Y-111170925D01*
X114964131Y-111008410D01*
X114693878Y-110896468D01*
X114406980Y-110839400D01*
X114114460Y-110839400D01*
X113827562Y-110896468D01*
X113557309Y-111008410D01*
X113314088Y-111170925D01*
X113107245Y-111377768D01*
X112990720Y-111552160D01*
X112874195Y-111377768D01*
X112667352Y-111170925D01*
X112424131Y-111008410D01*
X112153878Y-110896468D01*
X111866980Y-110839400D01*
X111574460Y-110839400D01*
X111287562Y-110896468D01*
X111017309Y-111008410D01*
X110774088Y-111170925D01*
X110567245Y-111377768D01*
X110445525Y-111559934D01*
X110375898Y-111443045D01*
X110180989Y-111226812D01*
X109947640Y-111052759D01*
X109684819Y-110927575D01*
X109537610Y-110882924D01*
X109307720Y-111004245D01*
X109053720Y-111004245D01*
X108823830Y-110882924D01*
X108676621Y-110927575D01*
X108413800Y-111052759D01*
X108180451Y-111226812D01*
X107985542Y-111443045D01*
X107915915Y-111559934D01*
X107794195Y-111377768D01*
X107587352Y-111170925D01*
X107344131Y-111008410D01*
X107073878Y-110896468D01*
X106786980Y-110839400D01*
X106494460Y-110839400D01*
X106207562Y-110896468D01*
X105937309Y-111008410D01*
X105694088Y-111170925D01*
X105487245Y-111377768D01*
X105324730Y-111620989D01*
X105212788Y-111891242D01*
X105155720Y-112178140D01*
X103872400Y-112178140D01*
X103872400Y-108803101D01*
X106544160Y-108803101D01*
X106544160Y-109006979D01*
X106583934Y-109206938D01*
X106661955Y-109395296D01*
X106775223Y-109564814D01*
X106919386Y-109708977D01*
X107088904Y-109822245D01*
X107277262Y-109900266D01*
X107477221Y-109940040D01*
X107681099Y-109940040D01*
X107881058Y-109900266D01*
X108069416Y-109822245D01*
X108238934Y-109708977D01*
X108383097Y-109564814D01*
X108496365Y-109395296D01*
X108574386Y-109206938D01*
X108614160Y-109006979D01*
X108614160Y-108803101D01*
X108574386Y-108603142D01*
X108496365Y-108414784D01*
X108383097Y-108245266D01*
X108364160Y-108226329D01*
X108364160Y-108151580D01*
X153592160Y-108151580D01*
X153592160Y-108444100D01*
X153649228Y-108730998D01*
X153761170Y-109001251D01*
X153923685Y-109244472D01*
X154130528Y-109451315D01*
X154373749Y-109613830D01*
X154644002Y-109725772D01*
X154930900Y-109782840D01*
X155223420Y-109782840D01*
X155510318Y-109725772D01*
X155780571Y-109613830D01*
X156023792Y-109451315D01*
X156148870Y-109326237D01*
X158728368Y-109326237D01*
X158806003Y-109575312D01*
X159070043Y-109701211D01*
X159353571Y-109773179D01*
X159645691Y-109788451D01*
X159935179Y-109746439D01*
X160210907Y-109648759D01*
X160348317Y-109575312D01*
X160425952Y-109326237D01*
X159577160Y-108477445D01*
X158728368Y-109326237D01*
X156148870Y-109326237D01*
X156230635Y-109244472D01*
X156393150Y-109001251D01*
X156505092Y-108730998D01*
X156562160Y-108444100D01*
X156562160Y-108366371D01*
X158086549Y-108366371D01*
X158128561Y-108655859D01*
X158226241Y-108931587D01*
X158299688Y-109068997D01*
X158548763Y-109146632D01*
X159397555Y-108297840D01*
X159756765Y-108297840D01*
X160605557Y-109146632D01*
X160854632Y-109068997D01*
X160980531Y-108804957D01*
X161052499Y-108521429D01*
X161067771Y-108229309D01*
X161025759Y-107939821D01*
X160928079Y-107664093D01*
X160854632Y-107526683D01*
X160605557Y-107449048D01*
X159756765Y-108297840D01*
X159397555Y-108297840D01*
X158548763Y-107449048D01*
X158299688Y-107526683D01*
X158173789Y-107790723D01*
X158101821Y-108074251D01*
X158086549Y-108366371D01*
X156562160Y-108366371D01*
X156562160Y-108151580D01*
X156505092Y-107864682D01*
X156393150Y-107594429D01*
X156230635Y-107351208D01*
X156148870Y-107269443D01*
X158728368Y-107269443D01*
X159577160Y-108118235D01*
X160425952Y-107269443D01*
X160348317Y-107020368D01*
X160084277Y-106894469D01*
X159800749Y-106822501D01*
X159508629Y-106807229D01*
X159219141Y-106849241D01*
X158943413Y-106946921D01*
X158806003Y-107020368D01*
X158728368Y-107269443D01*
X156148870Y-107269443D01*
X156023792Y-107144365D01*
X155780571Y-106981850D01*
X155510318Y-106869908D01*
X155223420Y-106812840D01*
X154930900Y-106812840D01*
X154644002Y-106869908D01*
X154373749Y-106981850D01*
X154130528Y-107144365D01*
X153923685Y-107351208D01*
X153761170Y-107594429D01*
X153649228Y-107864682D01*
X153592160Y-108151580D01*
X108364160Y-108151580D01*
X108364160Y-104645991D01*
X108390717Y-104619434D01*
X108503985Y-104449916D01*
X108582006Y-104261558D01*
X108621780Y-104061599D01*
X108621780Y-103857721D01*
X108582006Y-103657762D01*
X108503985Y-103469404D01*
X108390717Y-103299886D01*
X108246554Y-103155723D01*
X108077036Y-103042455D01*
X107888678Y-102964434D01*
X107688719Y-102924660D01*
X107484841Y-102924660D01*
X107284882Y-102964434D01*
X107096524Y-103042455D01*
X106927006Y-103155723D01*
X106782843Y-103299886D01*
X106669575Y-103469404D01*
X106591554Y-103657762D01*
X106551780Y-103857721D01*
X106551780Y-104061599D01*
X106591554Y-104261558D01*
X106669575Y-104449916D01*
X106782843Y-104619434D01*
X106794161Y-104630752D01*
X106794160Y-108226329D01*
X106775223Y-108245266D01*
X106661955Y-108414784D01*
X106583934Y-108603142D01*
X106544160Y-108803101D01*
X103872400Y-108803101D01*
X103872400Y-91054980D01*
X153592160Y-91054980D01*
X153592160Y-91347500D01*
X153649228Y-91634398D01*
X153761170Y-91904651D01*
X153923685Y-92147872D01*
X154130528Y-92354715D01*
X154373749Y-92517230D01*
X154644002Y-92629172D01*
X154930900Y-92686240D01*
X155223420Y-92686240D01*
X155510318Y-92629172D01*
X155780571Y-92517230D01*
X156023792Y-92354715D01*
X156148870Y-92229637D01*
X158728368Y-92229637D01*
X158806003Y-92478712D01*
X159070043Y-92604611D01*
X159353571Y-92676579D01*
X159645691Y-92691851D01*
X159935179Y-92649839D01*
X160210907Y-92552159D01*
X160348317Y-92478712D01*
X160425952Y-92229637D01*
X159577160Y-91380845D01*
X158728368Y-92229637D01*
X156148870Y-92229637D01*
X156230635Y-92147872D01*
X156393150Y-91904651D01*
X156505092Y-91634398D01*
X156562160Y-91347500D01*
X156562160Y-91269771D01*
X158086549Y-91269771D01*
X158128561Y-91559259D01*
X158226241Y-91834987D01*
X158299688Y-91972397D01*
X158548763Y-92050032D01*
X159397555Y-91201240D01*
X159756765Y-91201240D01*
X160605557Y-92050032D01*
X160836206Y-91978140D01*
X166911920Y-91978140D01*
X166911920Y-92270660D01*
X166968988Y-92557558D01*
X167080930Y-92827811D01*
X167243445Y-93071032D01*
X167450288Y-93277875D01*
X167693509Y-93440390D01*
X167963762Y-93552332D01*
X168250660Y-93609400D01*
X168543180Y-93609400D01*
X168830078Y-93552332D01*
X169100331Y-93440390D01*
X169343552Y-93277875D01*
X169550395Y-93071032D01*
X169666920Y-92896640D01*
X169783445Y-93071032D01*
X169990288Y-93277875D01*
X170233509Y-93440390D01*
X170503762Y-93552332D01*
X170790660Y-93609400D01*
X171083180Y-93609400D01*
X171370078Y-93552332D01*
X171640331Y-93440390D01*
X171883552Y-93277875D01*
X172090395Y-93071032D01*
X172206920Y-92896640D01*
X172323445Y-93071032D01*
X172530288Y-93277875D01*
X172773509Y-93440390D01*
X173043762Y-93552332D01*
X173330660Y-93609400D01*
X173623180Y-93609400D01*
X173910078Y-93552332D01*
X174180331Y-93440390D01*
X174423552Y-93277875D01*
X174630395Y-93071032D01*
X174746920Y-92896640D01*
X174863445Y-93071032D01*
X175070288Y-93277875D01*
X175313509Y-93440390D01*
X175583762Y-93552332D01*
X175870660Y-93609400D01*
X176163180Y-93609400D01*
X176450078Y-93552332D01*
X176720331Y-93440390D01*
X176963552Y-93277875D01*
X177170395Y-93071032D01*
X177286920Y-92896640D01*
X177403445Y-93071032D01*
X177610288Y-93277875D01*
X177853509Y-93440390D01*
X178123762Y-93552332D01*
X178410660Y-93609400D01*
X178703180Y-93609400D01*
X178990078Y-93552332D01*
X179260331Y-93440390D01*
X179503552Y-93277875D01*
X179710395Y-93071032D01*
X179826920Y-92896640D01*
X179943445Y-93071032D01*
X180150288Y-93277875D01*
X180393509Y-93440390D01*
X180663762Y-93552332D01*
X180950660Y-93609400D01*
X181243180Y-93609400D01*
X181530078Y-93552332D01*
X181800331Y-93440390D01*
X182043552Y-93277875D01*
X182250395Y-93071032D01*
X182366920Y-92896640D01*
X182483445Y-93071032D01*
X182690288Y-93277875D01*
X182933509Y-93440390D01*
X183203762Y-93552332D01*
X183490660Y-93609400D01*
X183783180Y-93609400D01*
X184070078Y-93552332D01*
X184340331Y-93440390D01*
X184583552Y-93277875D01*
X184790395Y-93071032D01*
X184906920Y-92896640D01*
X185023445Y-93071032D01*
X185230288Y-93277875D01*
X185473509Y-93440390D01*
X185743762Y-93552332D01*
X186030660Y-93609400D01*
X186323180Y-93609400D01*
X186610078Y-93552332D01*
X186880331Y-93440390D01*
X187123552Y-93277875D01*
X187330395Y-93071032D01*
X187452115Y-92888866D01*
X187521742Y-93005755D01*
X187716651Y-93221988D01*
X187950000Y-93396041D01*
X188212821Y-93521225D01*
X188360030Y-93565876D01*
X188589920Y-93444555D01*
X188589920Y-92251400D01*
X188569920Y-92251400D01*
X188569920Y-91997400D01*
X188589920Y-91997400D01*
X188589920Y-90804245D01*
X188843920Y-90804245D01*
X188843920Y-91997400D01*
X188863920Y-91997400D01*
X188863920Y-92251400D01*
X188843920Y-92251400D01*
X188843920Y-93444555D01*
X189073810Y-93565876D01*
X189221019Y-93521225D01*
X189483840Y-93396041D01*
X189717189Y-93221988D01*
X189792954Y-93137934D01*
X189817418Y-93218580D01*
X189876383Y-93328894D01*
X189955735Y-93425585D01*
X190052426Y-93504937D01*
X190162740Y-93563902D01*
X190282438Y-93600212D01*
X190406920Y-93612472D01*
X192106920Y-93612472D01*
X192231402Y-93600212D01*
X192351100Y-93563902D01*
X192461414Y-93504937D01*
X192558105Y-93425585D01*
X192637457Y-93328894D01*
X192696422Y-93218580D01*
X192732732Y-93098882D01*
X192744992Y-92974400D01*
X192744992Y-91274400D01*
X192732732Y-91149918D01*
X192696422Y-91030220D01*
X192637457Y-90919906D01*
X192558105Y-90823215D01*
X192461414Y-90743863D01*
X192351100Y-90684898D01*
X192231402Y-90648588D01*
X192106920Y-90636328D01*
X190406920Y-90636328D01*
X190282438Y-90648588D01*
X190162740Y-90684898D01*
X190052426Y-90743863D01*
X189955735Y-90823215D01*
X189876383Y-90919906D01*
X189817418Y-91030220D01*
X189792954Y-91110866D01*
X189717189Y-91026812D01*
X189483840Y-90852759D01*
X189221019Y-90727575D01*
X189073810Y-90682924D01*
X188843920Y-90804245D01*
X188589920Y-90804245D01*
X188360030Y-90682924D01*
X188212821Y-90727575D01*
X187950000Y-90852759D01*
X187716651Y-91026812D01*
X187521742Y-91243045D01*
X187452115Y-91359934D01*
X187330395Y-91177768D01*
X187123552Y-90970925D01*
X186880331Y-90808410D01*
X186610078Y-90696468D01*
X186323180Y-90639400D01*
X186030660Y-90639400D01*
X185743762Y-90696468D01*
X185473509Y-90808410D01*
X185230288Y-90970925D01*
X185023445Y-91177768D01*
X184906920Y-91352160D01*
X184790395Y-91177768D01*
X184583552Y-90970925D01*
X184340331Y-90808410D01*
X184070078Y-90696468D01*
X183783180Y-90639400D01*
X183490660Y-90639400D01*
X183203762Y-90696468D01*
X182933509Y-90808410D01*
X182690288Y-90970925D01*
X182483445Y-91177768D01*
X182366920Y-91352160D01*
X182250395Y-91177768D01*
X182043552Y-90970925D01*
X181800331Y-90808410D01*
X181530078Y-90696468D01*
X181243180Y-90639400D01*
X180950660Y-90639400D01*
X180663762Y-90696468D01*
X180393509Y-90808410D01*
X180150288Y-90970925D01*
X179943445Y-91177768D01*
X179826920Y-91352160D01*
X179710395Y-91177768D01*
X179503552Y-90970925D01*
X179260331Y-90808410D01*
X178990078Y-90696468D01*
X178703180Y-90639400D01*
X178410660Y-90639400D01*
X178123762Y-90696468D01*
X177853509Y-90808410D01*
X177610288Y-90970925D01*
X177403445Y-91177768D01*
X177286920Y-91352160D01*
X177170395Y-91177768D01*
X176963552Y-90970925D01*
X176720331Y-90808410D01*
X176450078Y-90696468D01*
X176163180Y-90639400D01*
X175870660Y-90639400D01*
X175583762Y-90696468D01*
X175313509Y-90808410D01*
X175070288Y-90970925D01*
X174863445Y-91177768D01*
X174746920Y-91352160D01*
X174630395Y-91177768D01*
X174423552Y-90970925D01*
X174180331Y-90808410D01*
X173910078Y-90696468D01*
X173623180Y-90639400D01*
X173330660Y-90639400D01*
X173043762Y-90696468D01*
X172773509Y-90808410D01*
X172530288Y-90970925D01*
X172323445Y-91177768D01*
X172206920Y-91352160D01*
X172090395Y-91177768D01*
X171883552Y-90970925D01*
X171640331Y-90808410D01*
X171370078Y-90696468D01*
X171083180Y-90639400D01*
X170790660Y-90639400D01*
X170503762Y-90696468D01*
X170233509Y-90808410D01*
X169990288Y-90970925D01*
X169783445Y-91177768D01*
X169666920Y-91352160D01*
X169550395Y-91177768D01*
X169343552Y-90970925D01*
X169100331Y-90808410D01*
X168830078Y-90696468D01*
X168543180Y-90639400D01*
X168250660Y-90639400D01*
X167963762Y-90696468D01*
X167693509Y-90808410D01*
X167450288Y-90970925D01*
X167243445Y-91177768D01*
X167080930Y-91420989D01*
X166968988Y-91691242D01*
X166911920Y-91978140D01*
X160836206Y-91978140D01*
X160854632Y-91972397D01*
X160980531Y-91708357D01*
X161052499Y-91424829D01*
X161067771Y-91132709D01*
X161025759Y-90843221D01*
X160928079Y-90567493D01*
X160854632Y-90430083D01*
X160605557Y-90352448D01*
X159756765Y-91201240D01*
X159397555Y-91201240D01*
X158548763Y-90352448D01*
X158299688Y-90430083D01*
X158173789Y-90694123D01*
X158101821Y-90977651D01*
X158086549Y-91269771D01*
X156562160Y-91269771D01*
X156562160Y-91054980D01*
X156505092Y-90768082D01*
X156393150Y-90497829D01*
X156230635Y-90254608D01*
X156148870Y-90172843D01*
X158728368Y-90172843D01*
X159577160Y-91021635D01*
X160425952Y-90172843D01*
X160348317Y-89923768D01*
X160084277Y-89797869D01*
X159800749Y-89725901D01*
X159508629Y-89710629D01*
X159219141Y-89752641D01*
X158943413Y-89850321D01*
X158806003Y-89923768D01*
X158728368Y-90172843D01*
X156148870Y-90172843D01*
X156023792Y-90047765D01*
X155780571Y-89885250D01*
X155510318Y-89773308D01*
X155223420Y-89716240D01*
X154930900Y-89716240D01*
X154644002Y-89773308D01*
X154373749Y-89885250D01*
X154130528Y-90047765D01*
X153923685Y-90254608D01*
X153761170Y-90497829D01*
X153649228Y-90768082D01*
X153592160Y-91054980D01*
X103872400Y-91054980D01*
X103872400Y-86778140D01*
X105155720Y-86778140D01*
X105155720Y-87070660D01*
X105212788Y-87357558D01*
X105324730Y-87627811D01*
X105487245Y-87871032D01*
X105694088Y-88077875D01*
X105937309Y-88240390D01*
X106207562Y-88352332D01*
X106494460Y-88409400D01*
X106786980Y-88409400D01*
X107073878Y-88352332D01*
X107344131Y-88240390D01*
X107587352Y-88077875D01*
X107794195Y-87871032D01*
X107915915Y-87688866D01*
X107985542Y-87805755D01*
X108180451Y-88021988D01*
X108413800Y-88196041D01*
X108676621Y-88321225D01*
X108823830Y-88365876D01*
X109053720Y-88244555D01*
X109053720Y-87051400D01*
X109033720Y-87051400D01*
X109033720Y-86797400D01*
X109053720Y-86797400D01*
X109053720Y-85604245D01*
X109307720Y-85604245D01*
X109307720Y-86797400D01*
X109327720Y-86797400D01*
X109327720Y-87051400D01*
X109307720Y-87051400D01*
X109307720Y-88244555D01*
X109537610Y-88365876D01*
X109684819Y-88321225D01*
X109947640Y-88196041D01*
X110180989Y-88021988D01*
X110375898Y-87805755D01*
X110445525Y-87688866D01*
X110567245Y-87871032D01*
X110774088Y-88077875D01*
X111017309Y-88240390D01*
X111287562Y-88352332D01*
X111574460Y-88409400D01*
X111866980Y-88409400D01*
X112153878Y-88352332D01*
X112424131Y-88240390D01*
X112667352Y-88077875D01*
X112874195Y-87871032D01*
X112990720Y-87696640D01*
X113107245Y-87871032D01*
X113314088Y-88077875D01*
X113557309Y-88240390D01*
X113827562Y-88352332D01*
X114114460Y-88409400D01*
X114406980Y-88409400D01*
X114693878Y-88352332D01*
X114964131Y-88240390D01*
X115207352Y-88077875D01*
X115414195Y-87871032D01*
X115530720Y-87696640D01*
X115647245Y-87871032D01*
X115854088Y-88077875D01*
X116097309Y-88240390D01*
X116367562Y-88352332D01*
X116654460Y-88409400D01*
X116946980Y-88409400D01*
X117233878Y-88352332D01*
X117504131Y-88240390D01*
X117747352Y-88077875D01*
X117954195Y-87871032D01*
X118070720Y-87696640D01*
X118187245Y-87871032D01*
X118394088Y-88077875D01*
X118637309Y-88240390D01*
X118907562Y-88352332D01*
X119194460Y-88409400D01*
X119486980Y-88409400D01*
X119773878Y-88352332D01*
X120044131Y-88240390D01*
X120287352Y-88077875D01*
X120494195Y-87871032D01*
X120610720Y-87696640D01*
X120727245Y-87871032D01*
X120934088Y-88077875D01*
X121177309Y-88240390D01*
X121447562Y-88352332D01*
X121734460Y-88409400D01*
X122026980Y-88409400D01*
X122313878Y-88352332D01*
X122584131Y-88240390D01*
X122827352Y-88077875D01*
X123034195Y-87871032D01*
X123150720Y-87696640D01*
X123267245Y-87871032D01*
X123474088Y-88077875D01*
X123717309Y-88240390D01*
X123987562Y-88352332D01*
X124274460Y-88409400D01*
X124566980Y-88409400D01*
X124853878Y-88352332D01*
X125124131Y-88240390D01*
X125367352Y-88077875D01*
X125574195Y-87871032D01*
X125690720Y-87696640D01*
X125807245Y-87871032D01*
X126014088Y-88077875D01*
X126257309Y-88240390D01*
X126527562Y-88352332D01*
X126814460Y-88409400D01*
X127106980Y-88409400D01*
X127393878Y-88352332D01*
X127664131Y-88240390D01*
X127907352Y-88077875D01*
X128114195Y-87871032D01*
X128230720Y-87696640D01*
X128347245Y-87871032D01*
X128554088Y-88077875D01*
X128797309Y-88240390D01*
X129067562Y-88352332D01*
X129354460Y-88409400D01*
X129646980Y-88409400D01*
X129933878Y-88352332D01*
X130204131Y-88240390D01*
X130447352Y-88077875D01*
X130654195Y-87871032D01*
X130770720Y-87696640D01*
X130887245Y-87871032D01*
X131094088Y-88077875D01*
X131337309Y-88240390D01*
X131607562Y-88352332D01*
X131894460Y-88409400D01*
X132186980Y-88409400D01*
X132473878Y-88352332D01*
X132744131Y-88240390D01*
X132987352Y-88077875D01*
X133194195Y-87871032D01*
X133310720Y-87696640D01*
X133427245Y-87871032D01*
X133634088Y-88077875D01*
X133877309Y-88240390D01*
X134147562Y-88352332D01*
X134434460Y-88409400D01*
X134726980Y-88409400D01*
X135013878Y-88352332D01*
X135284131Y-88240390D01*
X135527352Y-88077875D01*
X135734195Y-87871032D01*
X135850720Y-87696640D01*
X135967245Y-87871032D01*
X136174088Y-88077875D01*
X136417309Y-88240390D01*
X136687562Y-88352332D01*
X136974460Y-88409400D01*
X137266980Y-88409400D01*
X137553878Y-88352332D01*
X137824131Y-88240390D01*
X138067352Y-88077875D01*
X138274195Y-87871032D01*
X138390720Y-87696640D01*
X138507245Y-87871032D01*
X138714088Y-88077875D01*
X138957309Y-88240390D01*
X139227562Y-88352332D01*
X139514460Y-88409400D01*
X139806980Y-88409400D01*
X140093878Y-88352332D01*
X140364131Y-88240390D01*
X140607352Y-88077875D01*
X140739207Y-87946020D01*
X140761218Y-88018580D01*
X140820183Y-88128894D01*
X140899535Y-88225585D01*
X140996226Y-88304937D01*
X141106540Y-88363902D01*
X141226238Y-88400212D01*
X141350720Y-88412472D01*
X143050720Y-88412472D01*
X143175202Y-88400212D01*
X143294900Y-88363902D01*
X143405214Y-88304937D01*
X143501905Y-88225585D01*
X143581257Y-88128894D01*
X143640222Y-88018580D01*
X143676532Y-87898882D01*
X143688792Y-87774400D01*
X143688792Y-86074400D01*
X143676532Y-85949918D01*
X143640222Y-85830220D01*
X143581257Y-85719906D01*
X143501905Y-85623215D01*
X143405214Y-85543863D01*
X143294900Y-85484898D01*
X143175202Y-85448588D01*
X143050720Y-85436328D01*
X141350720Y-85436328D01*
X141226238Y-85448588D01*
X141106540Y-85484898D01*
X140996226Y-85543863D01*
X140899535Y-85623215D01*
X140820183Y-85719906D01*
X140761218Y-85830220D01*
X140739207Y-85902780D01*
X140607352Y-85770925D01*
X140364131Y-85608410D01*
X140093878Y-85496468D01*
X139806980Y-85439400D01*
X139514460Y-85439400D01*
X139227562Y-85496468D01*
X138957309Y-85608410D01*
X138714088Y-85770925D01*
X138507245Y-85977768D01*
X138390720Y-86152160D01*
X138274195Y-85977768D01*
X138067352Y-85770925D01*
X137824131Y-85608410D01*
X137553878Y-85496468D01*
X137266980Y-85439400D01*
X136974460Y-85439400D01*
X136687562Y-85496468D01*
X136417309Y-85608410D01*
X136174088Y-85770925D01*
X135967245Y-85977768D01*
X135850720Y-86152160D01*
X135734195Y-85977768D01*
X135527352Y-85770925D01*
X135284131Y-85608410D01*
X135013878Y-85496468D01*
X134726980Y-85439400D01*
X134434460Y-85439400D01*
X134147562Y-85496468D01*
X133877309Y-85608410D01*
X133634088Y-85770925D01*
X133427245Y-85977768D01*
X133310720Y-86152160D01*
X133194195Y-85977768D01*
X132987352Y-85770925D01*
X132744131Y-85608410D01*
X132473878Y-85496468D01*
X132186980Y-85439400D01*
X131894460Y-85439400D01*
X131607562Y-85496468D01*
X131337309Y-85608410D01*
X131094088Y-85770925D01*
X130887245Y-85977768D01*
X130770720Y-86152160D01*
X130654195Y-85977768D01*
X130447352Y-85770925D01*
X130204131Y-85608410D01*
X129933878Y-85496468D01*
X129646980Y-85439400D01*
X129354460Y-85439400D01*
X129067562Y-85496468D01*
X128797309Y-85608410D01*
X128554088Y-85770925D01*
X128347245Y-85977768D01*
X128230720Y-86152160D01*
X128114195Y-85977768D01*
X127907352Y-85770925D01*
X127664131Y-85608410D01*
X127393878Y-85496468D01*
X127106980Y-85439400D01*
X126814460Y-85439400D01*
X126527562Y-85496468D01*
X126257309Y-85608410D01*
X126014088Y-85770925D01*
X125807245Y-85977768D01*
X125690720Y-86152160D01*
X125574195Y-85977768D01*
X125367352Y-85770925D01*
X125124131Y-85608410D01*
X124853878Y-85496468D01*
X124566980Y-85439400D01*
X124274460Y-85439400D01*
X123987562Y-85496468D01*
X123717309Y-85608410D01*
X123474088Y-85770925D01*
X123267245Y-85977768D01*
X123150720Y-86152160D01*
X123034195Y-85977768D01*
X122827352Y-85770925D01*
X122584131Y-85608410D01*
X122313878Y-85496468D01*
X122026980Y-85439400D01*
X121734460Y-85439400D01*
X121447562Y-85496468D01*
X121177309Y-85608410D01*
X120934088Y-85770925D01*
X120727245Y-85977768D01*
X120610720Y-86152160D01*
X120494195Y-85977768D01*
X120287352Y-85770925D01*
X120044131Y-85608410D01*
X119773878Y-85496468D01*
X119486980Y-85439400D01*
X119194460Y-85439400D01*
X118907562Y-85496468D01*
X118637309Y-85608410D01*
X118394088Y-85770925D01*
X118187245Y-85977768D01*
X118070720Y-86152160D01*
X117954195Y-85977768D01*
X117747352Y-85770925D01*
X117504131Y-85608410D01*
X117233878Y-85496468D01*
X116946980Y-85439400D01*
X116654460Y-85439400D01*
X116367562Y-85496468D01*
X116097309Y-85608410D01*
X115854088Y-85770925D01*
X115647245Y-85977768D01*
X115530720Y-86152160D01*
X115414195Y-85977768D01*
X115207352Y-85770925D01*
X114964131Y-85608410D01*
X114693878Y-85496468D01*
X114406980Y-85439400D01*
X114114460Y-85439400D01*
X113827562Y-85496468D01*
X113557309Y-85608410D01*
X113314088Y-85770925D01*
X113107245Y-85977768D01*
X112990720Y-86152160D01*
X112874195Y-85977768D01*
X112667352Y-85770925D01*
X112424131Y-85608410D01*
X112153878Y-85496468D01*
X111866980Y-85439400D01*
X111574460Y-85439400D01*
X111287562Y-85496468D01*
X111017309Y-85608410D01*
X110774088Y-85770925D01*
X110567245Y-85977768D01*
X110445525Y-86159934D01*
X110375898Y-86043045D01*
X110180989Y-85826812D01*
X109947640Y-85652759D01*
X109684819Y-85527575D01*
X109537610Y-85482924D01*
X109307720Y-85604245D01*
X109053720Y-85604245D01*
X108823830Y-85482924D01*
X108676621Y-85527575D01*
X108413800Y-85652759D01*
X108180451Y-85826812D01*
X107985542Y-86043045D01*
X107915915Y-86159934D01*
X107794195Y-85977768D01*
X107587352Y-85770925D01*
X107344131Y-85608410D01*
X107073878Y-85496468D01*
X106786980Y-85439400D01*
X106494460Y-85439400D01*
X106207562Y-85496468D01*
X105937309Y-85608410D01*
X105694088Y-85770925D01*
X105487245Y-85977768D01*
X105324730Y-86220989D01*
X105212788Y-86491242D01*
X105155720Y-86778140D01*
X103872400Y-86778140D01*
X103872400Y-84554980D01*
X153592160Y-84554980D01*
X153592160Y-84847500D01*
X153649228Y-85134398D01*
X153761170Y-85404651D01*
X153923685Y-85647872D01*
X154130528Y-85854715D01*
X154373749Y-86017230D01*
X154644002Y-86129172D01*
X154930900Y-86186240D01*
X155223420Y-86186240D01*
X155510318Y-86129172D01*
X155780571Y-86017230D01*
X156023792Y-85854715D01*
X156148870Y-85729637D01*
X158728368Y-85729637D01*
X158806003Y-85978712D01*
X159070043Y-86104611D01*
X159353571Y-86176579D01*
X159645691Y-86191851D01*
X159935179Y-86149839D01*
X160210907Y-86052159D01*
X160348317Y-85978712D01*
X160425952Y-85729637D01*
X159577160Y-84880845D01*
X158728368Y-85729637D01*
X156148870Y-85729637D01*
X156230635Y-85647872D01*
X156393150Y-85404651D01*
X156505092Y-85134398D01*
X156562160Y-84847500D01*
X156562160Y-84769771D01*
X158086549Y-84769771D01*
X158128561Y-85059259D01*
X158226241Y-85334987D01*
X158299688Y-85472397D01*
X158548763Y-85550032D01*
X159397555Y-84701240D01*
X159756765Y-84701240D01*
X160605557Y-85550032D01*
X160854632Y-85472397D01*
X160980531Y-85208357D01*
X161052499Y-84924829D01*
X161067771Y-84632709D01*
X161025759Y-84343221D01*
X160928079Y-84067493D01*
X160854632Y-83930083D01*
X160605557Y-83852448D01*
X159756765Y-84701240D01*
X159397555Y-84701240D01*
X158548763Y-83852448D01*
X158299688Y-83930083D01*
X158173789Y-84194123D01*
X158101821Y-84477651D01*
X158086549Y-84769771D01*
X156562160Y-84769771D01*
X156562160Y-84554980D01*
X156505092Y-84268082D01*
X156393150Y-83997829D01*
X156230635Y-83754608D01*
X156148870Y-83672843D01*
X158728368Y-83672843D01*
X159577160Y-84521635D01*
X160425952Y-83672843D01*
X160348317Y-83423768D01*
X160084277Y-83297869D01*
X159800749Y-83225901D01*
X159508629Y-83210629D01*
X159219141Y-83252641D01*
X158943413Y-83350321D01*
X158806003Y-83423768D01*
X158728368Y-83672843D01*
X156148870Y-83672843D01*
X156023792Y-83547765D01*
X155780571Y-83385250D01*
X155510318Y-83273308D01*
X155223420Y-83216240D01*
X154930900Y-83216240D01*
X154644002Y-83273308D01*
X154373749Y-83385250D01*
X154130528Y-83547765D01*
X153923685Y-83754608D01*
X153761170Y-83997829D01*
X153649228Y-84268082D01*
X153592160Y-84554980D01*
X103872400Y-84554980D01*
X103872400Y-84322239D01*
X103901025Y-84030301D01*
X103976435Y-83780531D01*
X104098922Y-83550168D01*
X104263822Y-83347980D01*
X104464850Y-83181674D01*
X104694354Y-83057582D01*
X104943595Y-82980429D01*
X105233488Y-82949960D01*
X196180121Y-82949960D01*
X196472059Y-82978585D01*
G04 #@! TA.AperFunction,Conductor*
D18*
G36*
X196472059Y-82978585D02*
G01*
X196721829Y-83053995D01*
X196952192Y-83176482D01*
X197154380Y-83341382D01*
X197320686Y-83542410D01*
X197444778Y-83771914D01*
X197521931Y-84021155D01*
X197552401Y-84311058D01*
X197552400Y-115257681D01*
X197523775Y-115549620D01*
X197448365Y-115799389D01*
X197325877Y-116029754D01*
X197160979Y-116231939D01*
X196959946Y-116398248D01*
X196730446Y-116522338D01*
X196481205Y-116599491D01*
X196191311Y-116629960D01*
X105244679Y-116629960D01*
X104952740Y-116601335D01*
X104702971Y-116525925D01*
X104472606Y-116403437D01*
X104270421Y-116238539D01*
X104104112Y-116037506D01*
X103980022Y-115808006D01*
X103902869Y-115558765D01*
X103872400Y-115268871D01*
X103872400Y-114651580D01*
X153592160Y-114651580D01*
X153592160Y-114944100D01*
X153649228Y-115230998D01*
X153761170Y-115501251D01*
X153923685Y-115744472D01*
X154130528Y-115951315D01*
X154373749Y-116113830D01*
X154644002Y-116225772D01*
X154930900Y-116282840D01*
X155223420Y-116282840D01*
X155510318Y-116225772D01*
X155780571Y-116113830D01*
X156023792Y-115951315D01*
X156148870Y-115826237D01*
X158728368Y-115826237D01*
X158806003Y-116075312D01*
X159070043Y-116201211D01*
X159353571Y-116273179D01*
X159645691Y-116288451D01*
X159935179Y-116246439D01*
X160210907Y-116148759D01*
X160348317Y-116075312D01*
X160425952Y-115826237D01*
X159577160Y-114977445D01*
X158728368Y-115826237D01*
X156148870Y-115826237D01*
X156230635Y-115744472D01*
X156393150Y-115501251D01*
X156505092Y-115230998D01*
X156562160Y-114944100D01*
X156562160Y-114866371D01*
X158086549Y-114866371D01*
X158128561Y-115155859D01*
X158226241Y-115431587D01*
X158299688Y-115568997D01*
X158548763Y-115646632D01*
X159397555Y-114797840D01*
X159756765Y-114797840D01*
X160605557Y-115646632D01*
X160854632Y-115568997D01*
X160980531Y-115304957D01*
X161052499Y-115021429D01*
X161067771Y-114729309D01*
X161025759Y-114439821D01*
X160928079Y-114164093D01*
X160854632Y-114026683D01*
X160605557Y-113949048D01*
X159756765Y-114797840D01*
X159397555Y-114797840D01*
X158548763Y-113949048D01*
X158299688Y-114026683D01*
X158173789Y-114290723D01*
X158101821Y-114574251D01*
X158086549Y-114866371D01*
X156562160Y-114866371D01*
X156562160Y-114651580D01*
X156505092Y-114364682D01*
X156393150Y-114094429D01*
X156230635Y-113851208D01*
X156148870Y-113769443D01*
X158728368Y-113769443D01*
X159577160Y-114618235D01*
X160425952Y-113769443D01*
X160348317Y-113520368D01*
X160084277Y-113394469D01*
X159800749Y-113322501D01*
X159508629Y-113307229D01*
X159219141Y-113349241D01*
X158943413Y-113446921D01*
X158806003Y-113520368D01*
X158728368Y-113769443D01*
X156148870Y-113769443D01*
X156023792Y-113644365D01*
X155780571Y-113481850D01*
X155510318Y-113369908D01*
X155223420Y-113312840D01*
X154930900Y-113312840D01*
X154644002Y-113369908D01*
X154373749Y-113481850D01*
X154130528Y-113644365D01*
X153923685Y-113851208D01*
X153761170Y-114094429D01*
X153649228Y-114364682D01*
X153592160Y-114651580D01*
X103872400Y-114651580D01*
X103872400Y-112178140D01*
X105155720Y-112178140D01*
X105155720Y-112470660D01*
X105212788Y-112757558D01*
X105324730Y-113027811D01*
X105487245Y-113271032D01*
X105694088Y-113477875D01*
X105937309Y-113640390D01*
X106207562Y-113752332D01*
X106494460Y-113809400D01*
X106786980Y-113809400D01*
X107073878Y-113752332D01*
X107344131Y-113640390D01*
X107587352Y-113477875D01*
X107794195Y-113271032D01*
X107915915Y-113088866D01*
X107985542Y-113205755D01*
X108180451Y-113421988D01*
X108413800Y-113596041D01*
X108676621Y-113721225D01*
X108823830Y-113765876D01*
X109053720Y-113644555D01*
X109053720Y-112451400D01*
X109033720Y-112451400D01*
X109033720Y-112197400D01*
X109053720Y-112197400D01*
X109053720Y-111004245D01*
X109307720Y-111004245D01*
X109307720Y-112197400D01*
X109327720Y-112197400D01*
X109327720Y-112451400D01*
X109307720Y-112451400D01*
X109307720Y-113644555D01*
X109537610Y-113765876D01*
X109684819Y-113721225D01*
X109947640Y-113596041D01*
X110180989Y-113421988D01*
X110375898Y-113205755D01*
X110445525Y-113088866D01*
X110567245Y-113271032D01*
X110774088Y-113477875D01*
X111017309Y-113640390D01*
X111287562Y-113752332D01*
X111574460Y-113809400D01*
X111866980Y-113809400D01*
X112153878Y-113752332D01*
X112424131Y-113640390D01*
X112667352Y-113477875D01*
X112874195Y-113271032D01*
X112990720Y-113096640D01*
X113107245Y-113271032D01*
X113314088Y-113477875D01*
X113557309Y-113640390D01*
X113827562Y-113752332D01*
X114114460Y-113809400D01*
X114406980Y-113809400D01*
X114693878Y-113752332D01*
X114964131Y-113640390D01*
X115207352Y-113477875D01*
X115414195Y-113271032D01*
X115530720Y-113096640D01*
X115647245Y-113271032D01*
X115854088Y-113477875D01*
X116097309Y-113640390D01*
X116367562Y-113752332D01*
X116654460Y-113809400D01*
X116946980Y-113809400D01*
X117233878Y-113752332D01*
X117504131Y-113640390D01*
X117747352Y-113477875D01*
X117954195Y-113271032D01*
X118070720Y-113096640D01*
X118187245Y-113271032D01*
X118394088Y-113477875D01*
X118637309Y-113640390D01*
X118907562Y-113752332D01*
X119194460Y-113809400D01*
X119486980Y-113809400D01*
X119773878Y-113752332D01*
X120044131Y-113640390D01*
X120287352Y-113477875D01*
X120494195Y-113271032D01*
X120610720Y-113096640D01*
X120727245Y-113271032D01*
X120934088Y-113477875D01*
X121177309Y-113640390D01*
X121447562Y-113752332D01*
X121734460Y-113809400D01*
X122026980Y-113809400D01*
X122313878Y-113752332D01*
X122584131Y-113640390D01*
X122827352Y-113477875D01*
X123034195Y-113271032D01*
X123150720Y-113096640D01*
X123267245Y-113271032D01*
X123474088Y-113477875D01*
X123717309Y-113640390D01*
X123987562Y-113752332D01*
X124274460Y-113809400D01*
X124566980Y-113809400D01*
X124853878Y-113752332D01*
X125124131Y-113640390D01*
X125367352Y-113477875D01*
X125574195Y-113271032D01*
X125690720Y-113096640D01*
X125807245Y-113271032D01*
X126014088Y-113477875D01*
X126257309Y-113640390D01*
X126527562Y-113752332D01*
X126814460Y-113809400D01*
X127106980Y-113809400D01*
X127393878Y-113752332D01*
X127664131Y-113640390D01*
X127907352Y-113477875D01*
X128114195Y-113271032D01*
X128230720Y-113096640D01*
X128347245Y-113271032D01*
X128554088Y-113477875D01*
X128797309Y-113640390D01*
X129067562Y-113752332D01*
X129354460Y-113809400D01*
X129646980Y-113809400D01*
X129933878Y-113752332D01*
X130204131Y-113640390D01*
X130447352Y-113477875D01*
X130654195Y-113271032D01*
X130770720Y-113096640D01*
X130887245Y-113271032D01*
X131094088Y-113477875D01*
X131337309Y-113640390D01*
X131607562Y-113752332D01*
X131894460Y-113809400D01*
X132186980Y-113809400D01*
X132473878Y-113752332D01*
X132744131Y-113640390D01*
X132987352Y-113477875D01*
X133194195Y-113271032D01*
X133310720Y-113096640D01*
X133427245Y-113271032D01*
X133634088Y-113477875D01*
X133877309Y-113640390D01*
X134147562Y-113752332D01*
X134434460Y-113809400D01*
X134726980Y-113809400D01*
X135013878Y-113752332D01*
X135284131Y-113640390D01*
X135527352Y-113477875D01*
X135734195Y-113271032D01*
X135850720Y-113096640D01*
X135967245Y-113271032D01*
X136174088Y-113477875D01*
X136417309Y-113640390D01*
X136687562Y-113752332D01*
X136974460Y-113809400D01*
X137266980Y-113809400D01*
X137553878Y-113752332D01*
X137824131Y-113640390D01*
X138067352Y-113477875D01*
X138274195Y-113271032D01*
X138390720Y-113096640D01*
X138507245Y-113271032D01*
X138714088Y-113477875D01*
X138957309Y-113640390D01*
X139227562Y-113752332D01*
X139514460Y-113809400D01*
X139806980Y-113809400D01*
X140093878Y-113752332D01*
X140364131Y-113640390D01*
X140607352Y-113477875D01*
X140739207Y-113346020D01*
X140761218Y-113418580D01*
X140820183Y-113528894D01*
X140899535Y-113625585D01*
X140996226Y-113704937D01*
X141106540Y-113763902D01*
X141226238Y-113800212D01*
X141350720Y-113812472D01*
X143050720Y-113812472D01*
X143175202Y-113800212D01*
X143294900Y-113763902D01*
X143405214Y-113704937D01*
X143501905Y-113625585D01*
X143581257Y-113528894D01*
X143640222Y-113418580D01*
X143676532Y-113298882D01*
X143688792Y-113174400D01*
X143688792Y-111474400D01*
X143676532Y-111349918D01*
X143640222Y-111230220D01*
X143581257Y-111119906D01*
X143501905Y-111023215D01*
X143405214Y-110943863D01*
X143294900Y-110884898D01*
X143175202Y-110848588D01*
X143050720Y-110836328D01*
X141350720Y-110836328D01*
X141226238Y-110848588D01*
X141106540Y-110884898D01*
X140996226Y-110943863D01*
X140899535Y-111023215D01*
X140820183Y-111119906D01*
X140761218Y-111230220D01*
X140739207Y-111302780D01*
X140607352Y-111170925D01*
X140364131Y-111008410D01*
X140093878Y-110896468D01*
X139806980Y-110839400D01*
X139514460Y-110839400D01*
X139227562Y-110896468D01*
X138957309Y-111008410D01*
X138714088Y-111170925D01*
X138507245Y-111377768D01*
X138390720Y-111552160D01*
X138274195Y-111377768D01*
X138067352Y-111170925D01*
X137824131Y-111008410D01*
X137553878Y-110896468D01*
X137266980Y-110839400D01*
X136974460Y-110839400D01*
X136687562Y-110896468D01*
X136417309Y-111008410D01*
X136174088Y-111170925D01*
X135967245Y-111377768D01*
X135850720Y-111552160D01*
X135734195Y-111377768D01*
X135527352Y-111170925D01*
X135284131Y-111008410D01*
X135013878Y-110896468D01*
X134726980Y-110839400D01*
X134434460Y-110839400D01*
X134147562Y-110896468D01*
X133877309Y-111008410D01*
X133634088Y-111170925D01*
X133427245Y-111377768D01*
X133310720Y-111552160D01*
X133194195Y-111377768D01*
X132987352Y-111170925D01*
X132744131Y-111008410D01*
X132473878Y-110896468D01*
X132186980Y-110839400D01*
X131894460Y-110839400D01*
X131607562Y-110896468D01*
X131337309Y-111008410D01*
X131094088Y-111170925D01*
X130887245Y-111377768D01*
X130770720Y-111552160D01*
X130654195Y-111377768D01*
X130447352Y-111170925D01*
X130204131Y-111008410D01*
X129933878Y-110896468D01*
X129646980Y-110839400D01*
X129354460Y-110839400D01*
X129067562Y-110896468D01*
X128797309Y-111008410D01*
X128554088Y-111170925D01*
X128347245Y-111377768D01*
X128230720Y-111552160D01*
X128114195Y-111377768D01*
X127907352Y-111170925D01*
X127664131Y-111008410D01*
X127393878Y-110896468D01*
X127106980Y-110839400D01*
X126814460Y-110839400D01*
X126527562Y-110896468D01*
X126257309Y-111008410D01*
X126014088Y-111170925D01*
X125807245Y-111377768D01*
X125690720Y-111552160D01*
X125574195Y-111377768D01*
X125367352Y-111170925D01*
X125124131Y-111008410D01*
X124853878Y-110896468D01*
X124566980Y-110839400D01*
X124274460Y-110839400D01*
X123987562Y-110896468D01*
X123717309Y-111008410D01*
X123474088Y-111170925D01*
X123267245Y-111377768D01*
X123150720Y-111552160D01*
X123034195Y-111377768D01*
X122827352Y-111170925D01*
X122584131Y-111008410D01*
X122313878Y-110896468D01*
X122026980Y-110839400D01*
X121734460Y-110839400D01*
X121447562Y-110896468D01*
X121177309Y-111008410D01*
X120934088Y-111170925D01*
X120727245Y-111377768D01*
X120610720Y-111552160D01*
X120494195Y-111377768D01*
X120287352Y-111170925D01*
X120044131Y-111008410D01*
X119773878Y-110896468D01*
X119486980Y-110839400D01*
X119194460Y-110839400D01*
X118907562Y-110896468D01*
X118637309Y-111008410D01*
X118394088Y-111170925D01*
X118187245Y-111377768D01*
X118070720Y-111552160D01*
X117954195Y-111377768D01*
X117747352Y-111170925D01*
X117504131Y-111008410D01*
X117233878Y-110896468D01*
X116946980Y-110839400D01*
X116654460Y-110839400D01*
X116367562Y-110896468D01*
X116097309Y-111008410D01*
X115854088Y-111170925D01*
X115647245Y-111377768D01*
X115530720Y-111552160D01*
X115414195Y-111377768D01*
X115207352Y-111170925D01*
X114964131Y-111008410D01*
X114693878Y-110896468D01*
X114406980Y-110839400D01*
X114114460Y-110839400D01*
X113827562Y-110896468D01*
X113557309Y-111008410D01*
X113314088Y-111170925D01*
X113107245Y-111377768D01*
X112990720Y-111552160D01*
X112874195Y-111377768D01*
X112667352Y-111170925D01*
X112424131Y-111008410D01*
X112153878Y-110896468D01*
X111866980Y-110839400D01*
X111574460Y-110839400D01*
X111287562Y-110896468D01*
X111017309Y-111008410D01*
X110774088Y-111170925D01*
X110567245Y-111377768D01*
X110445525Y-111559934D01*
X110375898Y-111443045D01*
X110180989Y-111226812D01*
X109947640Y-111052759D01*
X109684819Y-110927575D01*
X109537610Y-110882924D01*
X109307720Y-111004245D01*
X109053720Y-111004245D01*
X108823830Y-110882924D01*
X108676621Y-110927575D01*
X108413800Y-111052759D01*
X108180451Y-111226812D01*
X107985542Y-111443045D01*
X107915915Y-111559934D01*
X107794195Y-111377768D01*
X107587352Y-111170925D01*
X107344131Y-111008410D01*
X107073878Y-110896468D01*
X106786980Y-110839400D01*
X106494460Y-110839400D01*
X106207562Y-110896468D01*
X105937309Y-111008410D01*
X105694088Y-111170925D01*
X105487245Y-111377768D01*
X105324730Y-111620989D01*
X105212788Y-111891242D01*
X105155720Y-112178140D01*
X103872400Y-112178140D01*
X103872400Y-108803101D01*
X106544160Y-108803101D01*
X106544160Y-109006979D01*
X106583934Y-109206938D01*
X106661955Y-109395296D01*
X106775223Y-109564814D01*
X106919386Y-109708977D01*
X107088904Y-109822245D01*
X107277262Y-109900266D01*
X107477221Y-109940040D01*
X107681099Y-109940040D01*
X107881058Y-109900266D01*
X108069416Y-109822245D01*
X108238934Y-109708977D01*
X108383097Y-109564814D01*
X108496365Y-109395296D01*
X108574386Y-109206938D01*
X108614160Y-109006979D01*
X108614160Y-108803101D01*
X108574386Y-108603142D01*
X108496365Y-108414784D01*
X108383097Y-108245266D01*
X108364160Y-108226329D01*
X108364160Y-108151580D01*
X153592160Y-108151580D01*
X153592160Y-108444100D01*
X153649228Y-108730998D01*
X153761170Y-109001251D01*
X153923685Y-109244472D01*
X154130528Y-109451315D01*
X154373749Y-109613830D01*
X154644002Y-109725772D01*
X154930900Y-109782840D01*
X155223420Y-109782840D01*
X155510318Y-109725772D01*
X155780571Y-109613830D01*
X156023792Y-109451315D01*
X156148870Y-109326237D01*
X158728368Y-109326237D01*
X158806003Y-109575312D01*
X159070043Y-109701211D01*
X159353571Y-109773179D01*
X159645691Y-109788451D01*
X159935179Y-109746439D01*
X160210907Y-109648759D01*
X160348317Y-109575312D01*
X160425952Y-109326237D01*
X159577160Y-108477445D01*
X158728368Y-109326237D01*
X156148870Y-109326237D01*
X156230635Y-109244472D01*
X156393150Y-109001251D01*
X156505092Y-108730998D01*
X156562160Y-108444100D01*
X156562160Y-108366371D01*
X158086549Y-108366371D01*
X158128561Y-108655859D01*
X158226241Y-108931587D01*
X158299688Y-109068997D01*
X158548763Y-109146632D01*
X159397555Y-108297840D01*
X159756765Y-108297840D01*
X160605557Y-109146632D01*
X160854632Y-109068997D01*
X160980531Y-108804957D01*
X161052499Y-108521429D01*
X161067771Y-108229309D01*
X161025759Y-107939821D01*
X160928079Y-107664093D01*
X160854632Y-107526683D01*
X160605557Y-107449048D01*
X159756765Y-108297840D01*
X159397555Y-108297840D01*
X158548763Y-107449048D01*
X158299688Y-107526683D01*
X158173789Y-107790723D01*
X158101821Y-108074251D01*
X158086549Y-108366371D01*
X156562160Y-108366371D01*
X156562160Y-108151580D01*
X156505092Y-107864682D01*
X156393150Y-107594429D01*
X156230635Y-107351208D01*
X156148870Y-107269443D01*
X158728368Y-107269443D01*
X159577160Y-108118235D01*
X160425952Y-107269443D01*
X160348317Y-107020368D01*
X160084277Y-106894469D01*
X159800749Y-106822501D01*
X159508629Y-106807229D01*
X159219141Y-106849241D01*
X158943413Y-106946921D01*
X158806003Y-107020368D01*
X158728368Y-107269443D01*
X156148870Y-107269443D01*
X156023792Y-107144365D01*
X155780571Y-106981850D01*
X155510318Y-106869908D01*
X155223420Y-106812840D01*
X154930900Y-106812840D01*
X154644002Y-106869908D01*
X154373749Y-106981850D01*
X154130528Y-107144365D01*
X153923685Y-107351208D01*
X153761170Y-107594429D01*
X153649228Y-107864682D01*
X153592160Y-108151580D01*
X108364160Y-108151580D01*
X108364160Y-104645991D01*
X108390717Y-104619434D01*
X108503985Y-104449916D01*
X108582006Y-104261558D01*
X108621780Y-104061599D01*
X108621780Y-103857721D01*
X108582006Y-103657762D01*
X108503985Y-103469404D01*
X108390717Y-103299886D01*
X108246554Y-103155723D01*
X108077036Y-103042455D01*
X107888678Y-102964434D01*
X107688719Y-102924660D01*
X107484841Y-102924660D01*
X107284882Y-102964434D01*
X107096524Y-103042455D01*
X106927006Y-103155723D01*
X106782843Y-103299886D01*
X106669575Y-103469404D01*
X106591554Y-103657762D01*
X106551780Y-103857721D01*
X106551780Y-104061599D01*
X106591554Y-104261558D01*
X106669575Y-104449916D01*
X106782843Y-104619434D01*
X106794161Y-104630752D01*
X106794160Y-108226329D01*
X106775223Y-108245266D01*
X106661955Y-108414784D01*
X106583934Y-108603142D01*
X106544160Y-108803101D01*
X103872400Y-108803101D01*
X103872400Y-91054980D01*
X153592160Y-91054980D01*
X153592160Y-91347500D01*
X153649228Y-91634398D01*
X153761170Y-91904651D01*
X153923685Y-92147872D01*
X154130528Y-92354715D01*
X154373749Y-92517230D01*
X154644002Y-92629172D01*
X154930900Y-92686240D01*
X155223420Y-92686240D01*
X155510318Y-92629172D01*
X155780571Y-92517230D01*
X156023792Y-92354715D01*
X156148870Y-92229637D01*
X158728368Y-92229637D01*
X158806003Y-92478712D01*
X159070043Y-92604611D01*
X159353571Y-92676579D01*
X159645691Y-92691851D01*
X159935179Y-92649839D01*
X160210907Y-92552159D01*
X160348317Y-92478712D01*
X160425952Y-92229637D01*
X159577160Y-91380845D01*
X158728368Y-92229637D01*
X156148870Y-92229637D01*
X156230635Y-92147872D01*
X156393150Y-91904651D01*
X156505092Y-91634398D01*
X156562160Y-91347500D01*
X156562160Y-91269771D01*
X158086549Y-91269771D01*
X158128561Y-91559259D01*
X158226241Y-91834987D01*
X158299688Y-91972397D01*
X158548763Y-92050032D01*
X159397555Y-91201240D01*
X159756765Y-91201240D01*
X160605557Y-92050032D01*
X160836206Y-91978140D01*
X166911920Y-91978140D01*
X166911920Y-92270660D01*
X166968988Y-92557558D01*
X167080930Y-92827811D01*
X167243445Y-93071032D01*
X167450288Y-93277875D01*
X167693509Y-93440390D01*
X167963762Y-93552332D01*
X168250660Y-93609400D01*
X168543180Y-93609400D01*
X168830078Y-93552332D01*
X169100331Y-93440390D01*
X169343552Y-93277875D01*
X169550395Y-93071032D01*
X169666920Y-92896640D01*
X169783445Y-93071032D01*
X169990288Y-93277875D01*
X170233509Y-93440390D01*
X170503762Y-93552332D01*
X170790660Y-93609400D01*
X171083180Y-93609400D01*
X171370078Y-93552332D01*
X171640331Y-93440390D01*
X171883552Y-93277875D01*
X172090395Y-93071032D01*
X172206920Y-92896640D01*
X172323445Y-93071032D01*
X172530288Y-93277875D01*
X172773509Y-93440390D01*
X173043762Y-93552332D01*
X173330660Y-93609400D01*
X173623180Y-93609400D01*
X173910078Y-93552332D01*
X174180331Y-93440390D01*
X174423552Y-93277875D01*
X174630395Y-93071032D01*
X174746920Y-92896640D01*
X174863445Y-93071032D01*
X175070288Y-93277875D01*
X175313509Y-93440390D01*
X175583762Y-93552332D01*
X175870660Y-93609400D01*
X176163180Y-93609400D01*
X176450078Y-93552332D01*
X176720331Y-93440390D01*
X176963552Y-93277875D01*
X177170395Y-93071032D01*
X177286920Y-92896640D01*
X177403445Y-93071032D01*
X177610288Y-93277875D01*
X177853509Y-93440390D01*
X178123762Y-93552332D01*
X178410660Y-93609400D01*
X178703180Y-93609400D01*
X178990078Y-93552332D01*
X179260331Y-93440390D01*
X179503552Y-93277875D01*
X179710395Y-93071032D01*
X179826920Y-92896640D01*
X179943445Y-93071032D01*
X180150288Y-93277875D01*
X180393509Y-93440390D01*
X180663762Y-93552332D01*
X180950660Y-93609400D01*
X181243180Y-93609400D01*
X181530078Y-93552332D01*
X181800331Y-93440390D01*
X182043552Y-93277875D01*
X182250395Y-93071032D01*
X182366920Y-92896640D01*
X182483445Y-93071032D01*
X182690288Y-93277875D01*
X182933509Y-93440390D01*
X183203762Y-93552332D01*
X183490660Y-93609400D01*
X183783180Y-93609400D01*
X184070078Y-93552332D01*
X184340331Y-93440390D01*
X184583552Y-93277875D01*
X184790395Y-93071032D01*
X184906920Y-92896640D01*
X185023445Y-93071032D01*
X185230288Y-93277875D01*
X185473509Y-93440390D01*
X185743762Y-93552332D01*
X186030660Y-93609400D01*
X186323180Y-93609400D01*
X186610078Y-93552332D01*
X186880331Y-93440390D01*
X187123552Y-93277875D01*
X187330395Y-93071032D01*
X187452115Y-92888866D01*
X187521742Y-93005755D01*
X187716651Y-93221988D01*
X187950000Y-93396041D01*
X188212821Y-93521225D01*
X188360030Y-93565876D01*
X188589920Y-93444555D01*
X188589920Y-92251400D01*
X188569920Y-92251400D01*
X188569920Y-91997400D01*
X188589920Y-91997400D01*
X188589920Y-90804245D01*
X188843920Y-90804245D01*
X188843920Y-91997400D01*
X188863920Y-91997400D01*
X188863920Y-92251400D01*
X188843920Y-92251400D01*
X188843920Y-93444555D01*
X189073810Y-93565876D01*
X189221019Y-93521225D01*
X189483840Y-93396041D01*
X189717189Y-93221988D01*
X189792954Y-93137934D01*
X189817418Y-93218580D01*
X189876383Y-93328894D01*
X189955735Y-93425585D01*
X190052426Y-93504937D01*
X190162740Y-93563902D01*
X190282438Y-93600212D01*
X190406920Y-93612472D01*
X192106920Y-93612472D01*
X192231402Y-93600212D01*
X192351100Y-93563902D01*
X192461414Y-93504937D01*
X192558105Y-93425585D01*
X192637457Y-93328894D01*
X192696422Y-93218580D01*
X192732732Y-93098882D01*
X192744992Y-92974400D01*
X192744992Y-91274400D01*
X192732732Y-91149918D01*
X192696422Y-91030220D01*
X192637457Y-90919906D01*
X192558105Y-90823215D01*
X192461414Y-90743863D01*
X192351100Y-90684898D01*
X192231402Y-90648588D01*
X192106920Y-90636328D01*
X190406920Y-90636328D01*
X190282438Y-90648588D01*
X190162740Y-90684898D01*
X190052426Y-90743863D01*
X189955735Y-90823215D01*
X189876383Y-90919906D01*
X189817418Y-91030220D01*
X189792954Y-91110866D01*
X189717189Y-91026812D01*
X189483840Y-90852759D01*
X189221019Y-90727575D01*
X189073810Y-90682924D01*
X188843920Y-90804245D01*
X188589920Y-90804245D01*
X188360030Y-90682924D01*
X188212821Y-90727575D01*
X187950000Y-90852759D01*
X187716651Y-91026812D01*
X187521742Y-91243045D01*
X187452115Y-91359934D01*
X187330395Y-91177768D01*
X187123552Y-90970925D01*
X186880331Y-90808410D01*
X186610078Y-90696468D01*
X186323180Y-90639400D01*
X186030660Y-90639400D01*
X185743762Y-90696468D01*
X185473509Y-90808410D01*
X185230288Y-90970925D01*
X185023445Y-91177768D01*
X184906920Y-91352160D01*
X184790395Y-91177768D01*
X184583552Y-90970925D01*
X184340331Y-90808410D01*
X184070078Y-90696468D01*
X183783180Y-90639400D01*
X183490660Y-90639400D01*
X183203762Y-90696468D01*
X182933509Y-90808410D01*
X182690288Y-90970925D01*
X182483445Y-91177768D01*
X182366920Y-91352160D01*
X182250395Y-91177768D01*
X182043552Y-90970925D01*
X181800331Y-90808410D01*
X181530078Y-90696468D01*
X181243180Y-90639400D01*
X180950660Y-90639400D01*
X180663762Y-90696468D01*
X180393509Y-90808410D01*
X180150288Y-90970925D01*
X179943445Y-91177768D01*
X179826920Y-91352160D01*
X179710395Y-91177768D01*
X179503552Y-90970925D01*
X179260331Y-90808410D01*
X178990078Y-90696468D01*
X178703180Y-90639400D01*
X178410660Y-90639400D01*
X178123762Y-90696468D01*
X177853509Y-90808410D01*
X177610288Y-90970925D01*
X177403445Y-91177768D01*
X177286920Y-91352160D01*
X177170395Y-91177768D01*
X176963552Y-90970925D01*
X176720331Y-90808410D01*
X176450078Y-90696468D01*
X176163180Y-90639400D01*
X175870660Y-90639400D01*
X175583762Y-90696468D01*
X175313509Y-90808410D01*
X175070288Y-90970925D01*
X174863445Y-91177768D01*
X174746920Y-91352160D01*
X174630395Y-91177768D01*
X174423552Y-90970925D01*
X174180331Y-90808410D01*
X173910078Y-90696468D01*
X173623180Y-90639400D01*
X173330660Y-90639400D01*
X173043762Y-90696468D01*
X172773509Y-90808410D01*
X172530288Y-90970925D01*
X172323445Y-91177768D01*
X172206920Y-91352160D01*
X172090395Y-91177768D01*
X171883552Y-90970925D01*
X171640331Y-90808410D01*
X171370078Y-90696468D01*
X171083180Y-90639400D01*
X170790660Y-90639400D01*
X170503762Y-90696468D01*
X170233509Y-90808410D01*
X169990288Y-90970925D01*
X169783445Y-91177768D01*
X169666920Y-91352160D01*
X169550395Y-91177768D01*
X169343552Y-90970925D01*
X169100331Y-90808410D01*
X168830078Y-90696468D01*
X168543180Y-90639400D01*
X168250660Y-90639400D01*
X167963762Y-90696468D01*
X167693509Y-90808410D01*
X167450288Y-90970925D01*
X167243445Y-91177768D01*
X167080930Y-91420989D01*
X166968988Y-91691242D01*
X166911920Y-91978140D01*
X160836206Y-91978140D01*
X160854632Y-91972397D01*
X160980531Y-91708357D01*
X161052499Y-91424829D01*
X161067771Y-91132709D01*
X161025759Y-90843221D01*
X160928079Y-90567493D01*
X160854632Y-90430083D01*
X160605557Y-90352448D01*
X159756765Y-91201240D01*
X159397555Y-91201240D01*
X158548763Y-90352448D01*
X158299688Y-90430083D01*
X158173789Y-90694123D01*
X158101821Y-90977651D01*
X158086549Y-91269771D01*
X156562160Y-91269771D01*
X156562160Y-91054980D01*
X156505092Y-90768082D01*
X156393150Y-90497829D01*
X156230635Y-90254608D01*
X156148870Y-90172843D01*
X158728368Y-90172843D01*
X159577160Y-91021635D01*
X160425952Y-90172843D01*
X160348317Y-89923768D01*
X160084277Y-89797869D01*
X159800749Y-89725901D01*
X159508629Y-89710629D01*
X159219141Y-89752641D01*
X158943413Y-89850321D01*
X158806003Y-89923768D01*
X158728368Y-90172843D01*
X156148870Y-90172843D01*
X156023792Y-90047765D01*
X155780571Y-89885250D01*
X155510318Y-89773308D01*
X155223420Y-89716240D01*
X154930900Y-89716240D01*
X154644002Y-89773308D01*
X154373749Y-89885250D01*
X154130528Y-90047765D01*
X153923685Y-90254608D01*
X153761170Y-90497829D01*
X153649228Y-90768082D01*
X153592160Y-91054980D01*
X103872400Y-91054980D01*
X103872400Y-86778140D01*
X105155720Y-86778140D01*
X105155720Y-87070660D01*
X105212788Y-87357558D01*
X105324730Y-87627811D01*
X105487245Y-87871032D01*
X105694088Y-88077875D01*
X105937309Y-88240390D01*
X106207562Y-88352332D01*
X106494460Y-88409400D01*
X106786980Y-88409400D01*
X107073878Y-88352332D01*
X107344131Y-88240390D01*
X107587352Y-88077875D01*
X107794195Y-87871032D01*
X107915915Y-87688866D01*
X107985542Y-87805755D01*
X108180451Y-88021988D01*
X108413800Y-88196041D01*
X108676621Y-88321225D01*
X108823830Y-88365876D01*
X109053720Y-88244555D01*
X109053720Y-87051400D01*
X109033720Y-87051400D01*
X109033720Y-86797400D01*
X109053720Y-86797400D01*
X109053720Y-85604245D01*
X109307720Y-85604245D01*
X109307720Y-86797400D01*
X109327720Y-86797400D01*
X109327720Y-87051400D01*
X109307720Y-87051400D01*
X109307720Y-88244555D01*
X109537610Y-88365876D01*
X109684819Y-88321225D01*
X109947640Y-88196041D01*
X110180989Y-88021988D01*
X110375898Y-87805755D01*
X110445525Y-87688866D01*
X110567245Y-87871032D01*
X110774088Y-88077875D01*
X111017309Y-88240390D01*
X111287562Y-88352332D01*
X111574460Y-88409400D01*
X111866980Y-88409400D01*
X112153878Y-88352332D01*
X112424131Y-88240390D01*
X112667352Y-88077875D01*
X112874195Y-87871032D01*
X112990720Y-87696640D01*
X113107245Y-87871032D01*
X113314088Y-88077875D01*
X113557309Y-88240390D01*
X113827562Y-88352332D01*
X114114460Y-88409400D01*
X114406980Y-88409400D01*
X114693878Y-88352332D01*
X114964131Y-88240390D01*
X115207352Y-88077875D01*
X115414195Y-87871032D01*
X115530720Y-87696640D01*
X115647245Y-87871032D01*
X115854088Y-88077875D01*
X116097309Y-88240390D01*
X116367562Y-88352332D01*
X116654460Y-88409400D01*
X116946980Y-88409400D01*
X117233878Y-88352332D01*
X117504131Y-88240390D01*
X117747352Y-88077875D01*
X117954195Y-87871032D01*
X118070720Y-87696640D01*
X118187245Y-87871032D01*
X118394088Y-88077875D01*
X118637309Y-88240390D01*
X118907562Y-88352332D01*
X119194460Y-88409400D01*
X119486980Y-88409400D01*
X119773878Y-88352332D01*
X120044131Y-88240390D01*
X120287352Y-88077875D01*
X120494195Y-87871032D01*
X120610720Y-87696640D01*
X120727245Y-87871032D01*
X120934088Y-88077875D01*
X121177309Y-88240390D01*
X121447562Y-88352332D01*
X121734460Y-88409400D01*
X122026980Y-88409400D01*
X122313878Y-88352332D01*
X122584131Y-88240390D01*
X122827352Y-88077875D01*
X123034195Y-87871032D01*
X123150720Y-87696640D01*
X123267245Y-87871032D01*
X123474088Y-88077875D01*
X123717309Y-88240390D01*
X123987562Y-88352332D01*
X124274460Y-88409400D01*
X124566980Y-88409400D01*
X124853878Y-88352332D01*
X125124131Y-88240390D01*
X125367352Y-88077875D01*
X125574195Y-87871032D01*
X125690720Y-87696640D01*
X125807245Y-87871032D01*
X126014088Y-88077875D01*
X126257309Y-88240390D01*
X126527562Y-88352332D01*
X126814460Y-88409400D01*
X127106980Y-88409400D01*
X127393878Y-88352332D01*
X127664131Y-88240390D01*
X127907352Y-88077875D01*
X128114195Y-87871032D01*
X128230720Y-87696640D01*
X128347245Y-87871032D01*
X128554088Y-88077875D01*
X128797309Y-88240390D01*
X129067562Y-88352332D01*
X129354460Y-88409400D01*
X129646980Y-88409400D01*
X129933878Y-88352332D01*
X130204131Y-88240390D01*
X130447352Y-88077875D01*
X130654195Y-87871032D01*
X130770720Y-87696640D01*
X130887245Y-87871032D01*
X131094088Y-88077875D01*
X131337309Y-88240390D01*
X131607562Y-88352332D01*
X131894460Y-88409400D01*
X132186980Y-88409400D01*
X132473878Y-88352332D01*
X132744131Y-88240390D01*
X132987352Y-88077875D01*
X133194195Y-87871032D01*
X133310720Y-87696640D01*
X133427245Y-87871032D01*
X133634088Y-88077875D01*
X133877309Y-88240390D01*
X134147562Y-88352332D01*
X134434460Y-88409400D01*
X134726980Y-88409400D01*
X135013878Y-88352332D01*
X135284131Y-88240390D01*
X135527352Y-88077875D01*
X135734195Y-87871032D01*
X135850720Y-87696640D01*
X135967245Y-87871032D01*
X136174088Y-88077875D01*
X136417309Y-88240390D01*
X136687562Y-88352332D01*
X136974460Y-88409400D01*
X137266980Y-88409400D01*
X137553878Y-88352332D01*
X137824131Y-88240390D01*
X138067352Y-88077875D01*
X138274195Y-87871032D01*
X138390720Y-87696640D01*
X138507245Y-87871032D01*
X138714088Y-88077875D01*
X138957309Y-88240390D01*
X139227562Y-88352332D01*
X139514460Y-88409400D01*
X139806980Y-88409400D01*
X140093878Y-88352332D01*
X140364131Y-88240390D01*
X140607352Y-88077875D01*
X140739207Y-87946020D01*
X140761218Y-88018580D01*
X140820183Y-88128894D01*
X140899535Y-88225585D01*
X140996226Y-88304937D01*
X141106540Y-88363902D01*
X141226238Y-88400212D01*
X141350720Y-88412472D01*
X143050720Y-88412472D01*
X143175202Y-88400212D01*
X143294900Y-88363902D01*
X143405214Y-88304937D01*
X143501905Y-88225585D01*
X143581257Y-88128894D01*
X143640222Y-88018580D01*
X143676532Y-87898882D01*
X143688792Y-87774400D01*
X143688792Y-86074400D01*
X143676532Y-85949918D01*
X143640222Y-85830220D01*
X143581257Y-85719906D01*
X143501905Y-85623215D01*
X143405214Y-85543863D01*
X143294900Y-85484898D01*
X143175202Y-85448588D01*
X143050720Y-85436328D01*
X141350720Y-85436328D01*
X141226238Y-85448588D01*
X141106540Y-85484898D01*
X140996226Y-85543863D01*
X140899535Y-85623215D01*
X140820183Y-85719906D01*
X140761218Y-85830220D01*
X140739207Y-85902780D01*
X140607352Y-85770925D01*
X140364131Y-85608410D01*
X140093878Y-85496468D01*
X139806980Y-85439400D01*
X139514460Y-85439400D01*
X139227562Y-85496468D01*
X138957309Y-85608410D01*
X138714088Y-85770925D01*
X138507245Y-85977768D01*
X138390720Y-86152160D01*
X138274195Y-85977768D01*
X138067352Y-85770925D01*
X137824131Y-85608410D01*
X137553878Y-85496468D01*
X137266980Y-85439400D01*
X136974460Y-85439400D01*
X136687562Y-85496468D01*
X136417309Y-85608410D01*
X136174088Y-85770925D01*
X135967245Y-85977768D01*
X135850720Y-86152160D01*
X135734195Y-85977768D01*
X135527352Y-85770925D01*
X135284131Y-85608410D01*
X135013878Y-85496468D01*
X134726980Y-85439400D01*
X134434460Y-85439400D01*
X134147562Y-85496468D01*
X133877309Y-85608410D01*
X133634088Y-85770925D01*
X133427245Y-85977768D01*
X133310720Y-86152160D01*
X133194195Y-85977768D01*
X132987352Y-85770925D01*
X132744131Y-85608410D01*
X132473878Y-85496468D01*
X132186980Y-85439400D01*
X131894460Y-85439400D01*
X131607562Y-85496468D01*
X131337309Y-85608410D01*
X131094088Y-85770925D01*
X130887245Y-85977768D01*
X130770720Y-86152160D01*
X130654195Y-85977768D01*
X130447352Y-85770925D01*
X130204131Y-85608410D01*
X129933878Y-85496468D01*
X129646980Y-85439400D01*
X129354460Y-85439400D01*
X129067562Y-85496468D01*
X128797309Y-85608410D01*
X128554088Y-85770925D01*
X128347245Y-85977768D01*
X128230720Y-86152160D01*
X128114195Y-85977768D01*
X127907352Y-85770925D01*
X127664131Y-85608410D01*
X127393878Y-85496468D01*
X127106980Y-85439400D01*
X126814460Y-85439400D01*
X126527562Y-85496468D01*
X126257309Y-85608410D01*
X126014088Y-85770925D01*
X125807245Y-85977768D01*
X125690720Y-86152160D01*
X125574195Y-85977768D01*
X125367352Y-85770925D01*
X125124131Y-85608410D01*
X124853878Y-85496468D01*
X124566980Y-85439400D01*
X124274460Y-85439400D01*
X123987562Y-85496468D01*
X123717309Y-85608410D01*
X123474088Y-85770925D01*
X123267245Y-85977768D01*
X123150720Y-86152160D01*
X123034195Y-85977768D01*
X122827352Y-85770925D01*
X122584131Y-85608410D01*
X122313878Y-85496468D01*
X122026980Y-85439400D01*
X121734460Y-85439400D01*
X121447562Y-85496468D01*
X121177309Y-85608410D01*
X120934088Y-85770925D01*
X120727245Y-85977768D01*
X120610720Y-86152160D01*
X120494195Y-85977768D01*
X120287352Y-85770925D01*
X120044131Y-85608410D01*
X119773878Y-85496468D01*
X119486980Y-85439400D01*
X119194460Y-85439400D01*
X118907562Y-85496468D01*
X118637309Y-85608410D01*
X118394088Y-85770925D01*
X118187245Y-85977768D01*
X118070720Y-86152160D01*
X117954195Y-85977768D01*
X117747352Y-85770925D01*
X117504131Y-85608410D01*
X117233878Y-85496468D01*
X116946980Y-85439400D01*
X116654460Y-85439400D01*
X116367562Y-85496468D01*
X116097309Y-85608410D01*
X115854088Y-85770925D01*
X115647245Y-85977768D01*
X115530720Y-86152160D01*
X115414195Y-85977768D01*
X115207352Y-85770925D01*
X114964131Y-85608410D01*
X114693878Y-85496468D01*
X114406980Y-85439400D01*
X114114460Y-85439400D01*
X113827562Y-85496468D01*
X113557309Y-85608410D01*
X113314088Y-85770925D01*
X113107245Y-85977768D01*
X112990720Y-86152160D01*
X112874195Y-85977768D01*
X112667352Y-85770925D01*
X112424131Y-85608410D01*
X112153878Y-85496468D01*
X111866980Y-85439400D01*
X111574460Y-85439400D01*
X111287562Y-85496468D01*
X111017309Y-85608410D01*
X110774088Y-85770925D01*
X110567245Y-85977768D01*
X110445525Y-86159934D01*
X110375898Y-86043045D01*
X110180989Y-85826812D01*
X109947640Y-85652759D01*
X109684819Y-85527575D01*
X109537610Y-85482924D01*
X109307720Y-85604245D01*
X109053720Y-85604245D01*
X108823830Y-85482924D01*
X108676621Y-85527575D01*
X108413800Y-85652759D01*
X108180451Y-85826812D01*
X107985542Y-86043045D01*
X107915915Y-86159934D01*
X107794195Y-85977768D01*
X107587352Y-85770925D01*
X107344131Y-85608410D01*
X107073878Y-85496468D01*
X106786980Y-85439400D01*
X106494460Y-85439400D01*
X106207562Y-85496468D01*
X105937309Y-85608410D01*
X105694088Y-85770925D01*
X105487245Y-85977768D01*
X105324730Y-86220989D01*
X105212788Y-86491242D01*
X105155720Y-86778140D01*
X103872400Y-86778140D01*
X103872400Y-84554980D01*
X153592160Y-84554980D01*
X153592160Y-84847500D01*
X153649228Y-85134398D01*
X153761170Y-85404651D01*
X153923685Y-85647872D01*
X154130528Y-85854715D01*
X154373749Y-86017230D01*
X154644002Y-86129172D01*
X154930900Y-86186240D01*
X155223420Y-86186240D01*
X155510318Y-86129172D01*
X155780571Y-86017230D01*
X156023792Y-85854715D01*
X156148870Y-85729637D01*
X158728368Y-85729637D01*
X158806003Y-85978712D01*
X159070043Y-86104611D01*
X159353571Y-86176579D01*
X159645691Y-86191851D01*
X159935179Y-86149839D01*
X160210907Y-86052159D01*
X160348317Y-85978712D01*
X160425952Y-85729637D01*
X159577160Y-84880845D01*
X158728368Y-85729637D01*
X156148870Y-85729637D01*
X156230635Y-85647872D01*
X156393150Y-85404651D01*
X156505092Y-85134398D01*
X156562160Y-84847500D01*
X156562160Y-84769771D01*
X158086549Y-84769771D01*
X158128561Y-85059259D01*
X158226241Y-85334987D01*
X158299688Y-85472397D01*
X158548763Y-85550032D01*
X159397555Y-84701240D01*
X159756765Y-84701240D01*
X160605557Y-85550032D01*
X160854632Y-85472397D01*
X160980531Y-85208357D01*
X161052499Y-84924829D01*
X161067771Y-84632709D01*
X161025759Y-84343221D01*
X160928079Y-84067493D01*
X160854632Y-83930083D01*
X160605557Y-83852448D01*
X159756765Y-84701240D01*
X159397555Y-84701240D01*
X158548763Y-83852448D01*
X158299688Y-83930083D01*
X158173789Y-84194123D01*
X158101821Y-84477651D01*
X158086549Y-84769771D01*
X156562160Y-84769771D01*
X156562160Y-84554980D01*
X156505092Y-84268082D01*
X156393150Y-83997829D01*
X156230635Y-83754608D01*
X156148870Y-83672843D01*
X158728368Y-83672843D01*
X159577160Y-84521635D01*
X160425952Y-83672843D01*
X160348317Y-83423768D01*
X160084277Y-83297869D01*
X159800749Y-83225901D01*
X159508629Y-83210629D01*
X159219141Y-83252641D01*
X158943413Y-83350321D01*
X158806003Y-83423768D01*
X158728368Y-83672843D01*
X156148870Y-83672843D01*
X156023792Y-83547765D01*
X155780571Y-83385250D01*
X155510318Y-83273308D01*
X155223420Y-83216240D01*
X154930900Y-83216240D01*
X154644002Y-83273308D01*
X154373749Y-83385250D01*
X154130528Y-83547765D01*
X153923685Y-83754608D01*
X153761170Y-83997829D01*
X153649228Y-84268082D01*
X153592160Y-84554980D01*
X103872400Y-84554980D01*
X103872400Y-84322239D01*
X103901025Y-84030301D01*
X103976435Y-83780531D01*
X104098922Y-83550168D01*
X104263822Y-83347980D01*
X104464850Y-83181674D01*
X104694354Y-83057582D01*
X104943595Y-82980429D01*
X105233488Y-82949960D01*
X196180121Y-82949960D01*
X196472059Y-82978585D01*
G37*
G04 #@! TD.AperFunction*
M02*
