M48
; DRILL file {KiCad (5.1.10)-1} date 10/12/21 16:58:02
; FORMAT={-:-/ absolute / metric / decimal}
; #@! TF.CreationDate,2021-10-12T16:58:02+02:00
; #@! TF.GenerationSoftware,Kicad,Pcbnew,(5.1.10)-1
; #@! TF.FileFunction,Plated,1,2,PTH
FMAT,2
METRIC
T1C0.400
T2C1.000
%
G90
G05
T1
X107.579Y-108.905
X107.587Y-103.96
X108.806Y-102.674
X109.601Y-94.381
X112.365Y-96.225
X115.077Y-102.804
X119.667Y-100.101
X120.541Y-110.345
X126.657Y-98.943
X130.216Y-94.183
X130.599Y-104.148
X140.15Y-94.648
X140.716Y-103.353
X143.51Y-96.291
X146.228Y-108.026
X147.048Y-85.451
X147.752Y-103.378
X148.514Y-112.7
X149.2Y-96.241
X163.032Y-87.025
X163.403Y-111.669
X166.624Y-96.215
X166.624Y-103.353
X169.588Y-113.469
X169.774Y-108.153
X172.923Y-98.222
X175.732Y-88.323
X177.19Y-102.946
X181.458Y-99.035
X181.552Y-106.967
X187.47Y-89.035
X190.579Y-102.713
X192.938Y-112.928
X195.026Y-87.704
T2
X106.641Y-86.924
X106.641Y-112.324
X109.181Y-86.924
X109.181Y-112.324
X111.721Y-86.924
X111.721Y-112.324
X114.261Y-86.924
X114.261Y-112.324
X116.801Y-86.924
X116.801Y-112.324
X119.341Y-86.924
X119.341Y-112.324
X121.881Y-86.924
X121.881Y-112.324
X124.421Y-86.924
X124.421Y-112.324
X126.961Y-86.924
X126.961Y-112.324
X129.501Y-86.924
X129.501Y-112.324
X132.041Y-86.924
X132.041Y-112.324
X134.581Y-86.924
X134.581Y-112.324
X137.121Y-86.924
X137.121Y-112.324
X139.661Y-86.924
X139.661Y-112.324
X142.201Y-86.924
X142.201Y-112.324
X155.077Y-84.701
X155.077Y-91.201
X155.077Y-108.298
X155.077Y-114.798
X159.577Y-84.701
X159.577Y-91.201
X159.577Y-108.298
X159.577Y-114.798
X168.397Y-92.124
X170.937Y-92.124
X173.477Y-92.124
X176.017Y-92.124
X178.557Y-92.124
X181.097Y-92.124
X183.637Y-92.124
X186.177Y-92.124
X188.717Y-92.124
X191.257Y-92.124
T0
M30
