G04 #@! TF.GenerationSoftware,KiCad,Pcbnew,(5.1.10)-1*
G04 #@! TF.CreationDate,2021-10-12T16:57:56+02:00*
G04 #@! TF.ProjectId,esp32-imu,65737033-322d-4696-9d75-2e6b69636164,v0.1.0*
G04 #@! TF.SameCoordinates,Original*
G04 #@! TF.FileFunction,Soldermask,Bot*
G04 #@! TF.FilePolarity,Negative*
%FSLAX46Y46*%
G04 Gerber Fmt 4.6, Leading zero omitted, Abs format (unit mm)*
G04 Created by KiCad (PCBNEW (5.1.10)-1) date 2021-10-12 16:57:56*
%MOMM*%
%LPD*%
G01*
G04 APERTURE LIST*
G04 #@! TA.AperFunction,Profile*
%ADD10C,0.050000*%
G04 #@! TD*
%ADD11C,1.700000*%
%ADD12O,1.700000X1.700000*%
%ADD13R,1.700000X1.700000*%
G04 APERTURE END LIST*
D10*
X196212400Y-117289960D02*
G75*
G03*
X198212400Y-115289960I0J2000000D01*
G01*
X198212400Y-84289960D02*
G75*
G03*
X196212400Y-82289960I-2000000J0D01*
G01*
X105212400Y-82289960D02*
G75*
G03*
X103212400Y-84289960I0J-2000000D01*
G01*
X105212400Y-117289960D02*
G75*
G02*
X103212400Y-115289960I0J2000000D01*
G01*
X196212400Y-82289960D02*
X105212400Y-82289960D01*
X198212400Y-115289960D02*
X198212400Y-84289960D01*
X105212400Y-117289960D02*
X196212400Y-117289960D01*
X103212400Y-84289960D02*
X103212400Y-115289960D01*
D11*
X155077160Y-114797840D03*
X155077160Y-108297840D03*
X159577160Y-114797840D03*
X159577160Y-108297840D03*
X155077160Y-91201240D03*
X155077160Y-84701240D03*
X159577160Y-91201240D03*
X159577160Y-84701240D03*
D12*
X168396920Y-92124400D03*
X170936920Y-92124400D03*
X173476920Y-92124400D03*
X176016920Y-92124400D03*
X178556920Y-92124400D03*
X181096920Y-92124400D03*
X183636920Y-92124400D03*
X186176920Y-92124400D03*
X188716920Y-92124400D03*
D13*
X191256920Y-92124400D03*
D12*
X106640720Y-112324400D03*
X109180720Y-112324400D03*
X111720720Y-112324400D03*
X114260720Y-112324400D03*
X116800720Y-112324400D03*
X119340720Y-112324400D03*
X121880720Y-112324400D03*
X124420720Y-112324400D03*
X126960720Y-112324400D03*
X129500720Y-112324400D03*
X132040720Y-112324400D03*
X134580720Y-112324400D03*
X137120720Y-112324400D03*
X139660720Y-112324400D03*
D13*
X142200720Y-112324400D03*
D12*
X106640720Y-86924400D03*
X109180720Y-86924400D03*
X111720720Y-86924400D03*
X114260720Y-86924400D03*
X116800720Y-86924400D03*
X119340720Y-86924400D03*
X121880720Y-86924400D03*
X124420720Y-86924400D03*
X126960720Y-86924400D03*
X129500720Y-86924400D03*
X132040720Y-86924400D03*
X134580720Y-86924400D03*
X137120720Y-86924400D03*
X139660720Y-86924400D03*
D13*
X142200720Y-86924400D03*
M02*
