M48
; DRILL file {KiCad (5.1.10)-1} date 10/04/21 11:48:20
; FORMAT={-:-/ absolute / metric / decimal}
; #@! TF.CreationDate,2021-10-04T11:48:20+02:00
; #@! TF.GenerationSoftware,Kicad,Pcbnew,(5.1.10)-1
; #@! TF.FileFunction,Plated,1,2,PTH
FMAT,2
METRIC
T1C0.400
T2C0.800
T3C1.000
%
G90
G05
T1
X107.579Y-108.905
X136.749Y-103.911
X140.741Y-106.589
X159.68Y-103.337
X159.741Y-100.086
X174.401Y-99.004
X176.276Y-103.17
T2
X106.614Y-91.191
X106.624Y-98.618
X111.794Y-94.945
X111.794Y-102.255
X116.774Y-91.191
X116.784Y-98.618
X116.794Y-94.945
X116.794Y-102.255
X119.156Y-98.633
X119.217Y-91.166
X129.316Y-98.633
X129.377Y-91.166
X181.077Y-96.891
X181.097Y-101.229
X187.512Y-87.793
X191.237Y-96.891
X191.257Y-101.229
X192.512Y-87.793
T3
X106.641Y-86.924
X106.641Y-112.324
X109.181Y-86.924
X109.181Y-112.324
X111.721Y-86.924
X111.721Y-112.324
X114.261Y-86.924
X114.261Y-112.324
X116.801Y-86.924
X116.801Y-112.324
X119.341Y-86.924
X119.341Y-112.324
X121.881Y-86.924
X121.881Y-112.324
X124.421Y-86.924
X124.421Y-112.324
X126.961Y-86.924
X126.961Y-112.324
X129.501Y-86.924
X129.501Y-112.324
X132.041Y-86.924
X132.041Y-112.324
X134.581Y-86.924
X134.581Y-112.324
X137.121Y-86.924
X137.121Y-112.324
X139.661Y-86.924
X139.661Y-112.324
X142.201Y-86.924
X142.201Y-112.324
X155.077Y-84.701
X155.077Y-91.201
X155.077Y-108.298
X155.077Y-114.798
X159.577Y-84.701
X159.577Y-91.201
X159.577Y-108.298
X159.577Y-114.798
X168.397Y-92.124
X170.937Y-92.124
X173.477Y-92.124
X176.017Y-92.124
X178.557Y-92.124
X181.097Y-92.124
X183.637Y-92.124
X186.177Y-92.124
X188.717Y-92.124
X191.257Y-92.124
T0
M30
