G04 #@! TF.GenerationSoftware,KiCad,Pcbnew,(5.1.10)-1*
G04 #@! TF.CreationDate,2021-10-04T11:48:13+02:00*
G04 #@! TF.ProjectId,esp32-imu,65737033-322d-4696-9d75-2e6b69636164,v0.1.0*
G04 #@! TF.SameCoordinates,Original*
G04 #@! TF.FileFunction,Copper,L2,Bot*
G04 #@! TF.FilePolarity,Positive*
%FSLAX46Y46*%
G04 Gerber Fmt 4.6, Leading zero omitted, Abs format (unit mm)*
G04 Created by KiCad (PCBNEW (5.1.10)-1) date 2021-10-04 11:48:13*
%MOMM*%
%LPD*%
G01*
G04 APERTURE LIST*
G04 #@! TA.AperFunction,Profile*
%ADD10C,0.050000*%
G04 #@! TD*
G04 #@! TA.AperFunction,ComponentPad*
%ADD11C,1.700000*%
G04 #@! TD*
G04 #@! TA.AperFunction,ComponentPad*
%ADD12O,1.600000X1.600000*%
G04 #@! TD*
G04 #@! TA.AperFunction,ComponentPad*
%ADD13C,1.600000*%
G04 #@! TD*
G04 #@! TA.AperFunction,ComponentPad*
%ADD14O,1.700000X1.700000*%
G04 #@! TD*
G04 #@! TA.AperFunction,ComponentPad*
%ADD15R,1.700000X1.700000*%
G04 #@! TD*
G04 #@! TA.AperFunction,ViaPad*
%ADD16C,0.800000*%
G04 #@! TD*
G04 #@! TA.AperFunction,Conductor*
%ADD17C,0.250000*%
G04 #@! TD*
G04 #@! TA.AperFunction,Conductor*
%ADD18C,0.300000*%
G04 #@! TD*
G04 #@! TA.AperFunction,Conductor*
%ADD19C,0.254000*%
G04 #@! TD*
G04 #@! TA.AperFunction,Conductor*
%ADD20C,0.100000*%
G04 #@! TD*
G04 APERTURE END LIST*
D10*
X198212400Y-82289960D02*
X103212400Y-82289960D01*
X198212400Y-117289960D02*
X198212400Y-82289960D01*
X103212400Y-117289960D02*
X198212400Y-117289960D01*
X103212400Y-82289960D02*
X103212400Y-117289960D01*
D11*
X155077160Y-114797840D03*
X155077160Y-108297840D03*
X159577160Y-114797840D03*
X159577160Y-108297840D03*
X155077160Y-91201240D03*
X155077160Y-84701240D03*
X159577160Y-91201240D03*
X159577160Y-84701240D03*
D12*
X119156480Y-98633280D03*
D13*
X129316480Y-98633280D03*
D12*
X181076600Y-96890840D03*
D13*
X191236600Y-96890840D03*
D12*
X116784120Y-98618040D03*
D13*
X106624120Y-98618040D03*
D12*
X181096920Y-101229160D03*
D13*
X191256920Y-101229160D03*
D12*
X119217440Y-91165680D03*
D13*
X129377440Y-91165680D03*
D12*
X116773960Y-91191080D03*
D13*
X106613960Y-91191080D03*
D14*
X168396920Y-92124400D03*
X170936920Y-92124400D03*
X173476920Y-92124400D03*
X176016920Y-92124400D03*
X178556920Y-92124400D03*
X181096920Y-92124400D03*
X183636920Y-92124400D03*
X186176920Y-92124400D03*
X188716920Y-92124400D03*
D15*
X191256920Y-92124400D03*
D14*
X106640720Y-112324400D03*
X109180720Y-112324400D03*
X111720720Y-112324400D03*
X114260720Y-112324400D03*
X116800720Y-112324400D03*
X119340720Y-112324400D03*
X121880720Y-112324400D03*
X124420720Y-112324400D03*
X126960720Y-112324400D03*
X129500720Y-112324400D03*
X132040720Y-112324400D03*
X134580720Y-112324400D03*
X137120720Y-112324400D03*
X139660720Y-112324400D03*
D15*
X142200720Y-112324400D03*
D14*
X106640720Y-86924400D03*
X109180720Y-86924400D03*
X111720720Y-86924400D03*
X114260720Y-86924400D03*
X116800720Y-86924400D03*
X119340720Y-86924400D03*
X121880720Y-86924400D03*
X124420720Y-86924400D03*
X126960720Y-86924400D03*
X129500720Y-86924400D03*
X132040720Y-86924400D03*
X134580720Y-86924400D03*
X137120720Y-86924400D03*
X139660720Y-86924400D03*
D15*
X142200720Y-86924400D03*
D13*
X187511680Y-87792560D03*
X192511680Y-87792560D03*
X111794280Y-102255320D03*
X116794280Y-102255320D03*
X111794280Y-94945200D03*
X116794280Y-94945200D03*
D16*
X159740600Y-100086160D03*
X136748520Y-103911400D03*
X140741400Y-106588560D03*
X159679640Y-103337360D03*
X176276000Y-103169720D03*
X174401480Y-99004120D03*
X107579160Y-108905040D03*
D17*
X188716920Y-88997800D02*
X188716920Y-92124400D01*
X187511680Y-87792560D02*
X188716920Y-88997800D01*
X116799360Y-91165680D02*
X116773960Y-91191080D01*
X116773960Y-86951160D02*
X116800720Y-86924400D01*
X116773960Y-91191080D02*
X116773960Y-86951160D01*
X116773960Y-94924880D02*
X116794280Y-94945200D01*
X119217440Y-92522040D02*
X116794280Y-94945200D01*
X119217440Y-91165680D02*
X119217440Y-92522040D01*
X116794280Y-91211400D02*
X116773960Y-91191080D01*
X116794280Y-94945200D02*
X116794280Y-91211400D01*
X119340720Y-86924400D02*
X121635520Y-89219200D01*
X121635520Y-93766640D02*
X116784120Y-98618040D01*
X121635520Y-89219200D02*
X121635520Y-93766640D01*
X116784120Y-102245160D02*
X116794280Y-102255320D01*
X116784120Y-98618040D02*
X116784120Y-102245160D01*
X119156480Y-100111560D02*
X119156480Y-98633280D01*
X117012720Y-102255320D02*
X119156480Y-100111560D01*
X116794280Y-102255320D02*
X117012720Y-102255320D01*
X191256920Y-89179400D02*
X191256920Y-92124400D01*
X192511680Y-87924640D02*
X191256920Y-89179400D01*
X192511680Y-87792560D02*
X192511680Y-87924640D01*
X191256920Y-92124400D02*
X191256920Y-101229160D01*
X106640720Y-112324400D02*
X106640720Y-109843480D01*
X106640720Y-109843480D02*
X107589320Y-108894880D01*
X107589320Y-108894880D02*
X124119640Y-108894880D01*
X124119640Y-108894880D02*
X138399520Y-94615000D01*
X138399520Y-94615000D02*
X161401760Y-94615000D01*
X161401760Y-94615000D02*
X171226480Y-84790280D01*
X189509400Y-84790280D02*
X192511680Y-87792560D01*
X171226480Y-84790280D02*
X189509400Y-84790280D01*
X126960720Y-109686000D02*
X126960720Y-112324400D01*
X138587480Y-98059240D02*
X126960720Y-109686000D01*
X170383200Y-98059240D02*
X138587480Y-98059240D01*
X173476920Y-94965520D02*
X170383200Y-98059240D01*
X173476920Y-92124400D02*
X173476920Y-94965520D01*
X183636920Y-94330520D02*
X181076600Y-96890840D01*
X183636920Y-92124400D02*
X183636920Y-94330520D01*
X142470480Y-101894640D02*
X132040720Y-112324400D01*
X176072800Y-101894640D02*
X142470480Y-101894640D01*
X181076600Y-96890840D02*
X176072800Y-101894640D01*
X186176920Y-96149160D02*
X181096920Y-101229160D01*
X186176920Y-92124400D02*
X186176920Y-96149160D01*
X139660720Y-110463240D02*
X139660720Y-112324400D01*
X145384520Y-104739440D02*
X139660720Y-110463240D01*
X177586640Y-104739440D02*
X145384520Y-104739440D01*
X181096920Y-101229160D02*
X177586640Y-104739440D01*
X155061920Y-91216480D02*
X155077160Y-91201240D01*
X129428240Y-91216480D02*
X155061920Y-91216480D01*
X129377440Y-91165680D02*
X129428240Y-91216480D01*
D18*
X155077160Y-84701240D02*
X155077160Y-91201240D01*
D17*
X104084120Y-114802920D02*
X104830600Y-115549400D01*
X104084120Y-107218480D02*
X104084120Y-114802920D01*
X105420160Y-105882440D02*
X104084120Y-107218480D01*
X124642880Y-105882440D02*
X105420160Y-105882440D01*
X129316480Y-101208840D02*
X124642880Y-105882440D01*
X129316480Y-98633280D02*
X129316480Y-101208840D01*
X155077160Y-114797840D02*
X153476960Y-114797840D01*
X152821251Y-115453549D02*
X152395309Y-115453549D01*
X153476960Y-114797840D02*
X152821251Y-115453549D01*
X152395309Y-115453549D02*
X152587960Y-115453160D01*
X104830600Y-115549400D02*
X152395309Y-115453549D01*
X155077160Y-108297840D02*
X155077160Y-114797840D01*
D19*
X197552400Y-116629960D02*
X103872400Y-116629960D01*
X103872400Y-115666001D01*
X104267349Y-116060951D01*
X104291689Y-116090488D01*
X104348707Y-116137089D01*
X104406323Y-116184374D01*
X104407012Y-116184742D01*
X104407605Y-116185227D01*
X104472556Y-116219776D01*
X104538353Y-116254946D01*
X104539096Y-116255172D01*
X104539776Y-116255533D01*
X104610541Y-116276843D01*
X104681613Y-116298402D01*
X104682383Y-116298478D01*
X104683124Y-116298701D01*
X104756958Y-116305823D01*
X104830599Y-116313076D01*
X104868692Y-116309324D01*
X152395963Y-116213549D01*
X152783929Y-116213549D01*
X152821251Y-116217225D01*
X152858573Y-116213549D01*
X152858584Y-116213549D01*
X152970237Y-116202552D01*
X153113498Y-116159095D01*
X153245527Y-116088523D01*
X153361252Y-115993550D01*
X153385054Y-115964547D01*
X153791762Y-115557840D01*
X153798982Y-115557840D01*
X153923685Y-115744472D01*
X154130528Y-115951315D01*
X154373749Y-116113830D01*
X154644002Y-116225772D01*
X154930900Y-116282840D01*
X155223420Y-116282840D01*
X155510318Y-116225772D01*
X155780571Y-116113830D01*
X156023792Y-115951315D01*
X156148870Y-115826237D01*
X158728368Y-115826237D01*
X158806003Y-116075312D01*
X159070043Y-116201211D01*
X159353571Y-116273179D01*
X159645691Y-116288451D01*
X159935179Y-116246439D01*
X160210907Y-116148759D01*
X160348317Y-116075312D01*
X160425952Y-115826237D01*
X159577160Y-114977445D01*
X158728368Y-115826237D01*
X156148870Y-115826237D01*
X156230635Y-115744472D01*
X156393150Y-115501251D01*
X156505092Y-115230998D01*
X156562160Y-114944100D01*
X156562160Y-114866371D01*
X158086549Y-114866371D01*
X158128561Y-115155859D01*
X158226241Y-115431587D01*
X158299688Y-115568997D01*
X158548763Y-115646632D01*
X159397555Y-114797840D01*
X159756765Y-114797840D01*
X160605557Y-115646632D01*
X160854632Y-115568997D01*
X160980531Y-115304957D01*
X161052499Y-115021429D01*
X161067771Y-114729309D01*
X161025759Y-114439821D01*
X160928079Y-114164093D01*
X160854632Y-114026683D01*
X160605557Y-113949048D01*
X159756765Y-114797840D01*
X159397555Y-114797840D01*
X158548763Y-113949048D01*
X158299688Y-114026683D01*
X158173789Y-114290723D01*
X158101821Y-114574251D01*
X158086549Y-114866371D01*
X156562160Y-114866371D01*
X156562160Y-114651580D01*
X156505092Y-114364682D01*
X156393150Y-114094429D01*
X156230635Y-113851208D01*
X156148870Y-113769443D01*
X158728368Y-113769443D01*
X159577160Y-114618235D01*
X160425952Y-113769443D01*
X160348317Y-113520368D01*
X160084277Y-113394469D01*
X159800749Y-113322501D01*
X159508629Y-113307229D01*
X159219141Y-113349241D01*
X158943413Y-113446921D01*
X158806003Y-113520368D01*
X158728368Y-113769443D01*
X156148870Y-113769443D01*
X156023792Y-113644365D01*
X155837160Y-113519662D01*
X155837160Y-109576018D01*
X156023792Y-109451315D01*
X156148870Y-109326237D01*
X158728368Y-109326237D01*
X158806003Y-109575312D01*
X159070043Y-109701211D01*
X159353571Y-109773179D01*
X159645691Y-109788451D01*
X159935179Y-109746439D01*
X160210907Y-109648759D01*
X160348317Y-109575312D01*
X160425952Y-109326237D01*
X159577160Y-108477445D01*
X158728368Y-109326237D01*
X156148870Y-109326237D01*
X156230635Y-109244472D01*
X156393150Y-109001251D01*
X156505092Y-108730998D01*
X156562160Y-108444100D01*
X156562160Y-108366371D01*
X158086549Y-108366371D01*
X158128561Y-108655859D01*
X158226241Y-108931587D01*
X158299688Y-109068997D01*
X158548763Y-109146632D01*
X159397555Y-108297840D01*
X159756765Y-108297840D01*
X160605557Y-109146632D01*
X160854632Y-109068997D01*
X160980531Y-108804957D01*
X161052499Y-108521429D01*
X161067771Y-108229309D01*
X161025759Y-107939821D01*
X160928079Y-107664093D01*
X160854632Y-107526683D01*
X160605557Y-107449048D01*
X159756765Y-108297840D01*
X159397555Y-108297840D01*
X158548763Y-107449048D01*
X158299688Y-107526683D01*
X158173789Y-107790723D01*
X158101821Y-108074251D01*
X158086549Y-108366371D01*
X156562160Y-108366371D01*
X156562160Y-108151580D01*
X156505092Y-107864682D01*
X156393150Y-107594429D01*
X156230635Y-107351208D01*
X156148870Y-107269443D01*
X158728368Y-107269443D01*
X159577160Y-108118235D01*
X160425952Y-107269443D01*
X160348317Y-107020368D01*
X160084277Y-106894469D01*
X159800749Y-106822501D01*
X159508629Y-106807229D01*
X159219141Y-106849241D01*
X158943413Y-106946921D01*
X158806003Y-107020368D01*
X158728368Y-107269443D01*
X156148870Y-107269443D01*
X156023792Y-107144365D01*
X155780571Y-106981850D01*
X155510318Y-106869908D01*
X155223420Y-106812840D01*
X154930900Y-106812840D01*
X154644002Y-106869908D01*
X154373749Y-106981850D01*
X154130528Y-107144365D01*
X153923685Y-107351208D01*
X153761170Y-107594429D01*
X153649228Y-107864682D01*
X153592160Y-108151580D01*
X153592160Y-108444100D01*
X153649228Y-108730998D01*
X153761170Y-109001251D01*
X153923685Y-109244472D01*
X154130528Y-109451315D01*
X154317160Y-109576019D01*
X154317161Y-113519661D01*
X154130528Y-113644365D01*
X153923685Y-113851208D01*
X153798982Y-114037840D01*
X153514293Y-114037840D01*
X153476960Y-114034163D01*
X153439627Y-114037840D01*
X153327974Y-114048837D01*
X153184713Y-114092294D01*
X153052684Y-114162866D01*
X152936959Y-114257839D01*
X152913160Y-114286838D01*
X152506676Y-114693323D01*
X152394630Y-114693549D01*
X152357976Y-114693549D01*
X152357210Y-114693624D01*
X152356442Y-114693626D01*
X152356437Y-114693626D01*
X105144767Y-114788766D01*
X104844120Y-114488119D01*
X104844120Y-112178140D01*
X105155720Y-112178140D01*
X105155720Y-112470660D01*
X105212788Y-112757558D01*
X105324730Y-113027811D01*
X105487245Y-113271032D01*
X105694088Y-113477875D01*
X105937309Y-113640390D01*
X106207562Y-113752332D01*
X106494460Y-113809400D01*
X106786980Y-113809400D01*
X107073878Y-113752332D01*
X107344131Y-113640390D01*
X107587352Y-113477875D01*
X107794195Y-113271032D01*
X107915915Y-113088866D01*
X107985542Y-113205755D01*
X108180451Y-113421988D01*
X108413800Y-113596041D01*
X108676621Y-113721225D01*
X108823830Y-113765876D01*
X109053720Y-113644555D01*
X109053720Y-112451400D01*
X109033720Y-112451400D01*
X109033720Y-112197400D01*
X109053720Y-112197400D01*
X109053720Y-111004245D01*
X109307720Y-111004245D01*
X109307720Y-112197400D01*
X109327720Y-112197400D01*
X109327720Y-112451400D01*
X109307720Y-112451400D01*
X109307720Y-113644555D01*
X109537610Y-113765876D01*
X109684819Y-113721225D01*
X109947640Y-113596041D01*
X110180989Y-113421988D01*
X110375898Y-113205755D01*
X110445525Y-113088866D01*
X110567245Y-113271032D01*
X110774088Y-113477875D01*
X111017309Y-113640390D01*
X111287562Y-113752332D01*
X111574460Y-113809400D01*
X111866980Y-113809400D01*
X112153878Y-113752332D01*
X112424131Y-113640390D01*
X112667352Y-113477875D01*
X112874195Y-113271032D01*
X112990720Y-113096640D01*
X113107245Y-113271032D01*
X113314088Y-113477875D01*
X113557309Y-113640390D01*
X113827562Y-113752332D01*
X114114460Y-113809400D01*
X114406980Y-113809400D01*
X114693878Y-113752332D01*
X114964131Y-113640390D01*
X115207352Y-113477875D01*
X115414195Y-113271032D01*
X115530720Y-113096640D01*
X115647245Y-113271032D01*
X115854088Y-113477875D01*
X116097309Y-113640390D01*
X116367562Y-113752332D01*
X116654460Y-113809400D01*
X116946980Y-113809400D01*
X117233878Y-113752332D01*
X117504131Y-113640390D01*
X117747352Y-113477875D01*
X117954195Y-113271032D01*
X118070720Y-113096640D01*
X118187245Y-113271032D01*
X118394088Y-113477875D01*
X118637309Y-113640390D01*
X118907562Y-113752332D01*
X119194460Y-113809400D01*
X119486980Y-113809400D01*
X119773878Y-113752332D01*
X120044131Y-113640390D01*
X120287352Y-113477875D01*
X120494195Y-113271032D01*
X120610720Y-113096640D01*
X120727245Y-113271032D01*
X120934088Y-113477875D01*
X121177309Y-113640390D01*
X121447562Y-113752332D01*
X121734460Y-113809400D01*
X122026980Y-113809400D01*
X122313878Y-113752332D01*
X122584131Y-113640390D01*
X122827352Y-113477875D01*
X123034195Y-113271032D01*
X123150720Y-113096640D01*
X123267245Y-113271032D01*
X123474088Y-113477875D01*
X123717309Y-113640390D01*
X123987562Y-113752332D01*
X124274460Y-113809400D01*
X124566980Y-113809400D01*
X124853878Y-113752332D01*
X125124131Y-113640390D01*
X125367352Y-113477875D01*
X125574195Y-113271032D01*
X125690720Y-113096640D01*
X125807245Y-113271032D01*
X126014088Y-113477875D01*
X126257309Y-113640390D01*
X126527562Y-113752332D01*
X126814460Y-113809400D01*
X127106980Y-113809400D01*
X127393878Y-113752332D01*
X127664131Y-113640390D01*
X127907352Y-113477875D01*
X128114195Y-113271032D01*
X128230720Y-113096640D01*
X128347245Y-113271032D01*
X128554088Y-113477875D01*
X128797309Y-113640390D01*
X129067562Y-113752332D01*
X129354460Y-113809400D01*
X129646980Y-113809400D01*
X129933878Y-113752332D01*
X130204131Y-113640390D01*
X130447352Y-113477875D01*
X130654195Y-113271032D01*
X130770720Y-113096640D01*
X130887245Y-113271032D01*
X131094088Y-113477875D01*
X131337309Y-113640390D01*
X131607562Y-113752332D01*
X131894460Y-113809400D01*
X132186980Y-113809400D01*
X132473878Y-113752332D01*
X132744131Y-113640390D01*
X132987352Y-113477875D01*
X133194195Y-113271032D01*
X133310720Y-113096640D01*
X133427245Y-113271032D01*
X133634088Y-113477875D01*
X133877309Y-113640390D01*
X134147562Y-113752332D01*
X134434460Y-113809400D01*
X134726980Y-113809400D01*
X135013878Y-113752332D01*
X135284131Y-113640390D01*
X135527352Y-113477875D01*
X135734195Y-113271032D01*
X135850720Y-113096640D01*
X135967245Y-113271032D01*
X136174088Y-113477875D01*
X136417309Y-113640390D01*
X136687562Y-113752332D01*
X136974460Y-113809400D01*
X137266980Y-113809400D01*
X137553878Y-113752332D01*
X137824131Y-113640390D01*
X138067352Y-113477875D01*
X138274195Y-113271032D01*
X138390720Y-113096640D01*
X138507245Y-113271032D01*
X138714088Y-113477875D01*
X138957309Y-113640390D01*
X139227562Y-113752332D01*
X139514460Y-113809400D01*
X139806980Y-113809400D01*
X140093878Y-113752332D01*
X140364131Y-113640390D01*
X140607352Y-113477875D01*
X140739207Y-113346020D01*
X140761218Y-113418580D01*
X140820183Y-113528894D01*
X140899535Y-113625585D01*
X140996226Y-113704937D01*
X141106540Y-113763902D01*
X141226238Y-113800212D01*
X141350720Y-113812472D01*
X143050720Y-113812472D01*
X143175202Y-113800212D01*
X143294900Y-113763902D01*
X143405214Y-113704937D01*
X143501905Y-113625585D01*
X143581257Y-113528894D01*
X143640222Y-113418580D01*
X143676532Y-113298882D01*
X143688792Y-113174400D01*
X143688792Y-111474400D01*
X143676532Y-111349918D01*
X143640222Y-111230220D01*
X143581257Y-111119906D01*
X143501905Y-111023215D01*
X143405214Y-110943863D01*
X143294900Y-110884898D01*
X143175202Y-110848588D01*
X143050720Y-110836328D01*
X141350720Y-110836328D01*
X141226238Y-110848588D01*
X141106540Y-110884898D01*
X140996226Y-110943863D01*
X140899535Y-111023215D01*
X140820183Y-111119906D01*
X140761218Y-111230220D01*
X140739207Y-111302780D01*
X140607352Y-111170925D01*
X140420720Y-111046222D01*
X140420720Y-110778041D01*
X145699322Y-105499440D01*
X177549318Y-105499440D01*
X177586640Y-105503116D01*
X177623962Y-105499440D01*
X177623973Y-105499440D01*
X177735626Y-105488443D01*
X177878887Y-105444986D01*
X178010916Y-105374414D01*
X178126641Y-105279441D01*
X178150444Y-105250437D01*
X180773034Y-102627848D01*
X180955585Y-102664160D01*
X181238255Y-102664160D01*
X181515494Y-102609013D01*
X181776647Y-102500840D01*
X182011679Y-102343797D01*
X182211557Y-102143919D01*
X182368600Y-101908887D01*
X182476773Y-101647734D01*
X182531920Y-101370495D01*
X182531920Y-101087825D01*
X182495608Y-100905273D01*
X186687923Y-96712959D01*
X186716921Y-96689161D01*
X186743252Y-96657077D01*
X186811894Y-96573437D01*
X186882466Y-96441407D01*
X186899450Y-96385417D01*
X186925923Y-96298146D01*
X186936920Y-96186493D01*
X186936920Y-96186483D01*
X186940596Y-96149160D01*
X186936920Y-96111837D01*
X186936920Y-93402578D01*
X187123552Y-93277875D01*
X187330395Y-93071032D01*
X187452115Y-92888866D01*
X187521742Y-93005755D01*
X187716651Y-93221988D01*
X187950000Y-93396041D01*
X188212821Y-93521225D01*
X188360030Y-93565876D01*
X188589920Y-93444555D01*
X188589920Y-92251400D01*
X188569920Y-92251400D01*
X188569920Y-91997400D01*
X188589920Y-91997400D01*
X188589920Y-90804245D01*
X188360030Y-90682924D01*
X188212821Y-90727575D01*
X187950000Y-90852759D01*
X187716651Y-91026812D01*
X187521742Y-91243045D01*
X187452115Y-91359934D01*
X187330395Y-91177768D01*
X187123552Y-90970925D01*
X186880331Y-90808410D01*
X186610078Y-90696468D01*
X186323180Y-90639400D01*
X186030660Y-90639400D01*
X185743762Y-90696468D01*
X185473509Y-90808410D01*
X185230288Y-90970925D01*
X185023445Y-91177768D01*
X184906920Y-91352160D01*
X184790395Y-91177768D01*
X184583552Y-90970925D01*
X184340331Y-90808410D01*
X184070078Y-90696468D01*
X183783180Y-90639400D01*
X183490660Y-90639400D01*
X183203762Y-90696468D01*
X182933509Y-90808410D01*
X182690288Y-90970925D01*
X182483445Y-91177768D01*
X182366920Y-91352160D01*
X182250395Y-91177768D01*
X182043552Y-90970925D01*
X181800331Y-90808410D01*
X181530078Y-90696468D01*
X181243180Y-90639400D01*
X180950660Y-90639400D01*
X180663762Y-90696468D01*
X180393509Y-90808410D01*
X180150288Y-90970925D01*
X179943445Y-91177768D01*
X179826920Y-91352160D01*
X179710395Y-91177768D01*
X179503552Y-90970925D01*
X179260331Y-90808410D01*
X178990078Y-90696468D01*
X178703180Y-90639400D01*
X178410660Y-90639400D01*
X178123762Y-90696468D01*
X177853509Y-90808410D01*
X177610288Y-90970925D01*
X177403445Y-91177768D01*
X177286920Y-91352160D01*
X177170395Y-91177768D01*
X176963552Y-90970925D01*
X176720331Y-90808410D01*
X176450078Y-90696468D01*
X176163180Y-90639400D01*
X175870660Y-90639400D01*
X175583762Y-90696468D01*
X175313509Y-90808410D01*
X175070288Y-90970925D01*
X174863445Y-91177768D01*
X174746920Y-91352160D01*
X174630395Y-91177768D01*
X174423552Y-90970925D01*
X174180331Y-90808410D01*
X173910078Y-90696468D01*
X173623180Y-90639400D01*
X173330660Y-90639400D01*
X173043762Y-90696468D01*
X172773509Y-90808410D01*
X172530288Y-90970925D01*
X172323445Y-91177768D01*
X172206920Y-91352160D01*
X172090395Y-91177768D01*
X171883552Y-90970925D01*
X171640331Y-90808410D01*
X171370078Y-90696468D01*
X171083180Y-90639400D01*
X170790660Y-90639400D01*
X170503762Y-90696468D01*
X170233509Y-90808410D01*
X169990288Y-90970925D01*
X169783445Y-91177768D01*
X169666920Y-91352160D01*
X169550395Y-91177768D01*
X169343552Y-90970925D01*
X169100331Y-90808410D01*
X168830078Y-90696468D01*
X168543180Y-90639400D01*
X168250660Y-90639400D01*
X167963762Y-90696468D01*
X167693509Y-90808410D01*
X167450288Y-90970925D01*
X167243445Y-91177768D01*
X167080930Y-91420989D01*
X166968988Y-91691242D01*
X166911920Y-91978140D01*
X166911920Y-92270660D01*
X166968988Y-92557558D01*
X167080930Y-92827811D01*
X167243445Y-93071032D01*
X167450288Y-93277875D01*
X167693509Y-93440390D01*
X167963762Y-93552332D01*
X168250660Y-93609400D01*
X168543180Y-93609400D01*
X168830078Y-93552332D01*
X169100331Y-93440390D01*
X169343552Y-93277875D01*
X169550395Y-93071032D01*
X169666920Y-92896640D01*
X169783445Y-93071032D01*
X169990288Y-93277875D01*
X170233509Y-93440390D01*
X170503762Y-93552332D01*
X170790660Y-93609400D01*
X171083180Y-93609400D01*
X171370078Y-93552332D01*
X171640331Y-93440390D01*
X171883552Y-93277875D01*
X172090395Y-93071032D01*
X172206920Y-92896640D01*
X172323445Y-93071032D01*
X172530288Y-93277875D01*
X172716920Y-93402579D01*
X172716921Y-94650717D01*
X170068399Y-97299240D01*
X138624805Y-97299240D01*
X138587480Y-97295564D01*
X138550155Y-97299240D01*
X138550147Y-97299240D01*
X138438494Y-97310237D01*
X138295233Y-97353694D01*
X138163204Y-97424266D01*
X138047479Y-97519239D01*
X138023681Y-97548237D01*
X126449723Y-109122196D01*
X126420719Y-109145999D01*
X126370708Y-109206938D01*
X126325746Y-109261724D01*
X126291263Y-109326237D01*
X126255174Y-109393754D01*
X126211717Y-109537015D01*
X126200720Y-109648668D01*
X126200720Y-109648678D01*
X126197044Y-109686000D01*
X126200720Y-109723323D01*
X126200721Y-111046221D01*
X126014088Y-111170925D01*
X125807245Y-111377768D01*
X125690720Y-111552160D01*
X125574195Y-111377768D01*
X125367352Y-111170925D01*
X125124131Y-111008410D01*
X124853878Y-110896468D01*
X124566980Y-110839400D01*
X124274460Y-110839400D01*
X123987562Y-110896468D01*
X123717309Y-111008410D01*
X123474088Y-111170925D01*
X123267245Y-111377768D01*
X123150720Y-111552160D01*
X123034195Y-111377768D01*
X122827352Y-111170925D01*
X122584131Y-111008410D01*
X122313878Y-110896468D01*
X122026980Y-110839400D01*
X121734460Y-110839400D01*
X121447562Y-110896468D01*
X121177309Y-111008410D01*
X120934088Y-111170925D01*
X120727245Y-111377768D01*
X120610720Y-111552160D01*
X120494195Y-111377768D01*
X120287352Y-111170925D01*
X120044131Y-111008410D01*
X119773878Y-110896468D01*
X119486980Y-110839400D01*
X119194460Y-110839400D01*
X118907562Y-110896468D01*
X118637309Y-111008410D01*
X118394088Y-111170925D01*
X118187245Y-111377768D01*
X118070720Y-111552160D01*
X117954195Y-111377768D01*
X117747352Y-111170925D01*
X117504131Y-111008410D01*
X117233878Y-110896468D01*
X116946980Y-110839400D01*
X116654460Y-110839400D01*
X116367562Y-110896468D01*
X116097309Y-111008410D01*
X115854088Y-111170925D01*
X115647245Y-111377768D01*
X115530720Y-111552160D01*
X115414195Y-111377768D01*
X115207352Y-111170925D01*
X114964131Y-111008410D01*
X114693878Y-110896468D01*
X114406980Y-110839400D01*
X114114460Y-110839400D01*
X113827562Y-110896468D01*
X113557309Y-111008410D01*
X113314088Y-111170925D01*
X113107245Y-111377768D01*
X112990720Y-111552160D01*
X112874195Y-111377768D01*
X112667352Y-111170925D01*
X112424131Y-111008410D01*
X112153878Y-110896468D01*
X111866980Y-110839400D01*
X111574460Y-110839400D01*
X111287562Y-110896468D01*
X111017309Y-111008410D01*
X110774088Y-111170925D01*
X110567245Y-111377768D01*
X110445525Y-111559934D01*
X110375898Y-111443045D01*
X110180989Y-111226812D01*
X109947640Y-111052759D01*
X109684819Y-110927575D01*
X109537610Y-110882924D01*
X109307720Y-111004245D01*
X109053720Y-111004245D01*
X108823830Y-110882924D01*
X108676621Y-110927575D01*
X108413800Y-111052759D01*
X108180451Y-111226812D01*
X107985542Y-111443045D01*
X107915915Y-111559934D01*
X107794195Y-111377768D01*
X107587352Y-111170925D01*
X107400720Y-111046222D01*
X107400720Y-110158281D01*
X107618961Y-109940040D01*
X107681099Y-109940040D01*
X107881058Y-109900266D01*
X108069416Y-109822245D01*
X108238934Y-109708977D01*
X108293031Y-109654880D01*
X124082318Y-109654880D01*
X124119640Y-109658556D01*
X124156962Y-109654880D01*
X124156973Y-109654880D01*
X124268626Y-109643883D01*
X124411887Y-109600426D01*
X124543916Y-109529854D01*
X124659641Y-109434881D01*
X124683444Y-109405877D01*
X138714322Y-95375000D01*
X161364438Y-95375000D01*
X161401760Y-95378676D01*
X161439082Y-95375000D01*
X161439093Y-95375000D01*
X161550746Y-95364003D01*
X161694007Y-95320546D01*
X161826036Y-95249974D01*
X161941761Y-95155001D01*
X161965564Y-95125997D01*
X168306299Y-88785262D01*
X186698583Y-88785262D01*
X186770166Y-89029231D01*
X187025676Y-89150131D01*
X187299864Y-89218860D01*
X187582192Y-89232777D01*
X187861810Y-89191347D01*
X188127972Y-89096163D01*
X188253194Y-89029231D01*
X188324777Y-88785262D01*
X187511680Y-87972165D01*
X186698583Y-88785262D01*
X168306299Y-88785262D01*
X169228489Y-87863072D01*
X186071463Y-87863072D01*
X186112893Y-88142690D01*
X186208077Y-88408852D01*
X186275009Y-88534074D01*
X186518978Y-88605657D01*
X187332075Y-87792560D01*
X187691285Y-87792560D01*
X188504382Y-88605657D01*
X188748351Y-88534074D01*
X188869251Y-88278564D01*
X188937980Y-88004376D01*
X188951897Y-87722048D01*
X188910467Y-87442430D01*
X188815283Y-87176268D01*
X188748351Y-87051046D01*
X188504382Y-86979463D01*
X187691285Y-87792560D01*
X187332075Y-87792560D01*
X186518978Y-86979463D01*
X186275009Y-87051046D01*
X186154109Y-87306556D01*
X186085380Y-87580744D01*
X186071463Y-87863072D01*
X169228489Y-87863072D01*
X170291703Y-86799858D01*
X186698583Y-86799858D01*
X187511680Y-87612955D01*
X188324777Y-86799858D01*
X188253194Y-86555889D01*
X187997684Y-86434989D01*
X187723496Y-86366260D01*
X187441168Y-86352343D01*
X187161550Y-86393773D01*
X186895388Y-86488957D01*
X186770166Y-86555889D01*
X186698583Y-86799858D01*
X170291703Y-86799858D01*
X171541282Y-85550280D01*
X189194599Y-85550280D01*
X191112992Y-87468674D01*
X191076680Y-87651225D01*
X191076680Y-87933895D01*
X191131827Y-88211134D01*
X191137262Y-88224256D01*
X190745923Y-88615596D01*
X190716919Y-88639399D01*
X190661791Y-88706574D01*
X190621946Y-88755124D01*
X190600672Y-88794925D01*
X190551374Y-88887154D01*
X190507917Y-89030415D01*
X190496920Y-89142068D01*
X190496920Y-89142078D01*
X190493244Y-89179400D01*
X190496920Y-89216723D01*
X190496920Y-90636328D01*
X190406920Y-90636328D01*
X190282438Y-90648588D01*
X190162740Y-90684898D01*
X190052426Y-90743863D01*
X189955735Y-90823215D01*
X189876383Y-90919906D01*
X189817418Y-91030220D01*
X189792954Y-91110866D01*
X189717189Y-91026812D01*
X189483840Y-90852759D01*
X189221019Y-90727575D01*
X189073810Y-90682924D01*
X188843920Y-90804245D01*
X188843920Y-91997400D01*
X188863920Y-91997400D01*
X188863920Y-92251400D01*
X188843920Y-92251400D01*
X188843920Y-93444555D01*
X189073810Y-93565876D01*
X189221019Y-93521225D01*
X189483840Y-93396041D01*
X189717189Y-93221988D01*
X189792954Y-93137934D01*
X189817418Y-93218580D01*
X189876383Y-93328894D01*
X189955735Y-93425585D01*
X190052426Y-93504937D01*
X190162740Y-93563902D01*
X190282438Y-93600212D01*
X190406920Y-93612472D01*
X190496920Y-93612472D01*
X190496920Y-95659219D01*
X190321841Y-95776203D01*
X190121963Y-95976081D01*
X189964920Y-96211113D01*
X189856747Y-96472266D01*
X189801600Y-96749505D01*
X189801600Y-97032175D01*
X189856747Y-97309414D01*
X189964920Y-97570567D01*
X190121963Y-97805599D01*
X190321841Y-98005477D01*
X190496921Y-98122461D01*
X190496921Y-100011116D01*
X190342161Y-100114523D01*
X190142283Y-100314401D01*
X189985240Y-100549433D01*
X189877067Y-100810586D01*
X189821920Y-101087825D01*
X189821920Y-101370495D01*
X189877067Y-101647734D01*
X189985240Y-101908887D01*
X190142283Y-102143919D01*
X190342161Y-102343797D01*
X190577193Y-102500840D01*
X190838346Y-102609013D01*
X191115585Y-102664160D01*
X191398255Y-102664160D01*
X191675494Y-102609013D01*
X191936647Y-102500840D01*
X192171679Y-102343797D01*
X192371557Y-102143919D01*
X192528600Y-101908887D01*
X192636773Y-101647734D01*
X192691920Y-101370495D01*
X192691920Y-101087825D01*
X192636773Y-100810586D01*
X192528600Y-100549433D01*
X192371557Y-100314401D01*
X192171679Y-100114523D01*
X192016920Y-100011117D01*
X192016920Y-98095306D01*
X192151359Y-98005477D01*
X192351237Y-97805599D01*
X192508280Y-97570567D01*
X192616453Y-97309414D01*
X192671600Y-97032175D01*
X192671600Y-96749505D01*
X192616453Y-96472266D01*
X192508280Y-96211113D01*
X192351237Y-95976081D01*
X192151359Y-95776203D01*
X192016920Y-95686374D01*
X192016920Y-93612472D01*
X192106920Y-93612472D01*
X192231402Y-93600212D01*
X192351100Y-93563902D01*
X192461414Y-93504937D01*
X192558105Y-93425585D01*
X192637457Y-93328894D01*
X192696422Y-93218580D01*
X192732732Y-93098882D01*
X192744992Y-92974400D01*
X192744992Y-91274400D01*
X192732732Y-91149918D01*
X192696422Y-91030220D01*
X192637457Y-90919906D01*
X192558105Y-90823215D01*
X192461414Y-90743863D01*
X192351100Y-90684898D01*
X192231402Y-90648588D01*
X192106920Y-90636328D01*
X192016920Y-90636328D01*
X192016920Y-89494201D01*
X192297960Y-89213162D01*
X192370345Y-89227560D01*
X192653015Y-89227560D01*
X192930254Y-89172413D01*
X193191407Y-89064240D01*
X193426439Y-88907197D01*
X193626317Y-88707319D01*
X193783360Y-88472287D01*
X193891533Y-88211134D01*
X193946680Y-87933895D01*
X193946680Y-87651225D01*
X193891533Y-87373986D01*
X193783360Y-87112833D01*
X193626317Y-86877801D01*
X193426439Y-86677923D01*
X193191407Y-86520880D01*
X192930254Y-86412707D01*
X192653015Y-86357560D01*
X192370345Y-86357560D01*
X192187794Y-86393872D01*
X190073204Y-84279283D01*
X190049401Y-84250279D01*
X189933676Y-84155306D01*
X189801647Y-84084734D01*
X189658386Y-84041277D01*
X189546733Y-84030280D01*
X189546722Y-84030280D01*
X189509400Y-84026604D01*
X189472078Y-84030280D01*
X171263802Y-84030280D01*
X171226479Y-84026604D01*
X171189156Y-84030280D01*
X171189147Y-84030280D01*
X171077494Y-84041277D01*
X170934233Y-84084734D01*
X170802204Y-84155306D01*
X170686479Y-84250279D01*
X170662681Y-84279277D01*
X161086959Y-93855000D01*
X138436843Y-93855000D01*
X138399520Y-93851324D01*
X138362197Y-93855000D01*
X138362187Y-93855000D01*
X138250534Y-93865997D01*
X138117852Y-93906245D01*
X138107273Y-93909454D01*
X137975243Y-93980026D01*
X137891603Y-94048668D01*
X137859519Y-94074999D01*
X137835721Y-94103997D01*
X123804839Y-108134880D01*
X108272711Y-108134880D01*
X108238934Y-108101103D01*
X108069416Y-107987835D01*
X107881058Y-107909814D01*
X107681099Y-107870040D01*
X107477221Y-107870040D01*
X107277262Y-107909814D01*
X107088904Y-107987835D01*
X106919386Y-108101103D01*
X106775223Y-108245266D01*
X106661955Y-108414784D01*
X106583934Y-108603142D01*
X106544160Y-108803101D01*
X106544160Y-108865239D01*
X106129718Y-109279681D01*
X106100720Y-109303479D01*
X106076922Y-109332477D01*
X106076921Y-109332478D01*
X106005746Y-109419204D01*
X105935174Y-109551234D01*
X105907071Y-109643882D01*
X105891718Y-109694494D01*
X105888637Y-109725772D01*
X105877044Y-109843480D01*
X105880721Y-109880812D01*
X105880721Y-111046221D01*
X105694088Y-111170925D01*
X105487245Y-111377768D01*
X105324730Y-111620989D01*
X105212788Y-111891242D01*
X105155720Y-112178140D01*
X104844120Y-112178140D01*
X104844120Y-107533281D01*
X105734962Y-106642440D01*
X124605558Y-106642440D01*
X124642880Y-106646116D01*
X124680202Y-106642440D01*
X124680213Y-106642440D01*
X124791866Y-106631443D01*
X124935127Y-106587986D01*
X125067156Y-106517414D01*
X125182881Y-106422441D01*
X125206684Y-106393437D01*
X129827483Y-101772639D01*
X129856481Y-101748841D01*
X129951454Y-101633116D01*
X130022026Y-101501087D01*
X130065483Y-101357826D01*
X130076480Y-101246173D01*
X130080157Y-101208840D01*
X130076480Y-101171507D01*
X130076480Y-99851323D01*
X130231239Y-99747917D01*
X130431117Y-99548039D01*
X130588160Y-99313007D01*
X130696333Y-99051854D01*
X130751480Y-98774615D01*
X130751480Y-98491945D01*
X130696333Y-98214706D01*
X130588160Y-97953553D01*
X130431117Y-97718521D01*
X130231239Y-97518643D01*
X129996207Y-97361600D01*
X129735054Y-97253427D01*
X129457815Y-97198280D01*
X129175145Y-97198280D01*
X128897906Y-97253427D01*
X128636753Y-97361600D01*
X128401721Y-97518643D01*
X128201843Y-97718521D01*
X128044800Y-97953553D01*
X127936627Y-98214706D01*
X127881480Y-98491945D01*
X127881480Y-98774615D01*
X127936627Y-99051854D01*
X128044800Y-99313007D01*
X128201843Y-99548039D01*
X128401721Y-99747917D01*
X128556480Y-99851324D01*
X128556481Y-100894037D01*
X124328079Y-105122440D01*
X105457483Y-105122440D01*
X105420160Y-105118764D01*
X105382837Y-105122440D01*
X105382827Y-105122440D01*
X105271174Y-105133437D01*
X105127913Y-105176894D01*
X104995883Y-105247466D01*
X104956922Y-105279441D01*
X104880159Y-105342439D01*
X104856361Y-105371437D01*
X103872400Y-106355399D01*
X103872400Y-103248022D01*
X110981183Y-103248022D01*
X111052766Y-103491991D01*
X111308276Y-103612891D01*
X111582464Y-103681620D01*
X111864792Y-103695537D01*
X112144410Y-103654107D01*
X112410572Y-103558923D01*
X112535794Y-103491991D01*
X112607377Y-103248022D01*
X111794280Y-102434925D01*
X110981183Y-103248022D01*
X103872400Y-103248022D01*
X103872400Y-102325832D01*
X110354063Y-102325832D01*
X110395493Y-102605450D01*
X110490677Y-102871612D01*
X110557609Y-102996834D01*
X110801578Y-103068417D01*
X111614675Y-102255320D01*
X111973885Y-102255320D01*
X112786982Y-103068417D01*
X113030951Y-102996834D01*
X113151851Y-102741324D01*
X113220580Y-102467136D01*
X113234497Y-102184808D01*
X113193067Y-101905190D01*
X113097883Y-101639028D01*
X113030951Y-101513806D01*
X112786982Y-101442223D01*
X111973885Y-102255320D01*
X111614675Y-102255320D01*
X110801578Y-101442223D01*
X110557609Y-101513806D01*
X110436709Y-101769316D01*
X110367980Y-102043504D01*
X110354063Y-102325832D01*
X103872400Y-102325832D01*
X103872400Y-101262618D01*
X110981183Y-101262618D01*
X111794280Y-102075715D01*
X112607377Y-101262618D01*
X112535794Y-101018649D01*
X112280284Y-100897749D01*
X112006096Y-100829020D01*
X111723768Y-100815103D01*
X111444150Y-100856533D01*
X111177988Y-100951717D01*
X111052766Y-101018649D01*
X110981183Y-101262618D01*
X103872400Y-101262618D01*
X103872400Y-98476705D01*
X105189120Y-98476705D01*
X105189120Y-98759375D01*
X105244267Y-99036614D01*
X105352440Y-99297767D01*
X105509483Y-99532799D01*
X105709361Y-99732677D01*
X105944393Y-99889720D01*
X106205546Y-99997893D01*
X106482785Y-100053040D01*
X106765455Y-100053040D01*
X107042694Y-99997893D01*
X107303847Y-99889720D01*
X107538879Y-99732677D01*
X107738757Y-99532799D01*
X107895800Y-99297767D01*
X108003973Y-99036614D01*
X108059120Y-98759375D01*
X108059120Y-98476705D01*
X108003973Y-98199466D01*
X107895800Y-97938313D01*
X107738757Y-97703281D01*
X107538879Y-97503403D01*
X107303847Y-97346360D01*
X107042694Y-97238187D01*
X106765455Y-97183040D01*
X106482785Y-97183040D01*
X106205546Y-97238187D01*
X105944393Y-97346360D01*
X105709361Y-97503403D01*
X105509483Y-97703281D01*
X105352440Y-97938313D01*
X105244267Y-98199466D01*
X105189120Y-98476705D01*
X103872400Y-98476705D01*
X103872400Y-95937902D01*
X110981183Y-95937902D01*
X111052766Y-96181871D01*
X111308276Y-96302771D01*
X111582464Y-96371500D01*
X111864792Y-96385417D01*
X112144410Y-96343987D01*
X112410572Y-96248803D01*
X112535794Y-96181871D01*
X112607377Y-95937902D01*
X111794280Y-95124805D01*
X110981183Y-95937902D01*
X103872400Y-95937902D01*
X103872400Y-95015712D01*
X110354063Y-95015712D01*
X110395493Y-95295330D01*
X110490677Y-95561492D01*
X110557609Y-95686714D01*
X110801578Y-95758297D01*
X111614675Y-94945200D01*
X111973885Y-94945200D01*
X112786982Y-95758297D01*
X113030951Y-95686714D01*
X113151851Y-95431204D01*
X113220580Y-95157016D01*
X113234497Y-94874688D01*
X113193067Y-94595070D01*
X113097883Y-94328908D01*
X113030951Y-94203686D01*
X112786982Y-94132103D01*
X111973885Y-94945200D01*
X111614675Y-94945200D01*
X110801578Y-94132103D01*
X110557609Y-94203686D01*
X110436709Y-94459196D01*
X110367980Y-94733384D01*
X110354063Y-95015712D01*
X103872400Y-95015712D01*
X103872400Y-93952498D01*
X110981183Y-93952498D01*
X111794280Y-94765595D01*
X112607377Y-93952498D01*
X112535794Y-93708529D01*
X112280284Y-93587629D01*
X112006096Y-93518900D01*
X111723768Y-93504983D01*
X111444150Y-93546413D01*
X111177988Y-93641597D01*
X111052766Y-93708529D01*
X110981183Y-93952498D01*
X103872400Y-93952498D01*
X103872400Y-91049745D01*
X105178960Y-91049745D01*
X105178960Y-91332415D01*
X105234107Y-91609654D01*
X105342280Y-91870807D01*
X105499323Y-92105839D01*
X105699201Y-92305717D01*
X105934233Y-92462760D01*
X106195386Y-92570933D01*
X106472625Y-92626080D01*
X106755295Y-92626080D01*
X107032534Y-92570933D01*
X107293687Y-92462760D01*
X107528719Y-92305717D01*
X107728597Y-92105839D01*
X107885640Y-91870807D01*
X107993813Y-91609654D01*
X108048960Y-91332415D01*
X108048960Y-91049745D01*
X107993813Y-90772506D01*
X107885640Y-90511353D01*
X107728597Y-90276321D01*
X107528719Y-90076443D01*
X107293687Y-89919400D01*
X107032534Y-89811227D01*
X106755295Y-89756080D01*
X106472625Y-89756080D01*
X106195386Y-89811227D01*
X105934233Y-89919400D01*
X105699201Y-90076443D01*
X105499323Y-90276321D01*
X105342280Y-90511353D01*
X105234107Y-90772506D01*
X105178960Y-91049745D01*
X103872400Y-91049745D01*
X103872400Y-86778140D01*
X105155720Y-86778140D01*
X105155720Y-87070660D01*
X105212788Y-87357558D01*
X105324730Y-87627811D01*
X105487245Y-87871032D01*
X105694088Y-88077875D01*
X105937309Y-88240390D01*
X106207562Y-88352332D01*
X106494460Y-88409400D01*
X106786980Y-88409400D01*
X107073878Y-88352332D01*
X107344131Y-88240390D01*
X107587352Y-88077875D01*
X107794195Y-87871032D01*
X107915915Y-87688866D01*
X107985542Y-87805755D01*
X108180451Y-88021988D01*
X108413800Y-88196041D01*
X108676621Y-88321225D01*
X108823830Y-88365876D01*
X109053720Y-88244555D01*
X109053720Y-87051400D01*
X109033720Y-87051400D01*
X109033720Y-86797400D01*
X109053720Y-86797400D01*
X109053720Y-85604245D01*
X109307720Y-85604245D01*
X109307720Y-86797400D01*
X109327720Y-86797400D01*
X109327720Y-87051400D01*
X109307720Y-87051400D01*
X109307720Y-88244555D01*
X109537610Y-88365876D01*
X109684819Y-88321225D01*
X109947640Y-88196041D01*
X110180989Y-88021988D01*
X110375898Y-87805755D01*
X110445525Y-87688866D01*
X110567245Y-87871032D01*
X110774088Y-88077875D01*
X111017309Y-88240390D01*
X111287562Y-88352332D01*
X111574460Y-88409400D01*
X111866980Y-88409400D01*
X112153878Y-88352332D01*
X112424131Y-88240390D01*
X112667352Y-88077875D01*
X112874195Y-87871032D01*
X112990720Y-87696640D01*
X113107245Y-87871032D01*
X113314088Y-88077875D01*
X113557309Y-88240390D01*
X113827562Y-88352332D01*
X114114460Y-88409400D01*
X114406980Y-88409400D01*
X114693878Y-88352332D01*
X114964131Y-88240390D01*
X115207352Y-88077875D01*
X115414195Y-87871032D01*
X115530720Y-87696640D01*
X115647245Y-87871032D01*
X115854088Y-88077875D01*
X116013961Y-88184698D01*
X116013960Y-89973036D01*
X115859201Y-90076443D01*
X115659323Y-90276321D01*
X115502280Y-90511353D01*
X115394107Y-90772506D01*
X115338960Y-91049745D01*
X115338960Y-91332415D01*
X115394107Y-91609654D01*
X115502280Y-91870807D01*
X115659323Y-92105839D01*
X115859201Y-92305717D01*
X116034281Y-92422701D01*
X116034280Y-93727156D01*
X115879521Y-93830563D01*
X115679643Y-94030441D01*
X115522600Y-94265473D01*
X115414427Y-94526626D01*
X115359280Y-94803865D01*
X115359280Y-95086535D01*
X115414427Y-95363774D01*
X115522600Y-95624927D01*
X115679643Y-95859959D01*
X115879521Y-96059837D01*
X116114553Y-96216880D01*
X116375706Y-96325053D01*
X116652945Y-96380200D01*
X116935615Y-96380200D01*
X117212854Y-96325053D01*
X117474007Y-96216880D01*
X117709039Y-96059837D01*
X117908917Y-95859959D01*
X118065960Y-95624927D01*
X118174133Y-95363774D01*
X118229280Y-95086535D01*
X118229280Y-94803865D01*
X118192968Y-94621314D01*
X119728443Y-93085839D01*
X119757441Y-93062041D01*
X119852414Y-92946316D01*
X119922986Y-92814287D01*
X119966443Y-92671026D01*
X119977440Y-92559373D01*
X119977440Y-92559365D01*
X119981116Y-92522040D01*
X119977440Y-92484715D01*
X119977440Y-92383723D01*
X120132199Y-92280317D01*
X120332077Y-92080439D01*
X120489120Y-91845407D01*
X120597293Y-91584254D01*
X120652440Y-91307015D01*
X120652440Y-91024345D01*
X120597293Y-90747106D01*
X120489120Y-90485953D01*
X120332077Y-90250921D01*
X120132199Y-90051043D01*
X119897167Y-89894000D01*
X119636014Y-89785827D01*
X119358775Y-89730680D01*
X119076105Y-89730680D01*
X118798866Y-89785827D01*
X118537713Y-89894000D01*
X118302681Y-90051043D01*
X118102803Y-90250921D01*
X117987214Y-90423912D01*
X117888597Y-90276321D01*
X117688719Y-90076443D01*
X117533960Y-89973037D01*
X117533960Y-88220459D01*
X117747352Y-88077875D01*
X117954195Y-87871032D01*
X118070720Y-87696640D01*
X118187245Y-87871032D01*
X118394088Y-88077875D01*
X118637309Y-88240390D01*
X118907562Y-88352332D01*
X119194460Y-88409400D01*
X119486980Y-88409400D01*
X119707128Y-88365609D01*
X120875520Y-89534002D01*
X120875521Y-93451837D01*
X117108007Y-97219352D01*
X116925455Y-97183040D01*
X116642785Y-97183040D01*
X116365546Y-97238187D01*
X116104393Y-97346360D01*
X115869361Y-97503403D01*
X115669483Y-97703281D01*
X115512440Y-97938313D01*
X115404267Y-98199466D01*
X115349120Y-98476705D01*
X115349120Y-98759375D01*
X115404267Y-99036614D01*
X115512440Y-99297767D01*
X115669483Y-99532799D01*
X115869361Y-99732677D01*
X116024120Y-99836084D01*
X116024121Y-101044065D01*
X115879521Y-101140683D01*
X115679643Y-101340561D01*
X115522600Y-101575593D01*
X115414427Y-101836746D01*
X115359280Y-102113985D01*
X115359280Y-102396655D01*
X115414427Y-102673894D01*
X115522600Y-102935047D01*
X115679643Y-103170079D01*
X115879521Y-103369957D01*
X116114553Y-103527000D01*
X116375706Y-103635173D01*
X116652945Y-103690320D01*
X116935615Y-103690320D01*
X117212854Y-103635173D01*
X117474007Y-103527000D01*
X117709039Y-103369957D01*
X117908917Y-103170079D01*
X118065960Y-102935047D01*
X118174133Y-102673894D01*
X118229280Y-102396655D01*
X118229280Y-102113985D01*
X118229210Y-102113632D01*
X119667489Y-100675354D01*
X119696481Y-100651561D01*
X119720275Y-100622568D01*
X119720279Y-100622564D01*
X119791453Y-100535837D01*
X119791454Y-100535836D01*
X119862026Y-100403807D01*
X119905483Y-100260546D01*
X119916480Y-100148893D01*
X119916480Y-100148884D01*
X119920156Y-100111561D01*
X119916480Y-100074238D01*
X119916480Y-99851323D01*
X120071239Y-99747917D01*
X120271117Y-99548039D01*
X120428160Y-99313007D01*
X120536333Y-99051854D01*
X120591480Y-98774615D01*
X120591480Y-98491945D01*
X120536333Y-98214706D01*
X120428160Y-97953553D01*
X120271117Y-97718521D01*
X120071239Y-97518643D01*
X119836207Y-97361600D01*
X119575054Y-97253427D01*
X119297815Y-97198280D01*
X119278681Y-97198280D01*
X122146523Y-94330439D01*
X122175521Y-94306641D01*
X122270494Y-94190916D01*
X122341066Y-94058887D01*
X122384523Y-93915626D01*
X122395520Y-93803973D01*
X122395520Y-93803965D01*
X122399196Y-93766640D01*
X122395520Y-93729315D01*
X122395520Y-91024345D01*
X127942440Y-91024345D01*
X127942440Y-91307015D01*
X127997587Y-91584254D01*
X128105760Y-91845407D01*
X128262803Y-92080439D01*
X128462681Y-92280317D01*
X128697713Y-92437360D01*
X128958866Y-92545533D01*
X129236105Y-92600680D01*
X129518775Y-92600680D01*
X129796014Y-92545533D01*
X130057167Y-92437360D01*
X130292199Y-92280317D01*
X130492077Y-92080439D01*
X130561540Y-91976480D01*
X153809165Y-91976480D01*
X153923685Y-92147872D01*
X154130528Y-92354715D01*
X154373749Y-92517230D01*
X154644002Y-92629172D01*
X154930900Y-92686240D01*
X155223420Y-92686240D01*
X155510318Y-92629172D01*
X155780571Y-92517230D01*
X156023792Y-92354715D01*
X156148870Y-92229637D01*
X158728368Y-92229637D01*
X158806003Y-92478712D01*
X159070043Y-92604611D01*
X159353571Y-92676579D01*
X159645691Y-92691851D01*
X159935179Y-92649839D01*
X160210907Y-92552159D01*
X160348317Y-92478712D01*
X160425952Y-92229637D01*
X159577160Y-91380845D01*
X158728368Y-92229637D01*
X156148870Y-92229637D01*
X156230635Y-92147872D01*
X156393150Y-91904651D01*
X156505092Y-91634398D01*
X156562160Y-91347500D01*
X156562160Y-91269771D01*
X158086549Y-91269771D01*
X158128561Y-91559259D01*
X158226241Y-91834987D01*
X158299688Y-91972397D01*
X158548763Y-92050032D01*
X159397555Y-91201240D01*
X159756765Y-91201240D01*
X160605557Y-92050032D01*
X160854632Y-91972397D01*
X160980531Y-91708357D01*
X161052499Y-91424829D01*
X161067771Y-91132709D01*
X161025759Y-90843221D01*
X160928079Y-90567493D01*
X160854632Y-90430083D01*
X160605557Y-90352448D01*
X159756765Y-91201240D01*
X159397555Y-91201240D01*
X158548763Y-90352448D01*
X158299688Y-90430083D01*
X158173789Y-90694123D01*
X158101821Y-90977651D01*
X158086549Y-91269771D01*
X156562160Y-91269771D01*
X156562160Y-91054980D01*
X156505092Y-90768082D01*
X156393150Y-90497829D01*
X156230635Y-90254608D01*
X156148870Y-90172843D01*
X158728368Y-90172843D01*
X159577160Y-91021635D01*
X160425952Y-90172843D01*
X160348317Y-89923768D01*
X160084277Y-89797869D01*
X159800749Y-89725901D01*
X159508629Y-89710629D01*
X159219141Y-89752641D01*
X158943413Y-89850321D01*
X158806003Y-89923768D01*
X158728368Y-90172843D01*
X156148870Y-90172843D01*
X156023792Y-90047765D01*
X155862160Y-89939766D01*
X155862160Y-85962714D01*
X156023792Y-85854715D01*
X156148870Y-85729637D01*
X158728368Y-85729637D01*
X158806003Y-85978712D01*
X159070043Y-86104611D01*
X159353571Y-86176579D01*
X159645691Y-86191851D01*
X159935179Y-86149839D01*
X160210907Y-86052159D01*
X160348317Y-85978712D01*
X160425952Y-85729637D01*
X159577160Y-84880845D01*
X158728368Y-85729637D01*
X156148870Y-85729637D01*
X156230635Y-85647872D01*
X156393150Y-85404651D01*
X156505092Y-85134398D01*
X156562160Y-84847500D01*
X156562160Y-84769771D01*
X158086549Y-84769771D01*
X158128561Y-85059259D01*
X158226241Y-85334987D01*
X158299688Y-85472397D01*
X158548763Y-85550032D01*
X159397555Y-84701240D01*
X159756765Y-84701240D01*
X160605557Y-85550032D01*
X160854632Y-85472397D01*
X160980531Y-85208357D01*
X161052499Y-84924829D01*
X161067771Y-84632709D01*
X161025759Y-84343221D01*
X160928079Y-84067493D01*
X160854632Y-83930083D01*
X160605557Y-83852448D01*
X159756765Y-84701240D01*
X159397555Y-84701240D01*
X158548763Y-83852448D01*
X158299688Y-83930083D01*
X158173789Y-84194123D01*
X158101821Y-84477651D01*
X158086549Y-84769771D01*
X156562160Y-84769771D01*
X156562160Y-84554980D01*
X156505092Y-84268082D01*
X156393150Y-83997829D01*
X156230635Y-83754608D01*
X156148870Y-83672843D01*
X158728368Y-83672843D01*
X159577160Y-84521635D01*
X160425952Y-83672843D01*
X160348317Y-83423768D01*
X160084277Y-83297869D01*
X159800749Y-83225901D01*
X159508629Y-83210629D01*
X159219141Y-83252641D01*
X158943413Y-83350321D01*
X158806003Y-83423768D01*
X158728368Y-83672843D01*
X156148870Y-83672843D01*
X156023792Y-83547765D01*
X155780571Y-83385250D01*
X155510318Y-83273308D01*
X155223420Y-83216240D01*
X154930900Y-83216240D01*
X154644002Y-83273308D01*
X154373749Y-83385250D01*
X154130528Y-83547765D01*
X153923685Y-83754608D01*
X153761170Y-83997829D01*
X153649228Y-84268082D01*
X153592160Y-84554980D01*
X153592160Y-84847500D01*
X153649228Y-85134398D01*
X153761170Y-85404651D01*
X153923685Y-85647872D01*
X154130528Y-85854715D01*
X154292160Y-85962714D01*
X154292161Y-89939765D01*
X154130528Y-90047765D01*
X153923685Y-90254608D01*
X153788799Y-90456480D01*
X130629427Y-90456480D01*
X130492077Y-90250921D01*
X130292199Y-90051043D01*
X130057167Y-89894000D01*
X129796014Y-89785827D01*
X129518775Y-89730680D01*
X129236105Y-89730680D01*
X128958866Y-89785827D01*
X128697713Y-89894000D01*
X128462681Y-90051043D01*
X128262803Y-90250921D01*
X128105760Y-90485953D01*
X127997587Y-90747106D01*
X127942440Y-91024345D01*
X122395520Y-91024345D01*
X122395520Y-89256522D01*
X122399196Y-89219199D01*
X122395520Y-89181876D01*
X122395520Y-89181867D01*
X122384523Y-89070214D01*
X122341066Y-88926953D01*
X122270494Y-88794924D01*
X122175521Y-88679199D01*
X122146524Y-88655402D01*
X121900522Y-88409400D01*
X122026980Y-88409400D01*
X122313878Y-88352332D01*
X122584131Y-88240390D01*
X122827352Y-88077875D01*
X123034195Y-87871032D01*
X123150720Y-87696640D01*
X123267245Y-87871032D01*
X123474088Y-88077875D01*
X123717309Y-88240390D01*
X123987562Y-88352332D01*
X124274460Y-88409400D01*
X124566980Y-88409400D01*
X124853878Y-88352332D01*
X125124131Y-88240390D01*
X125367352Y-88077875D01*
X125574195Y-87871032D01*
X125690720Y-87696640D01*
X125807245Y-87871032D01*
X126014088Y-88077875D01*
X126257309Y-88240390D01*
X126527562Y-88352332D01*
X126814460Y-88409400D01*
X127106980Y-88409400D01*
X127393878Y-88352332D01*
X127664131Y-88240390D01*
X127907352Y-88077875D01*
X128114195Y-87871032D01*
X128230720Y-87696640D01*
X128347245Y-87871032D01*
X128554088Y-88077875D01*
X128797309Y-88240390D01*
X129067562Y-88352332D01*
X129354460Y-88409400D01*
X129646980Y-88409400D01*
X129933878Y-88352332D01*
X130204131Y-88240390D01*
X130447352Y-88077875D01*
X130654195Y-87871032D01*
X130770720Y-87696640D01*
X130887245Y-87871032D01*
X131094088Y-88077875D01*
X131337309Y-88240390D01*
X131607562Y-88352332D01*
X131894460Y-88409400D01*
X132186980Y-88409400D01*
X132473878Y-88352332D01*
X132744131Y-88240390D01*
X132987352Y-88077875D01*
X133194195Y-87871032D01*
X133310720Y-87696640D01*
X133427245Y-87871032D01*
X133634088Y-88077875D01*
X133877309Y-88240390D01*
X134147562Y-88352332D01*
X134434460Y-88409400D01*
X134726980Y-88409400D01*
X135013878Y-88352332D01*
X135284131Y-88240390D01*
X135527352Y-88077875D01*
X135734195Y-87871032D01*
X135850720Y-87696640D01*
X135967245Y-87871032D01*
X136174088Y-88077875D01*
X136417309Y-88240390D01*
X136687562Y-88352332D01*
X136974460Y-88409400D01*
X137266980Y-88409400D01*
X137553878Y-88352332D01*
X137824131Y-88240390D01*
X138067352Y-88077875D01*
X138274195Y-87871032D01*
X138390720Y-87696640D01*
X138507245Y-87871032D01*
X138714088Y-88077875D01*
X138957309Y-88240390D01*
X139227562Y-88352332D01*
X139514460Y-88409400D01*
X139806980Y-88409400D01*
X140093878Y-88352332D01*
X140364131Y-88240390D01*
X140607352Y-88077875D01*
X140739207Y-87946020D01*
X140761218Y-88018580D01*
X140820183Y-88128894D01*
X140899535Y-88225585D01*
X140996226Y-88304937D01*
X141106540Y-88363902D01*
X141226238Y-88400212D01*
X141350720Y-88412472D01*
X143050720Y-88412472D01*
X143175202Y-88400212D01*
X143294900Y-88363902D01*
X143405214Y-88304937D01*
X143501905Y-88225585D01*
X143581257Y-88128894D01*
X143640222Y-88018580D01*
X143676532Y-87898882D01*
X143688792Y-87774400D01*
X143688792Y-86074400D01*
X143676532Y-85949918D01*
X143640222Y-85830220D01*
X143581257Y-85719906D01*
X143501905Y-85623215D01*
X143405214Y-85543863D01*
X143294900Y-85484898D01*
X143175202Y-85448588D01*
X143050720Y-85436328D01*
X141350720Y-85436328D01*
X141226238Y-85448588D01*
X141106540Y-85484898D01*
X140996226Y-85543863D01*
X140899535Y-85623215D01*
X140820183Y-85719906D01*
X140761218Y-85830220D01*
X140739207Y-85902780D01*
X140607352Y-85770925D01*
X140364131Y-85608410D01*
X140093878Y-85496468D01*
X139806980Y-85439400D01*
X139514460Y-85439400D01*
X139227562Y-85496468D01*
X138957309Y-85608410D01*
X138714088Y-85770925D01*
X138507245Y-85977768D01*
X138390720Y-86152160D01*
X138274195Y-85977768D01*
X138067352Y-85770925D01*
X137824131Y-85608410D01*
X137553878Y-85496468D01*
X137266980Y-85439400D01*
X136974460Y-85439400D01*
X136687562Y-85496468D01*
X136417309Y-85608410D01*
X136174088Y-85770925D01*
X135967245Y-85977768D01*
X135850720Y-86152160D01*
X135734195Y-85977768D01*
X135527352Y-85770925D01*
X135284131Y-85608410D01*
X135013878Y-85496468D01*
X134726980Y-85439400D01*
X134434460Y-85439400D01*
X134147562Y-85496468D01*
X133877309Y-85608410D01*
X133634088Y-85770925D01*
X133427245Y-85977768D01*
X133310720Y-86152160D01*
X133194195Y-85977768D01*
X132987352Y-85770925D01*
X132744131Y-85608410D01*
X132473878Y-85496468D01*
X132186980Y-85439400D01*
X131894460Y-85439400D01*
X131607562Y-85496468D01*
X131337309Y-85608410D01*
X131094088Y-85770925D01*
X130887245Y-85977768D01*
X130770720Y-86152160D01*
X130654195Y-85977768D01*
X130447352Y-85770925D01*
X130204131Y-85608410D01*
X129933878Y-85496468D01*
X129646980Y-85439400D01*
X129354460Y-85439400D01*
X129067562Y-85496468D01*
X128797309Y-85608410D01*
X128554088Y-85770925D01*
X128347245Y-85977768D01*
X128230720Y-86152160D01*
X128114195Y-85977768D01*
X127907352Y-85770925D01*
X127664131Y-85608410D01*
X127393878Y-85496468D01*
X127106980Y-85439400D01*
X126814460Y-85439400D01*
X126527562Y-85496468D01*
X126257309Y-85608410D01*
X126014088Y-85770925D01*
X125807245Y-85977768D01*
X125690720Y-86152160D01*
X125574195Y-85977768D01*
X125367352Y-85770925D01*
X125124131Y-85608410D01*
X124853878Y-85496468D01*
X124566980Y-85439400D01*
X124274460Y-85439400D01*
X123987562Y-85496468D01*
X123717309Y-85608410D01*
X123474088Y-85770925D01*
X123267245Y-85977768D01*
X123150720Y-86152160D01*
X123034195Y-85977768D01*
X122827352Y-85770925D01*
X122584131Y-85608410D01*
X122313878Y-85496468D01*
X122026980Y-85439400D01*
X121734460Y-85439400D01*
X121447562Y-85496468D01*
X121177309Y-85608410D01*
X120934088Y-85770925D01*
X120727245Y-85977768D01*
X120610720Y-86152160D01*
X120494195Y-85977768D01*
X120287352Y-85770925D01*
X120044131Y-85608410D01*
X119773878Y-85496468D01*
X119486980Y-85439400D01*
X119194460Y-85439400D01*
X118907562Y-85496468D01*
X118637309Y-85608410D01*
X118394088Y-85770925D01*
X118187245Y-85977768D01*
X118070720Y-86152160D01*
X117954195Y-85977768D01*
X117747352Y-85770925D01*
X117504131Y-85608410D01*
X117233878Y-85496468D01*
X116946980Y-85439400D01*
X116654460Y-85439400D01*
X116367562Y-85496468D01*
X116097309Y-85608410D01*
X115854088Y-85770925D01*
X115647245Y-85977768D01*
X115530720Y-86152160D01*
X115414195Y-85977768D01*
X115207352Y-85770925D01*
X114964131Y-85608410D01*
X114693878Y-85496468D01*
X114406980Y-85439400D01*
X114114460Y-85439400D01*
X113827562Y-85496468D01*
X113557309Y-85608410D01*
X113314088Y-85770925D01*
X113107245Y-85977768D01*
X112990720Y-86152160D01*
X112874195Y-85977768D01*
X112667352Y-85770925D01*
X112424131Y-85608410D01*
X112153878Y-85496468D01*
X111866980Y-85439400D01*
X111574460Y-85439400D01*
X111287562Y-85496468D01*
X111017309Y-85608410D01*
X110774088Y-85770925D01*
X110567245Y-85977768D01*
X110445525Y-86159934D01*
X110375898Y-86043045D01*
X110180989Y-85826812D01*
X109947640Y-85652759D01*
X109684819Y-85527575D01*
X109537610Y-85482924D01*
X109307720Y-85604245D01*
X109053720Y-85604245D01*
X108823830Y-85482924D01*
X108676621Y-85527575D01*
X108413800Y-85652759D01*
X108180451Y-85826812D01*
X107985542Y-86043045D01*
X107915915Y-86159934D01*
X107794195Y-85977768D01*
X107587352Y-85770925D01*
X107344131Y-85608410D01*
X107073878Y-85496468D01*
X106786980Y-85439400D01*
X106494460Y-85439400D01*
X106207562Y-85496468D01*
X105937309Y-85608410D01*
X105694088Y-85770925D01*
X105487245Y-85977768D01*
X105324730Y-86220989D01*
X105212788Y-86491242D01*
X105155720Y-86778140D01*
X103872400Y-86778140D01*
X103872400Y-82949960D01*
X197552401Y-82949960D01*
X197552400Y-116629960D01*
G04 #@! TA.AperFunction,Conductor*
D20*
G36*
X197552400Y-116629960D02*
G01*
X103872400Y-116629960D01*
X103872400Y-115666001D01*
X104267349Y-116060951D01*
X104291689Y-116090488D01*
X104348707Y-116137089D01*
X104406323Y-116184374D01*
X104407012Y-116184742D01*
X104407605Y-116185227D01*
X104472556Y-116219776D01*
X104538353Y-116254946D01*
X104539096Y-116255172D01*
X104539776Y-116255533D01*
X104610541Y-116276843D01*
X104681613Y-116298402D01*
X104682383Y-116298478D01*
X104683124Y-116298701D01*
X104756958Y-116305823D01*
X104830599Y-116313076D01*
X104868692Y-116309324D01*
X152395963Y-116213549D01*
X152783929Y-116213549D01*
X152821251Y-116217225D01*
X152858573Y-116213549D01*
X152858584Y-116213549D01*
X152970237Y-116202552D01*
X153113498Y-116159095D01*
X153245527Y-116088523D01*
X153361252Y-115993550D01*
X153385054Y-115964547D01*
X153791762Y-115557840D01*
X153798982Y-115557840D01*
X153923685Y-115744472D01*
X154130528Y-115951315D01*
X154373749Y-116113830D01*
X154644002Y-116225772D01*
X154930900Y-116282840D01*
X155223420Y-116282840D01*
X155510318Y-116225772D01*
X155780571Y-116113830D01*
X156023792Y-115951315D01*
X156148870Y-115826237D01*
X158728368Y-115826237D01*
X158806003Y-116075312D01*
X159070043Y-116201211D01*
X159353571Y-116273179D01*
X159645691Y-116288451D01*
X159935179Y-116246439D01*
X160210907Y-116148759D01*
X160348317Y-116075312D01*
X160425952Y-115826237D01*
X159577160Y-114977445D01*
X158728368Y-115826237D01*
X156148870Y-115826237D01*
X156230635Y-115744472D01*
X156393150Y-115501251D01*
X156505092Y-115230998D01*
X156562160Y-114944100D01*
X156562160Y-114866371D01*
X158086549Y-114866371D01*
X158128561Y-115155859D01*
X158226241Y-115431587D01*
X158299688Y-115568997D01*
X158548763Y-115646632D01*
X159397555Y-114797840D01*
X159756765Y-114797840D01*
X160605557Y-115646632D01*
X160854632Y-115568997D01*
X160980531Y-115304957D01*
X161052499Y-115021429D01*
X161067771Y-114729309D01*
X161025759Y-114439821D01*
X160928079Y-114164093D01*
X160854632Y-114026683D01*
X160605557Y-113949048D01*
X159756765Y-114797840D01*
X159397555Y-114797840D01*
X158548763Y-113949048D01*
X158299688Y-114026683D01*
X158173789Y-114290723D01*
X158101821Y-114574251D01*
X158086549Y-114866371D01*
X156562160Y-114866371D01*
X156562160Y-114651580D01*
X156505092Y-114364682D01*
X156393150Y-114094429D01*
X156230635Y-113851208D01*
X156148870Y-113769443D01*
X158728368Y-113769443D01*
X159577160Y-114618235D01*
X160425952Y-113769443D01*
X160348317Y-113520368D01*
X160084277Y-113394469D01*
X159800749Y-113322501D01*
X159508629Y-113307229D01*
X159219141Y-113349241D01*
X158943413Y-113446921D01*
X158806003Y-113520368D01*
X158728368Y-113769443D01*
X156148870Y-113769443D01*
X156023792Y-113644365D01*
X155837160Y-113519662D01*
X155837160Y-109576018D01*
X156023792Y-109451315D01*
X156148870Y-109326237D01*
X158728368Y-109326237D01*
X158806003Y-109575312D01*
X159070043Y-109701211D01*
X159353571Y-109773179D01*
X159645691Y-109788451D01*
X159935179Y-109746439D01*
X160210907Y-109648759D01*
X160348317Y-109575312D01*
X160425952Y-109326237D01*
X159577160Y-108477445D01*
X158728368Y-109326237D01*
X156148870Y-109326237D01*
X156230635Y-109244472D01*
X156393150Y-109001251D01*
X156505092Y-108730998D01*
X156562160Y-108444100D01*
X156562160Y-108366371D01*
X158086549Y-108366371D01*
X158128561Y-108655859D01*
X158226241Y-108931587D01*
X158299688Y-109068997D01*
X158548763Y-109146632D01*
X159397555Y-108297840D01*
X159756765Y-108297840D01*
X160605557Y-109146632D01*
X160854632Y-109068997D01*
X160980531Y-108804957D01*
X161052499Y-108521429D01*
X161067771Y-108229309D01*
X161025759Y-107939821D01*
X160928079Y-107664093D01*
X160854632Y-107526683D01*
X160605557Y-107449048D01*
X159756765Y-108297840D01*
X159397555Y-108297840D01*
X158548763Y-107449048D01*
X158299688Y-107526683D01*
X158173789Y-107790723D01*
X158101821Y-108074251D01*
X158086549Y-108366371D01*
X156562160Y-108366371D01*
X156562160Y-108151580D01*
X156505092Y-107864682D01*
X156393150Y-107594429D01*
X156230635Y-107351208D01*
X156148870Y-107269443D01*
X158728368Y-107269443D01*
X159577160Y-108118235D01*
X160425952Y-107269443D01*
X160348317Y-107020368D01*
X160084277Y-106894469D01*
X159800749Y-106822501D01*
X159508629Y-106807229D01*
X159219141Y-106849241D01*
X158943413Y-106946921D01*
X158806003Y-107020368D01*
X158728368Y-107269443D01*
X156148870Y-107269443D01*
X156023792Y-107144365D01*
X155780571Y-106981850D01*
X155510318Y-106869908D01*
X155223420Y-106812840D01*
X154930900Y-106812840D01*
X154644002Y-106869908D01*
X154373749Y-106981850D01*
X154130528Y-107144365D01*
X153923685Y-107351208D01*
X153761170Y-107594429D01*
X153649228Y-107864682D01*
X153592160Y-108151580D01*
X153592160Y-108444100D01*
X153649228Y-108730998D01*
X153761170Y-109001251D01*
X153923685Y-109244472D01*
X154130528Y-109451315D01*
X154317160Y-109576019D01*
X154317161Y-113519661D01*
X154130528Y-113644365D01*
X153923685Y-113851208D01*
X153798982Y-114037840D01*
X153514293Y-114037840D01*
X153476960Y-114034163D01*
X153439627Y-114037840D01*
X153327974Y-114048837D01*
X153184713Y-114092294D01*
X153052684Y-114162866D01*
X152936959Y-114257839D01*
X152913160Y-114286838D01*
X152506676Y-114693323D01*
X152394630Y-114693549D01*
X152357976Y-114693549D01*
X152357210Y-114693624D01*
X152356442Y-114693626D01*
X152356437Y-114693626D01*
X105144767Y-114788766D01*
X104844120Y-114488119D01*
X104844120Y-112178140D01*
X105155720Y-112178140D01*
X105155720Y-112470660D01*
X105212788Y-112757558D01*
X105324730Y-113027811D01*
X105487245Y-113271032D01*
X105694088Y-113477875D01*
X105937309Y-113640390D01*
X106207562Y-113752332D01*
X106494460Y-113809400D01*
X106786980Y-113809400D01*
X107073878Y-113752332D01*
X107344131Y-113640390D01*
X107587352Y-113477875D01*
X107794195Y-113271032D01*
X107915915Y-113088866D01*
X107985542Y-113205755D01*
X108180451Y-113421988D01*
X108413800Y-113596041D01*
X108676621Y-113721225D01*
X108823830Y-113765876D01*
X109053720Y-113644555D01*
X109053720Y-112451400D01*
X109033720Y-112451400D01*
X109033720Y-112197400D01*
X109053720Y-112197400D01*
X109053720Y-111004245D01*
X109307720Y-111004245D01*
X109307720Y-112197400D01*
X109327720Y-112197400D01*
X109327720Y-112451400D01*
X109307720Y-112451400D01*
X109307720Y-113644555D01*
X109537610Y-113765876D01*
X109684819Y-113721225D01*
X109947640Y-113596041D01*
X110180989Y-113421988D01*
X110375898Y-113205755D01*
X110445525Y-113088866D01*
X110567245Y-113271032D01*
X110774088Y-113477875D01*
X111017309Y-113640390D01*
X111287562Y-113752332D01*
X111574460Y-113809400D01*
X111866980Y-113809400D01*
X112153878Y-113752332D01*
X112424131Y-113640390D01*
X112667352Y-113477875D01*
X112874195Y-113271032D01*
X112990720Y-113096640D01*
X113107245Y-113271032D01*
X113314088Y-113477875D01*
X113557309Y-113640390D01*
X113827562Y-113752332D01*
X114114460Y-113809400D01*
X114406980Y-113809400D01*
X114693878Y-113752332D01*
X114964131Y-113640390D01*
X115207352Y-113477875D01*
X115414195Y-113271032D01*
X115530720Y-113096640D01*
X115647245Y-113271032D01*
X115854088Y-113477875D01*
X116097309Y-113640390D01*
X116367562Y-113752332D01*
X116654460Y-113809400D01*
X116946980Y-113809400D01*
X117233878Y-113752332D01*
X117504131Y-113640390D01*
X117747352Y-113477875D01*
X117954195Y-113271032D01*
X118070720Y-113096640D01*
X118187245Y-113271032D01*
X118394088Y-113477875D01*
X118637309Y-113640390D01*
X118907562Y-113752332D01*
X119194460Y-113809400D01*
X119486980Y-113809400D01*
X119773878Y-113752332D01*
X120044131Y-113640390D01*
X120287352Y-113477875D01*
X120494195Y-113271032D01*
X120610720Y-113096640D01*
X120727245Y-113271032D01*
X120934088Y-113477875D01*
X121177309Y-113640390D01*
X121447562Y-113752332D01*
X121734460Y-113809400D01*
X122026980Y-113809400D01*
X122313878Y-113752332D01*
X122584131Y-113640390D01*
X122827352Y-113477875D01*
X123034195Y-113271032D01*
X123150720Y-113096640D01*
X123267245Y-113271032D01*
X123474088Y-113477875D01*
X123717309Y-113640390D01*
X123987562Y-113752332D01*
X124274460Y-113809400D01*
X124566980Y-113809400D01*
X124853878Y-113752332D01*
X125124131Y-113640390D01*
X125367352Y-113477875D01*
X125574195Y-113271032D01*
X125690720Y-113096640D01*
X125807245Y-113271032D01*
X126014088Y-113477875D01*
X126257309Y-113640390D01*
X126527562Y-113752332D01*
X126814460Y-113809400D01*
X127106980Y-113809400D01*
X127393878Y-113752332D01*
X127664131Y-113640390D01*
X127907352Y-113477875D01*
X128114195Y-113271032D01*
X128230720Y-113096640D01*
X128347245Y-113271032D01*
X128554088Y-113477875D01*
X128797309Y-113640390D01*
X129067562Y-113752332D01*
X129354460Y-113809400D01*
X129646980Y-113809400D01*
X129933878Y-113752332D01*
X130204131Y-113640390D01*
X130447352Y-113477875D01*
X130654195Y-113271032D01*
X130770720Y-113096640D01*
X130887245Y-113271032D01*
X131094088Y-113477875D01*
X131337309Y-113640390D01*
X131607562Y-113752332D01*
X131894460Y-113809400D01*
X132186980Y-113809400D01*
X132473878Y-113752332D01*
X132744131Y-113640390D01*
X132987352Y-113477875D01*
X133194195Y-113271032D01*
X133310720Y-113096640D01*
X133427245Y-113271032D01*
X133634088Y-113477875D01*
X133877309Y-113640390D01*
X134147562Y-113752332D01*
X134434460Y-113809400D01*
X134726980Y-113809400D01*
X135013878Y-113752332D01*
X135284131Y-113640390D01*
X135527352Y-113477875D01*
X135734195Y-113271032D01*
X135850720Y-113096640D01*
X135967245Y-113271032D01*
X136174088Y-113477875D01*
X136417309Y-113640390D01*
X136687562Y-113752332D01*
X136974460Y-113809400D01*
X137266980Y-113809400D01*
X137553878Y-113752332D01*
X137824131Y-113640390D01*
X138067352Y-113477875D01*
X138274195Y-113271032D01*
X138390720Y-113096640D01*
X138507245Y-113271032D01*
X138714088Y-113477875D01*
X138957309Y-113640390D01*
X139227562Y-113752332D01*
X139514460Y-113809400D01*
X139806980Y-113809400D01*
X140093878Y-113752332D01*
X140364131Y-113640390D01*
X140607352Y-113477875D01*
X140739207Y-113346020D01*
X140761218Y-113418580D01*
X140820183Y-113528894D01*
X140899535Y-113625585D01*
X140996226Y-113704937D01*
X141106540Y-113763902D01*
X141226238Y-113800212D01*
X141350720Y-113812472D01*
X143050720Y-113812472D01*
X143175202Y-113800212D01*
X143294900Y-113763902D01*
X143405214Y-113704937D01*
X143501905Y-113625585D01*
X143581257Y-113528894D01*
X143640222Y-113418580D01*
X143676532Y-113298882D01*
X143688792Y-113174400D01*
X143688792Y-111474400D01*
X143676532Y-111349918D01*
X143640222Y-111230220D01*
X143581257Y-111119906D01*
X143501905Y-111023215D01*
X143405214Y-110943863D01*
X143294900Y-110884898D01*
X143175202Y-110848588D01*
X143050720Y-110836328D01*
X141350720Y-110836328D01*
X141226238Y-110848588D01*
X141106540Y-110884898D01*
X140996226Y-110943863D01*
X140899535Y-111023215D01*
X140820183Y-111119906D01*
X140761218Y-111230220D01*
X140739207Y-111302780D01*
X140607352Y-111170925D01*
X140420720Y-111046222D01*
X140420720Y-110778041D01*
X145699322Y-105499440D01*
X177549318Y-105499440D01*
X177586640Y-105503116D01*
X177623962Y-105499440D01*
X177623973Y-105499440D01*
X177735626Y-105488443D01*
X177878887Y-105444986D01*
X178010916Y-105374414D01*
X178126641Y-105279441D01*
X178150444Y-105250437D01*
X180773034Y-102627848D01*
X180955585Y-102664160D01*
X181238255Y-102664160D01*
X181515494Y-102609013D01*
X181776647Y-102500840D01*
X182011679Y-102343797D01*
X182211557Y-102143919D01*
X182368600Y-101908887D01*
X182476773Y-101647734D01*
X182531920Y-101370495D01*
X182531920Y-101087825D01*
X182495608Y-100905273D01*
X186687923Y-96712959D01*
X186716921Y-96689161D01*
X186743252Y-96657077D01*
X186811894Y-96573437D01*
X186882466Y-96441407D01*
X186899450Y-96385417D01*
X186925923Y-96298146D01*
X186936920Y-96186493D01*
X186936920Y-96186483D01*
X186940596Y-96149160D01*
X186936920Y-96111837D01*
X186936920Y-93402578D01*
X187123552Y-93277875D01*
X187330395Y-93071032D01*
X187452115Y-92888866D01*
X187521742Y-93005755D01*
X187716651Y-93221988D01*
X187950000Y-93396041D01*
X188212821Y-93521225D01*
X188360030Y-93565876D01*
X188589920Y-93444555D01*
X188589920Y-92251400D01*
X188569920Y-92251400D01*
X188569920Y-91997400D01*
X188589920Y-91997400D01*
X188589920Y-90804245D01*
X188360030Y-90682924D01*
X188212821Y-90727575D01*
X187950000Y-90852759D01*
X187716651Y-91026812D01*
X187521742Y-91243045D01*
X187452115Y-91359934D01*
X187330395Y-91177768D01*
X187123552Y-90970925D01*
X186880331Y-90808410D01*
X186610078Y-90696468D01*
X186323180Y-90639400D01*
X186030660Y-90639400D01*
X185743762Y-90696468D01*
X185473509Y-90808410D01*
X185230288Y-90970925D01*
X185023445Y-91177768D01*
X184906920Y-91352160D01*
X184790395Y-91177768D01*
X184583552Y-90970925D01*
X184340331Y-90808410D01*
X184070078Y-90696468D01*
X183783180Y-90639400D01*
X183490660Y-90639400D01*
X183203762Y-90696468D01*
X182933509Y-90808410D01*
X182690288Y-90970925D01*
X182483445Y-91177768D01*
X182366920Y-91352160D01*
X182250395Y-91177768D01*
X182043552Y-90970925D01*
X181800331Y-90808410D01*
X181530078Y-90696468D01*
X181243180Y-90639400D01*
X180950660Y-90639400D01*
X180663762Y-90696468D01*
X180393509Y-90808410D01*
X180150288Y-90970925D01*
X179943445Y-91177768D01*
X179826920Y-91352160D01*
X179710395Y-91177768D01*
X179503552Y-90970925D01*
X179260331Y-90808410D01*
X178990078Y-90696468D01*
X178703180Y-90639400D01*
X178410660Y-90639400D01*
X178123762Y-90696468D01*
X177853509Y-90808410D01*
X177610288Y-90970925D01*
X177403445Y-91177768D01*
X177286920Y-91352160D01*
X177170395Y-91177768D01*
X176963552Y-90970925D01*
X176720331Y-90808410D01*
X176450078Y-90696468D01*
X176163180Y-90639400D01*
X175870660Y-90639400D01*
X175583762Y-90696468D01*
X175313509Y-90808410D01*
X175070288Y-90970925D01*
X174863445Y-91177768D01*
X174746920Y-91352160D01*
X174630395Y-91177768D01*
X174423552Y-90970925D01*
X174180331Y-90808410D01*
X173910078Y-90696468D01*
X173623180Y-90639400D01*
X173330660Y-90639400D01*
X173043762Y-90696468D01*
X172773509Y-90808410D01*
X172530288Y-90970925D01*
X172323445Y-91177768D01*
X172206920Y-91352160D01*
X172090395Y-91177768D01*
X171883552Y-90970925D01*
X171640331Y-90808410D01*
X171370078Y-90696468D01*
X171083180Y-90639400D01*
X170790660Y-90639400D01*
X170503762Y-90696468D01*
X170233509Y-90808410D01*
X169990288Y-90970925D01*
X169783445Y-91177768D01*
X169666920Y-91352160D01*
X169550395Y-91177768D01*
X169343552Y-90970925D01*
X169100331Y-90808410D01*
X168830078Y-90696468D01*
X168543180Y-90639400D01*
X168250660Y-90639400D01*
X167963762Y-90696468D01*
X167693509Y-90808410D01*
X167450288Y-90970925D01*
X167243445Y-91177768D01*
X167080930Y-91420989D01*
X166968988Y-91691242D01*
X166911920Y-91978140D01*
X166911920Y-92270660D01*
X166968988Y-92557558D01*
X167080930Y-92827811D01*
X167243445Y-93071032D01*
X167450288Y-93277875D01*
X167693509Y-93440390D01*
X167963762Y-93552332D01*
X168250660Y-93609400D01*
X168543180Y-93609400D01*
X168830078Y-93552332D01*
X169100331Y-93440390D01*
X169343552Y-93277875D01*
X169550395Y-93071032D01*
X169666920Y-92896640D01*
X169783445Y-93071032D01*
X169990288Y-93277875D01*
X170233509Y-93440390D01*
X170503762Y-93552332D01*
X170790660Y-93609400D01*
X171083180Y-93609400D01*
X171370078Y-93552332D01*
X171640331Y-93440390D01*
X171883552Y-93277875D01*
X172090395Y-93071032D01*
X172206920Y-92896640D01*
X172323445Y-93071032D01*
X172530288Y-93277875D01*
X172716920Y-93402579D01*
X172716921Y-94650717D01*
X170068399Y-97299240D01*
X138624805Y-97299240D01*
X138587480Y-97295564D01*
X138550155Y-97299240D01*
X138550147Y-97299240D01*
X138438494Y-97310237D01*
X138295233Y-97353694D01*
X138163204Y-97424266D01*
X138047479Y-97519239D01*
X138023681Y-97548237D01*
X126449723Y-109122196D01*
X126420719Y-109145999D01*
X126370708Y-109206938D01*
X126325746Y-109261724D01*
X126291263Y-109326237D01*
X126255174Y-109393754D01*
X126211717Y-109537015D01*
X126200720Y-109648668D01*
X126200720Y-109648678D01*
X126197044Y-109686000D01*
X126200720Y-109723323D01*
X126200721Y-111046221D01*
X126014088Y-111170925D01*
X125807245Y-111377768D01*
X125690720Y-111552160D01*
X125574195Y-111377768D01*
X125367352Y-111170925D01*
X125124131Y-111008410D01*
X124853878Y-110896468D01*
X124566980Y-110839400D01*
X124274460Y-110839400D01*
X123987562Y-110896468D01*
X123717309Y-111008410D01*
X123474088Y-111170925D01*
X123267245Y-111377768D01*
X123150720Y-111552160D01*
X123034195Y-111377768D01*
X122827352Y-111170925D01*
X122584131Y-111008410D01*
X122313878Y-110896468D01*
X122026980Y-110839400D01*
X121734460Y-110839400D01*
X121447562Y-110896468D01*
X121177309Y-111008410D01*
X120934088Y-111170925D01*
X120727245Y-111377768D01*
X120610720Y-111552160D01*
X120494195Y-111377768D01*
X120287352Y-111170925D01*
X120044131Y-111008410D01*
X119773878Y-110896468D01*
X119486980Y-110839400D01*
X119194460Y-110839400D01*
X118907562Y-110896468D01*
X118637309Y-111008410D01*
X118394088Y-111170925D01*
X118187245Y-111377768D01*
X118070720Y-111552160D01*
X117954195Y-111377768D01*
X117747352Y-111170925D01*
X117504131Y-111008410D01*
X117233878Y-110896468D01*
X116946980Y-110839400D01*
X116654460Y-110839400D01*
X116367562Y-110896468D01*
X116097309Y-111008410D01*
X115854088Y-111170925D01*
X115647245Y-111377768D01*
X115530720Y-111552160D01*
X115414195Y-111377768D01*
X115207352Y-111170925D01*
X114964131Y-111008410D01*
X114693878Y-110896468D01*
X114406980Y-110839400D01*
X114114460Y-110839400D01*
X113827562Y-110896468D01*
X113557309Y-111008410D01*
X113314088Y-111170925D01*
X113107245Y-111377768D01*
X112990720Y-111552160D01*
X112874195Y-111377768D01*
X112667352Y-111170925D01*
X112424131Y-111008410D01*
X112153878Y-110896468D01*
X111866980Y-110839400D01*
X111574460Y-110839400D01*
X111287562Y-110896468D01*
X111017309Y-111008410D01*
X110774088Y-111170925D01*
X110567245Y-111377768D01*
X110445525Y-111559934D01*
X110375898Y-111443045D01*
X110180989Y-111226812D01*
X109947640Y-111052759D01*
X109684819Y-110927575D01*
X109537610Y-110882924D01*
X109307720Y-111004245D01*
X109053720Y-111004245D01*
X108823830Y-110882924D01*
X108676621Y-110927575D01*
X108413800Y-111052759D01*
X108180451Y-111226812D01*
X107985542Y-111443045D01*
X107915915Y-111559934D01*
X107794195Y-111377768D01*
X107587352Y-111170925D01*
X107400720Y-111046222D01*
X107400720Y-110158281D01*
X107618961Y-109940040D01*
X107681099Y-109940040D01*
X107881058Y-109900266D01*
X108069416Y-109822245D01*
X108238934Y-109708977D01*
X108293031Y-109654880D01*
X124082318Y-109654880D01*
X124119640Y-109658556D01*
X124156962Y-109654880D01*
X124156973Y-109654880D01*
X124268626Y-109643883D01*
X124411887Y-109600426D01*
X124543916Y-109529854D01*
X124659641Y-109434881D01*
X124683444Y-109405877D01*
X138714322Y-95375000D01*
X161364438Y-95375000D01*
X161401760Y-95378676D01*
X161439082Y-95375000D01*
X161439093Y-95375000D01*
X161550746Y-95364003D01*
X161694007Y-95320546D01*
X161826036Y-95249974D01*
X161941761Y-95155001D01*
X161965564Y-95125997D01*
X168306299Y-88785262D01*
X186698583Y-88785262D01*
X186770166Y-89029231D01*
X187025676Y-89150131D01*
X187299864Y-89218860D01*
X187582192Y-89232777D01*
X187861810Y-89191347D01*
X188127972Y-89096163D01*
X188253194Y-89029231D01*
X188324777Y-88785262D01*
X187511680Y-87972165D01*
X186698583Y-88785262D01*
X168306299Y-88785262D01*
X169228489Y-87863072D01*
X186071463Y-87863072D01*
X186112893Y-88142690D01*
X186208077Y-88408852D01*
X186275009Y-88534074D01*
X186518978Y-88605657D01*
X187332075Y-87792560D01*
X187691285Y-87792560D01*
X188504382Y-88605657D01*
X188748351Y-88534074D01*
X188869251Y-88278564D01*
X188937980Y-88004376D01*
X188951897Y-87722048D01*
X188910467Y-87442430D01*
X188815283Y-87176268D01*
X188748351Y-87051046D01*
X188504382Y-86979463D01*
X187691285Y-87792560D01*
X187332075Y-87792560D01*
X186518978Y-86979463D01*
X186275009Y-87051046D01*
X186154109Y-87306556D01*
X186085380Y-87580744D01*
X186071463Y-87863072D01*
X169228489Y-87863072D01*
X170291703Y-86799858D01*
X186698583Y-86799858D01*
X187511680Y-87612955D01*
X188324777Y-86799858D01*
X188253194Y-86555889D01*
X187997684Y-86434989D01*
X187723496Y-86366260D01*
X187441168Y-86352343D01*
X187161550Y-86393773D01*
X186895388Y-86488957D01*
X186770166Y-86555889D01*
X186698583Y-86799858D01*
X170291703Y-86799858D01*
X171541282Y-85550280D01*
X189194599Y-85550280D01*
X191112992Y-87468674D01*
X191076680Y-87651225D01*
X191076680Y-87933895D01*
X191131827Y-88211134D01*
X191137262Y-88224256D01*
X190745923Y-88615596D01*
X190716919Y-88639399D01*
X190661791Y-88706574D01*
X190621946Y-88755124D01*
X190600672Y-88794925D01*
X190551374Y-88887154D01*
X190507917Y-89030415D01*
X190496920Y-89142068D01*
X190496920Y-89142078D01*
X190493244Y-89179400D01*
X190496920Y-89216723D01*
X190496920Y-90636328D01*
X190406920Y-90636328D01*
X190282438Y-90648588D01*
X190162740Y-90684898D01*
X190052426Y-90743863D01*
X189955735Y-90823215D01*
X189876383Y-90919906D01*
X189817418Y-91030220D01*
X189792954Y-91110866D01*
X189717189Y-91026812D01*
X189483840Y-90852759D01*
X189221019Y-90727575D01*
X189073810Y-90682924D01*
X188843920Y-90804245D01*
X188843920Y-91997400D01*
X188863920Y-91997400D01*
X188863920Y-92251400D01*
X188843920Y-92251400D01*
X188843920Y-93444555D01*
X189073810Y-93565876D01*
X189221019Y-93521225D01*
X189483840Y-93396041D01*
X189717189Y-93221988D01*
X189792954Y-93137934D01*
X189817418Y-93218580D01*
X189876383Y-93328894D01*
X189955735Y-93425585D01*
X190052426Y-93504937D01*
X190162740Y-93563902D01*
X190282438Y-93600212D01*
X190406920Y-93612472D01*
X190496920Y-93612472D01*
X190496920Y-95659219D01*
X190321841Y-95776203D01*
X190121963Y-95976081D01*
X189964920Y-96211113D01*
X189856747Y-96472266D01*
X189801600Y-96749505D01*
X189801600Y-97032175D01*
X189856747Y-97309414D01*
X189964920Y-97570567D01*
X190121963Y-97805599D01*
X190321841Y-98005477D01*
X190496921Y-98122461D01*
X190496921Y-100011116D01*
X190342161Y-100114523D01*
X190142283Y-100314401D01*
X189985240Y-100549433D01*
X189877067Y-100810586D01*
X189821920Y-101087825D01*
X189821920Y-101370495D01*
X189877067Y-101647734D01*
X189985240Y-101908887D01*
X190142283Y-102143919D01*
X190342161Y-102343797D01*
X190577193Y-102500840D01*
X190838346Y-102609013D01*
X191115585Y-102664160D01*
X191398255Y-102664160D01*
X191675494Y-102609013D01*
X191936647Y-102500840D01*
X192171679Y-102343797D01*
X192371557Y-102143919D01*
X192528600Y-101908887D01*
X192636773Y-101647734D01*
X192691920Y-101370495D01*
X192691920Y-101087825D01*
X192636773Y-100810586D01*
X192528600Y-100549433D01*
X192371557Y-100314401D01*
X192171679Y-100114523D01*
X192016920Y-100011117D01*
X192016920Y-98095306D01*
X192151359Y-98005477D01*
X192351237Y-97805599D01*
X192508280Y-97570567D01*
X192616453Y-97309414D01*
X192671600Y-97032175D01*
X192671600Y-96749505D01*
X192616453Y-96472266D01*
X192508280Y-96211113D01*
X192351237Y-95976081D01*
X192151359Y-95776203D01*
X192016920Y-95686374D01*
X192016920Y-93612472D01*
X192106920Y-93612472D01*
X192231402Y-93600212D01*
X192351100Y-93563902D01*
X192461414Y-93504937D01*
X192558105Y-93425585D01*
X192637457Y-93328894D01*
X192696422Y-93218580D01*
X192732732Y-93098882D01*
X192744992Y-92974400D01*
X192744992Y-91274400D01*
X192732732Y-91149918D01*
X192696422Y-91030220D01*
X192637457Y-90919906D01*
X192558105Y-90823215D01*
X192461414Y-90743863D01*
X192351100Y-90684898D01*
X192231402Y-90648588D01*
X192106920Y-90636328D01*
X192016920Y-90636328D01*
X192016920Y-89494201D01*
X192297960Y-89213162D01*
X192370345Y-89227560D01*
X192653015Y-89227560D01*
X192930254Y-89172413D01*
X193191407Y-89064240D01*
X193426439Y-88907197D01*
X193626317Y-88707319D01*
X193783360Y-88472287D01*
X193891533Y-88211134D01*
X193946680Y-87933895D01*
X193946680Y-87651225D01*
X193891533Y-87373986D01*
X193783360Y-87112833D01*
X193626317Y-86877801D01*
X193426439Y-86677923D01*
X193191407Y-86520880D01*
X192930254Y-86412707D01*
X192653015Y-86357560D01*
X192370345Y-86357560D01*
X192187794Y-86393872D01*
X190073204Y-84279283D01*
X190049401Y-84250279D01*
X189933676Y-84155306D01*
X189801647Y-84084734D01*
X189658386Y-84041277D01*
X189546733Y-84030280D01*
X189546722Y-84030280D01*
X189509400Y-84026604D01*
X189472078Y-84030280D01*
X171263802Y-84030280D01*
X171226479Y-84026604D01*
X171189156Y-84030280D01*
X171189147Y-84030280D01*
X171077494Y-84041277D01*
X170934233Y-84084734D01*
X170802204Y-84155306D01*
X170686479Y-84250279D01*
X170662681Y-84279277D01*
X161086959Y-93855000D01*
X138436843Y-93855000D01*
X138399520Y-93851324D01*
X138362197Y-93855000D01*
X138362187Y-93855000D01*
X138250534Y-93865997D01*
X138117852Y-93906245D01*
X138107273Y-93909454D01*
X137975243Y-93980026D01*
X137891603Y-94048668D01*
X137859519Y-94074999D01*
X137835721Y-94103997D01*
X123804839Y-108134880D01*
X108272711Y-108134880D01*
X108238934Y-108101103D01*
X108069416Y-107987835D01*
X107881058Y-107909814D01*
X107681099Y-107870040D01*
X107477221Y-107870040D01*
X107277262Y-107909814D01*
X107088904Y-107987835D01*
X106919386Y-108101103D01*
X106775223Y-108245266D01*
X106661955Y-108414784D01*
X106583934Y-108603142D01*
X106544160Y-108803101D01*
X106544160Y-108865239D01*
X106129718Y-109279681D01*
X106100720Y-109303479D01*
X106076922Y-109332477D01*
X106076921Y-109332478D01*
X106005746Y-109419204D01*
X105935174Y-109551234D01*
X105907071Y-109643882D01*
X105891718Y-109694494D01*
X105888637Y-109725772D01*
X105877044Y-109843480D01*
X105880721Y-109880812D01*
X105880721Y-111046221D01*
X105694088Y-111170925D01*
X105487245Y-111377768D01*
X105324730Y-111620989D01*
X105212788Y-111891242D01*
X105155720Y-112178140D01*
X104844120Y-112178140D01*
X104844120Y-107533281D01*
X105734962Y-106642440D01*
X124605558Y-106642440D01*
X124642880Y-106646116D01*
X124680202Y-106642440D01*
X124680213Y-106642440D01*
X124791866Y-106631443D01*
X124935127Y-106587986D01*
X125067156Y-106517414D01*
X125182881Y-106422441D01*
X125206684Y-106393437D01*
X129827483Y-101772639D01*
X129856481Y-101748841D01*
X129951454Y-101633116D01*
X130022026Y-101501087D01*
X130065483Y-101357826D01*
X130076480Y-101246173D01*
X130080157Y-101208840D01*
X130076480Y-101171507D01*
X130076480Y-99851323D01*
X130231239Y-99747917D01*
X130431117Y-99548039D01*
X130588160Y-99313007D01*
X130696333Y-99051854D01*
X130751480Y-98774615D01*
X130751480Y-98491945D01*
X130696333Y-98214706D01*
X130588160Y-97953553D01*
X130431117Y-97718521D01*
X130231239Y-97518643D01*
X129996207Y-97361600D01*
X129735054Y-97253427D01*
X129457815Y-97198280D01*
X129175145Y-97198280D01*
X128897906Y-97253427D01*
X128636753Y-97361600D01*
X128401721Y-97518643D01*
X128201843Y-97718521D01*
X128044800Y-97953553D01*
X127936627Y-98214706D01*
X127881480Y-98491945D01*
X127881480Y-98774615D01*
X127936627Y-99051854D01*
X128044800Y-99313007D01*
X128201843Y-99548039D01*
X128401721Y-99747917D01*
X128556480Y-99851324D01*
X128556481Y-100894037D01*
X124328079Y-105122440D01*
X105457483Y-105122440D01*
X105420160Y-105118764D01*
X105382837Y-105122440D01*
X105382827Y-105122440D01*
X105271174Y-105133437D01*
X105127913Y-105176894D01*
X104995883Y-105247466D01*
X104956922Y-105279441D01*
X104880159Y-105342439D01*
X104856361Y-105371437D01*
X103872400Y-106355399D01*
X103872400Y-103248022D01*
X110981183Y-103248022D01*
X111052766Y-103491991D01*
X111308276Y-103612891D01*
X111582464Y-103681620D01*
X111864792Y-103695537D01*
X112144410Y-103654107D01*
X112410572Y-103558923D01*
X112535794Y-103491991D01*
X112607377Y-103248022D01*
X111794280Y-102434925D01*
X110981183Y-103248022D01*
X103872400Y-103248022D01*
X103872400Y-102325832D01*
X110354063Y-102325832D01*
X110395493Y-102605450D01*
X110490677Y-102871612D01*
X110557609Y-102996834D01*
X110801578Y-103068417D01*
X111614675Y-102255320D01*
X111973885Y-102255320D01*
X112786982Y-103068417D01*
X113030951Y-102996834D01*
X113151851Y-102741324D01*
X113220580Y-102467136D01*
X113234497Y-102184808D01*
X113193067Y-101905190D01*
X113097883Y-101639028D01*
X113030951Y-101513806D01*
X112786982Y-101442223D01*
X111973885Y-102255320D01*
X111614675Y-102255320D01*
X110801578Y-101442223D01*
X110557609Y-101513806D01*
X110436709Y-101769316D01*
X110367980Y-102043504D01*
X110354063Y-102325832D01*
X103872400Y-102325832D01*
X103872400Y-101262618D01*
X110981183Y-101262618D01*
X111794280Y-102075715D01*
X112607377Y-101262618D01*
X112535794Y-101018649D01*
X112280284Y-100897749D01*
X112006096Y-100829020D01*
X111723768Y-100815103D01*
X111444150Y-100856533D01*
X111177988Y-100951717D01*
X111052766Y-101018649D01*
X110981183Y-101262618D01*
X103872400Y-101262618D01*
X103872400Y-98476705D01*
X105189120Y-98476705D01*
X105189120Y-98759375D01*
X105244267Y-99036614D01*
X105352440Y-99297767D01*
X105509483Y-99532799D01*
X105709361Y-99732677D01*
X105944393Y-99889720D01*
X106205546Y-99997893D01*
X106482785Y-100053040D01*
X106765455Y-100053040D01*
X107042694Y-99997893D01*
X107303847Y-99889720D01*
X107538879Y-99732677D01*
X107738757Y-99532799D01*
X107895800Y-99297767D01*
X108003973Y-99036614D01*
X108059120Y-98759375D01*
X108059120Y-98476705D01*
X108003973Y-98199466D01*
X107895800Y-97938313D01*
X107738757Y-97703281D01*
X107538879Y-97503403D01*
X107303847Y-97346360D01*
X107042694Y-97238187D01*
X106765455Y-97183040D01*
X106482785Y-97183040D01*
X106205546Y-97238187D01*
X105944393Y-97346360D01*
X105709361Y-97503403D01*
X105509483Y-97703281D01*
X105352440Y-97938313D01*
X105244267Y-98199466D01*
X105189120Y-98476705D01*
X103872400Y-98476705D01*
X103872400Y-95937902D01*
X110981183Y-95937902D01*
X111052766Y-96181871D01*
X111308276Y-96302771D01*
X111582464Y-96371500D01*
X111864792Y-96385417D01*
X112144410Y-96343987D01*
X112410572Y-96248803D01*
X112535794Y-96181871D01*
X112607377Y-95937902D01*
X111794280Y-95124805D01*
X110981183Y-95937902D01*
X103872400Y-95937902D01*
X103872400Y-95015712D01*
X110354063Y-95015712D01*
X110395493Y-95295330D01*
X110490677Y-95561492D01*
X110557609Y-95686714D01*
X110801578Y-95758297D01*
X111614675Y-94945200D01*
X111973885Y-94945200D01*
X112786982Y-95758297D01*
X113030951Y-95686714D01*
X113151851Y-95431204D01*
X113220580Y-95157016D01*
X113234497Y-94874688D01*
X113193067Y-94595070D01*
X113097883Y-94328908D01*
X113030951Y-94203686D01*
X112786982Y-94132103D01*
X111973885Y-94945200D01*
X111614675Y-94945200D01*
X110801578Y-94132103D01*
X110557609Y-94203686D01*
X110436709Y-94459196D01*
X110367980Y-94733384D01*
X110354063Y-95015712D01*
X103872400Y-95015712D01*
X103872400Y-93952498D01*
X110981183Y-93952498D01*
X111794280Y-94765595D01*
X112607377Y-93952498D01*
X112535794Y-93708529D01*
X112280284Y-93587629D01*
X112006096Y-93518900D01*
X111723768Y-93504983D01*
X111444150Y-93546413D01*
X111177988Y-93641597D01*
X111052766Y-93708529D01*
X110981183Y-93952498D01*
X103872400Y-93952498D01*
X103872400Y-91049745D01*
X105178960Y-91049745D01*
X105178960Y-91332415D01*
X105234107Y-91609654D01*
X105342280Y-91870807D01*
X105499323Y-92105839D01*
X105699201Y-92305717D01*
X105934233Y-92462760D01*
X106195386Y-92570933D01*
X106472625Y-92626080D01*
X106755295Y-92626080D01*
X107032534Y-92570933D01*
X107293687Y-92462760D01*
X107528719Y-92305717D01*
X107728597Y-92105839D01*
X107885640Y-91870807D01*
X107993813Y-91609654D01*
X108048960Y-91332415D01*
X108048960Y-91049745D01*
X107993813Y-90772506D01*
X107885640Y-90511353D01*
X107728597Y-90276321D01*
X107528719Y-90076443D01*
X107293687Y-89919400D01*
X107032534Y-89811227D01*
X106755295Y-89756080D01*
X106472625Y-89756080D01*
X106195386Y-89811227D01*
X105934233Y-89919400D01*
X105699201Y-90076443D01*
X105499323Y-90276321D01*
X105342280Y-90511353D01*
X105234107Y-90772506D01*
X105178960Y-91049745D01*
X103872400Y-91049745D01*
X103872400Y-86778140D01*
X105155720Y-86778140D01*
X105155720Y-87070660D01*
X105212788Y-87357558D01*
X105324730Y-87627811D01*
X105487245Y-87871032D01*
X105694088Y-88077875D01*
X105937309Y-88240390D01*
X106207562Y-88352332D01*
X106494460Y-88409400D01*
X106786980Y-88409400D01*
X107073878Y-88352332D01*
X107344131Y-88240390D01*
X107587352Y-88077875D01*
X107794195Y-87871032D01*
X107915915Y-87688866D01*
X107985542Y-87805755D01*
X108180451Y-88021988D01*
X108413800Y-88196041D01*
X108676621Y-88321225D01*
X108823830Y-88365876D01*
X109053720Y-88244555D01*
X109053720Y-87051400D01*
X109033720Y-87051400D01*
X109033720Y-86797400D01*
X109053720Y-86797400D01*
X109053720Y-85604245D01*
X109307720Y-85604245D01*
X109307720Y-86797400D01*
X109327720Y-86797400D01*
X109327720Y-87051400D01*
X109307720Y-87051400D01*
X109307720Y-88244555D01*
X109537610Y-88365876D01*
X109684819Y-88321225D01*
X109947640Y-88196041D01*
X110180989Y-88021988D01*
X110375898Y-87805755D01*
X110445525Y-87688866D01*
X110567245Y-87871032D01*
X110774088Y-88077875D01*
X111017309Y-88240390D01*
X111287562Y-88352332D01*
X111574460Y-88409400D01*
X111866980Y-88409400D01*
X112153878Y-88352332D01*
X112424131Y-88240390D01*
X112667352Y-88077875D01*
X112874195Y-87871032D01*
X112990720Y-87696640D01*
X113107245Y-87871032D01*
X113314088Y-88077875D01*
X113557309Y-88240390D01*
X113827562Y-88352332D01*
X114114460Y-88409400D01*
X114406980Y-88409400D01*
X114693878Y-88352332D01*
X114964131Y-88240390D01*
X115207352Y-88077875D01*
X115414195Y-87871032D01*
X115530720Y-87696640D01*
X115647245Y-87871032D01*
X115854088Y-88077875D01*
X116013961Y-88184698D01*
X116013960Y-89973036D01*
X115859201Y-90076443D01*
X115659323Y-90276321D01*
X115502280Y-90511353D01*
X115394107Y-90772506D01*
X115338960Y-91049745D01*
X115338960Y-91332415D01*
X115394107Y-91609654D01*
X115502280Y-91870807D01*
X115659323Y-92105839D01*
X115859201Y-92305717D01*
X116034281Y-92422701D01*
X116034280Y-93727156D01*
X115879521Y-93830563D01*
X115679643Y-94030441D01*
X115522600Y-94265473D01*
X115414427Y-94526626D01*
X115359280Y-94803865D01*
X115359280Y-95086535D01*
X115414427Y-95363774D01*
X115522600Y-95624927D01*
X115679643Y-95859959D01*
X115879521Y-96059837D01*
X116114553Y-96216880D01*
X116375706Y-96325053D01*
X116652945Y-96380200D01*
X116935615Y-96380200D01*
X117212854Y-96325053D01*
X117474007Y-96216880D01*
X117709039Y-96059837D01*
X117908917Y-95859959D01*
X118065960Y-95624927D01*
X118174133Y-95363774D01*
X118229280Y-95086535D01*
X118229280Y-94803865D01*
X118192968Y-94621314D01*
X119728443Y-93085839D01*
X119757441Y-93062041D01*
X119852414Y-92946316D01*
X119922986Y-92814287D01*
X119966443Y-92671026D01*
X119977440Y-92559373D01*
X119977440Y-92559365D01*
X119981116Y-92522040D01*
X119977440Y-92484715D01*
X119977440Y-92383723D01*
X120132199Y-92280317D01*
X120332077Y-92080439D01*
X120489120Y-91845407D01*
X120597293Y-91584254D01*
X120652440Y-91307015D01*
X120652440Y-91024345D01*
X120597293Y-90747106D01*
X120489120Y-90485953D01*
X120332077Y-90250921D01*
X120132199Y-90051043D01*
X119897167Y-89894000D01*
X119636014Y-89785827D01*
X119358775Y-89730680D01*
X119076105Y-89730680D01*
X118798866Y-89785827D01*
X118537713Y-89894000D01*
X118302681Y-90051043D01*
X118102803Y-90250921D01*
X117987214Y-90423912D01*
X117888597Y-90276321D01*
X117688719Y-90076443D01*
X117533960Y-89973037D01*
X117533960Y-88220459D01*
X117747352Y-88077875D01*
X117954195Y-87871032D01*
X118070720Y-87696640D01*
X118187245Y-87871032D01*
X118394088Y-88077875D01*
X118637309Y-88240390D01*
X118907562Y-88352332D01*
X119194460Y-88409400D01*
X119486980Y-88409400D01*
X119707128Y-88365609D01*
X120875520Y-89534002D01*
X120875521Y-93451837D01*
X117108007Y-97219352D01*
X116925455Y-97183040D01*
X116642785Y-97183040D01*
X116365546Y-97238187D01*
X116104393Y-97346360D01*
X115869361Y-97503403D01*
X115669483Y-97703281D01*
X115512440Y-97938313D01*
X115404267Y-98199466D01*
X115349120Y-98476705D01*
X115349120Y-98759375D01*
X115404267Y-99036614D01*
X115512440Y-99297767D01*
X115669483Y-99532799D01*
X115869361Y-99732677D01*
X116024120Y-99836084D01*
X116024121Y-101044065D01*
X115879521Y-101140683D01*
X115679643Y-101340561D01*
X115522600Y-101575593D01*
X115414427Y-101836746D01*
X115359280Y-102113985D01*
X115359280Y-102396655D01*
X115414427Y-102673894D01*
X115522600Y-102935047D01*
X115679643Y-103170079D01*
X115879521Y-103369957D01*
X116114553Y-103527000D01*
X116375706Y-103635173D01*
X116652945Y-103690320D01*
X116935615Y-103690320D01*
X117212854Y-103635173D01*
X117474007Y-103527000D01*
X117709039Y-103369957D01*
X117908917Y-103170079D01*
X118065960Y-102935047D01*
X118174133Y-102673894D01*
X118229280Y-102396655D01*
X118229280Y-102113985D01*
X118229210Y-102113632D01*
X119667489Y-100675354D01*
X119696481Y-100651561D01*
X119720275Y-100622568D01*
X119720279Y-100622564D01*
X119791453Y-100535837D01*
X119791454Y-100535836D01*
X119862026Y-100403807D01*
X119905483Y-100260546D01*
X119916480Y-100148893D01*
X119916480Y-100148884D01*
X119920156Y-100111561D01*
X119916480Y-100074238D01*
X119916480Y-99851323D01*
X120071239Y-99747917D01*
X120271117Y-99548039D01*
X120428160Y-99313007D01*
X120536333Y-99051854D01*
X120591480Y-98774615D01*
X120591480Y-98491945D01*
X120536333Y-98214706D01*
X120428160Y-97953553D01*
X120271117Y-97718521D01*
X120071239Y-97518643D01*
X119836207Y-97361600D01*
X119575054Y-97253427D01*
X119297815Y-97198280D01*
X119278681Y-97198280D01*
X122146523Y-94330439D01*
X122175521Y-94306641D01*
X122270494Y-94190916D01*
X122341066Y-94058887D01*
X122384523Y-93915626D01*
X122395520Y-93803973D01*
X122395520Y-93803965D01*
X122399196Y-93766640D01*
X122395520Y-93729315D01*
X122395520Y-91024345D01*
X127942440Y-91024345D01*
X127942440Y-91307015D01*
X127997587Y-91584254D01*
X128105760Y-91845407D01*
X128262803Y-92080439D01*
X128462681Y-92280317D01*
X128697713Y-92437360D01*
X128958866Y-92545533D01*
X129236105Y-92600680D01*
X129518775Y-92600680D01*
X129796014Y-92545533D01*
X130057167Y-92437360D01*
X130292199Y-92280317D01*
X130492077Y-92080439D01*
X130561540Y-91976480D01*
X153809165Y-91976480D01*
X153923685Y-92147872D01*
X154130528Y-92354715D01*
X154373749Y-92517230D01*
X154644002Y-92629172D01*
X154930900Y-92686240D01*
X155223420Y-92686240D01*
X155510318Y-92629172D01*
X155780571Y-92517230D01*
X156023792Y-92354715D01*
X156148870Y-92229637D01*
X158728368Y-92229637D01*
X158806003Y-92478712D01*
X159070043Y-92604611D01*
X159353571Y-92676579D01*
X159645691Y-92691851D01*
X159935179Y-92649839D01*
X160210907Y-92552159D01*
X160348317Y-92478712D01*
X160425952Y-92229637D01*
X159577160Y-91380845D01*
X158728368Y-92229637D01*
X156148870Y-92229637D01*
X156230635Y-92147872D01*
X156393150Y-91904651D01*
X156505092Y-91634398D01*
X156562160Y-91347500D01*
X156562160Y-91269771D01*
X158086549Y-91269771D01*
X158128561Y-91559259D01*
X158226241Y-91834987D01*
X158299688Y-91972397D01*
X158548763Y-92050032D01*
X159397555Y-91201240D01*
X159756765Y-91201240D01*
X160605557Y-92050032D01*
X160854632Y-91972397D01*
X160980531Y-91708357D01*
X161052499Y-91424829D01*
X161067771Y-91132709D01*
X161025759Y-90843221D01*
X160928079Y-90567493D01*
X160854632Y-90430083D01*
X160605557Y-90352448D01*
X159756765Y-91201240D01*
X159397555Y-91201240D01*
X158548763Y-90352448D01*
X158299688Y-90430083D01*
X158173789Y-90694123D01*
X158101821Y-90977651D01*
X158086549Y-91269771D01*
X156562160Y-91269771D01*
X156562160Y-91054980D01*
X156505092Y-90768082D01*
X156393150Y-90497829D01*
X156230635Y-90254608D01*
X156148870Y-90172843D01*
X158728368Y-90172843D01*
X159577160Y-91021635D01*
X160425952Y-90172843D01*
X160348317Y-89923768D01*
X160084277Y-89797869D01*
X159800749Y-89725901D01*
X159508629Y-89710629D01*
X159219141Y-89752641D01*
X158943413Y-89850321D01*
X158806003Y-89923768D01*
X158728368Y-90172843D01*
X156148870Y-90172843D01*
X156023792Y-90047765D01*
X155862160Y-89939766D01*
X155862160Y-85962714D01*
X156023792Y-85854715D01*
X156148870Y-85729637D01*
X158728368Y-85729637D01*
X158806003Y-85978712D01*
X159070043Y-86104611D01*
X159353571Y-86176579D01*
X159645691Y-86191851D01*
X159935179Y-86149839D01*
X160210907Y-86052159D01*
X160348317Y-85978712D01*
X160425952Y-85729637D01*
X159577160Y-84880845D01*
X158728368Y-85729637D01*
X156148870Y-85729637D01*
X156230635Y-85647872D01*
X156393150Y-85404651D01*
X156505092Y-85134398D01*
X156562160Y-84847500D01*
X156562160Y-84769771D01*
X158086549Y-84769771D01*
X158128561Y-85059259D01*
X158226241Y-85334987D01*
X158299688Y-85472397D01*
X158548763Y-85550032D01*
X159397555Y-84701240D01*
X159756765Y-84701240D01*
X160605557Y-85550032D01*
X160854632Y-85472397D01*
X160980531Y-85208357D01*
X161052499Y-84924829D01*
X161067771Y-84632709D01*
X161025759Y-84343221D01*
X160928079Y-84067493D01*
X160854632Y-83930083D01*
X160605557Y-83852448D01*
X159756765Y-84701240D01*
X159397555Y-84701240D01*
X158548763Y-83852448D01*
X158299688Y-83930083D01*
X158173789Y-84194123D01*
X158101821Y-84477651D01*
X158086549Y-84769771D01*
X156562160Y-84769771D01*
X156562160Y-84554980D01*
X156505092Y-84268082D01*
X156393150Y-83997829D01*
X156230635Y-83754608D01*
X156148870Y-83672843D01*
X158728368Y-83672843D01*
X159577160Y-84521635D01*
X160425952Y-83672843D01*
X160348317Y-83423768D01*
X160084277Y-83297869D01*
X159800749Y-83225901D01*
X159508629Y-83210629D01*
X159219141Y-83252641D01*
X158943413Y-83350321D01*
X158806003Y-83423768D01*
X158728368Y-83672843D01*
X156148870Y-83672843D01*
X156023792Y-83547765D01*
X155780571Y-83385250D01*
X155510318Y-83273308D01*
X155223420Y-83216240D01*
X154930900Y-83216240D01*
X154644002Y-83273308D01*
X154373749Y-83385250D01*
X154130528Y-83547765D01*
X153923685Y-83754608D01*
X153761170Y-83997829D01*
X153649228Y-84268082D01*
X153592160Y-84554980D01*
X153592160Y-84847500D01*
X153649228Y-85134398D01*
X153761170Y-85404651D01*
X153923685Y-85647872D01*
X154130528Y-85854715D01*
X154292160Y-85962714D01*
X154292161Y-89939765D01*
X154130528Y-90047765D01*
X153923685Y-90254608D01*
X153788799Y-90456480D01*
X130629427Y-90456480D01*
X130492077Y-90250921D01*
X130292199Y-90051043D01*
X130057167Y-89894000D01*
X129796014Y-89785827D01*
X129518775Y-89730680D01*
X129236105Y-89730680D01*
X128958866Y-89785827D01*
X128697713Y-89894000D01*
X128462681Y-90051043D01*
X128262803Y-90250921D01*
X128105760Y-90485953D01*
X127997587Y-90747106D01*
X127942440Y-91024345D01*
X122395520Y-91024345D01*
X122395520Y-89256522D01*
X122399196Y-89219199D01*
X122395520Y-89181876D01*
X122395520Y-89181867D01*
X122384523Y-89070214D01*
X122341066Y-88926953D01*
X122270494Y-88794924D01*
X122175521Y-88679199D01*
X122146524Y-88655402D01*
X121900522Y-88409400D01*
X122026980Y-88409400D01*
X122313878Y-88352332D01*
X122584131Y-88240390D01*
X122827352Y-88077875D01*
X123034195Y-87871032D01*
X123150720Y-87696640D01*
X123267245Y-87871032D01*
X123474088Y-88077875D01*
X123717309Y-88240390D01*
X123987562Y-88352332D01*
X124274460Y-88409400D01*
X124566980Y-88409400D01*
X124853878Y-88352332D01*
X125124131Y-88240390D01*
X125367352Y-88077875D01*
X125574195Y-87871032D01*
X125690720Y-87696640D01*
X125807245Y-87871032D01*
X126014088Y-88077875D01*
X126257309Y-88240390D01*
X126527562Y-88352332D01*
X126814460Y-88409400D01*
X127106980Y-88409400D01*
X127393878Y-88352332D01*
X127664131Y-88240390D01*
X127907352Y-88077875D01*
X128114195Y-87871032D01*
X128230720Y-87696640D01*
X128347245Y-87871032D01*
X128554088Y-88077875D01*
X128797309Y-88240390D01*
X129067562Y-88352332D01*
X129354460Y-88409400D01*
X129646980Y-88409400D01*
X129933878Y-88352332D01*
X130204131Y-88240390D01*
X130447352Y-88077875D01*
X130654195Y-87871032D01*
X130770720Y-87696640D01*
X130887245Y-87871032D01*
X131094088Y-88077875D01*
X131337309Y-88240390D01*
X131607562Y-88352332D01*
X131894460Y-88409400D01*
X132186980Y-88409400D01*
X132473878Y-88352332D01*
X132744131Y-88240390D01*
X132987352Y-88077875D01*
X133194195Y-87871032D01*
X133310720Y-87696640D01*
X133427245Y-87871032D01*
X133634088Y-88077875D01*
X133877309Y-88240390D01*
X134147562Y-88352332D01*
X134434460Y-88409400D01*
X134726980Y-88409400D01*
X135013878Y-88352332D01*
X135284131Y-88240390D01*
X135527352Y-88077875D01*
X135734195Y-87871032D01*
X135850720Y-87696640D01*
X135967245Y-87871032D01*
X136174088Y-88077875D01*
X136417309Y-88240390D01*
X136687562Y-88352332D01*
X136974460Y-88409400D01*
X137266980Y-88409400D01*
X137553878Y-88352332D01*
X137824131Y-88240390D01*
X138067352Y-88077875D01*
X138274195Y-87871032D01*
X138390720Y-87696640D01*
X138507245Y-87871032D01*
X138714088Y-88077875D01*
X138957309Y-88240390D01*
X139227562Y-88352332D01*
X139514460Y-88409400D01*
X139806980Y-88409400D01*
X140093878Y-88352332D01*
X140364131Y-88240390D01*
X140607352Y-88077875D01*
X140739207Y-87946020D01*
X140761218Y-88018580D01*
X140820183Y-88128894D01*
X140899535Y-88225585D01*
X140996226Y-88304937D01*
X141106540Y-88363902D01*
X141226238Y-88400212D01*
X141350720Y-88412472D01*
X143050720Y-88412472D01*
X143175202Y-88400212D01*
X143294900Y-88363902D01*
X143405214Y-88304937D01*
X143501905Y-88225585D01*
X143581257Y-88128894D01*
X143640222Y-88018580D01*
X143676532Y-87898882D01*
X143688792Y-87774400D01*
X143688792Y-86074400D01*
X143676532Y-85949918D01*
X143640222Y-85830220D01*
X143581257Y-85719906D01*
X143501905Y-85623215D01*
X143405214Y-85543863D01*
X143294900Y-85484898D01*
X143175202Y-85448588D01*
X143050720Y-85436328D01*
X141350720Y-85436328D01*
X141226238Y-85448588D01*
X141106540Y-85484898D01*
X140996226Y-85543863D01*
X140899535Y-85623215D01*
X140820183Y-85719906D01*
X140761218Y-85830220D01*
X140739207Y-85902780D01*
X140607352Y-85770925D01*
X140364131Y-85608410D01*
X140093878Y-85496468D01*
X139806980Y-85439400D01*
X139514460Y-85439400D01*
X139227562Y-85496468D01*
X138957309Y-85608410D01*
X138714088Y-85770925D01*
X138507245Y-85977768D01*
X138390720Y-86152160D01*
X138274195Y-85977768D01*
X138067352Y-85770925D01*
X137824131Y-85608410D01*
X137553878Y-85496468D01*
X137266980Y-85439400D01*
X136974460Y-85439400D01*
X136687562Y-85496468D01*
X136417309Y-85608410D01*
X136174088Y-85770925D01*
X135967245Y-85977768D01*
X135850720Y-86152160D01*
X135734195Y-85977768D01*
X135527352Y-85770925D01*
X135284131Y-85608410D01*
X135013878Y-85496468D01*
X134726980Y-85439400D01*
X134434460Y-85439400D01*
X134147562Y-85496468D01*
X133877309Y-85608410D01*
X133634088Y-85770925D01*
X133427245Y-85977768D01*
X133310720Y-86152160D01*
X133194195Y-85977768D01*
X132987352Y-85770925D01*
X132744131Y-85608410D01*
X132473878Y-85496468D01*
X132186980Y-85439400D01*
X131894460Y-85439400D01*
X131607562Y-85496468D01*
X131337309Y-85608410D01*
X131094088Y-85770925D01*
X130887245Y-85977768D01*
X130770720Y-86152160D01*
X130654195Y-85977768D01*
X130447352Y-85770925D01*
X130204131Y-85608410D01*
X129933878Y-85496468D01*
X129646980Y-85439400D01*
X129354460Y-85439400D01*
X129067562Y-85496468D01*
X128797309Y-85608410D01*
X128554088Y-85770925D01*
X128347245Y-85977768D01*
X128230720Y-86152160D01*
X128114195Y-85977768D01*
X127907352Y-85770925D01*
X127664131Y-85608410D01*
X127393878Y-85496468D01*
X127106980Y-85439400D01*
X126814460Y-85439400D01*
X126527562Y-85496468D01*
X126257309Y-85608410D01*
X126014088Y-85770925D01*
X125807245Y-85977768D01*
X125690720Y-86152160D01*
X125574195Y-85977768D01*
X125367352Y-85770925D01*
X125124131Y-85608410D01*
X124853878Y-85496468D01*
X124566980Y-85439400D01*
X124274460Y-85439400D01*
X123987562Y-85496468D01*
X123717309Y-85608410D01*
X123474088Y-85770925D01*
X123267245Y-85977768D01*
X123150720Y-86152160D01*
X123034195Y-85977768D01*
X122827352Y-85770925D01*
X122584131Y-85608410D01*
X122313878Y-85496468D01*
X122026980Y-85439400D01*
X121734460Y-85439400D01*
X121447562Y-85496468D01*
X121177309Y-85608410D01*
X120934088Y-85770925D01*
X120727245Y-85977768D01*
X120610720Y-86152160D01*
X120494195Y-85977768D01*
X120287352Y-85770925D01*
X120044131Y-85608410D01*
X119773878Y-85496468D01*
X119486980Y-85439400D01*
X119194460Y-85439400D01*
X118907562Y-85496468D01*
X118637309Y-85608410D01*
X118394088Y-85770925D01*
X118187245Y-85977768D01*
X118070720Y-86152160D01*
X117954195Y-85977768D01*
X117747352Y-85770925D01*
X117504131Y-85608410D01*
X117233878Y-85496468D01*
X116946980Y-85439400D01*
X116654460Y-85439400D01*
X116367562Y-85496468D01*
X116097309Y-85608410D01*
X115854088Y-85770925D01*
X115647245Y-85977768D01*
X115530720Y-86152160D01*
X115414195Y-85977768D01*
X115207352Y-85770925D01*
X114964131Y-85608410D01*
X114693878Y-85496468D01*
X114406980Y-85439400D01*
X114114460Y-85439400D01*
X113827562Y-85496468D01*
X113557309Y-85608410D01*
X113314088Y-85770925D01*
X113107245Y-85977768D01*
X112990720Y-86152160D01*
X112874195Y-85977768D01*
X112667352Y-85770925D01*
X112424131Y-85608410D01*
X112153878Y-85496468D01*
X111866980Y-85439400D01*
X111574460Y-85439400D01*
X111287562Y-85496468D01*
X111017309Y-85608410D01*
X110774088Y-85770925D01*
X110567245Y-85977768D01*
X110445525Y-86159934D01*
X110375898Y-86043045D01*
X110180989Y-85826812D01*
X109947640Y-85652759D01*
X109684819Y-85527575D01*
X109537610Y-85482924D01*
X109307720Y-85604245D01*
X109053720Y-85604245D01*
X108823830Y-85482924D01*
X108676621Y-85527575D01*
X108413800Y-85652759D01*
X108180451Y-85826812D01*
X107985542Y-86043045D01*
X107915915Y-86159934D01*
X107794195Y-85977768D01*
X107587352Y-85770925D01*
X107344131Y-85608410D01*
X107073878Y-85496468D01*
X106786980Y-85439400D01*
X106494460Y-85439400D01*
X106207562Y-85496468D01*
X105937309Y-85608410D01*
X105694088Y-85770925D01*
X105487245Y-85977768D01*
X105324730Y-86220989D01*
X105212788Y-86491242D01*
X105155720Y-86778140D01*
X103872400Y-86778140D01*
X103872400Y-82949960D01*
X197552401Y-82949960D01*
X197552400Y-116629960D01*
G37*
G04 #@! TD.AperFunction*
D19*
X185023445Y-93071032D02*
X185230288Y-93277875D01*
X185416920Y-93402579D01*
X185416921Y-95834357D01*
X181420807Y-99830472D01*
X181238255Y-99794160D01*
X180955585Y-99794160D01*
X180678346Y-99849307D01*
X180417193Y-99957480D01*
X180182161Y-100114523D01*
X179982283Y-100314401D01*
X179825240Y-100549433D01*
X179717067Y-100810586D01*
X179661920Y-101087825D01*
X179661920Y-101370495D01*
X179698232Y-101553046D01*
X177271839Y-103979440D01*
X145421853Y-103979440D01*
X145384520Y-103975763D01*
X145347187Y-103979440D01*
X145235534Y-103990437D01*
X145092273Y-104033894D01*
X144960244Y-104104466D01*
X144844519Y-104199439D01*
X144820721Y-104228437D01*
X139149723Y-109899436D01*
X139120719Y-109923239D01*
X139065591Y-109990414D01*
X139025746Y-110038964D01*
X138987629Y-110110276D01*
X138955174Y-110170994D01*
X138911717Y-110314255D01*
X138900720Y-110425908D01*
X138900720Y-110425918D01*
X138897044Y-110463240D01*
X138900720Y-110500563D01*
X138900720Y-111046221D01*
X138714088Y-111170925D01*
X138507245Y-111377768D01*
X138390720Y-111552160D01*
X138274195Y-111377768D01*
X138067352Y-111170925D01*
X137824131Y-111008410D01*
X137553878Y-110896468D01*
X137266980Y-110839400D01*
X136974460Y-110839400D01*
X136687562Y-110896468D01*
X136417309Y-111008410D01*
X136174088Y-111170925D01*
X135967245Y-111377768D01*
X135850720Y-111552160D01*
X135734195Y-111377768D01*
X135527352Y-111170925D01*
X135284131Y-111008410D01*
X135013878Y-110896468D01*
X134726980Y-110839400D01*
X134600521Y-110839400D01*
X142785282Y-102654640D01*
X176035478Y-102654640D01*
X176072800Y-102658316D01*
X176110122Y-102654640D01*
X176110133Y-102654640D01*
X176221786Y-102643643D01*
X176365047Y-102600186D01*
X176497076Y-102529614D01*
X176612801Y-102434641D01*
X176636604Y-102405637D01*
X180752714Y-98289528D01*
X180935265Y-98325840D01*
X181217935Y-98325840D01*
X181495174Y-98270693D01*
X181756327Y-98162520D01*
X181991359Y-98005477D01*
X182191237Y-97805599D01*
X182348280Y-97570567D01*
X182456453Y-97309414D01*
X182511600Y-97032175D01*
X182511600Y-96749505D01*
X182475288Y-96566954D01*
X184147923Y-94894319D01*
X184176921Y-94870521D01*
X184271894Y-94754796D01*
X184342466Y-94622767D01*
X184385923Y-94479506D01*
X184396920Y-94367853D01*
X184396920Y-94367844D01*
X184400596Y-94330521D01*
X184396920Y-94293198D01*
X184396920Y-93402578D01*
X184583552Y-93277875D01*
X184790395Y-93071032D01*
X184906920Y-92896640D01*
X185023445Y-93071032D01*
G04 #@! TA.AperFunction,Conductor*
D20*
G36*
X185023445Y-93071032D02*
G01*
X185230288Y-93277875D01*
X185416920Y-93402579D01*
X185416921Y-95834357D01*
X181420807Y-99830472D01*
X181238255Y-99794160D01*
X180955585Y-99794160D01*
X180678346Y-99849307D01*
X180417193Y-99957480D01*
X180182161Y-100114523D01*
X179982283Y-100314401D01*
X179825240Y-100549433D01*
X179717067Y-100810586D01*
X179661920Y-101087825D01*
X179661920Y-101370495D01*
X179698232Y-101553046D01*
X177271839Y-103979440D01*
X145421853Y-103979440D01*
X145384520Y-103975763D01*
X145347187Y-103979440D01*
X145235534Y-103990437D01*
X145092273Y-104033894D01*
X144960244Y-104104466D01*
X144844519Y-104199439D01*
X144820721Y-104228437D01*
X139149723Y-109899436D01*
X139120719Y-109923239D01*
X139065591Y-109990414D01*
X139025746Y-110038964D01*
X138987629Y-110110276D01*
X138955174Y-110170994D01*
X138911717Y-110314255D01*
X138900720Y-110425908D01*
X138900720Y-110425918D01*
X138897044Y-110463240D01*
X138900720Y-110500563D01*
X138900720Y-111046221D01*
X138714088Y-111170925D01*
X138507245Y-111377768D01*
X138390720Y-111552160D01*
X138274195Y-111377768D01*
X138067352Y-111170925D01*
X137824131Y-111008410D01*
X137553878Y-110896468D01*
X137266980Y-110839400D01*
X136974460Y-110839400D01*
X136687562Y-110896468D01*
X136417309Y-111008410D01*
X136174088Y-111170925D01*
X135967245Y-111377768D01*
X135850720Y-111552160D01*
X135734195Y-111377768D01*
X135527352Y-111170925D01*
X135284131Y-111008410D01*
X135013878Y-110896468D01*
X134726980Y-110839400D01*
X134600521Y-110839400D01*
X142785282Y-102654640D01*
X176035478Y-102654640D01*
X176072800Y-102658316D01*
X176110122Y-102654640D01*
X176110133Y-102654640D01*
X176221786Y-102643643D01*
X176365047Y-102600186D01*
X176497076Y-102529614D01*
X176612801Y-102434641D01*
X176636604Y-102405637D01*
X180752714Y-98289528D01*
X180935265Y-98325840D01*
X181217935Y-98325840D01*
X181495174Y-98270693D01*
X181756327Y-98162520D01*
X181991359Y-98005477D01*
X182191237Y-97805599D01*
X182348280Y-97570567D01*
X182456453Y-97309414D01*
X182511600Y-97032175D01*
X182511600Y-96749505D01*
X182475288Y-96566954D01*
X184147923Y-94894319D01*
X184176921Y-94870521D01*
X184271894Y-94754796D01*
X184342466Y-94622767D01*
X184385923Y-94479506D01*
X184396920Y-94367853D01*
X184396920Y-94367844D01*
X184400596Y-94330521D01*
X184396920Y-94293198D01*
X184396920Y-93402578D01*
X184583552Y-93277875D01*
X184790395Y-93071032D01*
X184906920Y-92896640D01*
X185023445Y-93071032D01*
G37*
G04 #@! TD.AperFunction*
D19*
X182483445Y-93071032D02*
X182690288Y-93277875D01*
X182876921Y-93402579D01*
X182876921Y-94015717D01*
X181400486Y-95492152D01*
X181217935Y-95455840D01*
X180935265Y-95455840D01*
X180658026Y-95510987D01*
X180396873Y-95619160D01*
X180161841Y-95776203D01*
X179961963Y-95976081D01*
X179804920Y-96211113D01*
X179696747Y-96472266D01*
X179641600Y-96749505D01*
X179641600Y-97032175D01*
X179677912Y-97214726D01*
X175757999Y-101134640D01*
X142507802Y-101134640D01*
X142470479Y-101130964D01*
X142433156Y-101134640D01*
X142433147Y-101134640D01*
X142321494Y-101145637D01*
X142178233Y-101189094D01*
X142046203Y-101259666D01*
X141962563Y-101328308D01*
X141930479Y-101354639D01*
X141906681Y-101383637D01*
X132407128Y-110883191D01*
X132186980Y-110839400D01*
X131894460Y-110839400D01*
X131607562Y-110896468D01*
X131337309Y-111008410D01*
X131094088Y-111170925D01*
X130887245Y-111377768D01*
X130770720Y-111552160D01*
X130654195Y-111377768D01*
X130447352Y-111170925D01*
X130204131Y-111008410D01*
X129933878Y-110896468D01*
X129646980Y-110839400D01*
X129354460Y-110839400D01*
X129067562Y-110896468D01*
X128797309Y-111008410D01*
X128554088Y-111170925D01*
X128347245Y-111377768D01*
X128230720Y-111552160D01*
X128114195Y-111377768D01*
X127907352Y-111170925D01*
X127720720Y-111046222D01*
X127720720Y-110000801D01*
X138902282Y-98819240D01*
X170345878Y-98819240D01*
X170383200Y-98822916D01*
X170420522Y-98819240D01*
X170420533Y-98819240D01*
X170532186Y-98808243D01*
X170675447Y-98764786D01*
X170807476Y-98694214D01*
X170923201Y-98599241D01*
X170947004Y-98570237D01*
X173987923Y-95529319D01*
X174016921Y-95505521D01*
X174111894Y-95389796D01*
X174182466Y-95257767D01*
X174225923Y-95114506D01*
X174236920Y-95002853D01*
X174236920Y-95002845D01*
X174240596Y-94965520D01*
X174236920Y-94928195D01*
X174236920Y-93402578D01*
X174423552Y-93277875D01*
X174630395Y-93071032D01*
X174746920Y-92896640D01*
X174863445Y-93071032D01*
X175070288Y-93277875D01*
X175313509Y-93440390D01*
X175583762Y-93552332D01*
X175870660Y-93609400D01*
X176163180Y-93609400D01*
X176450078Y-93552332D01*
X176720331Y-93440390D01*
X176963552Y-93277875D01*
X177170395Y-93071032D01*
X177286920Y-92896640D01*
X177403445Y-93071032D01*
X177610288Y-93277875D01*
X177853509Y-93440390D01*
X178123762Y-93552332D01*
X178410660Y-93609400D01*
X178703180Y-93609400D01*
X178990078Y-93552332D01*
X179260331Y-93440390D01*
X179503552Y-93277875D01*
X179710395Y-93071032D01*
X179826920Y-92896640D01*
X179943445Y-93071032D01*
X180150288Y-93277875D01*
X180393509Y-93440390D01*
X180663762Y-93552332D01*
X180950660Y-93609400D01*
X181243180Y-93609400D01*
X181530078Y-93552332D01*
X181800331Y-93440390D01*
X182043552Y-93277875D01*
X182250395Y-93071032D01*
X182366920Y-92896640D01*
X182483445Y-93071032D01*
G04 #@! TA.AperFunction,Conductor*
D20*
G36*
X182483445Y-93071032D02*
G01*
X182690288Y-93277875D01*
X182876921Y-93402579D01*
X182876921Y-94015717D01*
X181400486Y-95492152D01*
X181217935Y-95455840D01*
X180935265Y-95455840D01*
X180658026Y-95510987D01*
X180396873Y-95619160D01*
X180161841Y-95776203D01*
X179961963Y-95976081D01*
X179804920Y-96211113D01*
X179696747Y-96472266D01*
X179641600Y-96749505D01*
X179641600Y-97032175D01*
X179677912Y-97214726D01*
X175757999Y-101134640D01*
X142507802Y-101134640D01*
X142470479Y-101130964D01*
X142433156Y-101134640D01*
X142433147Y-101134640D01*
X142321494Y-101145637D01*
X142178233Y-101189094D01*
X142046203Y-101259666D01*
X141962563Y-101328308D01*
X141930479Y-101354639D01*
X141906681Y-101383637D01*
X132407128Y-110883191D01*
X132186980Y-110839400D01*
X131894460Y-110839400D01*
X131607562Y-110896468D01*
X131337309Y-111008410D01*
X131094088Y-111170925D01*
X130887245Y-111377768D01*
X130770720Y-111552160D01*
X130654195Y-111377768D01*
X130447352Y-111170925D01*
X130204131Y-111008410D01*
X129933878Y-110896468D01*
X129646980Y-110839400D01*
X129354460Y-110839400D01*
X129067562Y-110896468D01*
X128797309Y-111008410D01*
X128554088Y-111170925D01*
X128347245Y-111377768D01*
X128230720Y-111552160D01*
X128114195Y-111377768D01*
X127907352Y-111170925D01*
X127720720Y-111046222D01*
X127720720Y-110000801D01*
X138902282Y-98819240D01*
X170345878Y-98819240D01*
X170383200Y-98822916D01*
X170420522Y-98819240D01*
X170420533Y-98819240D01*
X170532186Y-98808243D01*
X170675447Y-98764786D01*
X170807476Y-98694214D01*
X170923201Y-98599241D01*
X170947004Y-98570237D01*
X173987923Y-95529319D01*
X174016921Y-95505521D01*
X174111894Y-95389796D01*
X174182466Y-95257767D01*
X174225923Y-95114506D01*
X174236920Y-95002853D01*
X174236920Y-95002845D01*
X174240596Y-94965520D01*
X174236920Y-94928195D01*
X174236920Y-93402578D01*
X174423552Y-93277875D01*
X174630395Y-93071032D01*
X174746920Y-92896640D01*
X174863445Y-93071032D01*
X175070288Y-93277875D01*
X175313509Y-93440390D01*
X175583762Y-93552332D01*
X175870660Y-93609400D01*
X176163180Y-93609400D01*
X176450078Y-93552332D01*
X176720331Y-93440390D01*
X176963552Y-93277875D01*
X177170395Y-93071032D01*
X177286920Y-92896640D01*
X177403445Y-93071032D01*
X177610288Y-93277875D01*
X177853509Y-93440390D01*
X178123762Y-93552332D01*
X178410660Y-93609400D01*
X178703180Y-93609400D01*
X178990078Y-93552332D01*
X179260331Y-93440390D01*
X179503552Y-93277875D01*
X179710395Y-93071032D01*
X179826920Y-92896640D01*
X179943445Y-93071032D01*
X180150288Y-93277875D01*
X180393509Y-93440390D01*
X180663762Y-93552332D01*
X180950660Y-93609400D01*
X181243180Y-93609400D01*
X181530078Y-93552332D01*
X181800331Y-93440390D01*
X182043552Y-93277875D01*
X182250395Y-93071032D01*
X182366920Y-92896640D01*
X182483445Y-93071032D01*
G37*
G04 #@! TD.AperFunction*
M02*
